<?xml version="1.0" encoding="UTF-8"?>
<svg xmlns="http://www.w3.org/2000/svg" viewBox="0 0 564 651" width="564" height="651">
  <title>FGHG 9.8 traced logo</title>
  <desc>Vector trace from the approved 9.8 PNG concept. Colors: graphite #1C1C1E, sand gold #B9935A.</desc>
  <g fill-rule="evenodd">
    <path fill="#1C1C1E" d="M 144.0 68.0 L 121.0 86.0 L 100.0 106.0 L 82.0 127.0 L 64.0 153.0 L 47.0 185.0 L 38.0 207.0 L 30.0 232.0 L 23.0 264.0 L 20.0 293.0 L 20.0 324.0 L 23.0 355.0 L 28.0 382.0 L 40.0 422.0 L 51.0 448.0 L 65.0 474.0 L 81.0 498.0 L 97.0 518.0 L 121.0 543.0 L 150.0 567.0 L 176.0 584.0 L 214.0 603.0 L 245.0 614.0 L 267.0 619.0 L 283.0 618.0 L 293.0 613.0 L 300.0 606.0 L 305.0 594.0 L 305.0 432.0 L 307.0 424.0 L 311.0 417.0 L 318.0 411.0 L 329.0 407.0 L 487.0 408.0 L 496.0 412.0 L 503.0 418.0 L 509.0 428.0 L 511.0 435.0 L 511.0 600.0 L 513.0 605.0 L 520.0 611.0 L 531.0 612.0 L 537.0 609.0 L 540.0 606.0 L 543.0 598.0 L 542.0 427.0 L 538.0 413.0 L 534.0 405.0 L 518.0 387.0 L 502.0 378.0 L 487.0 374.0 L 325.0 374.0 L 319.0 372.0 L 309.0 363.0 L 305.0 352.0 L 304.0 285.0 L 299.0 275.0 L 291.0 267.0 L 281.0 262.0 L 80.0 261.0 L 71.0 257.0 L 65.0 247.0 L 65.0 239.0 L 70.0 223.0 L 88.0 183.0 L 103.0 159.0 L 124.0 133.0 L 147.0 111.0 L 178.0 89.0 L 208.0 74.0 L 233.0 65.0 L 273.0 57.0 L 313.0 56.0 L 348.0 61.0 L 390.0 75.0 L 423.0 93.0 L 448.0 112.0 L 477.0 142.0 L 490.0 160.0 L 504.0 186.0 L 513.0 191.0 L 522.0 191.0 L 527.0 189.0 L 533.0 183.0 L 535.0 179.0 L 535.0 168.0 L 525.0 149.0 L 510.0 126.0 L 478.0 90.0 L 458.0 73.0 L 431.0 55.0 L 408.0 43.0 L 388.0 35.0 L 369.0 29.0 L 336.0 22.0 L 318.0 20.0 L 280.0 20.0 L 239.0 26.0 L 220.0 31.0 L 193.0 41.0 L 172.0 51.0 Z M 64.0 298.0 L 72.0 294.0 L 259.0 294.0 L 269.0 301.0 L 272.0 307.0 L 272.0 569.0 L 265.0 578.0 L 260.0 580.0 L 253.0 580.0 L 221.0 567.0 L 190.0 550.0 L 167.0 534.0 L 147.0 517.0 L 123.0 492.0 L 109.0 474.0 L 91.0 446.0 L 80.0 424.0 L 65.0 383.0 L 59.0 355.0 L 56.0 326.0 L 57.0 308.0 Z"/>
    <path fill="#B9935A" d="M 395.0 542.0 L 395.0 546.0 L 398.0 553.0 L 404.0 557.0 L 480.0 557.0 L 485.0 554.0 L 488.0 549.0 L 488.0 539.0 L 486.0 535.0 L 477.0 530.0 L 408.0 530.0 L 400.0 533.0 Z M 405.0 454.0 L 388.0 458.0 L 373.0 465.0 L 357.0 477.0 L 348.0 487.0 L 341.0 497.0 L 333.0 515.0 L 329.0 536.0 L 329.0 550.0 L 331.0 563.0 L 339.0 584.0 L 349.0 599.0 L 360.0 610.0 L 371.0 618.0 L 391.0 627.0 L 406.0 630.0 L 426.0 630.0 L 449.0 624.0 L 470.0 612.0 L 478.0 605.0 L 487.0 593.0 L 487.0 585.0 L 485.0 581.0 L 478.0 576.0 L 468.0 576.0 L 447.0 594.0 L 437.0 599.0 L 425.0 602.0 L 408.0 602.0 L 394.0 598.0 L 380.0 590.0 L 370.0 580.0 L 362.0 568.0 L 357.0 551.0 L 357.0 534.0 L 361.0 520.0 L 369.0 506.0 L 381.0 494.0 L 393.0 487.0 L 406.0 483.0 L 427.0 483.0 L 437.0 486.0 L 450.0 493.0 L 466.0 510.0 L 471.0 512.0 L 479.0 511.0 L 486.0 505.0 L 487.0 493.0 L 482.0 485.0 L 470.0 473.0 L 449.0 460.0 L 427.0 454.0 Z"/>
  </g>
</svg>
