<?xml version="1.0" encoding="UTF-8"?>
<svg xmlns="http://www.w3.org/2000/svg" width="1254" height="1254" viewBox="0 0 1254 1254" version="1.1">
  <title>融合形成 G logo - vector traced from PNG</title>
  <defs>
    <linearGradient id="goldGradient" x1="620" y1="650" x2="820" y2="820" gradientUnits="userSpaceOnUse">
      <stop offset="0" stop-color="#D6A05A"/>
      <stop offset="1" stop-color="#C7893E"/>
    </linearGradient>
  </defs>
  <rect width="100%" height="100%" fill="#fdf8f5"/>
  <path d="M 590.00 822.50 L 581.00 822.50 L 580.00 821.50 L 575.00 821.50 L 574.00 820.50 L 570.00 820.50 L 569.00 819.50 L 566.00 819.50 L 565.00 818.50 L 562.00 818.50 L 558.00 816.50 L 555.00 816.50 L 554.00 815.50 L 552.00 815.50 L 549.00 813.50 L 544.00 812.50 L 543.00 811.50 L 541.00 811.50 L 531.00 806.50 L 529.00 806.50 L 499.00 791.50 L 494.00 787.50 L 486.00 783.50 L 484.00 781.50 L 483.00 781.50 L 478.00 777.50 L 474.00 775.50 L 471.00 772.50 L 470.00 772.50 L 467.00 769.50 L 466.00 769.50 L 463.00 766.50 L 462.00 766.50 L 458.00 762.50 L 457.00 762.50 L 451.00 756.50 L 450.00 756.50 L 427.50 735.00 L 427.50 734.00 L 418.50 725.00 L 418.50 724.00 L 409.50 714.00 L 409.50 713.00 L 400.50 702.00 L 400.50 701.00 L 394.50 693.00 L 394.50 692.00 L 392.50 690.00 L 391.50 687.00 L 389.50 685.00 L 386.50 679.00 L 384.50 677.00 L 381.50 670.00 L 379.50 668.00 L 373.50 656.00 L 373.50 654.00 L 369.50 647.00 L 369.50 645.00 L 366.50 640.00 L 366.50 638.00 L 364.50 635.00 L 364.50 633.00 L 363.50 632.00 L 363.50 630.00 L 361.50 626.00 L 361.50 624.00 L 359.50 621.00 L 359.50 619.00 L 358.50 618.00 L 358.50 616.00 L 356.50 612.00 L 356.50 609.00 L 354.50 605.00 L 354.50 602.00 L 352.50 598.00 L 352.50 594.00 L 351.50 593.00 L 350.50 586.00 L 349.50 585.00 L 349.50 581.00 L 348.50 580.00 L 348.50 575.00 L 347.50 574.00 L 347.50 569.00 L 346.50 568.00 L 346.50 562.00 L 345.50 561.00 L 345.50 554.00 L 344.50 553.00 L 344.50 544.00 L 343.50 543.00 L 343.50 496.00 L 344.50 495.00 L 344.50 486.00 L 345.50 485.00 L 345.50 479.00 L 346.50 478.00 L 346.50 473.00 L 347.50 472.00 L 347.50 467.00 L 348.50 466.00 L 348.50 462.00 L 349.50 461.00 L 349.50 456.00 L 350.50 455.00 L 350.50 452.00 L 351.50 451.00 L 351.50 448.00 L 352.50 447.00 L 352.50 444.00 L 353.50 443.00 L 353.50 440.00 L 355.50 436.00 L 355.50 433.00 L 356.50 432.00 L 356.50 430.00 L 357.50 429.00 L 357.50 427.00 L 358.50 426.00 L 358.50 424.00 L 359.50 423.00 L 360.50 418.00 L 362.50 415.00 L 363.50 410.00 L 368.50 400.00 L 368.50 398.00 L 372.50 391.00 L 372.50 389.00 L 376.50 381.00 L 378.50 379.00 L 382.50 370.00 L 384.50 368.00 L 388.50 360.00 L 390.50 358.00 L 392.50 354.00 L 398.50 346.00 L 398.50 345.00 L 401.50 342.00 L 401.50 341.00 L 404.50 338.00 L 404.50 337.00 L 408.50 333.00 L 408.50 332.00 L 413.50 327.00 L 413.50 326.00 L 432.00 306.50 L 433.00 306.50 L 443.00 296.50 L 444.00 296.50 L 449.00 291.50 L 450.00 291.50 L 453.00 288.50 L 454.00 288.50 L 457.00 285.50 L 458.00 285.50 L 461.00 282.50 L 465.00 280.50 L 471.00 275.50 L 474.00 274.50 L 479.00 270.50 L 482.00 269.50 L 484.00 267.50 L 493.00 263.50 L 495.00 261.50 L 503.00 257.50 L 505.00 257.50 L 514.00 252.50 L 516.00 252.50 L 519.00 250.50 L 521.00 250.50 L 524.00 248.50 L 529.00 247.50 L 533.00 245.50 L 535.00 245.50 L 539.00 243.50 L 544.00 242.50 L 545.00 241.50 L 548.00 241.50 L 549.00 240.50 L 552.00 240.50 L 553.00 239.50 L 556.00 239.50 L 557.00 238.50 L 560.00 238.50 L 561.00 237.50 L 570.00 236.50 L 571.00 235.50 L 577.00 235.50 L 578.00 234.50 L 585.00 234.50 L 586.00 233.50 L 597.00 233.50 L 598.00 232.50 L 630.00 232.50 L 631.00 233.50 L 642.00 233.50 L 643.00 234.50 L 650.00 234.50 L 651.00 235.50 L 656.00 235.50 L 657.00 236.50 L 661.00 236.50 L 662.00 237.50 L 666.00 237.50 L 667.00 238.50 L 670.00 238.50 L 671.00 239.50 L 674.00 239.50 L 675.00 240.50 L 682.00 241.50 L 686.00 243.50 L 689.00 243.50 L 692.00 245.50 L 694.00 245.50 L 698.00 247.50 L 703.00 248.50 L 713.00 253.50 L 715.00 253.50 L 737.00 264.50 L 739.00 266.50 L 747.00 270.50 L 749.00 272.50 L 753.00 274.50 L 758.00 278.50 L 759.00 278.50 L 761.00 280.50 L 762.00 280.50 L 773.00 289.50 L 774.00 289.50 L 780.00 295.50 L 781.00 295.50 L 804.50 319.00 L 804.50 320.00 L 810.50 326.00 L 810.50 327.00 L 817.50 335.00 L 817.50 336.00 L 820.50 339.00 L 820.50 340.00 L 828.50 351.00 L 832.50 359.00 L 834.50 361.00 L 837.50 368.00 L 839.50 370.00 L 842.50 376.00 L 842.50 378.00 L 843.50 379.00 L 843.50 383.00 L 844.50 385.00 L 843.50 386.00 L 843.50 391.00 L 841.50 395.00 L 836.00 400.50 L 832.00 402.50 L 829.00 402.50 L 828.00 403.50 L 823.00 403.50 L 822.00 402.50 L 819.00 402.50 L 815.00 400.50 L 809.50 395.00 L 802.50 380.00 L 800.50 378.00 L 799.50 375.00 L 797.50 373.00 L 796.50 370.00 L 790.50 362.00 L 790.50 361.00 L 787.50 358.00 L 787.50 357.00 L 784.50 354.00 L 784.50 353.00 L 780.50 349.00 L 780.50 348.00 L 774.50 342.00 L 774.50 341.00 L 759.00 325.50 L 758.00 325.50 L 752.00 319.50 L 751.00 319.50 L 743.00 312.50 L 739.00 310.50 L 736.00 307.50 L 732.00 305.50 L 730.00 303.50 L 727.00 302.50 L 725.00 300.50 L 722.00 299.50 L 720.00 297.50 L 711.00 293.50 L 709.00 291.50 L 705.00 289.50 L 703.00 289.50 L 696.00 285.50 L 694.00 285.50 L 691.00 283.50 L 686.00 282.50 L 683.00 280.50 L 678.00 279.50 L 674.00 277.50 L 667.00 276.50 L 663.00 274.50 L 659.00 274.50 L 658.00 273.50 L 655.00 273.50 L 654.00 272.50 L 649.00 272.50 L 648.00 271.50 L 643.00 271.50 L 642.00 270.50 L 635.00 270.50 L 634.00 269.50 L 619.00 269.50 L 618.00 268.50 L 611.00 268.50 L 610.00 269.50 L 593.00 269.50 L 592.00 270.50 L 585.00 270.50 L 584.00 271.50 L 578.00 271.50 L 577.00 272.50 L 573.00 272.50 L 572.00 273.50 L 563.00 274.50 L 562.00 275.50 L 559.00 275.50 L 555.00 277.50 L 552.00 277.50 L 551.00 278.50 L 549.00 278.50 L 548.00 279.50 L 545.00 279.50 L 542.00 281.50 L 540.00 281.50 L 539.00 282.50 L 534.00 283.50 L 524.00 288.50 L 522.00 288.50 L 506.00 296.50 L 504.00 298.50 L 499.00 300.50 L 497.00 302.50 L 491.00 305.50 L 489.00 307.50 L 485.00 309.50 L 482.00 312.50 L 478.00 314.50 L 474.00 318.50 L 473.00 318.50 L 469.00 322.50 L 468.00 322.50 L 462.00 328.50 L 461.00 328.50 L 447.50 342.00 L 447.50 343.00 L 440.50 350.00 L 440.50 351.00 L 435.50 356.00 L 435.50 357.00 L 426.50 368.00 L 426.50 369.00 L 420.50 377.00 L 419.50 380.00 L 417.50 382.00 L 416.50 385.00 L 414.50 387.00 L 412.50 392.00 L 410.50 394.00 L 403.50 408.00 L 403.50 410.00 L 399.50 417.00 L 399.50 419.00 L 396.50 425.00 L 396.50 427.00 L 394.50 430.00 L 394.50 432.00 L 393.50 433.00 L 393.50 435.00 L 392.50 436.00 L 392.50 438.00 L 391.50 439.00 L 391.50 441.00 L 389.50 445.00 L 389.50 448.00 L 387.50 452.00 L 387.50 456.00 L 386.50 457.00 L 386.50 460.00 L 387.50 461.00 L 387.50 465.00 L 389.50 469.00 L 392.00 471.50 L 393.00 471.50 L 397.00 474.50 L 400.00 474.50 L 401.00 475.50 L 590.00 475.50 L 591.00 476.50 L 594.00 476.50 L 604.00 481.50 L 613.50 491.00 L 617.50 499.00 L 617.50 501.00 L 618.50 502.00 L 618.50 505.00 L 619.50 506.00 L 619.50 564.00 L 620.50 565.00 L 620.50 568.00 L 622.50 572.00 L 624.50 574.00 L 624.50 575.00 L 631.00 580.50 L 633.00 581.50 L 635.00 581.50 L 636.00 582.50 L 639.00 582.50 L 640.00 583.50 L 802.00 583.50 L 803.00 584.50 L 807.00 584.50 L 808.00 585.50 L 813.00 586.50 L 823.00 591.50 L 825.00 593.50 L 826.00 593.50 L 829.00 596.50 L 831.00 597.50 L 839.50 606.00 L 839.50 607.00 L 842.50 610.00 L 849.50 624.00 L 849.50 626.00 L 850.50 627.00 L 850.50 630.00 L 851.50 631.00 L 851.50 635.00 L 852.50 636.00 L 852.50 806.00 L 851.50 807.00 L 851.50 809.00 L 850.50 811.00 L 845.00 816.50 L 843.00 817.50 L 841.00 817.50 L 840.00 818.50 L 832.00 818.50 L 828.00 816.50 L 822.50 811.00 L 820.50 807.00 L 820.50 803.00 L 819.50 802.00 L 820.50 801.00 L 820.50 645.00 L 819.50 644.00 L 819.50 639.00 L 818.50 638.00 L 818.50 636.00 L 815.50 630.00 L 810.00 623.50 L 809.00 623.50 L 806.00 620.50 L 802.00 618.50 L 800.00 618.50 L 799.00 617.50 L 795.00 617.50 L 794.00 616.50 L 641.00 616.50 L 640.00 617.50 L 636.00 617.50 L 630.00 620.50 L 623.50 627.00 L 620.50 633.00 L 620.50 635.00 L 619.50 636.00 L 619.50 794.00 L 618.50 795.00 L 618.50 798.00 L 617.50 799.00 L 617.50 801.00 L 614.50 807.00 L 612.50 809.00 L 612.50 810.00 L 607.00 815.50 L 606.00 815.50 L 604.00 817.50 L 598.00 820.50 L 596.00 820.50 L 595.00 821.50 L 591.00 821.50 L 590.00 822.50 Z
M 574.50 783.00 L 581.00 780.50 L 585.50 775.00 L 585.50 773.00 L 586.50 772.00 L 586.50 757.00 L 587.50 756.00 L 586.50 755.00 L 586.50 520.00 L 584.50 516.00 L 580.00 511.50 L 576.00 509.50 L 393.00 509.50 L 392.00 510.50 L 390.00 510.50 L 386.00 512.50 L 382.50 516.00 L 380.50 520.00 L 380.50 522.00 L 379.50 523.00 L 379.50 545.00 L 380.50 546.00 L 380.50 555.00 L 381.50 556.00 L 381.50 562.00 L 382.50 563.00 L 382.50 568.00 L 383.50 569.00 L 383.50 574.00 L 384.50 575.00 L 384.50 578.00 L 385.50 579.00 L 385.50 583.00 L 386.50 584.00 L 386.50 587.00 L 387.50 588.00 L 387.50 591.00 L 388.50 592.00 L 388.50 595.00 L 390.50 599.00 L 390.50 602.00 L 391.50 603.00 L 391.50 605.00 L 393.50 609.00 L 394.50 614.00 L 396.50 617.00 L 396.50 619.00 L 398.50 622.00 L 398.50 624.00 L 400.50 627.00 L 400.50 629.00 L 404.50 636.00 L 404.50 638.00 L 411.50 652.00 L 413.50 654.00 L 415.50 659.00 L 417.50 661.00 L 418.50 664.00 L 420.50 666.00 L 421.50 669.00 L 425.50 674.00 L 425.50 675.00 L 429.50 680.00 L 429.50 681.00 L 432.50 684.00 L 432.50 685.00 L 438.50 692.00 L 438.50 693.00 L 442.50 697.00 L 442.50 698.00 L 448.50 704.00 L 448.50 705.00 L 470.00 726.50 L 471.00 726.50 L 483.00 737.50 L 484.00 737.50 L 487.00 740.50 L 488.00 740.50 L 495.00 746.50 L 499.00 748.50 L 501.00 750.50 L 502.00 750.50 L 507.00 754.50 L 510.00 755.50 L 512.00 757.50 L 515.00 758.50 L 517.00 760.50 L 520.00 761.50 L 522.00 763.50 L 544.00 774.50 L 546.00 774.50 L 551.00 777.50 L 553.00 777.50 L 556.00 779.50 L 558.00 779.50 L 559.00 780.50 L 564.00 781.50 L 568.00 783.50 L 574.00 783.50 L 574.50 783.00 Z
M 473.00 1018.50 L 470.00 1018.50 L 468.00 1015.50 L 464.00 1015.50 L 463.00 1016.50 L 459.00 1016.50 L 458.00 1017.50 L 454.00 1017.50 L 453.00 1018.50 L 450.50 1018.00 L 450.50 1013.00 L 451.00 1012.50 L 457.00 1012.50 L 459.50 1010.00 L 459.50 1004.00 L 458.50 1003.00 L 459.50 1002.00 L 458.00 1000.50 L 454.00 1000.50 L 453.00 1001.50 L 451.50 1000.00 L 451.50 991.00 L 450.50 990.00 L 450.50 978.00 L 451.00 977.50 L 458.00 977.50 L 459.50 976.00 L 459.50 969.00 L 460.00 968.50 L 463.00 968.50 L 464.50 970.00 L 464.50 977.00 L 465.00 977.50 L 471.00 977.50 L 471.50 978.00 L 471.50 997.00 L 472.50 998.00 L 472.50 1000.00 L 464.50 1001.00 L 464.50 1010.00 L 465.00 1010.50 L 467.50 1010.00 L 466.50 1008.00 L 466.50 1004.00 L 470.00 1002.50 L 470.50 1005.00 L 471.50 1006.00 L 471.50 1009.00 L 472.50 1010.00 L 472.50 1013.00 L 473.50 1014.00 L 473.00 1018.50 Z
M 560.00 992.50 L 558.00 990.50 L 557.00 990.50 L 553.00 987.50 L 552.00 990.50 L 524.00 990.50 L 523.00 987.50 L 521.00 989.50 L 516.00 991.50 L 513.50 989.00 L 513.50 987.00 L 515.00 985.50 L 521.00 982.50 L 524.00 979.50 L 525.00 979.50 L 536.00 968.50 L 540.00 968.50 L 551.00 979.50 L 555.00 981.50 L 560.00 985.50 L 563.50 987.00 L 563.50 988.00 L 560.00 992.50 Z
M 634.00 984.50 L 630.50 981.00 L 630.50 980.00 L 632.00 978.50 L 638.00 975.50 L 640.00 973.50 L 641.00 973.50 L 646.00 968.50 L 648.50 971.00 L 648.50 973.00 L 642.00 979.50 L 636.00 982.50 L 634.00 984.50 Z
M 713.00 1019.50 L 709.50 1015.00 L 711.00 1013.50 L 713.00 1013.50 L 715.00 1011.50 L 716.00 1011.50 L 722.50 1005.00 L 722.50 1003.00 L 720.50 999.00 L 720.50 996.00 L 719.50 995.00 L 719.50 990.00 L 718.50 989.00 L 718.50 983.00 L 717.00 981.50 L 702.00 981.50 L 701.50 982.00 L 701.50 989.00 L 702.00 989.50 L 714.00 989.50 L 714.50 990.00 L 714.50 1004.00 L 713.50 1005.00 L 713.50 1008.00 L 712.50 1010.00 L 711.00 1011.50 L 708.00 1011.50 L 707.00 1012.50 L 702.50 1012.00 L 701.50 1010.00 L 701.50 1007.00 L 705.00 1006.50 L 706.00 1007.50 L 708.50 1006.00 L 708.50 1002.00 L 709.50 1001.00 L 709.50 995.00 L 709.00 994.50 L 702.00 994.50 L 700.50 996.00 L 701.50 997.00 L 700.50 998.00 L 700.50 1006.00 L 699.50 1007.00 L 699.50 1010.00 L 697.50 1013.00 L 697.50 1015.00 L 695.50 1019.00 L 694.00 1019.50 L 690.50 1016.00 L 693.50 1010.00 L 693.50 1007.00 L 694.50 1006.00 L 694.50 1003.00 L 695.50 1002.00 L 695.50 977.00 L 696.00 976.50 L 717.00 976.50 L 718.00 968.50 L 723.00 968.50 L 723.50 969.00 L 723.50 976.00 L 724.00 976.50 L 730.00 976.50 L 730.50 975.00 L 726.50 971.00 L 728.00 970.50 L 730.00 968.50 L 735.50 974.00 L 734.50 976.00 L 735.00 976.50 L 739.50 977.00 L 739.50 981.00 L 739.00 981.50 L 725.00 981.50 L 723.50 983.00 L 724.50 984.00 L 724.50 992.00 L 725.50 993.00 L 725.50 997.00 L 727.00 998.50 L 727.50 998.00 L 729.50 994.00 L 729.50 992.00 L 731.50 989.00 L 731.50 987.00 L 733.00 985.50 L 737.00 987.50 L 737.50 988.00 L 736.50 989.00 L 735.50 994.00 L 731.50 1002.00 L 728.50 1006.00 L 734.00 1012.50 L 735.50 1011.00 L 735.50 1006.00 L 737.00 1004.50 L 740.50 1007.00 L 740.50 1012.00 L 739.50 1013.00 L 739.50 1015.00 L 736.00 1018.50 L 733.00 1018.50 L 731.00 1017.50 L 727.50 1014.00 L 725.00 1010.50 L 721.00 1014.50 L 720.00 1014.50 L 717.00 1017.50 L 713.00 1019.50 Z
M 449.00 975.50 L 448.00 974.50 L 447.00 975.50 L 426.00 975.50 L 424.50 974.00 L 424.50 971.00 L 425.00 970.50 L 433.00 970.50 L 434.00 969.50 L 444.00 969.50 L 445.00 970.50 L 450.00 970.50 L 450.50 974.00 L 449.00 975.50 Z
M 625.00 1019.50 L 620.50 1019.00 L 620.50 996.00 L 620.00 995.50 L 615.00 995.50 L 614.50 996.00 L 613.50 998.00 L 613.50 1004.00 L 612.50 1005.00 L 612.50 1007.00 L 611.50 1008.00 L 611.50 1010.00 L 610.50 1011.00 L 610.50 1013.00 L 608.50 1017.00 L 606.00 1019.50 L 602.50 1016.00 L 602.50 1015.00 L 604.50 1013.00 L 606.50 1009.00 L 606.50 1007.00 L 607.50 1006.00 L 607.50 1002.00 L 608.50 1001.00 L 608.50 996.00 L 602.50 995.00 L 602.50 990.00 L 608.50 989.00 L 608.50 976.00 L 603.50 975.00 L 604.00 970.50 L 630.00 970.50 L 630.50 971.00 L 630.00 975.50 L 625.50 976.00 L 625.50 989.00 L 630.50 990.00 L 630.50 995.00 L 625.50 996.00 L 625.50 1019.00 L 625.00 1019.50 Z
M 802.00 1016.50 L 800.00 1016.50 L 799.00 1015.50 L 794.00 1015.50 L 790.00 1013.50 L 783.50 1007.00 L 782.50 1005.00 L 782.50 1003.00 L 781.50 1002.00 L 781.50 998.00 L 780.50 997.00 L 780.50 993.00 L 781.50 992.00 L 781.50 987.00 L 782.50 986.00 L 782.50 984.00 L 784.50 980.00 L 789.00 975.50 L 793.00 973.50 L 795.00 973.50 L 796.00 972.50 L 806.00 972.50 L 807.00 973.50 L 809.00 973.50 L 813.00 975.50 L 816.50 979.00 L 818.50 983.00 L 818.00 986.50 L 812.00 986.50 L 811.50 984.00 L 807.00 979.50 L 805.00 979.50 L 804.00 978.50 L 798.00 978.50 L 797.00 979.50 L 795.00 979.50 L 789.50 985.00 L 789.50 987.00 L 788.50 988.00 L 788.50 1000.00 L 791.50 1006.00 L 793.00 1007.50 L 797.00 1009.50 L 806.00 1009.50 L 810.00 1007.50 L 811.50 1006.00 L 811.50 999.00 L 811.00 998.50 L 802.00 998.50 L 801.50 998.00 L 801.50 994.00 L 803.00 992.50 L 818.00 992.50 L 818.50 993.00 L 818.50 1009.00 L 815.00 1012.50 L 811.00 1014.50 L 809.00 1014.50 L 808.00 1015.50 L 803.00 1015.50 L 802.00 1016.50 Z
M 549.50 985.00 L 545.00 980.50 L 544.00 980.50 L 539.00 974.50 L 537.00 974.50 L 536.50 976.00 L 529.00 983.50 L 528.00 983.50 L 526.50 985.00 L 527.00 985.50 L 549.00 985.50 L 549.50 985.00 Z
M 620.50 989.00 L 620.50 976.00 L 620.00 975.50 L 615.00 975.50 L 614.50 976.00 L 614.50 989.00 L 615.00 989.50 L 620.00 989.50 L 620.50 989.00 Z
M 447.00 990.50 L 436.00 990.50 L 435.00 989.50 L 428.00 989.50 L 427.50 989.00 L 427.50 978.00 L 428.00 977.50 L 447.00 977.50 L 447.50 978.00 L 447.50 990.00 L 447.00 990.50 Z
M 442.50 985.00 L 442.00 981.50 L 433.00 981.50 L 432.50 982.00 L 433.00 985.50 L 442.00 985.50 L 442.50 985.00 Z
M 459.50 995.00 L 459.50 983.00 L 456.00 982.50 L 455.50 983.00 L 455.50 995.00 L 456.00 995.50 L 459.50 995.00 Z
M 467.50 995.00 L 467.50 983.00 L 465.00 982.50 L 464.50 983.00 L 464.50 995.00 L 465.00 995.50 L 467.50 995.00 Z
M 636.00 999.50 L 634.00 999.50 L 633.50 998.00 L 631.50 996.00 L 631.50 995.00 L 635.00 993.50 L 640.00 989.50 L 641.00 989.50 L 647.00 983.50 L 648.00 983.50 L 650.50 986.00 L 650.50 988.00 L 646.00 992.50 L 645.00 992.50 L 642.00 995.50 L 641.00 995.50 L 636.00 999.50 Z
M 444.00 1019.50 L 442.00 1019.50 L 440.50 1017.00 L 440.50 1015.00 L 443.00 1014.50 L 444.50 1013.00 L 444.50 998.00 L 444.00 997.50 L 431.00 997.50 L 430.50 998.00 L 430.50 1019.00 L 430.00 1019.50 L 425.50 1019.00 L 425.50 993.00 L 426.00 992.50 L 449.00 992.50 L 449.50 993.00 L 449.50 1016.00 L 447.00 1018.50 L 445.00 1018.50 L 444.00 1019.50 Z
M 555.00 1019.50 L 551.00 1019.50 L 550.00 1016.50 L 526.00 1016.50 L 525.00 1019.50 L 521.00 1019.50 L 520.50 1019.00 L 520.50 997.00 L 524.00 996.50 L 525.00 995.50 L 552.00 995.50 L 553.00 996.50 L 554.00 995.50 L 555.50 997.00 L 555.50 1019.00 L 555.00 1019.50 Z
M 439.00 1018.50 L 435.50 1018.00 L 435.50 1011.00 L 434.00 1009.50 L 431.50 1009.00 L 431.50 1006.00 L 433.50 1005.00 L 431.50 1001.00 L 432.00 998.50 L 434.00 998.50 L 435.50 1000.00 L 437.00 1004.50 L 438.50 1003.00 L 438.50 1001.00 L 440.00 998.50 L 443.50 999.00 L 443.50 1001.00 L 441.50 1004.00 L 441.50 1005.00 L 443.50 1006.00 L 443.50 1009.00 L 439.50 1010.00 L 439.50 1018.00 L 439.00 1018.50 Z
M 634.00 1018.50 L 632.00 1018.50 L 629.50 1016.00 L 629.50 1014.00 L 635.00 1011.50 L 638.00 1008.50 L 639.00 1008.50 L 649.00 998.50 L 652.50 1002.00 L 650.50 1004.00 L 650.50 1005.00 L 644.00 1011.50 L 643.00 1011.50 L 640.00 1014.50 L 639.00 1014.50 L 634.00 1018.50 Z
M 550.50 1011.00 L 550.50 1002.00 L 550.00 1001.50 L 526.00 1001.50 L 525.50 1002.00 L 525.50 1011.00 L 526.00 1011.50 L 550.00 1011.50 L 550.50 1011.00 Z" fill="#242424" fill-rule="evenodd"/>
  <path d="M 733.00 831.50 L 718.00 831.50 L 717.00 830.50 L 710.00 830.50 L 709.00 829.50 L 705.00 829.50 L 704.00 828.50 L 702.00 828.50 L 698.00 826.50 L 693.00 825.50 L 685.00 821.50 L 683.00 819.50 L 680.00 818.50 L 674.00 813.50 L 673.00 813.50 L 667.00 807.50 L 665.00 806.50 L 664.50 805.00 L 658.50 799.00 L 658.50 798.00 L 655.50 795.00 L 652.50 789.00 L 650.50 787.00 L 647.50 781.00 L 647.50 779.00 L 645.50 776.00 L 644.50 771.00 L 642.50 767.00 L 642.50 764.00 L 641.50 763.00 L 641.50 759.00 L 640.50 758.00 L 640.50 734.00 L 641.50 733.00 L 641.50 729.00 L 642.50 728.00 L 643.50 721.00 L 646.50 715.00 L 646.50 713.00 L 651.50 703.00 L 653.50 701.00 L 654.50 698.00 L 660.50 691.00 L 660.50 690.00 L 671.00 679.50 L 672.00 679.50 L 676.00 675.50 L 677.00 675.50 L 682.00 671.50 L 694.00 665.50 L 696.00 665.50 L 699.00 663.50 L 702.00 663.50 L 706.00 661.50 L 710.00 661.50 L 711.00 660.50 L 719.00 660.50 L 720.00 659.50 L 732.00 659.50 L 733.00 660.50 L 740.00 660.50 L 741.00 661.50 L 745.00 661.50 L 746.00 662.50 L 748.00 662.50 L 752.00 664.50 L 754.00 664.50 L 757.00 666.50 L 759.00 666.50 L 765.00 669.50 L 767.00 671.50 L 768.00 671.50 L 773.00 675.50 L 774.00 675.50 L 777.00 678.50 L 778.00 678.50 L 787.50 688.00 L 793.50 696.00 L 793.50 698.00 L 794.50 699.00 L 794.50 707.00 L 792.50 711.00 L 790.00 713.50 L 786.00 715.50 L 784.00 715.50 L 783.00 716.50 L 779.00 716.50 L 778.00 715.50 L 776.00 715.50 L 772.00 713.50 L 771.50 712.00 L 767.50 708.00 L 767.50 707.00 L 762.00 701.50 L 761.00 701.50 L 758.00 698.50 L 757.00 698.50 L 755.00 696.50 L 752.00 695.50 L 748.00 692.50 L 746.00 692.50 L 745.00 691.50 L 743.00 691.50 L 739.00 689.50 L 734.00 689.50 L 733.00 688.50 L 717.00 688.50 L 716.00 689.50 L 713.00 689.50 L 712.00 690.50 L 709.00 690.50 L 708.00 691.50 L 703.00 692.50 L 697.00 695.50 L 691.00 700.50 L 690.00 700.50 L 681.50 709.00 L 681.50 710.00 L 678.50 713.00 L 678.50 714.00 L 676.50 716.00 L 672.50 724.00 L 672.50 726.00 L 670.50 729.00 L 670.50 732.00 L 669.50 733.00 L 669.50 737.00 L 668.50 738.00 L 668.50 755.00 L 669.50 756.00 L 669.50 759.00 L 670.50 760.00 L 670.50 763.00 L 671.50 764.00 L 671.50 766.00 L 676.50 776.00 L 682.50 783.00 L 682.50 784.00 L 687.00 788.50 L 688.00 788.50 L 692.00 792.50 L 696.00 794.50 L 698.00 796.50 L 702.00 798.50 L 707.00 799.50 L 708.00 800.50 L 710.00 800.50 L 711.00 801.50 L 715.00 801.50 L 716.00 802.50 L 736.00 802.50 L 737.00 801.50 L 741.00 801.50 L 745.00 799.50 L 747.00 799.50 L 757.00 794.50 L 760.00 791.50 L 761.00 791.50 L 773.00 779.50 L 775.00 778.50 L 785.00 778.50 L 786.00 779.50 L 788.00 779.50 L 793.50 785.00 L 793.50 787.00 L 794.50 788.00 L 794.50 795.00 L 793.50 796.00 L 793.50 798.00 L 790.50 801.00 L 790.50 802.00 L 781.00 811.50 L 780.00 811.50 L 776.00 815.50 L 775.00 815.50 L 770.00 819.50 L 765.00 821.50 L 763.00 823.50 L 761.00 823.50 L 758.00 825.50 L 756.00 825.50 L 755.00 826.50 L 753.00 826.50 L 752.00 827.50 L 750.00 827.50 L 746.00 829.50 L 742.00 829.50 L 741.00 830.50 L 734.00 830.50 L 733.00 831.50 Z
M 785.00 760.50 L 716.00 760.50 L 715.00 759.50 L 712.00 759.50 L 710.00 758.50 L 706.50 755.00 L 705.50 753.00 L 705.50 751.00 L 704.50 750.00 L 704.50 744.00 L 705.50 743.00 L 705.50 741.00 L 706.50 739.00 L 710.00 735.50 L 712.00 734.50 L 714.00 734.50 L 715.00 733.50 L 786.00 733.50 L 787.00 734.50 L 789.00 734.50 L 794.50 740.00 L 794.50 742.00 L 795.50 743.00 L 795.50 751.00 L 793.50 755.00 L 790.00 758.50 L 788.00 759.50 L 786.00 759.50 L 785.00 760.50 Z" fill="url(#goldGradient)" fill-rule="evenodd"/>
</svg>
