<?xml version="1.0" encoding="UTF-8"?>
<svg xmlns="http://www.w3.org/2000/svg" version="1.1" viewBox="0 0 589.5 82.5">
  <!-- Generator: Adobe Illustrator 29.0.1, SVG Export Plug-In . SVG Version: 2.1.0 Build 192)  -->
  <defs>
    <style>
      .st0 {
        fill: #fff;
      }

      .st1 {
        fill: #004d53;
        stroke: #000;
        stroke-miterlimit: 10;
      }

      .st2 {
        display: none;
      }
    </style>
  </defs>
  <g id="_圖層_2" data-name="圖層_2" class="st2">
    <rect class="st1" width="587" height="82.5"/>
  </g>
  <g id="_圖層_1" data-name="圖層_1">
    <path class="st0" d="M36.3,33.3c1.5-.4,2.6.3,3.3,2.1.7,1.5,1.5,1.8,2.5,1.1.4-.3.6,0,.4.7,0,1.2,0,2.3,0,3.5-.1,1.6-.9,2.2-2.3,2-1.2,0-2.3-.7-3.3-1.9-2-2.4-2.5-4.7-1.5-6.9.3-.3.5-.5.8-.6ZM49.7,35.2c1.4-1,2.9-1.1,4.6-.3,2.9,1,4.3,2.5,4.3,4.4,0,.9-.5,1.6-1.3,2-2.1.2-4.5-1-7.2-3.6-.9-1-1.1-1.8-.4-2.6ZM31.1,43.4c.6-1.1,1.3-1,1.9.3,1.4,3,2.8,5.2,4.1,6.6.7.9,1.6,1.7,2.8,2.4,3.8,2,8.1,2.2,12.8.5.5-.5.3-1.3-.7-2.1l-1.6-2.2c-.5-.8-.2-.9.9-.1,1.5.8,3.3,1.1,5.3,1,1.5.2,2.1.9,1.6,2.1,0,.7,0,1.3.2,1.8.5.8.2,1.6-.7,2.6-1.3,1.2-3.5,2-6.6,2.5-3.5.5-7.1.1-10.8-1.1-2.2-.9-4.3-2.6-6.1-5.2-1.6-2.3-2.7-4.5-3.2-6.6-.3-.7-.2-1.5.3-2.4ZM26.1,45.4c.8-.2,1.2.2,1.2,1-.3,2.4-.4,5.8-.5,10-.1,1.5-.7,1.7-1.7.8-2.3-2.4-2.4-5.7-.3-10,.4-.9.8-1.5,1.2-1.8Z"/>
    <path class="st0" d="M94.9,30.4c1.2-.9,2.5-.8,4,.4,1.3,1.1,2.1,2.1,2.4,3.2.4.6.9.7,1.6.5,1.1-.2,2.2-.3,3.3-.4.9,0,1.8-.2,2.5-.6.8-.6,1.6-.5,2.5.2,2.3,2.1,2.1,3.8-.5,5.2-7.6,3.2-13.7,6.5-18.3,9.7-.5.6-.4,1.2.3,1.7,2,1.8,4.2,3,6.6,3.6,6.2,1.6,12.8,2.6,19.9,3.2.6,0,1.1.2,1.7.4,1,.3,1.3.6,1.1.8l-3.3.9c-.5.1-1.1.5-1.6,1-1.1,1-2.2,1.5-3.3,1.5-5,.5-9.8,0-14.3-1.7-2.6-1-5-2.6-7.4-4.9-1.6-1.9-3.6-2-5.9-.3-.8.4-1.5,0-2.3-1.1-.7-1.1-.3-2.2,1.1-3.2,1.3-.9,3-1.4,5-1.5.7.1,1.2,0,1.7-.3,3.2-2.8,6.5-5.4,10-7.9,1.8-1.4,3.4-2.9,5-4.5.6-.5.8-.9.5-1.4-.6-.1-1.2,0-1.8.2-1.6.6-3.2,1.3-4.8,2.2-.5.1-1,.6-1.4,1.3-.2.3-.4.4-.6.3-.5-.6-1.5-.4-2.8.5-1.7.9-3.3,1.8-5,2.8-1.7,1.1-3.1.7-4.3-1.1-.4-1,.1-1.7,1.7-2.1,2.6-1,4.8-1.8,6.6-2.4.7-.2,1.2-.4,1.5-.6.3-.6-.1-1.5-1.3-2.6-1.1-1-1.1-1.9-.1-2.9Z"/>
    <path class="st0" d="M175.2,29.2c1.2-.4,2,.3,2.4,2,0,1.6-.7,2.3-2.1,2-2.4-.4-4.5,0-6.4,1.2-.5.4-.7,1-.5,1.7,0,.9-.2,2.6-.6,5-.3,1.7.3,2.3,1.8,1.6l1.6-.5c.9-.3,1.3-.7,1.2-1.2.3-1.6,1.3-2.2,3-2,.3,0,.6.3,1,.7.5,1.2,1.3,1.6,2.5,1,1.5-.1,2.6.6,3.4,2,.3,1.7-.5,2.3-2.4,1.7-.4,0-.9-.1-1.4-.1-1.3-.2-1.9.2-2,1.3.2,3.3.3,6.7.3,10.1.2,2.7-.5,5.3-2.3,7.8-.5.9-1,.9-1.3,0-.6-1.5-.8-4.1-.7-7.8,0-4.8,0-8.1-.2-9.8-.1-.4-.6-.4-1.4,0-.8.3-1.5.5-2.2.5-.7-.2-1.2.1-1.5,1,.1,5-1.2,9.1-4,12.5-.8.9-1.1,1-1,0,1.8-9.2,2.5-17.1,2.2-23.7,0-.8,0-1.4.1-1.7.2-.8.8-1.1,1.8-1,1.1.5,1.9.5,2.5-.2,2-1.7,3.9-3.1,5.9-4.3ZM160.9,29.6c.9-.3,1.6.1,2.1,1.4.3.6.4,1.2.2,1.9,0,.4-.5.7-1.3.9-.8.2-1.7.1-2.6-.1-1.6-.1-3.1.2-4.7,1.1-.5.4-.7.9-.5,1.5,0,.5,0,1.4-.3,2.7,0,.8.4,1.1,1.1.9.9-.3,2-.4,3.3-.5,1.3,0,2.2,0,2.8-.3.8-.4,1.6,0,2.3,1,.4.6.5,1.4.1,2.5-.9,1.8-1.5,3.5-1.7,5,0,.7-.2,1.3-.5,1.6-1.8,1.4-4,2.3-6.6,2.7-.5,0-1-.1-1.5-.3-.2.1-.3.5-.4,1.2-.6,2.8-1.5,5-2.6,6.4l-1.6,2.1c-.7.7-1,.7-.8-.2l1.2-6.2c1.5-6.5,2.1-12.7,1.7-18.5,0-1.8.7-2.4,2-2,.6.2,1.2.1,1.7-.3,1.5-1.3,3.7-2.7,6.5-4.4ZM157.8,42.5c-1.1.2-2.2.6-3.2,1.1-.8.3-1.2.8-1.2,1.4-.1,1.2-.2,2.5-.1,3.8.1.3.4.5.9.5,1.5-.2,2.8-.8,3.7-2,.4-.7.8-1.8,1.3-3.3.4-1,0-1.5-1.4-1.4Z"/>
    <path class="st0" d="M226.4,30.4c1-.4,1.8.2,2.3,1.8.6,1.5.2,2.5-.9,3.2-2.5,1.2-4.8,2.7-6.8,4.4,0,.5.5.7,1.5.5,4.8-.8,9.8-1,15.2-.5.5.1,1-.2,1.6-.8.8-.8,1.9-.9,3.3,0,.4.2.8.7,1.3,1.5,1.3,2.2,1.8,4.7,1.6,7.4-.2,3.7-1,7.6-2.5,11.6-.3.8-.8,1.4-1.5,1.9-2.1.5-3.7.9-4.6,1.3-1.8,1.4-2.8,1-3-1.1,0-.3-.2-.7-.7-1.3-.7-.9-.6-1.2.4-1.1,1.1,0,2,0,2.5-.2,1.2-.6,2-1.6,2.4-2.9,1.1-3.8,1.5-8.1,1.3-12.9,0-1.6-.7-2.2-1.9-1.8-.3.2-1,.3-1.9.4-4.4.4-8.9,1.2-13.3,2.3-1.9.6-3.5.8-4.9.8-1.3-.4-2,.3-2,2-.4,5.1-.3,9,.4,11.8.2,1.1-.2,2.2-1.2,3.3-.3.4-.7.5-1,.4-.8-.4-1.4-1.4-1.9-2.9-.4-1.3-.7-2.9-.8-4.9-.2-4.2,0-7.8.5-10.5.2-1.3.6-2.4,1-3.3.5-.9,1.2-1.2,1.9-.7.9,1.1,1.8,1.4,2.9.9.7-.3,1.1-.8,1.2-1.4,1.5-2.7,3-4.9,4.4-6.6.8-1,1.8-1.8,2.9-2.5ZM229.2,46.2c1.1,0,1.9,0,2.5.3,3.4,1.3,3.9,3.5,1.5,6.5-.3.6-.2,1.1.3,1.7.5.6.6,1.1.3,1.7-.5,1.1-1.3,1.4-2.2.9-1.8-.3-3.9-.2-6.1.5-.4,0-.7.3-.9.8-.4.9-1,.9-1.8,0-1.9-3.2-3.1-6.4-3.3-9.5,0-.6.2-1.2.4-1.6.5-.9,1.2-1,2.2-.5.6.4,1.5.5,2.8.2,1.2-.4,2.7-.7,4.3-.8ZM229.8,50.2c0-.8-.6-.9-1.8-.4-1.4.2-2.6.7-3.5,1.4-.2.3-.2.7,0,1.4,0,.7.2,1.2.5,1.5,2.3.3,3.9-1,4.9-3.9Z"/>
    <path class="st0" d="M291.2,41.4c2.6-.6,4.3.6,5,3.6.1,2.6-1.3,4.9-4.4,6.9-.9.6-1.4.5-1.4-.2l1.4-1.4c1-1.3.9-2.2-.2-2.8-3-1-3.7-2.8-2.1-5.2.5-.6,1.1-.9,1.6-.9Z"/>
    <path class="st0" d="M357,28.3c.9-.6,1.8-.4,2.7.8.2.3.2,1,0,1.9.3.5.8.4,1.5,0,1.5-.8,2.7-.8,3.6-.3.8.6.8,1.2.3,1.9-1.7,1.3-3.6,2.2-5.8,2.6-1.5,0-2.2.8-2,2.5-.4,1.2.2,2.2,1.8,2.9,2.4.5,4.7.2,7-1,1.1-.7,1.7-1.7,1.8-2.9.2-1,.3-1.3.5-.8.2.7.7,1.3,1.7,1.8,1,1.1,1,2.3,0,3.6-.2.3-.3.6-.3.8-.3.7-.8,1.1-1.4,1.3-3.8,1.6-7.3,1.9-10.4.9-1.1-.3-2.1-.9-3-1.8-.5-.6-.8-1.5-.9-2.9-.4-2.8-.2-5.4.8-7.9.4-1.4,1.1-2.4,2.1-3.2ZM340.5,29.9c.6-.9,1.5-1,2.6-.1.2.2.4.6.7,1.3.1,1.3.7,1.5,1.8.7,1.6-.7,2.7-.7,3.5,0,.5.7.2,1.4-1,2.1-1.1.5-2.2,1-3.2,1.4-1.1.2-1.6.9-1.3,2.2v2.5c.2.8.6,1,1.3.6,1.1-.7,2.2-1.3,3.4-1.8.8-.3,1.3-.3,1.4-.2-.2.5-.4.8-.8,1-2.3,2.9-4.4,5-6.1,6.3-1.9,1.7-3.5,1.5-4.8-.5-1.1-1.5-.8-2.3.8-2.5.4,0,.7-.3.9-.8,0-4.5.1-8.1.5-10.9.1-.6.3-1,.4-1.3ZM350.5,42.2c.4-.4.8-.5,1.2-.4,1,.6,1.5,1.3,1.5,2.2,0,.3-.3.6-.9,1-.6.2-1.1.5-1.7.8-.7.4-1.4.8-2.1,1.3-.2.3-.3.4-.3.6.1.1.6.2,1.5.2,1.1-.2,2.2-.3,3.3-.3.7.2,1.5-.2,2.4-1.2.7-.9,1.5-1.1,2.4-.6,2.2,1.8,3.3,3.9,3.5,6.3.6,4.4.6,7.4-.3,9.1-1,1.8-2.5,3-4.5,3.6-1,.6-1.5.4-1.6-.4,0-1.1-.6-1.7-1.8-1.8-1.4,0-2.7,0-3.9.3-.9,0-1.7.4-2.3,1.3-.7,1-1.4.7-2.1-.7-1.3-3.5-1.6-7.5-1-11.9,0-1.9.5-3.6,1.4-5,.3-.5.7-.6,1.2-.2.8.6,1.4.4,1.8-.6.8-1.5,1.4-2.7,2.1-3.4ZM353.2,49.3c-1.8.4-3.5,1.1-5,2-.7.4-.9,1.1-.8,1.9-.1.7.1,1.1.8,1.1,1-.5,2-1,3.1-1.4,1.2-.5,2.2-.4,3.2.3.4.5.2,1.1-.6,1.8-1.5.9-3.1,1.6-4.9,2-1.3,0-1.9.6-1.6,1.8,0,1.5.6,2.1,1.9,1.6,1.7-.3,3.5-.4,5.4-.4.4,0,.8-.2,1.1-.7v-8c.1-.7,0-1.1,0-1.3-.7-.8-1.5-1.1-2.6-.8Z"/>
    <path class="st0" d="M427.8,30c1.6-.2,2.6-.2,3.2,0,2.5,1.4,3.3,3,2.3,4.8-.2.3-.8.4-1.6.3-1.4,0-2.7-.2-4.1-.4-1.1-.3-1.6.2-1.5,1.5.6,10.7.6,18.3,0,22.8-.2,1.8-1,3-2.5,3.6-.6.4-1.1.9-1.6,1.5-1.8,1.5-3,1.3-3.8-.4-.4-1.1-1.1-1.9-2.1-2.4-.3,0-.5-.2-.7-.5,0-.1.5-.2,1.3-.1l1.7.2c.9.2,1.6-.3,2.3-1.4.3-.7.6-1.8.8-3.3.4-8.4.5-14.7.1-19.1,0-1.7-.6-2.4-2-2.1-1.9.3-4.1.8-6.6,1.7-2.5,1.1-4.7,1.8-6.6,2-.9.1-1.8,0-2.7-.5-2.3-1.2-2.8-2.6-1.4-4.2.6-.6,1.9-1.1,3.7-1.5,5-.9,12.2-1.7,21.6-2.5ZM413.8,41.9c.7-.4,1.4-.4,2.2-.2,1.3.9,1.6,2.3.8,4.3-.3.8-.4,1.4-.4,1.7.6,1.3.4,2.4-.8,3.2-1.7.8-3.3,1.7-5,2.6-.5.5-.8.8-.9.9-.5.8-1.1.9-1.7.4-.3-.2-.6-.6-1-1.1-1.8-2.9-2.7-5.7-2.8-8.3-.1-1.2.2-2.2,1-3.1.5-.3,1.1-.1,2,.4.4.3,1.2.4,2.4.1,1.4-.3,2.8-.6,4.1-1ZM413.3,44.4c-.8-.1-2.3.5-4.4,1.9-.7.7-.9,1.6-.5,2.5.3,2.1,1.5,2.4,3.5.9,1.2-1.3,1.8-2.7,1.6-4.2,0-.7-.2-1.1-.3-1.1Z"/>
    <path class="st0" d="M468.4,30.4c.7-.5,1.3-.4,2,.3.5.5.7,1.4.7,2.8-.2,1.4.3,1.9,1.5,1.4.6-.1,1.1,0,1.5.6.6,1.3,0,2.7-1.6,4.1-1,.6-1.4,1.4-1.3,2.7v1.3c0,.8.2,1.2.7,1.2.2,0,.6-.2,1-.6,1.6-1.9,2.1-2.1,1.5-.5-.4.9-1,1.9-1.8,2.9-1,1.1-1.4,2.2-1.3,3.1,0,3.4,0,6.8,0,10.1-.1,1.3-.9,2.3-2.2,3-.5,0-1.1.3-1.7.8-.6.7-1,.9-1.4.6-.2-.4-.4-1-.5-1.9,0-.3-.2-.6-.3-.8-.5-.9-.4-1.3.4-1.3,1,0,1.7-.6,2.1-1.5.5-1.7.6-3.5.3-5.4-.1-.1-.3-.2-.5-.2l-2,1.6c-.4.3-.9.5-1.7.6-.7,0-1.2-.2-1.5-.9-.4-1.1,0-2.2,1.4-3.2l3.3-2.5c.8-.6,1.2-1.4,1-2.4,0-.8,0-1.6,0-2.4-.2-.2-.4-.2-.8,0-.7.2-1.4,0-2.1-.4-1.3-.7-2.2-1.7-2.6-3-.2-.5,0-1,.8-1.5.6-.4,1.1-.6,1.7-.8,1.5-.4,2.4-1,2.9-1.6.1-1.8.1-3.2,0-4.4-.1-.6.1-1.2.7-1.8ZM488.2,30.6c1-.2,2.1.3,3.3,1.4.9,1.2.5,2.1-1.3,2.7l-1.6.5c-1.2.3-1.8.8-1.6,1.8.2,2.1.4,3.5.7,4.3.5.3,1,.2,1.5-.1.8-.5,1.6-.7,2.5-.4.5.2.7.7.7,1.5-.3,1.2-1.1,2.3-2.3,3.3-1.3.8-1.7,1.9-1.1,3.2.9,3.6,2.8,6.9,5.7,10,1.1,1.2,2.2,1,3.3-.6.8-.7,1-.5.8.3-.3,1.1-.4,2.2-.3,3.3.8,1.3.5,2-1.1,2s-.8,0-1.2.2c-.7.4-1.5.2-2.5-.6-2.6-1.9-4.4-4.1-5.5-6.6-1.1-2.3-2-4.5-2.5-6.6-.2-.9-.7-1.2-1.6-1-1.3.7-2.6.5-3.8-.5-.9-.6-.9-1.4,0-2.4.8-.7,1.9-1.4,3.3-2.2.5-.4.7-.9.6-1.6-.2-1.1-.4-2.2-.5-3.3,0-1.7-.8-2.1-2.7-1-.7,0-1,0-1.1,0-.3.1-.4.5-.5.9-.8,4.2-1,8.9-.9,14.3-.1,1.4.4,1.8,1.5,1.3,1.1-.4,2.2-.9,3.3-1.5.9-.4,1.4-.6,1.5-.6.2,0,.2.5.2,1.4,0,.6-.5,1.3-1.3,2-.6.4-.9.7-1,1,0,.4.3.6,1,.7,1,.2,1.8.7,2.4,1.4.5.6.6,1.3.3,2.3-.4.5-.9.7-1.6.5-1.8-.3-3-1.4-3.6-3.2,0-.4-.2-.7-.6-.7-1.7.9-3,1.8-4.1,2.8-1.4.6-2.5-.2-3.2-2.2,0-.5.4-.9,1.1-1.2,1-.7,1.3-1.5,1.1-2.4,0-3.2,0-6.3,0-9.5.2-3.7.8-7,1.8-10,.5-.9.8-1.3.9-1.3.9.3,2.1,0,3.5-1,1.1-.6,2.2-1.1,3.3-1.5,1.4-.6,2.5-1,3.2-1.2Z"/>
    <path class="st0" d="M547.1,28c1.2-.2,1.9.5,2.2,1.9-.1,1.1.3,1.5,1.3,1.2.9-.3,1.7-.4,2.5-.3,1.7.9,1.9,1.9.7,2.9-.4.2-.9.4-1.6.4l-1.7.3c-.6,0-1,.3-1.4.6-.3.6-.2,1,0,1.2.1.1.6.2,1.5.2,2.1-.2,4.2-.4,6.4-.8.7,0,1.2.3,1.6.8.5.8.7,1.3.5,1.7-.7.9-1.7,1.1-3,.7-.6-.2-1.4-.2-2.4-.2-.4,0-.7.2-.8.6,0,.3-.4.8-1,1.4-.1.2-.2.4-.3.6,0,.3.4.5,1.3.5s1.3.2,1.3.6c-.2.8-.7,1.3-1.4,1.4-1,.5-2.1.8-3.3,1.1-.8.4-1,.9-.5,1.5.8.1,1.7.1,2.8,0,1.2.1,1.3.7.5,1.7,0,0-.4.2-1,.5-.6.3-1.1.4-1.7.6-1,.2-1.4.7-1.2,1.3.3.4.8.5,1.4.3,1.1-.2,2.2-.3,3.3-.4,1.8,0,2.8.6,2.8,2-.2.8-.7,1.2-1.7,1.3-1.7.2-3.3.4-5,.6-.4,0-.7.3-.9.8,0,1.1-.1,2.3-.1,3.4-.3.9,0,1.3.8,1.4,5,0,9,.3,11.8,1.1,0,0-.3.3-1.2.7-1.4.5-2.4,1-2.9,1.6-.4.7-1.1,1.2-2,1.3-6.5,0-12.7-.8-18.5-2.6-1.7-.7-3.3-1.2-5-1.5-.5,0-1.1.1-1.7.3-.9.5-1.8.7-2.5.8-.3.1-.6,0-1-.3-1.3-1.9-.6-3.1,2-3.5.6-.2,1.1-.5,1.6-.9,1.2-1.4,1.6-2.5,1.3-3.3-1-1.2-1.4-2.8-1.3-4.7-.1-.4-.4-.5-.7-.4-.4.3-.9.6-1.4.9-.9,0-1.4-.4-1.8-1.4,0-.3.3-.6.8-.9,1.4-.6,2.8-1.2,4.1-1.9,1.4-.8,2.3-.5,2.7,1,0,.5,0,1.1-.4,1.7-.6,1-.9,1.9-.9,2.9,0,.5.3.8.8,1.1.4.1.8.3,1.1.5.6.9.3,1.9-.9,2.9-.7.4-1,.9-1,1.3.1.3.4.5.9.6,2.2.5,4.4,1,6.6,1.7,1.3.3,2.7.6,4.4.7.8.3,1.2,0,1.3-.8-.2-.6-.3-1.3-.3-1.9s0-1.1-.2-1.3c-.4-.4-.8-.4-1.3-.2-2,.4-3.5.3-4.6-.2-1.5-1.1-1.4-1.9.4-2.5,1.8-.3,3.6-.6,5.4-1,.8-.6.7-1.2,0-1.5-.5,0-1.1,0-1.9.1-1.3,0-2-.5-2-1.5.4-.6,1.4-1,3-1.1.6,0,1.2-.2,1.7-.6.1-1-.3-1.3-1.3-1-1.9.2-3.4.3-4.6.2-.5-.2-.7-.5-.8-1,0-.4.2-.7.8-.8l1.7-.5c.5,0,.8-.3.9-.6-.3-1.2-.6-1.9-.9-2.3-.4-.2-.8-.2-1.3.2-.7.2-1.3.4-2,.8-1.4.6-2.3,0-2.7-1.7,0-.5.3-.9,1-1.3.9-.4,2-.7,3.3-.9,1.1-.3,2.2-.5,3.3-.6.9,0,1.6-.2,2-.5.4-.3.5-.7.1-1.3-.4-.3-.9-.3-1.7-.1h-.8c-1.1.4-2,0-2.6-1.1-.2-.5-.3-.9-.2-1.1.2-.3.7-.5,1.7-.7l1.7-.3c.5,0,1.1-.2,1.8-.4.3-.3.6-.9.7-1.8.1-1,.5-1.6,1.2-2.1ZM527.7,34.3c1-.6,2.2-.4,3.6.8,1.6,1.3,2.1,2.8,1.3,4.3-.9.8-1.8.6-2.8-.4-.6-.7-1.1-1.1-1.7-1.4-1.1-.5-1.6-.8-1.7-1,0-1,.4-1.8,1.2-2.3ZM548.4,39.4l-2.5.4c-1,0-1.5.7-1.4,1.8-.2.8,0,1.3.8,1.4l1.5-.3c1.6-.2,2.4-1,2.4-2.6,0-.6-.4-.9-.9-.8Z"/>
  </g>
</svg>