<?xml version="1.0" encoding="UTF-8"?>
<svg xmlns="http://www.w3.org/2000/svg" version="1.1" viewBox="0 0 1366 424">
  <!-- Generator: Adobe Illustrator 29.0.1, SVG Export Plug-In . SVG Version: 2.1.0 Build 192)  -->
  <defs>
    <style>
      .st0 {
        fill: #004e5c;
        stroke: #000;
        stroke-miterlimit: 10;
      }

      .st1 {
        fill: #fff;
      }

      .st2 {
        display: none;
      }
    </style>
  </defs>
  <g id="_圖層_2" data-name="圖層_2" class="st2">
    <rect class="st0" y="-118" width="1366" height="768"/>
  </g>
  <g id="_圖層_1" data-name="圖層_1">
    <path class="st1" d="M120.9,44.8c5.6-2.8,10.9,0,15.9,8.7,2.7,3,6.7,3.7,12.2,2.3,13.3-2,26.5-3.4,39.8-4.2,6.6-.5,8.4,3,5.2,10.4-5.8,8.8-15.2,15-28.3,18.6-11.1,4-20.9,1.1-29.3-8.7-4.3-3-9.3-1.9-14.9,3.2-9.9,6.6-21.5,12.6-34.8,17.9-6.5,2-9.9,2.7-10.4,2.3.2-2.8,2.4-7.6,6.7-14.4,10.3-15.8,23-27.8,38-36ZM182.8,97.4c4.7-2.7,10.7-1.7,18.2,3,4.3,3.7,5.7,8.3,4.2,13.9-.2,7.1,0,14.6.5,22.4,1.2,3,4,4.1,8.5,3.2l19.9-2c5-.7,9.9.7,14.9,4.2,4.6,3.8,7,8.7,7,14.7-2,7.8-7.5,10.9-16.6,9.4-8.5-1-16.9-1.7-25.4-2.2-5.6-1.3-9,1-9.9,7,0,6.1-.7,12.9-2,20.4-2.5,5.1-.3,9.6,6.7,13.4,6.6,4.1,10.6,9.6,11.9,16.4,2,4.6-.3,7.7-6.7,9.2-5.8,1-11.9.7-18.1-1-4.1,1.2-6.9,4.1-8.2,8.7-5.8,13.8-13.8,21.6-24.1,23.6-8,.3-16.2,2.4-24.9,6.2-4.6,3.2-8.2,1.7-10.7-4.2-.2-5.1-1.6-9.2-4.2-12.2-3.3-4-2.2-5.2,3.2-3.7,6.1,1.7,11.9,1.7,17.4.3,7-3.8,12-9.9,15.2-18.1,2.3-4.8.3-7.3-6-7.5-16.6-.8-33.2,0-49.7,2.7-8.3.2-14.9,2.1-19.9,5.7-4.8,3-9.3,1-13.4-6-2.8-5.8-4.5-11.3-5.2-16.4.3-1,1.1-2.1,2.2-3.3,3-1.5,5.4-3.3,7.2-5.5l5.2-12.7c2.8-4,1.4-6.2-4.2-6.7-6.6,1-13.3,2.6-19.9,4.7-7.3,3.3-13.5.8-18.6-7.7-4.5-8.8-.3-15.5,12.4-20.1,8.1-2.5,21.3-4.6,39.5-6.2,4.5-.7,7.7-2.8,9.7-6.5,7.6-12.6,15.5-25.3,23.6-38,3-5.3,6.3-6.3,9.9-3,6.1,1.2,16.3,1,30.6-.5,7.6,0,14.3-1.9,19.9-5.7ZM175.8,109.1c-3.1-.8-7.9,0-14.2,2.7-8.8,1.3-9.9,5.7-3.2,13.2,1.3,3.3,2.3,6.6,3,10,.5,3.3,1.1,5.5,1.8,6.5,1.8,1.8,5.3,2.4,10.4,1.7,4.3-.5,6.4-3,6.2-7.4,1.3-10.3,0-19.1-4-26.6ZM137.8,135c-3.3-9.6-7.9-10.5-13.7-2.7-2.7,3.8-4.6,7.6-6,11.4.8,4,4.7,5,11.7,3,4.6.3,8.3-.6,10.9-2.8,1-2.7,0-5.6-3-8.9ZM166.6,168.3c-5.3.2-10.7.7-16.2,1.5-6.5,1.3-7.2,5.4-2.2,12.2,1.2,2.3,2,5.6,2.5,9.9.5,5.5,4.3,7.7,11.4,6.7,6.8,1.8,10.6-1.6,11.4-10.2.7-4,1.6-7.9,2.7-11.9,1.7-7.5-1.6-10.2-9.7-8.2ZM110.4,174.5c-6,.2-10.5,4.3-13.7,12.4-5.6,9.6-3.3,13.6,7,11.9l21.4-1c4.2-4.1,3.7-10.3-1.2-18.4-2.2-5.3-6.6-7-13.4-5Z"/>
    <path class="st1" d="M481.5,128c4.8-2.2,9.9-1.2,15.4,2.7,10.8,8.6,13.7,17.6,8.7,27.1-3.6,5.1-9.2,6.4-16.6,3.7-6.6-1.7-13.3-3.1-19.9-4.2-44.1-3.3-88.8,2.3-134.2,16.9-7.9,3.3-15.8,4.7-23.6,4.2-13.9-2-22.1-9.5-24.6-22.6,1-6.3,5.6-9.6,13.9-9.9,58.3-10.1,115.1-15.6,170.3-16.4l10.7-1.5Z"/>
    <path class="st1" d="M662.2,53.9c3.5-5,8-5,13.7,0,7.3,5.5,9.9,12.3,8,20.6,1.8,2.3,4.6,3.1,8.5,2.3,8-1.2,14.6-1.7,19.9-1.5,10.4,4,13.9,9.3,10.5,15.9-4.5,4.6-12.3,6.3-23.4,5l-9.9,1c-4,0-6.9.8-8.7,2.3-1.7,2.5-2.6,6.6-2.7,12.4-1.3,7.3,2.3,10.3,10.9,9,10.8-.8,21.9-1.4,33.3-1.8,8.6-1.7,16,.7,22.1,7,4.6,6,5,11.4,1,16.2-2.5,1.8-6,2.4-10.4,1.7-15.4-1.5-32.4-1.7-51-.5-3.2-.5-5.6.8-7.5,3.7.2,9,0,17.9-.5,26.9-.5,4.6-1.3,9.3-2.5,13.9-.8,4-1.2,6.3-1,7,.7.7,3.6-.3,8.7-3,11.3-8.8,21.6-18.9,31.1-30.3,8-7.6,14.3-7.5,18.9.3,4.8,8.3,3.1,17-5.2,26.1-37.5,31.7-70.6,53.7-99.4,66.1-16.7,7.6-32.4,12-47,13.2-5,0-5-2.9,0-8.7,5.6-4.6,12.3-8.9,19.9-12.7,16.3-8.8,29.5-16.6,39.8-23.4,3-1,5.4-3.3,7.2-7,1.3-7.8-2.3-14.6-10.9-20.4-6.1-4-6.5-5.8-1-5.5,11.3,3.1,17.2-2.6,17.9-17.2,1-7.1,1.3-14.5,1-22.1-1.8-3-4.7-4-8.5-3-15.6,2.8-28.8,6-39.8,9.5-12.8,5.6-22.5,5-29.3-2-6.8-8.4-4-15.8,8.5-22.1l20.9-3.5c2.3-2.3,2.7-5.3,1.2-8.9-4.3-11.6-4.6-23.2-1-34.8,2.7-7.8,6.6-9.2,11.9-4.2,5.5,3.8,8,9.3,7.5,16.4l.3,16.2c-1.2,7.6,1.4,11.7,7.7,12.2,5-.8,9.9-1.3,14.9-1.5,4.3.7,7.3-1.3,9-6,.2-15.1,0-30.2-.5-45.2-.3-5.5,1.7-11.9,6.2-19.4ZM593.1,172.3c3-2.8,6.6-1.9,10.9,2.8,2.5,4.5,5.7,5.7,9.7,3.7.8-.7,1.1.4.8,3.2.3,2.8,1.4,5.9,3.2,9.2,2.2,5.1.8,8-4.2,8.5-9.3-.3-16.5-5-21.6-13.9-2.6-4.5-2.2-8.9,1.3-13.4Z"/>
    <path class="st1" d="M958.8,60.4c4.6-1.7,9-1.2,13.2,1.3,6.1,3.3,10.6,9.4,13.4,18.1,9.1,30.2,12.9,69.3,11.4,117.3-.3,12.9-3,26.8-8,41.8-2.3,6.6-6,11-10.9,13.2-2.7.2-6,2.4-9.9,6.7-6.3,5.8-11.3,7.7-14.9,5.7-2.8-1.3-4.6-4-5.2-8,1.7-5.6-2.3-12.6-11.9-20.9,0-.7,2.5-.7,7.5,0l5.5,1.3c7.1.8,12.3-3.7,15.4-13.4,3.8-19.9,4.6-53.3,2.5-100.4-1.5-16.9-3.7-30.2-6.5-39.8-2.7-8.1-8.3-10.6-16.9-7.5-11.9,1.8-25.2,3-39.8,3.5-18.1,1.8-34.1,5.7-48,11.7-4.1,2.5-7,8-8.4,16.4-3.3,12.9-5,27.5-5,43.8-1,33.2,0,61.7,3.2,85.8,1,2.7,1,6,0,9.9-1.5,5-4.3,7.6-8.4,8-2.7-.8-5-3.3-7-7.5-5.6-12.9-8.2-27.5-7.7-43.8-.5-10.6-.8-21.5-.8-32.8-1-18.2.7-40.1,5.2-65.6,1.5-14.9,5.3-27.8,11.4-38.5,1.3-1.3,3.4-1.3,6.2,0,2.6,1.5,5.9,2,9.9,1.5,34.8-8.3,67.3-9.9,97.4-5,2.3.3,4.6-.6,7-2.8ZM919.5,100.4c7.8-1.7,14,1,18.6,8,3.3,8,1.1,14.3-6.7,18.9-12.3,5.6-25.5,9.3-39.8,10.9-7,1.3-13.2.7-18.6-2-11.8-8.8-11.3-16.8,1.5-24.1l45-11.7ZM901.6,154.4c9.9-3,19.6-3.6,29.1-2,11.9,2.3,17.2,8.4,15.9,18.1-1,6.5-3.9,14.3-8.7,23.4-.3,2,.7,4,3.2,6,4.5,7.1,2.6,11.9-5.5,14.4-10.1-3.2-22.4-2.6-37,1.7-4.8.5-8.2,3.1-10.2,7.7-1,3.5-3.3,3.7-7,.5-7.3-10.3-13.6-25.2-18.9-44.7-1.8-5.5-2-11.6-.5-18.4,2.2-7.3,6.3-8.6,12.4-4,4.6,1.7,13.7.7,27.1-2.8ZM922.5,169.3c-3-1.5-6.9-1.3-11.7.5-7,1.2-13.6,2.7-19.9,4.7-6.8,2.5-8.3,8.4-4.5,17.6-.3,3.3,1.3,6,5,8,14.7,1.5,24.9-5.6,30.6-21.4,1.5-3.2,1.7-6.3.5-9.5Z"/>
    <path class="st1" d="M1118.1,52c4.8-2.3,8.9.3,12.4,7.9,6.3,8.8-.7,20.6-20.9,35.3-10.4,9.6-18.5,17.9-24.1,24.9-2.8,3.3-5.9,6-9.2,8-4.6,2.7-8.3,4.4-10.9,5.2-.7-.3-1-3-1-8,4.6-26.5,22.5-50.9,53.7-73.3ZM1199.4,58.4c6.8-2.5,13.7-.3,20.6,6.7,6.3,9.1,3.7,16.3-7.7,21.6-16.2,7-29.5,9.3-39.8,7-9.1-3.3-12.5-8.9-10.2-16.9,1.7-4,3.8-6.7,6.5-8.2l30.6-10.2ZM1117.1,110.6c9.1-3.6,14.9.4,17.4,12.2,2,5.6-2.6,13.7-13.7,24.1-5.3,5.3-8.5,9.6-9.4,12.9-3,21.2-3.2,45.4-.8,72.6,2.5,8.8-.7,16.2-9.4,22.4-4,2.5-6.6.7-8-5.5-2.2-5.6-3.2-12.5-3.2-20.6l-.8-43.3c-2.3-2.3-5-1.3-8,3-6.1,8.1-11.8,12.7-17.1,13.7-5.1,2.3-7.7,1.2-7.7-3.5,4.6-30.3,24.9-59.7,60.6-88ZM1241.9,117.8c9.6-1.8,17,2.7,22.1,13.4,6,10.8,3.1,15.6-8.7,14.4-10.4,0-21,.6-31.6,1.7-4.3.8-6,3.4-5,7.7,3.8,33.2,4.7,59.8,2.5,79.8-.3,9.9-5.6,16.9-15.9,20.9-2.2.3-5.2,3-9.2,8.2-7.4,7-12.9,5.4-16.4-4.7.3-4.7-3.2-8.9-10.7-12.7-1.5-.8-2.6-1.7-3.2-2.5-.2-.7,2.2-.7,7.2,0,13.1,1,20.5-6.2,22.4-21.6,1.5-11.1,1.7-29.8.7-55.9.2-5.3-.6-8.9-2.2-10.9-.7-.5-3.5-.3-8.5.5-11.3,5.6-20.8,9.4-28.6,11.2-7.8,1-14.6-1.9-20.4-8.7-7.5-9.3-4.9-16.2,7.7-20.6,30.2-7.8,62.7-14.5,97.7-20.1Z"/>
    <path class="st1" d="M967.8,302.5c2.3-1.5,4.5-.9,6.5,1.9.5.8.5,2.3.2,4.5.8,1.1,2,1.1,3.7-.2,3.6-1.8,6.4-2,8.7-.6,1.8,1.4,2.1,3,.7,4.6-4.2,3.2-8.9,5.3-14.1,6.3-3.6,0-5.2,2-4.8,6.1-.9,2.9.6,5.3,4.3,6.9,5.8,1.3,11.5.4,17-2.5,2.6-1.7,4-4.1,4.2-7.1.5-2.5.8-3.1,1.1-1.9.4,1.7,1.8,3.1,4.1,4.2,2.4,2.6,2.4,5.5,0,8.7-.4.7-.7,1.4-.8,2-.7,1.7-1.9,2.7-3.4,3.1-9.2,3.8-17.6,4.6-25.2,2.2-2.7-.8-5.1-2.3-7.1-4.3-1.2-1.4-2-3.7-2.3-6.9-1-6.8-.4-13.2,1.8-19.1,1.1-3.3,2.8-5.9,5.2-7.9ZM927.8,306.5c1.5-2.3,3.6-2.4,6.3-.3.5.5,1,1.6,1.7,3.2.3,3.1,1.7,3.7,4.4,1.7,3.8-1.7,6.6-1.6,8.4.2,1.2,1.7.4,3.4-2.4,5-2.6,1.3-5.2,2.4-7.9,3.3-2.7.4-3.8,2.2-3.2,5.3v6c.4,1.9,1.5,2.4,3.2,1.4,2.6-1.7,5.3-3.1,8.2-4.3,2-.6,3.1-.8,3.3-.5-.5,1.1-1.1,1.9-1.8,2.3-5.6,7-10.6,12.1-14.9,15.3-4.6,4.2-8.5,3.8-11.7-1.2-2.6-3.6-2-5.6,1.9-6,.9,0,1.6-.6,2.2-1.9-.1-10.8.3-19.6,1.3-26.4.3-1.3.6-2.4,1-3.1ZM952,336.3c.9-.9,1.9-1.2,2.9-.9,2.5,1.4,3.7,3.2,3.5,5.4,0,.7-.8,1.5-2.1,2.3-1.3.5-2.7,1.2-4,1.9-1.7.9-3.4,1.9-5,3-.4.6-.6,1.1-.6,1.4.3.3,1.5.5,3.5.4,2.7-.4,5.4-.7,8.1-.8,1.7.5,3.7-.4,6-2.8,1.7-2.1,3.6-2.6,5.8-1.5,5.3,4.3,8.1,9.4,8.6,15.3,1.6,10.7,1.4,18-.6,22.1-2.5,4.5-6.1,7.4-11,8.8-2.3,1.4-3.6,1.1-3.8-1,0-2.6-1.4-4-4.3-4.4-3.4,0-6.6.2-9.5.7-2.3-.1-4.1.9-5.5,3.2-1.6,2.3-3.4,1.8-5.3-1.7-3.1-8.5-3.9-18.1-2.3-29,.1-4.7,1.3-8.7,3.3-12.1.7-1.3,1.6-1.4,2.8-.5,2,1.5,3.5,1,4.4-1.5,1.8-3.7,3.5-6.4,5.1-8.3ZM958.5,353.5c-4.4.9-8.5,2.6-12.1,4.9-1.7,1.1-2.3,2.6-1.8,4.5-.3,1.7.3,2.6,1.9,2.7,2.4-1.2,4.9-2.3,7.6-3.3,2.8-1.3,5.4-1.1,7.7.6,1,1.3.5,2.7-1.4,4.3-3.6,2.1-7.6,3.8-12,4.9-3.2,0-4.5,1.5-3.9,4.3,0,3.7,1.5,5,4.5,3.8,4.2-.7,8.6-1,13.2-.9,1.1,0,2-.5,2.8-1.6l.3-19.3c0-1.6-.1-2.7-.4-3.1-1.6-1.9-3.7-2.5-6.4-1.8Z"/>
    <path class="st1" d="M1042.4,303.2c2.2-1.8,4.2-1.5,6,.8.9,1.1,2.3,1.5,4,1.1l8.5-1.7c1.9-.2,4.9.1,9,1,1.2,0,2.7-.5,4.5-1.8,1,0,2.2.5,3.5,1.8,6.2,5,6.5,13.3.9,24.9-.9,2-2.1,4-3.3,6-1.2,1.5-3.2,2.3-6,2.4-4.6,0-9.1.3-13.6.9-1.7-.2-3.4.7-5,2.7-1.3,1.5-2.9,1-4.7-1.5-5.3-8.3-7.8-17.2-7.6-26.8.3-4.4,1.6-7.7,3.9-9.9ZM1069.6,308.6c-5.4,1.6-10.8,3-16.1,4.2-3.3.9-4.5,2.6-3.7,5,.7.7,1.9.9,3.6.6,4.8-.9,8.7-1.1,11.9-.4.8.5.8,1.6.2,3.5-.7,1.2-1.8,2.2-3.3,2.8-2.2.9-4.8,1.5-7.9,1.7-3.8-.2-4.6,1.5-2.2,5,1.4,1.1,3,1.3,4.7.6,2.7-.5,5.4-.8,8.1-1,1.5.2,2.7-.5,3.5-2.2,1.3-4.7,2.4-10.1,3.4-16.1.7-2.5,0-3.7-2.2-3.7ZM1069.5,343.6l14.3-1.6c4.4.3,6.9,2.6,7.5,6.8-.2.5-.7,1.1-1.5,1.7-.9.4-2.4.6-4.4.6-5.6.2-11.2.6-16.7,1.3-1.9.5-2.9,2.1-2.9,4.8s0,3.4.3,3.8c.7.9,1.8,1.1,3.3.5,4.4-1.5,8.2-1.2,11.6.9.8.5.8,1.4.1,2.5-1.6,2.6-4.2,3.8-7.7,3.5-1.3,0-2.7.1-4,.3-1.4,0-2.6.4-3.4,1.2-.9,2.2-1.1,4.6-.6,7.3.6,1.2,1.8,1.9,3.4,2.3,5.8,1.7,11.2,2.8,16.1,3.4,7.3,1.3,13.3,2.6,18.1,3.7,2.7,1.1,3,1.9.8,2.6l-2.3.6c-4.1-.3-7.8.4-11.1,2.2-1.1,1.1-3.2,1.6-6.4,1.4-12.8-.5-26.2-6-40.3-16.4-1.6-1.9-3.5-2-5.6-.3-3,2.8-6.3,6.6-9.8,11.4-1.6,1.5-2.4,2-2.4,1.4.2-1.3.8-2.9,1.9-4.9,2.9-6.6,5.5-12,7.9-16.1,2.7-4.4,5.3-7.4,7.8-8.8,1.6-.8,3.1.1,4.4,2.8.7,1.6.4,3.4-.9,5.3-.5,2.4.7,3.8,3.7,4.3,2.2,1,3.8,1.4,4.6,1.1.4-.4.7-1.6,1-3.6v-10.8c0-1.8,0-2.9-.2-3.1-.5-1.2-1.6-1.6-3.3-1.2-6.1,1.3-11.4,2.1-16.1,2.1-3.1-.6-4.7-2.4-4.8-5.3,0-2.5,1.9-3.8,5.4-3.8,5.4-.9,16.1-2.3,32.3-4Z"/>
    <path class="st1" d="M1184.4,307.2c3.7-3,6.9-3,9.5.2,1.5,1.4,2.2,2.8,1.9,4.2-4.8,7.9-7.8,15.9-8.8,23.9-.9,13.9-.6,25.2.9,33.8,2.2,5.5,6.1,7.9,11.8,7.3,1.9-.3,3.2-.7,4-1.2,1.4-1.3,2-2.7,1.8-4,.5-2,1-2,1.7,0,.4.9,1.1,1.8,2,2.9,2,1.5,3.1,2.5,3.1,2.7,0,.3,0,.8-.4,1.6-1,1.3-1.7,2.7-2.1,3.9,0,1.7-1.8,3-5,3.8-2.3.7-5.5.8-9.7.4-6.4-.6-10.9-4.3-13.5-11.1-2-9.1-2.9-19.4-2.9-30.6-.1-.3-.4-.7-.8-1-.5,0-1.4.9-2.8,2.9l-2.2,4.9c-.4,2.7-3.2,5.1-8.5,7.4-2.5,1.4-3.2,4.4-2.2,9.1.9,1.7,2.3,1.9,4.2.7,1.1-.7,1.5-1.6,1.2-2.8-.9-2.2-.5-3.7,1-4.7.9-.3,1.9-.1,2.9.6,4.1,3.5,5.4,7.6,3.9,12.2-1.7,1.4-3.3,1-5-1.3-.9-2.1-2.2-2.1-3.6-.1-1.8,2.3-4.5,4.1-8.2,5.4l-12.1,2.4c-1.4.5-2.7,0-3.8-1.7-1.1-1.5-1-2.8.1-4,.6-.7,1.9-1.2,3.9-1.4,2-.4,4-.7,6-.8,2.3-.4,3.1-2,2.2-4.8-.2-2.4-1.6-3-4.3-1.6-1.4-.1-2.8-1.2-4.1-3.1-2.6-3.7-4.4-7.5-5.4-11.4-.5-1.7-1-2.6-1.3-2.7-.9,0-1.5,1.1-1.6,3.3-1,9.5-3.9,18.2-8.7,25.9-1.8,1.5-3.4,3.4-4.6,5.4-1.1,1.8-1.5,1.6-1.2-.4,1.8-9.6,4.2-20,7.3-31.3,2.5-11.9,3.6-23.3,3.4-34.4,0-2.3,1-3.9,3.1-4.5.7-.3,1.5,0,2.5.8,1,1.3,2.3,1.8,3.9,1.4,12.2-3.1,23-5.3,32.3-6.8,3.8-.3,6.4-.8,8.1-1.3ZM1182.4,312.6c-1-.8-2.5-.8-4.5.1-12.8,2.5-24.6,6.2-35.5,10.9-1,.7-1.6,1.6-1.8,2.7-.5,4-.8,8.1-1.1,12.1-.2,1.3-.2,2.7.1,4.1.3.3,1,.2,2-.2,1.1-.3,2.3-.3,3.6,0,2.3,1.3,4.3,1.7,6,1.4,2.8,0,4.3-1.3,4.7-3.8.1-2.1-.9-3.2-3.1-3.3-.7.2-2-.3-3.8-1.4-2.3-2.5-1.6-4.5,2.2-6.1,3.9-2,8.4-4,13.4-6,2.2-.5,3.4-.5,3.7,0,1.9,2.7,1,5.7-2.7,9-2.5,1.2-3.4,3-2.7,5.2,1.3.9,3.4.5,6.4-1,2.3-.6,4.3-.4,6,.7.5.7,1.3,1.1,2.4,1.2,1.1-.4,1.5-1.4,1.3-3.1.4-6.7,1.5-14.1,3.3-22.4ZM1167.7,340.6c-4.6,1.6-6.4,4.3-5.5,8.2.2,1.3.4,2.2.5,2.4.8.8,1.6.6,2.6-.7,1.5-1.7,2.5-4,2.9-7,.6-1.7.4-2.7-.5-2.9ZM1153.9,348.2c-3.8.8-4.8,3.3-3.1,7.4.3,1.6,1.1,2.5,2.3,2.7,2.2-.9,3-3.1,2.3-6.6.5-1.8,0-3-1.5-3.4Z"/>
    <path class="st1" d="M1282.1,303.3c1.1-1.3,2.4-1.5,3.9-.4,3.4,2.5,4,6.9,1.9,13.2-.5,1.8-1.9,4.4-4,8.1-.8,3.9-2.9,6-6.4,6.1-2.8,0-3.6,1.1-2.3,3.2.5,1.9,1.6,2.7,3.5,2.2,9.5-1.1,17.9-1.7,25.1-2,2.5.5,4.2,1.9,5,4.2.9,1.4.8,2.5-.4,3.4-17.9-.2-34.5,1.1-50,3.9-1.1.4-1.6,1-1.4,1.7.9,1.8,2.3,2.4,4.3,2,5.8-.9,12.4-1.5,19.8-1.6.7,0,1.3-.3,2-.7,1.8-1.6,3.8-1.1,6,1.4,1.3,2,1.6,4.3.8,7.1-.5,1.8-1.8,4.4-3.9,8.1-.5,1.8-1.5,3-2.7,3.5-2.9.7-5.8,1.3-8.7,1.8-.9,1-1.2,2.2-.8,3.4.9,5,.4,10-1.4,15-.6,1-2.3,2.3-4.9,3.9-2.1,1.9-3.3,2.8-3.5,2.8-.7-.2-1.2-1-1.5-2.2-.1-1.1-.8-2.1-2-3.2-2.3-1.5-2.4-2.2-.4-2.1,2.2,0,3.7-.8,4.3-2.4,1.8-4.2,2.2-8.9,1.1-13.9-1.8-1.4-3.6-1.2-5.4.7-2.4,2.1-4.3,1.9-5.6-.5-4-6.2-5.1-12.6-3.1-19.4.7-1.8,1-2.7.7-2.8-.3-.2-1-.3-2-.3-4.4,1.1-8.5,1.9-12.1,2.2-2.2.5-4.2-.1-6.1-1.9-1.3-2.4-1.8-3.8-1.6-4.2,1-1.9,2.8-2.8,5.4-2.8,9.4-1.3,18.8-2.4,28.2-3.4,2.8-.4,3.2-1.8,1.2-4.3-.9-1.2-2.4-1.2-4.4-.2-1.9,1.3-3.8.7-5.4-1.8-2.1-5.8-3.4-12.8-3.8-20.8.1-1.6.8-3.2,2.1-5,1.2-1.5,2.8-1.6,5-.3,1.1,1.1,2.4,1.5,4,1.2,4.2-.7,8.9-1.2,14-1.5,2.2.3,4-.1,5.6-1.4ZM1278.5,309.6c-1.3.5-4,.8-8.1,1.1-2.4.2-5.1.9-8.1,2.2-2.1,1.2-2.8,2.6-2.1,4.2.7.9,1.8,1.1,3.3.5,3-1.2,5.6-1.5,8.1-1,2,.5,2.9,1.6,2.8,3.4-.5,1.2-1.6,1.7-3.3,1.6-2.7.3-5.4.8-8.1,1.3-2.3.3-3.2,1.3-2.8,3,.5,1.1,1.7,1.6,3.3,1.4,5.6-.3,9.7-1.4,12.1-3.5,3.1-3.8,4.8-7.6,5.3-11.4.9-2.2.1-3.2-2.4-2.9ZM1277,353.2c-3,.5-6.1.9-9.2,1.2-2.6,0-4.6.4-6,1-1.2.7-2.4,1.3-3.6,1.8-.6.5-.8,1.3-.6,2.4-.1,1.5.7,2.8,2.5,3.8,4.2.2,9.5-.5,15.9-2.2,2.8-1.1,4.4-3.2,4.8-6.1,0-2-1.3-2.7-3.8-1.9ZM1283.4,372.3c.2-1.3.8-2,1.8-1.9,3.1,0,5.9,1.7,8.6,5.1,2.2,3.8,2.6,6.9,1.1,9.1-3,3.4-5.4,2.6-7.3-2.3-.5-2.3-1.7-4.8-3.7-7.6-.3-.9-.5-1.7-.5-2.3ZM1242.8,376.4c1.3-2.2,3.2-2.8,5.6-1.8,2.6.1,3,1.1,1.3,2.9-1,1.4-1.5,2.8-1.4,4.2.3,2.2.3,3.4-.3,3.6-3.8,1.1-5.8-.5-5.9-4.9,0-1.5.1-2.8.6-4Z"/>
  </g>
</svg>