<?xml version="1.0" encoding="UTF-8"?>
<svg id="_圖層_1" data-name="圖層_1" xmlns="http://www.w3.org/2000/svg" xmlns:xlink="http://www.w3.org/1999/xlink" version="1.1" viewBox="0 0 264 94">
  <!-- Generator: Adobe Illustrator 29.0.1, SVG Export Plug-In . SVG Version: 2.1.0 Build 192)  -->
  <defs>
    <style>
      .st0 {
        fill: none;
      }

      .st1 {
        fill: #f2cfc2;
      }

      .st2 {
        fill: #fff;
      }

      .st3 {
        fill: #48507a;
      }

      .st4 {
        clip-path: url(#clippath);
      }
    </style>
    <clipPath id="clippath">
      <rect class="st0" x="22" y="22.6" width="222.9" height="49"/>
    </clipPath>
  </defs>
  <g class="st4">
    <path class="st1" d="M46.3,22.6h174.2c.8,0,1.6,0,2.4.1.8,0,1.6.2,2.4.3.8.2,1.6.4,2.3.6.8.2,1.5.5,2.3.8.7.3,1.5.6,2.2,1,.7.4,1.4.8,2.1,1.2.7.4,1.3.9,1.9,1.4.6.5,1.2,1,1.8,1.6.6.6,1.1,1.2,1.6,1.8.5.6,1,1.3,1.4,1.9s.9,1.4,1.2,2.1c.4.7.7,1.4,1,2.2.3.7.6,1.5.8,2.3.2.8.4,1.5.6,2.3.2.8.3,1.6.4,2.4,0,.8.1,1.6.1,2.4s0,1.6-.1,2.4c0,.8-.2,1.6-.4,2.4-.2.8-.3,1.6-.6,2.3-.2.8-.5,1.5-.8,2.3-.3.7-.6,1.5-1,2.2-.4.7-.8,1.4-1.2,2.1s-.9,1.3-1.4,1.9-1,1.2-1.6,1.8c-.6.6-1.2,1.1-1.8,1.6-.6.5-1.3,1-1.9,1.4-.7.4-1.3.9-2.1,1.2-.7.4-1.4.7-2.2,1-.7.3-1.5.6-2.3.8-.8.2-1.5.4-2.3.6-.8.2-1.6.3-2.4.3-.8,0-1.6.1-2.4.1H46.3c-.8,0-1.6,0-2.4-.1s-1.6-.2-2.4-.3-1.6-.4-2.3-.6c-.8-.2-1.5-.5-2.3-.8-.7-.3-1.5-.6-2.2-1-.7-.4-1.4-.8-2.1-1.2-.7-.4-1.3-.9-1.9-1.4-.6-.5-1.2-1-1.8-1.6-.6-.6-1.1-1.2-1.6-1.8-.5-.6-1-1.3-1.4-1.9s-.8-1.4-1.2-2.1c-.4-.7-.7-1.4-1-2.2-.3-.7-.6-1.5-.8-2.3-.2-.8-.4-1.5-.6-2.3-.2-.8-.3-1.6-.3-2.4,0-.8-.1-1.6-.1-2.4s0-1.6.1-2.4c0-.8.2-1.6.3-2.4s.3-1.6.6-2.3c.2-.8.5-1.5.8-2.3.3-.7.6-1.5,1-2.2.4-.7.8-1.4,1.2-2.1s.9-1.3,1.4-1.9c.5-.6,1-1.2,1.6-1.8.6-.6,1.2-1.1,1.8-1.6.6-.5,1.3-1,1.9-1.4.7-.4,1.3-.9,2.1-1.2.7-.4,1.4-.7,2.2-1,.7-.3,1.5-.6,2.3-.8.8-.2,1.5-.4,2.3-.6s1.6-.3,2.4-.3c.8,0,1.6-.1,2.4-.1Z"/>
  </g>
  <path class="st2" d="M64.9,46.7c0,1.1-.1,2.1-.3,3.2s-.5,2.1-.9,3.1c-.4,1-.9,1.9-1.5,2.8-.6.9-1.3,1.7-2,2.5s-1.6,1.4-2.5,2-1.8,1.1-2.8,1.5c-1,.4-2,.7-3,.9s-2.1.3-3.2.3-2.1-.1-3.2-.3-2.1-.5-3-.9c-1-.4-1.9-.9-2.8-1.5s-1.7-1.3-2.5-2-1.4-1.6-2-2.5c-.6-.9-1.1-1.8-1.5-2.8-.4-1-.7-2-.9-3.1s-.3-2.1-.3-3.2.1-2.1.3-3.2c.2-1,.5-2.1.9-3.1.4-1,.9-1.9,1.5-2.8.6-.9,1.3-1.7,2-2.5s1.6-1.4,2.5-2c.9-.6,1.8-1.1,2.8-1.5,1-.4,2-.7,3-.9s2.1-.3,3.2-.3,2.1.1,3.2.3,2.1.5,3,.9c1,.4,1.9.9,2.8,1.5.9.6,1.7,1.3,2.5,2s1.4,1.6,2,2.5c.6.9,1.1,1.8,1.5,2.8.4,1,.7,2,.9,3.1.2,1.1.3,2.1.3,3.2Z"/>
  <path class="st3" d="M47.7,40.7c.5-.5.6-1.2.3-1.7l-1.5-2.9c-.4-.7-1.3-1-2-.6-.9.5-2.1,1.3-2.7,2.3-1.4,2.4-1.7,3.8,2.4,11.6,4,7.8,5.3,8.4,8,8.6,1,0,2.4-.4,3.4-.9.8-.4,1.1-1.3.7-2l-1.5-2.9c-.3-.6-.9-.9-1.6-.8-.6.1-1.4.1-2.2-.3-1-.5-2.9-3.9-2.9-3.9,0,0-1.7-3.5-1.5-4.6.1-.8.6-1.5,1-1.9h0Z"/>
  <path class="st3" d="M113.2,40.3l-1.8,1.3c-.3-.5-.7-1-1.3-1.6-.5-.6-1.1-1.2-1.7-1.8-.6-.6-1.2-1.2-1.8-1.7l1.8-1.2c.6.5,1.2,1.1,1.8,1.7.6.6,1.2,1.2,1.7,1.8.5.6,1,1.1,1.3,1.6ZM110.4,47l2,.8c-.7,1.3-1.5,2.6-2.4,3.8-.9,1.2-1.9,2.3-2.9,3.4.6,1.6,1.2,2.9,1.9,3.8.7.9,1.4,1.4,2.1,1.4s.7-.4.9-1.3c.2-.8.4-2.3.5-4.2.3.3.5.5.9.7.4.2.7.4,1,.5-.1,1.7-.3,3-.6,3.9-.3.9-.6,1.6-1.1,2-.4.4-1.1.6-1.8.6-1.2,0-2.3-.5-3.2-1.5-.9-1-1.7-2.4-2.4-4.2-1,.9-2,1.7-3.1,2.5-1.1.8-2.2,1.4-3.3,2-.2-.3-.4-.6-.7-.9-.3-.3-.6-.6-.9-.9,1.3-.6,2.5-1.4,3.8-2.2,1.2-.8,2.4-1.8,3.5-2.8-.7-2.5-1.3-5.5-1.7-8.8h-7.2v4.9c.9-.2,1.8-.4,2.7-.6.9-.2,1.8-.4,2.7-.6v2c-.8.2-1.7.4-2.7.7-.9.2-1.9.4-2.8.6v6.8c0,.7-.1,1.3-.3,1.7-.2.4-.5.7-1,.8-.5.2-1.1.3-2,.4-.8,0-1.9,0-3.1,0,0-.3-.2-.7-.4-1.1-.2-.4-.3-.8-.5-1.1,1,0,1.9,0,2.7,0s1.3,0,1.6,0c.3,0,.5,0,.6-.1.1,0,.2-.3.2-.5v-6.2c-1.1.3-2.3.5-3.3.8-1.1.2-2.1.5-3,.7l-.6-2.3c.9-.2,2-.4,3.2-.6,1.2-.3,2.5-.5,3.8-.8v-5.3h-6.5v-2.2h6.5v-4.9c-.9.2-1.9.3-2.8.5-1,.2-1.9.3-2.8.4-.1-.6-.4-1.3-.7-1.9,1.4-.2,2.9-.5,4.4-.8,1.5-.3,2.9-.6,4.3-1,1.3-.3,2.5-.7,3.4-1l1.6,1.9c-1.5.5-3.2,1-5.1,1.4v5.3h7c-.1-1.4-.2-2.8-.3-4.3,0-1.5,0-2.9-.1-4.4h2.3c0,3.1.1,6,.4,8.7h9v2.2h-8.7c.3,2.6.7,4.9,1.3,7,1.6-1.8,2.9-3.6,4-5.6Z"/>
  <path class="st3" d="M133.2,40.4v-2.6h-4.9v2.6h4.9ZM140.5,42.2h-5.1v4.1h5.1v-4.1ZM128.3,42.2v4.1h4.9v-4.1h-4.9ZM121.6,42.2v4.1h4.6v-4.1h-4.6ZM126.1,40.4v-2.6h-8.2v-2h26.1v2h-8.6v2.6h7.3v7.9h-23.3v-7.9h6.7ZM135.5,53.7h-9l-.9,1.3c-.3.4-.6.8-.9,1.1,1.1.2,2.2.4,3.3.6,1.1.2,2.2.4,3.2.6.8-.5,1.6-1,2.3-1.6.7-.6,1.3-1.3,1.9-2ZM144.4,53.7h-6.2c-1,1.7-2.3,3.1-3.9,4.2,1.9.4,3.6.9,5.3,1.3,1.7.4,3.1.9,4.4,1.4l-2.1,1.6c-1.3-.5-2.7-1-4.5-1.5-1.7-.5-3.6-1-5.6-1.4-1.7.8-3.7,1.4-5.9,1.9-2.3.5-4.8.8-7.7,1,0-.3-.2-.7-.4-1-.2-.4-.3-.7-.5-.9,2.2-.2,4.3-.4,6.1-.6,1.8-.3,3.5-.7,4.9-1.1-1.1-.2-2.3-.5-3.5-.7-1.2-.2-2.4-.4-3.6-.6.4-.5.9-1,1.4-1.6.5-.6.9-1.2,1.4-1.9h-6.6v-2h7.9c.3-.6.7-1.1,1-1.6.3-.5.6-1.1.9-1.6l2.2.5c-.2.4-.4.9-.7,1.4-.3.4-.5.9-.8,1.3h8.9c.2-.3.3-.6.4-.9.1-.3.2-.6.3-.9l2.2.6c0,.2-.1.4-.2.6,0,.2-.1.4-.2.6h5.2v2Z"/>
  <path class="st3" d="M154.8,38.2l-1.7,1.1c-.2-.6-.6-1.2-1-2-.4-.8-.9-1.5-1.3-2.1l1.6-1c.5.6.9,1.3,1.4,2,.4.7.8,1.4,1,1.9ZM158.7,39.6v1.9h-10.9v-1.9h10.9ZM157.4,45.4h-8.5v-1.8h8.5v1.8ZM155.6,53.6h-4.9v5h4.9v-5ZM157.5,51.7v8.8h-6.7v1.4h-1.8v-10.3h8.6ZM148.9,49.4v-1.8h8.5v1.8h-8.5ZM167.1,46h-4.7v3.3h4.7v-3.3ZM162.4,54.3h4.7v-3.3h-4.7v3.3ZM174.9,39v1.2c0,3.6-.2,6.7-.3,9.2-.1,2.5-.2,4.5-.4,6.1-.1,1.6-.3,2.8-.5,3.7-.2.9-.4,1.5-.7,1.9-.3.4-.7.7-1,.9-.3.2-.8.3-1.3.3-.5,0-1.1,0-1.9,0-.8,0-1.5,0-2.3,0,0-.3,0-.7-.2-1.1-.1-.4-.3-.8-.5-1.1.9,0,1.7,0,2.4.1.7,0,1.2,0,1.6,0s.5,0,.7-.1c.2,0,.3-.2.5-.4.3-.3.5-.8.6-1.5.2-.8.3-1.9.5-3.3.1-1.4.3-3.3.4-5.5.1-2.2.2-4.9.3-8.1h-10c-.3.5-.6,1.1-.9,1.6-.3.5-.6,1-.9,1.4h8v12.1h-6.6v1.6h-1.8v-13.1c-.2.2-.3.4-.4.6-.1.2-.3.3-.4.5-.2-.2-.5-.4-.9-.7-.4-.3-.7-.5-1-.7,1.2-1.2,2.2-2.6,3.1-4.4.9-1.8,1.6-3.6,2.1-5.5l2.2.5c-.2.7-.4,1.4-.7,2s-.5,1.3-.8,2h11.1Z"/>
  <path class="st3" d="M188.4,37.6h-6.6v2.6h6.6v-2.6ZM181.8,44.6h6.6v-2.8h-6.6v2.8ZM190.6,46.5h-8.7v15.9h-2.2v-26.6h11v10.7ZM195.4,51.1h-7.2v5h7.2v-5ZM197.5,58h-9.3v1.8h-2.1v-10.7h11.4v8.9ZM195.5,44.6h6.8v-2.8h-6.8v2.8ZM202.2,37.6h-6.8v2.6h6.8v-2.6ZM204.5,35.8v23.5c0,.8-.1,1.3-.3,1.7-.2.4-.6.7-1,.9-.5.2-1.2.3-2.1.3-.9,0-2,0-3.3,0,0-.3-.2-.7-.3-1.2-.2-.5-.3-.8-.5-1.1,1,0,1.9,0,2.8,0s1.5,0,1.8,0c.3,0,.5,0,.6-.2.1-.1.2-.3.2-.6v-12.8h-9v-10.7h11.3Z"/>
</svg>