<?xml version="1.0" encoding="UTF-8"?>
<svg id="_圖層_1" data-name="圖層_1" xmlns="http://www.w3.org/2000/svg" xmlns:xlink="http://www.w3.org/1999/xlink" version="1.1" viewBox="0 0 186 105">
  <!-- Generator: Adobe Illustrator 29.0.1, SVG Export Plug-In . SVG Version: 2.1.0 Build 192)  -->
  <defs>
    <style>
      .st0 {
        fill: none;
      }

      .st1 {
        fill: #623e2a;
      }

      .st2 {
        clip-path: url(#clippath-1);
      }

      .st3 {
        fill: #f4f1ed;
      }

      .st4 {
        clip-path: url(#clippath);
      }
    </style>
    <clipPath id="clippath">
      <rect class="st0" x="15.5" y="12.6" width="156.4" height="80.7"/>
    </clipPath>
    <clipPath id="clippath-1">
      <path class="st0" d="M55.9,12.6h75.6c22.3,0,40.3,18.1,40.3,40.4s-18.1,40.4-40.3,40.4H55.9c-22.3,0-40.3-18.1-40.3-40.4S33.6,12.6,55.9,12.6Z"/>
    </clipPath>
  </defs>
  <g class="st4">
    <g class="st2">
      <path class="st1" d="M15.5,12.6h156.4v80.7H15.5V12.6Z"/>
    </g>
  </g>
  <path class="st3" d="M67.7,48.2l-1.4,1c-.3-.4-.6-.8-1-1.3-.4-.5-.9-1-1.4-1.5-.5-.5-1-.9-1.4-1.3l1.4-.9c.5.4.9.8,1.4,1.3.5.5.9.9,1.4,1.4.4.5.8.9,1,1.3ZM65.6,53.4l1.6.6c-.5,1-1.2,2-1.9,2.9-.7.9-1.5,1.8-2.3,2.7.5,1.3.9,2.3,1.5,3,.5.7,1.1,1.1,1.7,1.1s.6-.3.7-1,.3-1.8.4-3.3c.2.2.4.4.7.6.3.2.5.3.8.4-.1,1.3-.3,2.3-.5,3.1-.2.7-.5,1.3-.8,1.6-.3.3-.8.5-1.4.5-.9,0-1.8-.4-2.5-1.2-.7-.8-1.4-1.9-1.9-3.3-.8.7-1.6,1.3-2.4,1.9-.8.6-1.7,1.1-2.6,1.6-.1-.2-.3-.5-.5-.7-.2-.3-.5-.5-.7-.7,1-.5,2-1.1,3-1.7,1-.7,1.9-1.4,2.7-2.1-.6-2-1-4.3-1.3-7h-5.6v3.8c.7-.2,1.4-.3,2.1-.5.7-.2,1.4-.3,2.1-.5v1.6c-.6.2-1.3.4-2.1.5-.7.2-1.5.3-2.2.5v5.3c0,.6,0,1-.3,1.3-.2.3-.4.5-.8.7-.4.1-.9.2-1.5.3-.7,0-1.5,0-2.4,0,0-.3-.2-.6-.3-.9-.1-.3-.3-.7-.4-.9.8,0,1.5,0,2.1,0s1.1,0,1.3,0c.2,0,.4,0,.4-.1,0,0,.1-.2.1-.4v-4.9c-.9.2-1.8.4-2.6.6-.8.2-1.6.4-2.4.5l-.5-1.8c.7-.1,1.5-.3,2.5-.5.9-.2,1.9-.4,3-.6v-4.2h-5.1v-1.7h5.1v-3.8c-.7.1-1.5.3-2.2.4s-1.5.2-2.2.3c-.1-.5-.3-1-.6-1.5,1.1-.2,2.3-.4,3.4-.6,1.2-.2,2.3-.5,3.3-.8,1-.3,1.9-.5,2.7-.8l1.3,1.5c-1.2.4-2.5.8-4,1.1v4.2h5.5c-.1-1.1-.2-2.2-.3-3.4,0-1.2,0-2.3,0-3.5h1.8c0,2.4,0,4.7.3,6.8h7v1.7h-6.9c.2,2,.6,3.8,1,5.5,1.3-1.4,2.3-2.8,3.1-4.4Z"/>
  <path class="st3" d="M83.5,48.2v-2h-3.9v2h3.9ZM89.1,49.7h-4v3.3h4v-3.3ZM79.6,49.7v3.3h3.9v-3.3h-3.9ZM74.3,49.7v3.3h3.6v-3.3h-3.6ZM77.9,48.2v-2h-6.5v-1.6h20.5v1.6h-6.7v2h5.7v6.2h-18.3v-6.2h5.3ZM85.3,58.7h-7.1c-.2.3-.5.7-.7,1-.2.3-.4.6-.7.9.9.1,1.7.3,2.6.5.9.2,1.7.3,2.5.5.7-.4,1.3-.8,1.8-1.2.6-.5,1-1,1.5-1.6ZM92.3,58.7h-4.9c-.8,1.3-1.8,2.4-3.1,3.3,1.5.3,2.9.7,4.1,1,1.3.3,2.4.7,3.4,1.1l-1.6,1.3c-1-.4-2.2-.7-3.5-1.1-1.3-.4-2.8-.8-4.4-1.1-1.3.6-2.9,1.1-4.7,1.5-1.8.4-3.8.7-6,.8,0-.3-.2-.5-.3-.8-.1-.3-.3-.5-.4-.7,1.8-.1,3.4-.3,4.8-.5,1.4-.2,2.7-.5,3.9-.9-.9-.2-1.8-.4-2.8-.5-.9-.2-1.9-.3-2.8-.5.3-.4.7-.8,1.1-1.3.4-.5.7-1,1.1-1.5h-5.2v-1.5h6.2c.3-.4.5-.9.8-1.3.3-.4.5-.8.7-1.2l1.7.4c-.2.3-.3.7-.5,1.1-.2.3-.4.7-.6,1h7c.1-.2.2-.4.3-.7,0-.2.2-.5.3-.7l1.7.5c0,.1-.1.3-.2.4,0,.2-.1.3-.2.4h4.1v1.5Z"/>
  <path class="st3" d="M107.2,45.8v1.4h-3.6v-1.4h3.6ZM100.2,46.7l-1.5.5c-.1-.4-.3-.9-.6-1.5-.3-.6-.5-1.1-.7-1.6l1.5-.4c.3.5.5,1,.8,1.6.3.6.4,1.1.6,1.5ZM100.3,58.6h-3v4h3v-4ZM101.8,57.1v6.9h-4.5v1.1h-1.6v-8.1h6.1ZM95.7,55.3v-1.4h6.2v1.4h-6.2ZM95.7,52.2v-1.4h6.2v1.4h-6.2ZM94.9,49.1v-1.5h8v1.5h-8ZM107.8,51.2v1.5h-4.8v-1.5h4.8ZM113.4,58.2h-6.5v4.7h6.5v-4.7ZM105.2,65.5v-8.9h9.9v8.8h-1.8v-.9h-6.5v1h-1.7ZM114.7,47.6h-2.3c0,.3-.1.6-.2.9,0,.3-.1.6-.2.9.4,1.2,1,2.2,1.8,3.1.8.9,1.8,1.6,2.9,2-.2.2-.4.4-.6.6-.2.3-.4.5-.5.7-.9-.5-1.8-1.1-2.5-1.9-.7-.8-1.3-1.7-1.8-2.7-.5,1-1.1,1.9-1.8,2.7-.8.8-1.8,1.5-3.1,2,0-.2-.2-.4-.4-.6-.2-.3-.4-.4-.5-.5,1.2-.5,2.2-1.1,2.9-1.9.7-.8,1.2-1.6,1.6-2.5.4-.9.6-1.9.8-2.8h-1.4c-.5,1.2-1.1,2.2-1.8,3.1-.1-.1-.4-.3-.6-.5-.3-.2-.5-.3-.7-.5.6-.8,1.2-1.7,1.6-2.8.5-1.1.8-2.2,1.1-3.4l1.5.3c-.2.7-.4,1.5-.6,2.2h5.6s1.1.2,1.1.2c-.2.7-.4,1.4-.7,2.1-.2.7-.5,1.4-.7,1.9l-1.3-.3c.1-.3.3-.7.4-1.1.1-.4.3-.9.4-1.3Z"/>
  <path class="st3" d="M124.4,46.5l-1.3.9c-.2-.4-.4-.9-.8-1.5-.3-.6-.7-1.2-1-1.6l1.3-.8c.4.5.7,1,1.1,1.6.4.6.6,1.1.8,1.5ZM127.5,47.6v1.5h-8.6v-1.5h8.6ZM126.5,52.2h-6.7v-1.4h6.7v1.4ZM125,58.6h-3.8v4h3.8v-4ZM126.5,57.1v6.9h-5.3v1.1h-1.4v-8.1h6.7ZM119.8,55.3v-1.4h6.7v1.4h-6.7ZM134,52.6h-3.7v2.6h3.7v-2.6ZM130.4,59.2h3.7v-2.6h-3.7v2.6ZM140.2,47.1v.9c0,2.8-.2,5.3-.3,7.2,0,1.9-.2,3.5-.3,4.8-.1,1.2-.3,2.2-.4,2.9-.2.7-.3,1.2-.6,1.5-.3.3-.5.6-.8.7-.3.2-.6.2-1,.3-.4,0-.9,0-1.5,0-.6,0-1.2,0-1.8,0,0-.3,0-.6-.1-.9s-.2-.6-.4-.9c.7,0,1.3,0,1.9,0,.6,0,1,0,1.3,0s.4,0,.5,0c.1,0,.3-.2.4-.3.2-.2.4-.6.5-1.2.1-.6.3-1.5.4-2.6.1-1.1.2-2.6.3-4.3s.2-3.9.2-6.4h-7.8c-.2.4-.5.8-.7,1.2-.2.4-.5.8-.7,1.1h6.3v9.5h-5.2v1.2h-1.4v-10.3c-.1.2-.2.3-.3.5-.1.1-.2.3-.3.4-.2-.2-.4-.3-.7-.6-.3-.2-.6-.4-.8-.5.9-.9,1.7-2.1,2.4-3.5.7-1.4,1.3-2.8,1.7-4.3l1.8.4c-.2.5-.3,1.1-.5,1.6-.2.5-.4,1.1-.6,1.6h8.8Z"/>
</svg>