<svg xmlns="http://www.w3.org/2000/svg" xmlns:xlink="http://www.w3.org/1999/xlink" width="1366" zoomAndPan="magnify" viewBox="0 0 1024.5 576" height="768" preserveAspectRatio="xMidYMid meet" version="1.0"><metadata><ContainsAiGeneratedContent>Yes</ContainsAiGeneratedContent></metadata><defs><g/></defs><g fill="#efebe5" fill-opacity="1"><g transform="translate(337.096977, 121.379536)"><g><path d="M 17.1875 -37.625 L 19.640625 -40.078125 C 21.203125 -39.003906 22.84375 -37.8125 24.5625 -36.5 C 26.28125 -35.1875 27.894531 -33.878906 29.40625 -32.578125 C 30.925781 -31.273438 32.148438 -30.09375 33.078125 -29.03125 L 30.4375 -26.28125 C 29.53125 -27.3125 28.335938 -28.492188 26.859375 -29.828125 C 25.378906 -31.160156 23.785156 -32.519531 22.078125 -33.90625 C 20.378906 -35.289062 18.75 -36.53125 17.1875 -37.625 Z M 37.921875 -24.1875 L 41.375 -25.53125 C 42.34375 -23.5625 43.265625 -21.453125 44.140625 -19.203125 C 45.023438 -16.960938 45.816406 -14.765625 46.515625 -12.609375 C 47.210938 -10.460938 47.726562 -8.523438 48.0625 -6.796875 L 44.421875 -5.34375 C 44.085938 -7.070312 43.585938 -9.023438 42.921875 -11.203125 C 42.253906 -13.390625 41.488281 -15.613281 40.625 -17.875 C 39.757812 -20.144531 38.859375 -22.25 37.921875 -24.1875 Z M 6.890625 -24.234375 L 10.5 -23.53125 C 10.226562 -21.601562 9.875 -19.445312 9.4375 -17.0625 C 9.007812 -14.675781 8.519531 -12.332031 7.96875 -10.03125 C 7.414062 -7.738281 6.789062 -5.710938 6.09375 -3.953125 L 2.40625 -5.5 C 3.132812 -7.195312 3.789062 -9.128906 4.375 -11.296875 C 4.957031 -13.460938 5.460938 -15.675781 5.890625 -17.9375 C 6.328125 -20.207031 6.660156 -22.304688 6.890625 -24.234375 Z M 14.84375 -27.984375 L 18.59375 -27.984375 L 18.59375 -3.34375 C 18.59375 -2.21875 18.804688 -1.476562 19.234375 -1.125 C 19.671875 -0.769531 20.601562 -0.59375 22.03125 -0.59375 L 31.578125 -0.59375 C 32.609375 -0.59375 33.378906 -0.859375 33.890625 -1.390625 C 34.410156 -1.929688 34.78125 -2.941406 35 -4.421875 C 35.21875 -5.898438 35.394531 -8.070312 35.53125 -10.9375 C 36 -10.601562 36.5625 -10.285156 37.21875 -9.984375 C 37.882812 -9.691406 38.488281 -9.460938 39.03125 -9.296875 C 38.863281 -6.160156 38.5625 -3.703125 38.125 -1.921875 C 37.6875 -0.140625 36.984375 1.101562 36.015625 1.8125 C 35.054688 2.53125 33.644531 2.890625 31.78125 2.890625 L 21.734375 2.890625 C 19.929688 2.890625 18.53125 2.707031 17.53125 2.34375 C 16.539062 1.976562 15.84375 1.335938 15.4375 0.421875 C 15.039062 -0.492188 14.84375 -1.765625 14.84375 -3.390625 Z M 14.84375 -27.984375 "/></g></g></g><g fill="#efebe5" fill-opacity="1"><g transform="translate(387.064856, 121.379536)"><g><path d="M 40.28125 -33.171875 L 40.28125 -36.984375 L 25.6875 -36.984375 L 25.6875 -33.171875 Z M 40.28125 -26.53125 L 40.28125 -30.484375 L 25.6875 -30.484375 L 25.6875 -26.53125 Z M 43.765625 -39.828125 L 43.765625 -23.6875 L 22.234375 -23.6875 L 22.234375 -39.828125 Z M 15.984375 -39.828125 L 18.390625 -38.375 C 17.660156 -36.34375 16.859375 -34.132812 15.984375 -31.75 C 15.117188 -29.375 14.269531 -27.203125 13.4375 -25.234375 C 15.238281 -23.203125 16.429688 -21.296875 17.015625 -19.515625 C 17.597656 -17.734375 17.890625 -16.078125 17.890625 -14.546875 C 17.890625 -13.210938 17.726562 -12.046875 17.40625 -11.046875 C 17.09375 -10.046875 16.601562 -9.3125 15.9375 -8.84375 C 15.238281 -8.34375 14.375 -8.039062 13.34375 -7.9375 C 12.84375 -7.90625 12.300781 -7.875 11.71875 -7.84375 C 11.132812 -7.8125 10.5625 -7.8125 10 -7.84375 C 9.957031 -8.3125 9.863281 -8.859375 9.71875 -9.484375 C 9.570312 -10.117188 9.347656 -10.671875 9.046875 -11.140625 C 9.609375 -11.109375 10.140625 -11.082031 10.640625 -11.0625 C 11.140625 -11.050781 11.570312 -11.0625 11.9375 -11.09375 C 12.570312 -11.09375 13.109375 -11.226562 13.546875 -11.5 C 13.910156 -11.757812 14.164062 -12.207031 14.3125 -12.84375 C 14.46875 -13.476562 14.546875 -14.160156 14.546875 -14.890625 C 14.546875 -16.253906 14.253906 -17.757812 13.671875 -19.40625 C 13.085938 -21.0625 11.894531 -22.851562 10.09375 -24.78125 C 10.820312 -26.613281 11.523438 -28.5625 12.203125 -30.625 C 12.890625 -32.695312 13.503906 -34.582031 14.046875 -36.28125 L 7.5 -36.28125 L 7.5 3.796875 L 4.203125 3.796875 L 4.203125 -39.671875 L 15.390625 -39.671875 Z M 47.8125 -17.6875 L 27.984375 -17.6875 C 27.453125 -16.457031 26.835938 -15.273438 26.140625 -14.140625 L 46.125 -14.140625 C 46.125 -14.140625 46.113281 -13.957031 46.09375 -13.59375 C 46.082031 -13.226562 46.054688 -12.910156 46.015625 -12.640625 C 45.816406 -9.304688 45.597656 -6.613281 45.359375 -4.5625 C 45.128906 -2.519531 44.875 -0.957031 44.59375 0.125 C 44.3125 1.207031 43.953125 1.984375 43.515625 2.453125 C 43.179688 2.878906 42.796875 3.175781 42.359375 3.34375 C 41.929688 3.507812 41.4375 3.628906 40.875 3.703125 C 40.375 3.734375 39.710938 3.753906 38.890625 3.765625 C 38.078125 3.785156 37.238281 3.765625 36.375 3.703125 C 36.34375 3.234375 36.25 2.707031 36.09375 2.125 C 35.945312 1.539062 35.757812 1.03125 35.53125 0.59375 C 36.363281 0.664062 37.117188 0.71875 37.796875 0.75 C 38.484375 0.78125 38.992188 0.796875 39.328125 0.796875 C 39.660156 0.796875 39.929688 0.769531 40.140625 0.71875 C 40.359375 0.675781 40.550781 0.535156 40.71875 0.296875 C 41.09375 -0.128906 41.4375 -1.191406 41.75 -2.890625 C 42.0625 -4.597656 42.335938 -7.347656 42.578125 -11.140625 L 39.171875 -11.140625 C 38.171875 -8.109375 36.847656 -5.316406 35.203125 -2.765625 C 33.554688 -0.222656 31.71875 1.910156 29.6875 3.640625 C 29.445312 3.378906 29.066406 3.023438 28.546875 2.578125 C 28.035156 2.128906 27.597656 1.769531 27.234375 1.5 C 29.128906 0.03125 30.816406 -1.789062 32.296875 -3.96875 C 33.785156 -6.15625 34.976562 -8.546875 35.875 -11.140625 L 31.734375 -11.140625 C 30.367188 -8.304688 28.625 -5.679688 26.5 -3.265625 C 24.382812 -0.859375 22.144531 1.175781 19.78125 2.84375 C 19.582031 2.507812 19.257812 2.082031 18.8125 1.5625 C 18.363281 1.050781 17.972656 0.679688 17.640625 0.453125 C 19.773438 -0.910156 21.773438 -2.597656 23.640625 -4.609375 C 25.503906 -6.628906 27.050781 -8.804688 28.28125 -11.140625 L 24.078125 -11.140625 C 22.210938 -8.773438 20.21875 -6.796875 18.09375 -5.203125 C 17.851562 -5.535156 17.472656 -5.929688 16.953125 -6.390625 C 16.441406 -6.859375 16.003906 -7.242188 15.640625 -7.546875 C 17.503906 -8.773438 19.191406 -10.253906 20.703125 -11.984375 C 22.222656 -13.722656 23.484375 -15.625 24.484375 -17.6875 L 17.890625 -17.6875 L 17.890625 -20.734375 L 47.8125 -20.734375 Z M 47.8125 -17.6875 "/></g></g></g><g fill="#efebe5" fill-opacity="1"><g transform="translate(437.032735, 121.379536)"><g><path d="M 39.671875 -39.921875 L 43.421875 -38.53125 C 42.753906 -37.09375 42.019531 -35.597656 41.21875 -34.046875 C 40.425781 -32.503906 39.617188 -31.023438 38.796875 -29.609375 C 37.984375 -28.191406 37.210938 -26.953125 36.484375 -25.890625 L 33.375 -27.140625 C 34.113281 -28.265625 34.875 -29.566406 35.65625 -31.046875 C 36.4375 -32.535156 37.179688 -34.050781 37.890625 -35.59375 C 38.609375 -37.144531 39.203125 -38.585938 39.671875 -39.921875 Z M 16.4375 -27.140625 L 12.9375 -25.734375 C 12.632812 -26.835938 12.175781 -28.101562 11.5625 -29.53125 C 10.945312 -30.96875 10.25 -32.429688 9.46875 -33.921875 C 8.6875 -35.421875 7.878906 -36.820312 7.046875 -38.125 L 10.390625 -39.375 C 11.253906 -38.101562 12.085938 -36.734375 12.890625 -35.265625 C 13.691406 -33.804688 14.40625 -32.367188 15.03125 -30.953125 C 15.664062 -29.535156 16.132812 -28.265625 16.4375 -27.140625 Z M 35.328125 0.25 L 41.828125 0.25 C 42.492188 0.25 42.992188 0.0507812 43.328125 -0.34375 C 43.660156 -0.75 43.898438 -1.554688 44.046875 -2.765625 C 44.191406 -3.984375 44.300781 -5.773438 44.375 -8.140625 C 44.769531 -7.804688 45.304688 -7.488281 45.984375 -7.1875 C 46.671875 -6.894531 47.265625 -6.664062 47.765625 -6.5 C 47.628906 -3.832031 47.382812 -1.753906 47.03125 -0.265625 C 46.6875 1.210938 46.128906 2.242188 45.359375 2.828125 C 44.597656 3.410156 43.519531 3.703125 42.125 3.703125 L 34.921875 3.703125 C 32.722656 3.703125 31.234375 3.328125 30.453125 2.578125 C 29.671875 1.828125 29.28125 0.398438 29.28125 -1.703125 L 29.28125 -19.34375 L 20.09375 -19.34375 C 19.851562 -16.601562 19.46875 -14.050781 18.9375 -11.6875 C 18.40625 -9.320312 17.582031 -7.164062 16.46875 -5.21875 C 15.351562 -3.269531 13.800781 -1.535156 11.8125 -0.015625 C 9.832031 1.492188 7.296875 2.765625 4.203125 3.796875 C 3.992188 3.328125 3.65625 2.769531 3.1875 2.125 C 2.726562 1.476562 2.300781 0.988281 1.90625 0.65625 C 4.800781 -0.21875 7.144531 -1.3125 8.9375 -2.625 C 10.738281 -3.9375 12.128906 -5.429688 13.109375 -7.109375 C 14.097656 -8.796875 14.804688 -10.664062 15.234375 -12.71875 C 15.671875 -14.769531 15.988281 -16.976562 16.1875 -19.34375 L 2.890625 -19.34375 L 2.890625 -22.890625 L 22.984375 -22.890625 L 22.984375 -41.828125 L 26.6875 -41.828125 L 26.6875 -22.890625 L 47.21875 -22.890625 L 47.21875 -19.34375 L 33.03125 -19.34375 L 33.03125 -1.75 C 33.03125 -0.914062 33.175781 -0.375 33.46875 -0.125 C 33.769531 0.125 34.390625 0.25 35.328125 0.25 Z M 35.328125 0.25 "/></g></g></g><g fill="#efebe5" fill-opacity="1"><g transform="translate(487.000614, 121.379536)"><g><path d="M 39.125 -27.390625 L 42.625 -26.140625 C 41.226562 -23.609375 39.476562 -21.164062 37.375 -18.8125 C 35.28125 -16.46875 32.929688 -14.300781 30.328125 -12.3125 C 27.734375 -10.332031 24.96875 -8.644531 22.03125 -7.25 C 21.832031 -7.644531 21.523438 -8.125 21.109375 -8.6875 C 20.691406 -9.257812 20.300781 -9.710938 19.9375 -10.046875 C 22.4375 -11.210938 24.828125 -12.609375 27.109375 -14.234375 C 29.390625 -15.867188 31.445312 -17.601562 33.28125 -19.4375 C 31.050781 -19.300781 29.242188 -19.175781 27.859375 -19.0625 C 26.472656 -18.945312 25.390625 -18.835938 24.609375 -18.734375 C 23.828125 -18.640625 23.242188 -18.550781 22.859375 -18.46875 C 22.472656 -18.382812 22.164062 -18.304688 21.9375 -18.234375 C 21.90625 -18.671875 21.769531 -19.265625 21.53125 -20.015625 C 21.300781 -20.765625 21.101562 -21.335938 20.9375 -21.734375 C 21.40625 -21.835938 21.945312 -21.992188 22.5625 -22.203125 C 23.175781 -22.421875 23.703125 -22.75 24.140625 -23.1875 C 24.472656 -23.519531 24.953125 -24.164062 25.578125 -25.125 C 26.210938 -26.09375 26.894531 -27.164062 27.625 -28.34375 C 28.363281 -29.53125 29.015625 -30.609375 29.578125 -31.578125 L 20.09375 -31.578125 L 20.09375 -35.03125 L 33.125 -35.03125 C 32.863281 -35.925781 32.503906 -36.90625 32.046875 -37.96875 C 31.597656 -39.039062 31.125 -40.039062 30.625 -40.96875 L 34.078125 -42.03125 C 34.710938 -40.988281 35.300781 -39.828125 35.84375 -38.546875 C 36.394531 -37.265625 36.773438 -36.160156 36.984375 -35.234375 L 36.484375 -35.03125 L 47.671875 -35.03125 L 47.671875 -31.578125 L 33.578125 -31.578125 C 32.742188 -30.179688 31.773438 -28.613281 30.671875 -26.875 C 29.578125 -25.144531 28.582031 -23.597656 27.6875 -22.234375 L 36.171875 -22.734375 C 36.742188 -23.503906 37.285156 -24.28125 37.796875 -25.0625 C 38.316406 -25.84375 38.757812 -26.617188 39.125 -27.390625 Z M 19.140625 -17.9375 L 16.890625 -15.34375 C 16.554688 -16.101562 16.039062 -17.132812 15.34375 -18.4375 C 14.644531 -19.738281 13.960938 -21.003906 13.296875 -22.234375 L 13.296875 3.796875 L 9.75 3.796875 L 9.75 -20.03125 C 8.945312 -17.332031 8.03125 -14.765625 7 -12.328125 C 5.96875 -9.898438 4.882812 -7.890625 3.75 -6.296875 C 3.582031 -6.859375 3.304688 -7.488281 2.921875 -8.1875 C 2.535156 -8.894531 2.160156 -9.460938 1.796875 -9.890625 C 2.828125 -11.296875 3.84375 -13.03125 4.84375 -15.09375 C 5.84375 -17.15625 6.75 -19.375 7.5625 -21.75 C 8.382812 -24.132812 9.046875 -26.460938 9.546875 -28.734375 L 3.09375 -28.734375 L 3.09375 -32.234375 L 9.75 -32.234375 L 9.75 -41.828125 L 13.296875 -41.828125 L 13.296875 -32.234375 L 18.9375 -32.234375 L 18.9375 -28.734375 L 13.296875 -28.734375 L 13.296875 -26.78125 C 13.628906 -26.3125 14.078125 -25.660156 14.640625 -24.828125 C 15.203125 -23.992188 15.789062 -23.109375 16.40625 -22.171875 C 17.03125 -21.242188 17.59375 -20.394531 18.09375 -19.625 C 18.59375 -18.863281 18.941406 -18.300781 19.140625 -17.9375 Z M 42.765625 -18.484375 L 46.578125 -17.140625 C 45.535156 -15.335938 44.359375 -13.617188 43.046875 -11.984375 C 41.734375 -10.359375 40.289062 -8.8125 38.71875 -7.34375 C 39.820312 -6.476562 40.957031 -5.550781 42.125 -4.5625 C 43.289062 -3.582031 44.390625 -2.625 45.421875 -1.6875 C 46.453125 -0.757812 47.300781 0.0664062 47.96875 0.796875 L 45.171875 3.296875 C 44.535156 2.566406 43.71875 1.722656 42.71875 0.765625 C 41.71875 -0.179688 40.644531 -1.171875 39.5 -2.203125 C 38.351562 -3.234375 37.226562 -4.195312 36.125 -5.09375 C 31.394531 -1.300781 25.898438 1.675781 19.640625 3.84375 C 19.398438 3.414062 19.0625 2.890625 18.625 2.265625 C 18.195312 1.648438 17.800781 1.160156 17.4375 0.796875 C 21.300781 -0.460938 24.878906 -2.054688 28.171875 -3.984375 C 31.472656 -5.921875 34.375 -8.125 36.875 -10.59375 C 39.375 -13.0625 41.335938 -15.691406 42.765625 -18.484375 Z M 42.765625 -18.484375 "/></g></g></g><g fill="#efebe5" fill-opacity="1"><g transform="translate(536.968493, 121.379536)"><g><path d="M 17.1875 -37.625 L 19.640625 -40.078125 C 21.203125 -39.003906 22.84375 -37.8125 24.5625 -36.5 C 26.28125 -35.1875 27.894531 -33.878906 29.40625 -32.578125 C 30.925781 -31.273438 32.148438 -30.09375 33.078125 -29.03125 L 30.4375 -26.28125 C 29.53125 -27.3125 28.335938 -28.492188 26.859375 -29.828125 C 25.378906 -31.160156 23.785156 -32.519531 22.078125 -33.90625 C 20.378906 -35.289062 18.75 -36.53125 17.1875 -37.625 Z M 37.921875 -24.1875 L 41.375 -25.53125 C 42.34375 -23.5625 43.265625 -21.453125 44.140625 -19.203125 C 45.023438 -16.960938 45.816406 -14.765625 46.515625 -12.609375 C 47.210938 -10.460938 47.726562 -8.523438 48.0625 -6.796875 L 44.421875 -5.34375 C 44.085938 -7.070312 43.585938 -9.023438 42.921875 -11.203125 C 42.253906 -13.390625 41.488281 -15.613281 40.625 -17.875 C 39.757812 -20.144531 38.859375 -22.25 37.921875 -24.1875 Z M 6.890625 -24.234375 L 10.5 -23.53125 C 10.226562 -21.601562 9.875 -19.445312 9.4375 -17.0625 C 9.007812 -14.675781 8.519531 -12.332031 7.96875 -10.03125 C 7.414062 -7.738281 6.789062 -5.710938 6.09375 -3.953125 L 2.40625 -5.5 C 3.132812 -7.195312 3.789062 -9.128906 4.375 -11.296875 C 4.957031 -13.460938 5.460938 -15.675781 5.890625 -17.9375 C 6.328125 -20.207031 6.660156 -22.304688 6.890625 -24.234375 Z M 14.84375 -27.984375 L 18.59375 -27.984375 L 18.59375 -3.34375 C 18.59375 -2.21875 18.804688 -1.476562 19.234375 -1.125 C 19.671875 -0.769531 20.601562 -0.59375 22.03125 -0.59375 L 31.578125 -0.59375 C 32.609375 -0.59375 33.378906 -0.859375 33.890625 -1.390625 C 34.410156 -1.929688 34.78125 -2.941406 35 -4.421875 C 35.21875 -5.898438 35.394531 -8.070312 35.53125 -10.9375 C 36 -10.601562 36.5625 -10.285156 37.21875 -9.984375 C 37.882812 -9.691406 38.488281 -9.460938 39.03125 -9.296875 C 38.863281 -6.160156 38.5625 -3.703125 38.125 -1.921875 C 37.6875 -0.140625 36.984375 1.101562 36.015625 1.8125 C 35.054688 2.53125 33.644531 2.890625 31.78125 2.890625 L 21.734375 2.890625 C 19.929688 2.890625 18.53125 2.707031 17.53125 2.34375 C 16.539062 1.976562 15.84375 1.335938 15.4375 0.421875 C 15.039062 -0.492188 14.84375 -1.765625 14.84375 -3.390625 Z M 14.84375 -27.984375 "/></g></g></g><g fill="#efebe5" fill-opacity="1"><g transform="translate(586.936384, 121.379536)"><g><path d="M 17.640625 -10.046875 L 18.28125 -6.5 C 15.625 -5.59375 12.9375 -4.679688 10.21875 -3.765625 C 7.5 -2.859375 5.023438 -2.035156 2.796875 -1.296875 L 1.953125 -5.046875 C 2.878906 -5.316406 3.910156 -5.625 5.046875 -5.96875 C 6.179688 -6.320312 7.378906 -6.710938 8.640625 -7.140625 L 8.640625 -20.640625 L 3 -20.640625 L 3 -24.078125 L 8.640625 -24.078125 L 8.640625 -34.921875 L 2.453125 -34.921875 L 2.453125 -38.421875 L 17.9375 -38.421875 L 17.9375 -34.921875 L 12.1875 -34.921875 L 12.1875 -24.078125 L 17.1875 -24.078125 L 17.1875 -20.640625 L 12.1875 -20.640625 L 12.1875 -8.25 Z M 23.78125 -26.890625 L 23.78125 -20.53125 L 31.375 -20.53125 L 31.375 -26.890625 Z M 23.78125 -36.28125 L 23.78125 -29.984375 L 31.375 -29.984375 L 31.375 -36.28125 Z M 42.21875 -29.984375 L 42.21875 -36.28125 L 34.578125 -36.28125 L 34.578125 -29.984375 Z M 42.21875 -20.53125 L 42.21875 -26.890625 L 34.578125 -26.890625 L 34.578125 -20.53125 Z M 34.875 -1.203125 L 48.125 -1.203125 L 48.125 2.203125 L 15.9375 2.203125 L 15.9375 -1.203125 L 31.125 -1.203125 L 31.125 -8.046875 L 19.78125 -8.046875 L 19.78125 -11.4375 L 31.125 -11.4375 L 31.125 -17.296875 L 20.390625 -17.296875 L 20.390625 -39.53125 L 45.765625 -39.53125 L 45.765625 -17.296875 L 34.875 -17.296875 L 34.875 -11.4375 L 46.515625 -11.4375 L 46.515625 -8.046875 L 34.875 -8.046875 Z M 34.875 -1.203125 "/></g></g></g><g fill="#efebe5" fill-opacity="1"><g transform="translate(636.904274, 121.379536)"><g><path d="M 6.25 1.796875 L 2.84375 0.25 C 3.539062 -0.851562 4.207031 -2.109375 4.84375 -3.515625 C 5.476562 -4.929688 6.050781 -6.390625 6.5625 -7.890625 C 7.082031 -9.390625 7.507812 -10.773438 7.84375 -12.046875 L 11.09375 -10.796875 C 10.726562 -9.523438 10.285156 -8.128906 9.765625 -6.609375 C 9.253906 -5.097656 8.707031 -3.601562 8.125 -2.125 C 7.539062 -0.644531 6.914062 0.660156 6.25 1.796875 Z M 37.28125 -24.03125 L 39.71875 -22.484375 C 39.019531 -21.222656 38.179688 -19.914062 37.203125 -18.5625 C 36.222656 -17.21875 35.191406 -15.925781 34.109375 -14.6875 C 33.023438 -13.457031 31.984375 -12.375 30.984375 -11.4375 C 30.617188 -11.707031 30.160156 -12.015625 29.609375 -12.359375 C 29.054688 -12.710938 28.5625 -12.988281 28.125 -13.1875 C 29.195312 -14.15625 30.296875 -15.3125 31.421875 -16.65625 C 32.554688 -18.007812 33.554688 -19.351562 34.421875 -20.6875 L 8.84375 -20.6875 L 8.84375 -23.890625 L 36.671875 -23.890625 Z M 19.390625 -14.296875 L 22.4375 -15.890625 C 23.332031 -14.921875 24.28125 -13.851562 25.28125 -12.6875 C 26.28125 -11.519531 27.238281 -10.382812 28.15625 -9.28125 C 29.070312 -8.1875 29.8125 -7.222656 30.375 -6.390625 L 27.1875 -4.5 C 26.613281 -5.332031 25.882812 -6.3125 25 -7.4375 C 24.125 -8.570312 23.191406 -9.75 22.203125 -10.96875 C 21.222656 -12.1875 20.285156 -13.296875 19.390625 -14.296875 Z M 21.140625 -0.5 L 32.28125 -0.5 C 33.175781 -0.5 33.835938 -0.628906 34.265625 -0.890625 C 34.703125 -1.160156 35.015625 -1.710938 35.203125 -2.546875 C 35.390625 -3.378906 35.53125 -4.628906 35.625 -6.296875 C 36.0625 -6.023438 36.613281 -5.765625 37.28125 -5.515625 C 37.945312 -5.265625 38.546875 -5.078125 39.078125 -4.953125 C 38.910156 -2.847656 38.617188 -1.226562 38.203125 -0.09375 C 37.785156 1.03125 37.144531 1.804688 36.28125 2.234375 C 35.414062 2.671875 34.164062 2.890625 32.53125 2.890625 L 20.984375 2.890625 C 19.054688 2.890625 17.566406 2.738281 16.515625 2.4375 C 15.460938 2.144531 14.726562 1.625 14.3125 0.875 C 13.894531 0.125 13.6875 -0.914062 13.6875 -2.25 L 13.6875 -11.9375 L 17.390625 -11.9375 L 17.390625 -2.25 C 17.390625 -1.519531 17.613281 -1.046875 18.0625 -0.828125 C 18.507812 -0.609375 19.535156 -0.5 21.140625 -0.5 Z M 36.984375 -12.390625 L 40.375 -13.4375 C 41.101562 -12.039062 41.875 -10.523438 42.6875 -8.890625 C 43.507812 -7.265625 44.285156 -5.691406 45.015625 -4.171875 C 45.753906 -2.660156 46.359375 -1.335938 46.828125 -0.203125 L 43.171875 1.203125 C 42.773438 0.0664062 42.222656 -1.28125 41.515625 -2.84375 C 40.816406 -4.414062 40.066406 -6.039062 39.265625 -7.71875 C 38.472656 -9.40625 37.710938 -10.960938 36.984375 -12.390625 Z M 16.484375 -30.625 L 33.984375 -30.625 C 30.515625 -32.757812 27.414062 -35.078125 24.6875 -37.578125 C 22.382812 -34.941406 19.648438 -32.625 16.484375 -30.625 Z M 23.9375 -42.578125 L 27.4375 -41.328125 C 27.300781 -41.128906 27.175781 -40.925781 27.0625 -40.71875 C 26.945312 -40.519531 26.820312 -40.335938 26.6875 -40.171875 C 28.382812 -38.535156 30.40625 -36.941406 32.75 -35.390625 C 35.101562 -33.847656 37.59375 -32.457031 40.21875 -31.21875 C 42.851562 -29.988281 45.40625 -28.992188 47.875 -28.234375 C 47.4375 -27.867188 46.96875 -27.367188 46.46875 -26.734375 C 45.96875 -26.097656 45.585938 -25.53125 45.328125 -25.03125 C 43.554688 -25.695312 41.710938 -26.492188 39.796875 -27.421875 C 37.878906 -28.359375 35.988281 -29.394531 34.125 -30.53125 L 34.125 -27.53125 L 15.640625 -27.53125 L 15.640625 -30.078125 C 13.941406 -29.046875 12.148438 -28.097656 10.265625 -27.234375 C 8.390625 -26.367188 6.414062 -25.550781 4.34375 -24.78125 C 4.113281 -25.21875 3.753906 -25.734375 3.265625 -26.328125 C 2.785156 -26.929688 2.363281 -27.398438 2 -27.734375 C 5.257812 -28.828125 8.320312 -30.109375 11.1875 -31.578125 C 14.050781 -33.046875 16.570312 -34.703125 18.75 -36.546875 C 20.9375 -38.398438 22.664062 -40.410156 23.9375 -42.578125 Z M 23.9375 -42.578125 "/></g></g></g><g fill="#efebe5" fill-opacity="1"><g transform="translate(232.195257, 182.980018)"><g><path d="M 18.96875 -10.453125 L 28.375 -10.453125 L 28.375 -16.265625 L 18.96875 -16.265625 Z M 7.875 -10.453125 L 16.375 -10.453125 L 16.375 -16.265625 L 8.015625 -16.265625 L 8.015625 -14.203125 C 8.015625 -13.617188 8 -13.007812 7.96875 -12.375 C 7.945312 -11.75 7.914062 -11.109375 7.875 -10.453125 Z M 16.375 -24.3125 L 8.015625 -24.3125 L 8.015625 -18.71875 L 16.375 -18.71875 Z M 28.375 -18.71875 L 28.375 -24.3125 L 18.96875 -24.3125 L 18.96875 -18.71875 Z M 30.921875 -26.796875 L 30.921875 -0.84375 C 30.921875 0 30.796875 0.632812 30.546875 1.0625 C 30.304688 1.5 29.910156 1.832031 29.359375 2.0625 C 28.773438 2.269531 27.957031 2.394531 26.90625 2.4375 C 25.851562 2.488281 24.5 2.503906 22.84375 2.484375 C 22.800781 2.128906 22.691406 1.707031 22.515625 1.21875 C 22.335938 0.726562 22.15625 0.3125 21.96875 -0.03125 C 23.207031 0.0078125 24.347656 0.03125 25.390625 0.03125 C 26.441406 0.03125 27.117188 0.03125 27.421875 0.03125 C 27.773438 0.0078125 28.019531 -0.0625 28.15625 -0.1875 C 28.300781 -0.320312 28.375 -0.550781 28.375 -0.875 L 28.375 -7.96875 L 18.96875 -7.96875 L 18.96875 2.34375 L 16.375 2.34375 L 16.375 -7.96875 L 7.625 -7.96875 C 7.363281 -6.039062 6.898438 -4.125 6.234375 -2.21875 C 5.578125 -0.320312 4.582031 1.375 3.25 2.875 C 3.0625 2.613281 2.75 2.300781 2.3125 1.9375 C 1.882812 1.582031 1.535156 1.320312 1.265625 1.15625 C 2.546875 -0.289062 3.484375 -1.894531 4.078125 -3.65625 C 4.671875 -5.414062 5.046875 -7.210938 5.203125 -9.046875 C 5.367188 -10.878906 5.453125 -12.597656 5.453125 -14.203125 L 5.453125 -26.796875 Z M 30.921875 -26.796875 "/></g></g></g><g fill="#efebe5" fill-opacity="1"><g transform="translate(267.170282, 182.980018)"><g><path d="M 12.03125 -26.34375 L 13.75 -28.0625 C 14.84375 -27.3125 15.988281 -26.472656 17.1875 -25.546875 C 18.394531 -24.628906 19.53125 -23.71875 20.59375 -22.8125 C 21.65625 -21.90625 22.507812 -21.078125 23.15625 -20.328125 L 21.3125 -18.40625 C 20.675781 -19.125 19.835938 -19.945312 18.796875 -20.875 C 17.765625 -21.8125 16.648438 -22.765625 15.453125 -23.734375 C 14.265625 -24.703125 13.125 -25.570312 12.03125 -26.34375 Z M 26.546875 -16.9375 L 28.96875 -17.875 C 29.644531 -16.5 30.289062 -15.023438 30.90625 -13.453125 C 31.519531 -11.878906 32.070312 -10.335938 32.5625 -8.828125 C 33.0625 -7.328125 33.425781 -5.972656 33.65625 -4.765625 L 31.09375 -3.75 C 30.863281 -4.957031 30.515625 -6.320312 30.046875 -7.84375 C 29.585938 -9.375 29.050781 -10.929688 28.4375 -12.515625 C 27.832031 -14.109375 27.203125 -15.582031 26.546875 -16.9375 Z M 4.828125 -16.96875 L 7.34375 -16.484375 C 7.15625 -15.128906 6.910156 -13.617188 6.609375 -11.953125 C 6.304688 -10.285156 5.960938 -8.644531 5.578125 -7.03125 C 5.191406 -5.425781 4.753906 -4.003906 4.265625 -2.765625 L 1.671875 -3.84375 C 2.191406 -5.03125 2.65625 -6.382812 3.0625 -7.90625 C 3.46875 -9.425781 3.820312 -10.976562 4.125 -12.5625 C 4.425781 -14.144531 4.660156 -15.613281 4.828125 -16.96875 Z M 10.390625 -19.59375 L 13.015625 -19.59375 L 13.015625 -2.34375 C 13.015625 -1.550781 13.164062 -1.03125 13.46875 -0.78125 C 13.769531 -0.539062 14.421875 -0.421875 15.421875 -0.421875 L 22.109375 -0.421875 C 22.828125 -0.421875 23.367188 -0.609375 23.734375 -0.984375 C 24.097656 -1.359375 24.351562 -2.0625 24.5 -3.09375 C 24.65625 -4.132812 24.78125 -5.65625 24.875 -7.65625 C 25.195312 -7.425781 25.59375 -7.207031 26.0625 -7 C 26.53125 -6.789062 26.953125 -6.625 27.328125 -6.5 C 27.203125 -4.3125 26.988281 -2.59375 26.6875 -1.34375 C 26.382812 -0.09375 25.894531 0.78125 25.21875 1.28125 C 24.539062 1.78125 23.550781 2.03125 22.25 2.03125 L 15.21875 2.03125 C 13.957031 2.03125 12.976562 1.898438 12.28125 1.640625 C 11.582031 1.390625 11.09375 0.941406 10.8125 0.296875 C 10.53125 -0.347656 10.390625 -1.238281 10.390625 -2.375 Z M 10.390625 -19.59375 "/></g></g></g><g fill="#efebe5" fill-opacity="1"><g transform="translate(302.145307, 182.980018)"><g><path d="M 23.46875 -10.421875 L 23.46875 -0.59375 L 32.703125 -0.59375 L 32.703125 1.859375 L 11.6875 1.859375 L 11.6875 -0.59375 L 20.890625 -0.59375 L 20.890625 -10.421875 L 13.046875 -10.421875 L 13.046875 -12.875 L 20.890625 -12.875 L 20.890625 -19.5625 L 23.46875 -19.5625 L 23.46875 -12.875 L 31.34375 -12.875 L 31.34375 -10.421875 Z M 14.6875 -23.859375 L 32.703125 -23.859375 L 32.703125 -21.375 L 13.640625 -21.375 C 13.035156 -20.113281 12.382812 -18.890625 11.6875 -17.703125 C 10.988281 -16.515625 10.226562 -15.359375 9.40625 -14.234375 L 9.40625 2.515625 L 6.859375 2.515625 L 6.859375 -11.15625 C 6.253906 -10.507812 5.613281 -9.894531 4.9375 -9.3125 C 4.257812 -8.726562 3.546875 -8.164062 2.796875 -7.625 C 2.679688 -7.976562 2.484375 -8.382812 2.203125 -8.84375 C 1.921875 -9.3125 1.675781 -9.6875 1.46875 -9.96875 C 3.476562 -11.394531 5.25 -13.097656 6.78125 -15.078125 C 8.320312 -17.054688 9.628906 -19.15625 10.703125 -21.375 L 2.3125 -21.375 L 2.3125 -23.859375 L 11.859375 -23.859375 C 12.578125 -25.628906 13.195312 -27.4375 13.71875 -29.28125 L 16.375 -28.625 C 16.132812 -27.820312 15.875 -27.023438 15.59375 -26.234375 C 15.320312 -25.441406 15.019531 -24.648438 14.6875 -23.859375 Z M 14.6875 -23.859375 "/></g></g></g><g fill="#efebe5" fill-opacity="1"><g transform="translate(337.120332, 182.980018)"><g><path d="M 28.203125 -23.234375 L 28.203125 -25.890625 L 17.984375 -25.890625 L 17.984375 -23.234375 Z M 28.203125 -18.578125 L 28.203125 -21.34375 L 17.984375 -21.34375 L 17.984375 -18.578125 Z M 30.640625 -27.875 L 30.640625 -16.578125 L 15.5625 -16.578125 L 15.5625 -27.875 Z M 11.1875 -27.875 L 12.875 -26.875 C 12.363281 -25.445312 11.800781 -23.898438 11.1875 -22.234375 C 10.582031 -20.566406 9.988281 -19.046875 9.40625 -17.671875 C 10.664062 -16.242188 11.5 -14.90625 11.90625 -13.65625 C 12.320312 -12.414062 12.53125 -11.257812 12.53125 -10.1875 C 12.53125 -9.25 12.414062 -8.429688 12.1875 -7.734375 C 11.96875 -7.035156 11.625 -6.519531 11.15625 -6.1875 C 10.664062 -5.84375 10.0625 -5.632812 9.34375 -5.5625 C 8.988281 -5.539062 8.609375 -5.515625 8.203125 -5.484375 C 7.796875 -5.460938 7.394531 -5.46875 7 -5.5 C 6.976562 -5.820312 6.910156 -6.203125 6.796875 -6.640625 C 6.691406 -7.085938 6.535156 -7.472656 6.328125 -7.796875 C 6.722656 -7.773438 7.09375 -7.757812 7.4375 -7.75 C 7.789062 -7.738281 8.097656 -7.742188 8.359375 -7.765625 C 8.804688 -7.765625 9.179688 -7.859375 9.484375 -8.046875 C 9.734375 -8.234375 9.910156 -8.546875 10.015625 -8.984375 C 10.128906 -9.429688 10.1875 -9.910156 10.1875 -10.421875 C 10.1875 -11.378906 9.976562 -12.4375 9.5625 -13.59375 C 9.15625 -14.75 8.320312 -16.003906 7.0625 -17.359375 C 7.582031 -18.640625 8.078125 -20 8.546875 -21.4375 C 9.023438 -22.882812 9.453125 -24.207031 9.828125 -25.40625 L 5.25 -25.40625 L 5.25 2.65625 L 2.9375 2.65625 L 2.9375 -27.78125 L 10.78125 -27.78125 Z M 33.484375 -12.390625 L 19.59375 -12.390625 C 19.21875 -11.523438 18.785156 -10.695312 18.296875 -9.90625 L 32.296875 -9.90625 C 32.296875 -9.90625 32.285156 -9.773438 32.265625 -9.515625 C 32.253906 -9.253906 32.238281 -9.03125 32.21875 -8.84375 C 32.082031 -6.519531 31.929688 -4.640625 31.765625 -3.203125 C 31.597656 -1.765625 31.414062 -0.671875 31.21875 0.078125 C 31.019531 0.835938 30.769531 1.382812 30.46875 1.71875 C 30.238281 2.019531 29.972656 2.226562 29.671875 2.34375 C 29.367188 2.457031 29.019531 2.539062 28.625 2.59375 C 28.269531 2.613281 27.804688 2.628906 27.234375 2.640625 C 26.660156 2.648438 26.070312 2.632812 25.46875 2.59375 C 25.445312 2.257812 25.382812 1.890625 25.28125 1.484375 C 25.175781 1.078125 25.039062 0.722656 24.875 0.421875 C 25.457031 0.460938 25.988281 0.492188 26.46875 0.515625 C 26.945312 0.546875 27.300781 0.5625 27.53125 0.5625 C 27.757812 0.5625 27.953125 0.539062 28.109375 0.5 C 28.265625 0.46875 28.398438 0.367188 28.515625 0.203125 C 28.765625 -0.0976562 29 -0.84375 29.21875 -2.03125 C 29.445312 -3.21875 29.644531 -5.140625 29.8125 -7.796875 L 27.421875 -7.796875 C 26.722656 -5.679688 25.796875 -3.726562 24.640625 -1.9375 C 23.492188 -0.15625 22.207031 1.335938 20.78125 2.546875 C 20.613281 2.367188 20.347656 2.117188 19.984375 1.796875 C 19.628906 1.484375 19.320312 1.234375 19.0625 1.046875 C 20.394531 0.0234375 21.578125 -1.25 22.609375 -2.78125 C 23.648438 -4.3125 24.488281 -5.984375 25.125 -7.796875 L 22.21875 -7.796875 C 21.257812 -5.816406 20.039062 -3.976562 18.5625 -2.28125 C 17.082031 -0.59375 15.515625 0.832031 13.859375 2 C 13.710938 1.757812 13.484375 1.457031 13.171875 1.09375 C 12.859375 0.738281 12.582031 0.476562 12.34375 0.3125 C 13.84375 -0.644531 15.242188 -1.828125 16.546875 -3.234375 C 17.847656 -4.648438 18.929688 -6.171875 19.796875 -7.796875 L 16.859375 -7.796875 C 15.554688 -6.140625 14.160156 -4.753906 12.671875 -3.640625 C 12.503906 -3.867188 12.238281 -4.144531 11.875 -4.46875 C 11.507812 -4.800781 11.203125 -5.070312 10.953125 -5.28125 C 12.253906 -6.144531 13.4375 -7.179688 14.5 -8.390625 C 15.5625 -9.609375 16.441406 -10.941406 17.140625 -12.390625 L 12.53125 -12.390625 L 12.53125 -14.515625 L 33.484375 -14.515625 Z M 33.484375 -12.390625 "/></g></g></g><g fill="#efebe5" fill-opacity="1"><g transform="translate(372.095358, 182.980018)"><g><path d="M 27.78125 -27.953125 L 30.40625 -26.96875 C 29.9375 -25.96875 29.421875 -24.925781 28.859375 -23.84375 C 28.296875 -22.757812 27.726562 -21.71875 27.15625 -20.71875 C 26.59375 -19.726562 26.050781 -18.863281 25.53125 -18.125 L 23.375 -19 C 23.882812 -19.789062 24.410156 -20.703125 24.953125 -21.734375 C 25.503906 -22.773438 26.03125 -23.835938 26.53125 -24.921875 C 27.03125 -26.003906 27.445312 -27.015625 27.78125 -27.953125 Z M 11.515625 -19 L 9.0625 -18.015625 C 8.851562 -18.785156 8.53125 -19.671875 8.09375 -20.671875 C 7.664062 -21.679688 7.175781 -22.707031 6.625 -23.75 C 6.082031 -24.800781 5.519531 -25.78125 4.9375 -26.6875 L 7.28125 -27.5625 C 7.882812 -26.675781 8.460938 -25.71875 9.015625 -24.6875 C 9.578125 -23.664062 10.078125 -22.660156 10.515625 -21.671875 C 10.960938 -20.679688 11.296875 -19.789062 11.515625 -19 Z M 24.734375 0.171875 L 29.28125 0.171875 C 29.75 0.171875 30.097656 0.03125 30.328125 -0.25 C 30.566406 -0.53125 30.738281 -1.09375 30.84375 -1.9375 C 30.945312 -2.789062 31.019531 -4.046875 31.0625 -5.703125 C 31.34375 -5.472656 31.722656 -5.25 32.203125 -5.03125 C 32.679688 -4.820312 33.09375 -4.660156 33.4375 -4.546875 C 33.351562 -2.679688 33.1875 -1.226562 32.9375 -0.1875 C 32.695312 0.84375 32.304688 1.5625 31.765625 1.96875 C 31.234375 2.382812 30.472656 2.59375 29.484375 2.59375 L 24.453125 2.59375 C 22.910156 2.59375 21.863281 2.328125 21.3125 1.796875 C 20.769531 1.273438 20.5 0.28125 20.5 -1.1875 L 20.5 -13.53125 L 14.0625 -13.53125 C 13.894531 -11.625 13.625 -9.84375 13.25 -8.1875 C 12.882812 -6.53125 12.3125 -5.019531 11.53125 -3.65625 C 10.75 -2.289062 9.660156 -1.078125 8.265625 -0.015625 C 6.878906 1.046875 5.101562 1.9375 2.9375 2.65625 C 2.800781 2.332031 2.566406 1.941406 2.234375 1.484375 C 1.910156 1.023438 1.609375 0.679688 1.328125 0.453125 C 3.359375 -0.148438 5.003906 -0.910156 6.265625 -1.828125 C 7.523438 -2.753906 8.5 -3.804688 9.1875 -4.984375 C 9.875 -6.160156 10.367188 -7.46875 10.671875 -8.90625 C 10.972656 -10.34375 11.191406 -11.882812 11.328125 -13.53125 L 2.03125 -13.53125 L 2.03125 -16.015625 L 16.09375 -16.015625 L 16.09375 -29.28125 L 18.6875 -29.28125 L 18.6875 -16.015625 L 33.0625 -16.015625 L 33.0625 -13.53125 L 23.125 -13.53125 L 23.125 -1.21875 C 23.125 -0.632812 23.226562 -0.253906 23.4375 -0.078125 C 23.644531 0.0859375 24.078125 0.171875 24.734375 0.171875 Z M 24.734375 0.171875 "/></g></g></g><g fill="#efebe5" fill-opacity="1"><g transform="translate(407.070383, 182.980018)"><g><path d="M 33.171875 -28.125 L 33.171875 -26.203125 L 22.078125 -26.203125 L 22.078125 -28.125 Z M 32.4375 -18.359375 L 30.359375 -18.359375 L 30.359375 -23.125 L 24.84375 -23.125 L 24.84375 -18.359375 L 22.84375 -18.359375 L 22.84375 -24.765625 L 32.4375 -24.765625 Z M 29.03125 -19.34375 L 27.53125 -18.78125 C 27.394531 -19.207031 27.191406 -19.71875 26.921875 -20.3125 C 26.648438 -20.90625 26.390625 -21.457031 26.140625 -21.96875 L 27.5625 -22.390625 C 27.84375 -21.921875 28.125 -21.394531 28.40625 -20.8125 C 28.6875 -20.226562 28.894531 -19.738281 29.03125 -19.34375 Z M 20.703125 -28.125 L 20.703125 -26.203125 L 9.828125 -26.203125 L 9.828125 -28.125 Z M 8.640625 -24.796875 L 7.0625 -23.15625 C 6.59375 -23.757812 5.90625 -24.460938 5 -25.265625 C 4.09375 -26.078125 3.207031 -26.773438 2.34375 -27.359375 L 3.84375 -28.859375 C 4.707031 -28.273438 5.597656 -27.601562 6.515625 -26.84375 C 7.441406 -26.09375 8.148438 -25.410156 8.640625 -24.796875 Z M 7.90625 -15.890625 L 6.4375 -14.09375 C 5.894531 -14.632812 5.132812 -15.226562 4.15625 -15.875 C 3.175781 -16.53125 2.234375 -17.113281 1.328125 -17.625 L 2.765625 -19.171875 C 3.648438 -18.722656 4.582031 -18.191406 5.5625 -17.578125 C 6.539062 -16.960938 7.320312 -16.398438 7.90625 -15.890625 Z M 6.359375 -10.046875 L 8.21875 -8.71875 C 7.613281 -6.9375 6.914062 -5.070312 6.125 -3.125 C 5.332031 -1.175781 4.570312 0.5625 3.84375 2.09375 L 1.75 0.796875 C 2.1875 -0.0859375 2.679688 -1.128906 3.234375 -2.328125 C 3.785156 -3.523438 4.332031 -4.796875 4.875 -6.140625 C 5.425781 -7.484375 5.921875 -8.785156 6.359375 -10.046875 Z M 12.90625 -11.546875 L 12.90625 -10.703125 C 12.90625 -10.472656 12.90625 -10.226562 12.90625 -9.96875 C 12.90625 -9.707031 12.894531 -9.441406 12.875 -9.171875 L 16.890625 -9.171875 L 16.890625 -11.546875 Z M 16.890625 -15.359375 L 12.90625 -15.359375 L 12.90625 -13.296875 L 16.890625 -13.296875 Z M 23.265625 -13.296875 L 23.265625 -15.359375 L 19.03125 -15.359375 L 19.03125 -13.296875 Z M 23.265625 -9.171875 L 23.265625 -11.546875 L 19.03125 -11.546875 L 19.03125 -9.171875 Z M 29.59375 -11.546875 L 25.359375 -11.546875 L 25.359375 -9.171875 L 29.59375 -9.171875 Z M 26.96875 0.3125 L 30.5 0.3125 C 30.894531 0.3125 31.15625 0.1875 31.28125 -0.0625 C 31.414062 -0.320312 31.492188 -0.90625 31.515625 -1.8125 C 31.753906 -1.65625 32.066406 -1.5 32.453125 -1.34375 C 32.835938 -1.195312 33.179688 -1.097656 33.484375 -1.046875 C 33.390625 0.179688 33.144531 1.019531 32.75 1.46875 C 32.351562 1.914062 31.695312 2.140625 30.78125 2.140625 L 26.734375 2.140625 C 25.441406 2.140625 24.585938 1.953125 24.171875 1.578125 C 23.753906 1.203125 23.546875 0.476562 23.546875 -0.59375 L 23.546875 -7.375 L 16.859375 -7.375 L 16.859375 -5.28125 L 22.25 -5.28125 L 22.25 -3.5 L 16.859375 -3.5 L 16.859375 0 L 22.390625 -0.9375 C 22.390625 -0.632812 22.398438 -0.3125 22.421875 0.03125 C 22.441406 0.382812 22.46875 0.675781 22.5 0.90625 C 20.863281 1.238281 19.539062 1.507812 18.53125 1.71875 C 17.53125 1.925781 16.75 2.097656 16.1875 2.234375 C 15.632812 2.378906 15.226562 2.488281 14.96875 2.5625 C 14.71875 2.644531 14.519531 2.734375 14.375 2.828125 C 14.351562 2.523438 14.269531 2.144531 14.125 1.6875 C 13.988281 1.238281 13.835938 0.875 13.671875 0.59375 C 13.929688 0.519531 14.164062 0.398438 14.375 0.234375 C 14.582031 0.078125 14.6875 -0.289062 14.6875 -0.875 L 14.6875 -7.375 L 12.765625 -7.375 C 12.648438 -5.675781 12.363281 -3.929688 11.90625 -2.140625 C 11.457031 -0.359375 10.726562 1.238281 9.71875 2.65625 C 9.539062 2.46875 9.234375 2.242188 8.796875 1.984375 C 8.367188 1.734375 8.015625 1.550781 7.734375 1.4375 C 8.597656 0.21875 9.226562 -1.097656 9.625 -2.515625 C 10.019531 -3.941406 10.273438 -5.363281 10.390625 -6.78125 C 10.503906 -8.207031 10.5625 -9.523438 10.5625 -10.734375 L 10.5625 -17.3125 L 20.53125 -17.3125 C 20.46875 -17.5 20.394531 -17.6875 20.3125 -17.875 C 20.226562 -18.0625 20.148438 -18.25 20.078125 -18.4375 L 18.09375 -18.4375 L 18.09375 -23.125 L 12.703125 -23.125 L 12.703125 -18.359375 L 10.703125 -18.359375 L 10.703125 -24.765625 L 20.109375 -24.765625 L 20.109375 -19.484375 L 21.796875 -19.96875 C 22.003906 -19.570312 22.210938 -19.128906 22.421875 -18.640625 C 22.628906 -18.148438 22.816406 -17.707031 22.984375 -17.3125 L 33.171875 -17.3125 L 33.171875 -15.359375 L 25.359375 -15.359375 L 25.359375 -13.296875 L 31.96875 -13.296875 L 31.96875 -7.375 L 25.8125 -7.375 L 25.8125 -5.28125 L 31.734375 -5.28125 L 31.734375 -3.53125 L 25.8125 -3.53125 L 25.8125 -0.59375 C 25.8125 -0.21875 25.878906 0.0234375 26.015625 0.140625 C 26.160156 0.253906 26.476562 0.3125 26.96875 0.3125 Z M 13.921875 -21.9375 L 15.390625 -22.359375 C 15.648438 -21.890625 15.898438 -21.367188 16.140625 -20.796875 C 16.390625 -20.222656 16.570312 -19.738281 16.6875 -19.34375 L 15.140625 -18.828125 C 15.054688 -19.242188 14.894531 -19.742188 14.65625 -20.328125 C 14.425781 -20.910156 14.179688 -21.445312 13.921875 -21.9375 Z M 13.921875 -21.9375 "/></g></g></g><g fill="#efebe5" fill-opacity="1"><g transform="translate(442.045408, 182.980018)"><g><path d="M 22.53125 -21.546875 L 22.53125 -24.53125 L 18.40625 -24.53125 L 18.40625 -26.828125 L 22.53125 -26.828125 L 22.53125 -29.25 L 25.078125 -29.25 L 25.078125 -26.828125 L 32.703125 -26.828125 L 32.703125 -24.53125 L 25.078125 -24.53125 L 25.078125 -21.546875 Z M 9.796875 -21.546875 L 9.796875 -24.484375 L 2.234375 -24.484375 L 2.234375 -26.828125 L 9.796875 -26.828125 L 9.796875 -29.25 L 12.3125 -29.25 L 12.3125 -26.828125 L 16.625 -26.828125 L 16.625 -24.484375 L 12.3125 -24.484375 L 12.3125 -21.546875 Z M 3.890625 -20.21875 L 5.421875 -21.90625 C 6.023438 -21.550781 6.691406 -21.15625 7.421875 -20.71875 C 8.160156 -20.289062 8.878906 -19.878906 9.578125 -19.484375 C 10.285156 -19.085938 10.867188 -18.75 11.328125 -18.46875 L 9.796875 -16.515625 C 9.347656 -16.816406 8.78125 -17.175781 8.09375 -17.59375 C 7.40625 -18.019531 6.6875 -18.460938 5.9375 -18.921875 C 5.195312 -19.390625 4.515625 -19.820312 3.890625 -20.21875 Z M 9.03125 -11.859375 L 7.484375 -9.859375 C 7.046875 -10.191406 6.488281 -10.566406 5.8125 -10.984375 C 5.132812 -11.398438 4.421875 -11.828125 3.671875 -12.265625 C 2.921875 -12.710938 2.222656 -13.113281 1.578125 -13.46875 L 3.046875 -15.21875 C 3.691406 -14.894531 4.394531 -14.523438 5.15625 -14.109375 C 5.914062 -13.703125 6.640625 -13.300781 7.328125 -12.90625 C 8.015625 -12.507812 8.582031 -12.160156 9.03125 -11.859375 Z M 4.125 2.546875 L 2.234375 0.5625 C 2.890625 -0.132812 3.613281 -0.96875 4.40625 -1.9375 C 5.195312 -2.90625 6.003906 -3.925781 6.828125 -5 C 7.660156 -6.070312 8.441406 -7.132812 9.171875 -8.1875 L 10.78125 -6.328125 C 9.800781 -4.878906 8.71875 -3.359375 7.53125 -1.765625 C 6.351562 -0.171875 5.21875 1.265625 4.125 2.546875 Z M 27.609375 -5.625 L 16.625 -5.625 L 16.625 -0.875 L 27.609375 -0.875 Z M 14.140625 2.6875 L 14.140625 -7.703125 L 30.15625 -7.703125 L 30.15625 2.6875 L 27.609375 2.6875 L 27.609375 1.1875 L 16.625 1.1875 L 16.625 2.6875 Z M 17.765625 -18.046875 L 17.5625 -17.8125 C 18.21875 -17.15625 18.957031 -16.515625 19.78125 -15.890625 C 20.613281 -15.273438 21.503906 -14.675781 22.453125 -14.09375 C 23.410156 -14.707031 24.296875 -15.335938 25.109375 -15.984375 C 25.929688 -16.640625 26.65625 -17.328125 27.28125 -18.046875 Z M 29.421875 -20.21875 L 31.0625 -19.171875 C 30.320312 -17.960938 29.40625 -16.832031 28.3125 -15.78125 C 27.226562 -14.726562 26.035156 -13.757812 24.734375 -12.875 C 27.671875 -11.425781 30.75 -10.363281 33.96875 -9.6875 C 33.6875 -9.4375 33.394531 -9.09375 33.09375 -8.65625 C 32.789062 -8.226562 32.546875 -7.847656 32.359375 -7.515625 C 30.679688 -7.941406 29 -8.5 27.3125 -9.1875 C 25.632812 -9.875 24.03125 -10.648438 22.5 -11.515625 C 20.8125 -10.578125 19.050781 -9.757812 17.21875 -9.0625 C 15.394531 -8.363281 13.597656 -7.78125 11.828125 -7.3125 C 11.679688 -7.632812 11.484375 -8.003906 11.234375 -8.421875 C 10.992188 -8.847656 10.757812 -9.175781 10.53125 -9.40625 C 12.113281 -9.757812 13.75 -10.226562 15.4375 -10.8125 C 17.132812 -11.394531 18.753906 -12.082031 20.296875 -12.875 C 19.523438 -13.382812 18.796875 -13.929688 18.109375 -14.515625 C 17.421875 -15.097656 16.769531 -15.679688 16.15625 -16.265625 C 15.570312 -15.679688 14.945312 -15.09375 14.28125 -14.5 C 13.625 -13.90625 12.921875 -13.335938 12.171875 -12.796875 C 11.941406 -13.054688 11.648438 -13.34375 11.296875 -13.65625 C 10.953125 -13.976562 10.628906 -14.21875 10.328125 -14.375 C 12.140625 -15.613281 13.722656 -16.984375 15.078125 -18.484375 C 16.429688 -19.992188 17.484375 -21.390625 18.234375 -22.671875 L 20.78125 -22.1875 C 20.570312 -21.832031 20.34375 -21.484375 20.09375 -21.140625 C 19.851562 -20.804688 19.601562 -20.453125 19.34375 -20.078125 L 29 -20.078125 Z M 29.421875 -20.21875 "/></g></g></g><g fill="#efebe5" fill-opacity="1"><g transform="translate(477.020433, 182.980018)"><g><path d="M 12.875 -14.03125 L 12.875 -21.34375 L 5.53125 -21.34375 L 5.53125 -14.03125 Z M 5.53125 -3.328125 L 12.875 -3.328125 L 12.875 -11.71875 L 5.53125 -11.71875 Z M 8.46875 -29.359375 L 11.265625 -28.828125 C 10.960938 -27.960938 10.660156 -27.070312 10.359375 -26.15625 C 10.054688 -25.25 9.753906 -24.425781 9.453125 -23.6875 L 15.25 -23.6875 L 15.25 -0.984375 L 5.53125 -0.984375 L 5.53125 1.78125 L 3.15625 1.78125 L 3.15625 -23.6875 L 7.0625 -23.6875 C 7.320312 -24.519531 7.59375 -25.46875 7.875 -26.53125 C 8.15625 -27.59375 8.351562 -28.535156 8.46875 -29.359375 Z M 32.359375 -23.796875 L 32.359375 -22.453125 C 32.222656 -18.472656 32.082031 -15.101562 31.9375 -12.34375 C 31.800781 -9.59375 31.644531 -7.34375 31.46875 -5.59375 C 31.289062 -3.84375 31.078125 -2.476562 30.828125 -1.5 C 30.585938 -0.519531 30.296875 0.175781 29.953125 0.59375 C 29.578125 1.082031 29.171875 1.425781 28.734375 1.625 C 28.304688 1.820312 27.789062 1.945312 27.1875 2 C 26.570312 2.0625 25.796875 2.082031 24.859375 2.0625 C 23.929688 2.039062 22.976562 2.003906 22 1.953125 C 21.976562 1.554688 21.890625 1.125 21.734375 0.65625 C 21.585938 0.195312 21.382812 -0.21875 21.125 -0.59375 C 22.269531 -0.5 23.320312 -0.441406 24.28125 -0.421875 C 25.238281 -0.398438 25.914062 -0.390625 26.3125 -0.390625 C 26.65625 -0.390625 26.9375 -0.414062 27.15625 -0.46875 C 27.382812 -0.53125 27.582031 -0.675781 27.75 -0.90625 C 28.019531 -1.207031 28.265625 -1.796875 28.484375 -2.671875 C 28.710938 -3.546875 28.90625 -4.78125 29.0625 -6.375 C 29.226562 -7.976562 29.375 -10.007812 29.5 -12.46875 C 29.632812 -14.925781 29.757812 -17.894531 29.875 -21.375 L 20.984375 -21.375 C 20.492188 -20.207031 19.972656 -19.097656 19.421875 -18.046875 C 18.878906 -17.003906 18.304688 -16.070312 17.703125 -15.25 C 17.472656 -15.457031 17.128906 -15.710938 16.671875 -16.015625 C 16.210938 -16.328125 15.84375 -16.5625 15.5625 -16.71875 C 16.726562 -18.257812 17.769531 -20.160156 18.6875 -22.421875 C 19.613281 -24.679688 20.359375 -27.015625 20.921875 -29.421875 L 23.40625 -28.828125 C 23.195312 -27.960938 22.96875 -27.109375 22.71875 -26.265625 C 22.476562 -25.429688 22.207031 -24.609375 21.90625 -23.796875 Z M 26.828125 -8.046875 L 24.625 -6.6875 C 24.28125 -7.382812 23.804688 -8.203125 23.203125 -9.140625 C 22.609375 -10.085938 21.972656 -11.050781 21.296875 -12.03125 C 20.628906 -13.007812 19.96875 -13.921875 19.3125 -14.765625 L 21.34375 -15.953125 C 21.988281 -15.140625 22.660156 -14.25 23.359375 -13.28125 C 24.066406 -12.3125 24.726562 -11.367188 25.34375 -10.453125 C 25.957031 -9.546875 26.453125 -8.742188 26.828125 -8.046875 Z M 26.828125 -8.046875 "/></g></g></g><g fill="#efebe5" fill-opacity="1"><g transform="translate(511.995459, 182.980018)"><g><path d="M 19.09375 -9.9375 L 29.53125 -9.9375 C 28.550781 -10.519531 27.628906 -11.164062 26.765625 -11.875 C 25.898438 -12.582031 25.09375 -13.3125 24.34375 -14.0625 C 22.738281 -12.457031 20.988281 -11.082031 19.09375 -9.9375 Z M 19.9375 -0.9375 L 28.6875 -0.9375 L 28.6875 -7.65625 L 19.9375 -7.65625 Z M 14.796875 -12.109375 L 14.796875 -10.421875 C 16.191406 -11.023438 17.566406 -11.78125 18.921875 -12.6875 C 20.273438 -13.601562 21.546875 -14.671875 22.734375 -15.890625 C 22.085938 -16.679688 21.5 -17.476562 20.96875 -18.28125 C 20.445312 -19.082031 19.960938 -19.878906 19.515625 -20.671875 C 19.023438 -19.898438 18.507812 -19.179688 17.96875 -18.515625 C 17.4375 -17.859375 16.894531 -17.238281 16.34375 -16.65625 C 16.15625 -16.84375 15.882812 -17.09375 15.53125 -17.40625 C 15.1875 -17.71875 14.847656 -17.976562 14.515625 -18.1875 L 14.515625 -17.140625 L 10.5 -17.140625 L 10.5 -12.109375 Z M 5.53125 -25.53125 L 5.53125 -19.421875 L 12.109375 -19.421875 L 12.109375 -25.53125 Z M 27.84375 -23.4375 L 21.125 -23.4375 L 20.78125 -22.78125 C 21.226562 -21.914062 21.734375 -21.039062 22.296875 -20.15625 C 22.867188 -19.269531 23.519531 -18.394531 24.25 -17.53125 C 24.988281 -18.414062 25.660156 -19.351562 26.265625 -20.34375 C 26.878906 -21.332031 27.40625 -22.363281 27.84375 -23.4375 Z M 29.421875 -25.8125 L 31.03125 -25.078125 C 30.46875 -23.265625 29.75 -21.585938 28.875 -20.046875 C 28 -18.503906 27.015625 -17.082031 25.921875 -15.78125 C 27.015625 -14.726562 28.226562 -13.757812 29.5625 -12.875 C 30.894531 -11.988281 32.34375 -11.242188 33.90625 -10.640625 C 33.644531 -10.398438 33.359375 -10.0625 33.046875 -9.625 C 32.734375 -9.195312 32.484375 -8.820312 32.296875 -8.5 C 32.128906 -8.59375 31.945312 -8.679688 31.75 -8.765625 C 31.550781 -8.847656 31.359375 -8.9375 31.171875 -9.03125 L 31.171875 2.515625 L 28.6875 2.515625 L 28.6875 1.359375 L 19.9375 1.359375 L 19.9375 2.625 L 17.53125 2.625 L 17.53125 -9.0625 C 17.175781 -8.875 16.820312 -8.695312 16.46875 -8.53125 C 16.125 -8.375 15.773438 -8.210938 15.421875 -8.046875 C 15.148438 -8.648438 14.734375 -9.234375 14.171875 -9.796875 L 10.5 -9.796875 L 10.5 -3.53125 C 11.238281 -3.71875 11.992188 -3.898438 12.765625 -4.078125 C 13.535156 -4.253906 14.304688 -4.4375 15.078125 -4.625 L 15.328125 -2.28125 C 12.941406 -1.695312 10.570312 -1.125 8.21875 -0.5625 C 5.863281 0 3.765625 0.515625 1.921875 0.984375 L 1.4375 -1.546875 L 3.21875 -1.921875 L 3.21875 -13.859375 L 5.421875 -13.859375 L 5.421875 -2.375 L 8.109375 -3.015625 L 8.109375 -17.140625 L 3.21875 -17.140625 L 3.21875 -27.8125 L 14.515625 -27.8125 L 14.515625 -18.546875 C 15.890625 -19.847656 17.125 -21.4375 18.21875 -23.3125 C 19.320312 -25.195312 20.195312 -27.1875 20.84375 -29.28125 L 23.328125 -28.6875 C 23.171875 -28.175781 22.992188 -27.664062 22.796875 -27.15625 C 22.597656 -26.65625 22.40625 -26.175781 22.21875 -25.71875 L 28.96875 -25.71875 Z M 29.421875 -25.8125 "/></g></g></g><g fill="#efebe5" fill-opacity="1"><g transform="translate(546.970484, 182.980018)"><g><path d="M 17.703125 -1.578125 L 33.09375 -1.578125 L 33.09375 1.015625 L 1.921875 1.015625 L 1.921875 -1.578125 L 14.96875 -1.578125 L 14.96875 -28.71875 L 17.703125 -28.71875 L 17.703125 -18.015625 L 30.71875 -18.015625 L 30.71875 -15.421875 L 17.703125 -15.421875 Z M 17.703125 -1.578125 "/></g></g></g><g fill="#efebe5" fill-opacity="1"><g transform="translate(581.945509, 182.980018)"><g><path d="M 32.46875 -25.15625 L 32.46875 -22.84375 L 13.859375 -22.84375 L 13.859375 -25.15625 L 22.109375 -25.15625 C 21.941406 -25.757812 21.742188 -26.40625 21.515625 -27.09375 C 21.285156 -27.78125 21.039062 -28.414062 20.78125 -29 L 23.234375 -29.453125 C 23.554688 -28.773438 23.863281 -28.046875 24.15625 -27.265625 C 24.445312 -26.484375 24.675781 -25.78125 24.84375 -25.15625 Z M 20.15625 -16.515625 L 17.703125 -15.984375 C 17.609375 -16.804688 17.410156 -17.78125 17.109375 -18.90625 C 16.804688 -20.039062 16.457031 -21.085938 16.0625 -22.046875 L 18.328125 -22.5 C 18.753906 -21.582031 19.140625 -20.554688 19.484375 -19.421875 C 19.835938 -18.296875 20.0625 -17.328125 20.15625 -16.515625 Z M 11.328125 -27.921875 L 13.046875 -26.875 C 12.535156 -25.445312 11.972656 -23.925781 11.359375 -22.3125 C 10.753906 -20.707031 10.148438 -19.21875 9.546875 -17.84375 C 10.828125 -16.414062 11.671875 -15.066406 12.078125 -13.796875 C 12.492188 -12.523438 12.703125 -11.367188 12.703125 -10.328125 C 12.703125 -9.390625 12.585938 -8.550781 12.359375 -7.8125 C 12.140625 -7.082031 11.785156 -6.539062 11.296875 -6.1875 C 10.828125 -5.863281 10.210938 -5.644531 9.453125 -5.53125 C 9.117188 -5.507812 8.742188 -5.488281 8.328125 -5.46875 C 7.910156 -5.457031 7.515625 -5.46875 7.140625 -5.5 C 7.117188 -5.820312 7.046875 -6.207031 6.921875 -6.65625 C 6.804688 -7.113281 6.644531 -7.507812 6.4375 -7.84375 C 6.832031 -7.8125 7.195312 -7.789062 7.53125 -7.78125 C 7.875 -7.769531 8.1875 -7.773438 8.46875 -7.796875 C 8.695312 -7.828125 8.898438 -7.863281 9.078125 -7.90625 C 9.253906 -7.945312 9.410156 -8.015625 9.546875 -8.109375 C 9.828125 -8.296875 10.019531 -8.609375 10.125 -9.046875 C 10.226562 -9.492188 10.28125 -9.976562 10.28125 -10.5 C 10.28125 -11.445312 10.070312 -12.515625 9.65625 -13.703125 C 9.238281 -14.898438 8.410156 -16.1875 7.171875 -17.5625 C 7.660156 -18.800781 8.148438 -20.128906 8.640625 -21.546875 C 9.128906 -22.972656 9.5625 -24.269531 9.9375 -25.4375 L 5.21875 -25.4375 L 5.21875 2.6875 L 2.828125 2.6875 L 2.828125 -27.8125 L 10.921875 -27.8125 Z M 28.4375 -8.109375 L 17.59375 -8.109375 L 17.59375 -1.40625 L 28.4375 -1.40625 Z M 15.078125 2.734375 L 15.078125 -10.421875 L 31 -10.421875 L 31 2.59375 L 28.4375 2.59375 L 28.4375 0.984375 L 17.59375 0.984375 L 17.59375 2.734375 Z M 27.875 -15.75 L 33.375 -15.75 L 33.375 -13.4375 L 12.9375 -13.4375 L 12.9375 -15.75 L 25.359375 -15.75 C 25.828125 -16.726562 26.304688 -17.863281 26.796875 -19.15625 C 27.285156 -20.445312 27.671875 -21.59375 27.953125 -22.59375 L 30.609375 -21.9375 C 30.191406 -20.9375 29.75 -19.875 29.28125 -18.75 C 28.8125 -17.632812 28.34375 -16.632812 27.875 -15.75 Z M 27.875 -15.75 "/></g></g></g><g fill="#efebe5" fill-opacity="1"><g transform="translate(616.920534, 182.980018)"><g><path d="M 29.21875 -27.75 L 31.828125 -26.796875 C 31.203125 -25.515625 30.523438 -24.171875 29.796875 -22.765625 C 29.078125 -21.367188 28.414062 -20.179688 27.8125 -19.203125 L 25.71875 -20.046875 C 26.113281 -20.722656 26.53125 -21.507812 26.96875 -22.40625 C 27.414062 -23.300781 27.835938 -24.222656 28.234375 -25.171875 C 28.628906 -26.117188 28.957031 -26.976562 29.21875 -27.75 Z M 17.84375 -20.15625 L 15.46875 -19.171875 C 15.320312 -19.828125 15.09375 -20.578125 14.78125 -21.421875 C 14.46875 -22.273438 14.101562 -23.15625 13.6875 -24.0625 C 13.28125 -24.976562 12.859375 -25.832031 12.421875 -26.625 L 14.59375 -27.46875 C 15.050781 -26.695312 15.488281 -25.867188 15.90625 -24.984375 C 16.332031 -24.097656 16.71875 -23.234375 17.0625 -22.390625 C 17.414062 -21.546875 17.675781 -20.800781 17.84375 -20.15625 Z M 9.765625 -29.171875 L 12.171875 -28.4375 C 11.171875 -25.914062 9.984375 -23.515625 8.609375 -21.234375 L 8.609375 2.546875 L 6.15625 2.546875 L 6.15625 -17.484375 C 4.894531 -15.742188 3.601562 -14.207031 2.28125 -12.875 C 2.15625 -13.15625 1.9375 -13.566406 1.625 -14.109375 C 1.3125 -14.660156 1.035156 -15.085938 0.796875 -15.390625 C 1.992188 -16.515625 3.144531 -17.8125 4.25 -19.28125 C 5.351562 -20.75 6.378906 -22.328125 7.328125 -24.015625 C 8.273438 -25.703125 9.085938 -27.421875 9.765625 -29.171875 Z M 33.546875 -9.625 L 33.546875 -7.171875 L 23.15625 -7.171875 L 23.15625 2.65625 L 20.53125 2.65625 L 20.53125 -7.171875 L 10.53125 -7.171875 L 10.53125 -9.625 L 20.53125 -9.625 L 20.53125 -15.703125 L 11.96875 -15.703125 L 11.96875 -18.15625 L 20.53125 -18.15625 L 20.53125 -28.859375 L 23.15625 -28.859375 L 23.15625 -18.15625 L 32.046875 -18.15625 L 32.046875 -15.703125 L 23.15625 -15.703125 L 23.15625 -9.625 Z M 33.546875 -9.625 "/></g></g></g><g fill="#efebe5" fill-opacity="1"><g transform="translate(651.895559, 182.980018)"><g><path d="M 29.5625 -23.71875 L 16.40625 -23.71875 C 15.3125 -21.894531 14.097656 -20.332031 12.765625 -19.03125 C 12.554688 -19.257812 12.25 -19.539062 11.84375 -19.875 C 11.4375 -20.21875 11.09375 -20.484375 10.8125 -20.671875 C 12 -21.703125 13.078125 -22.972656 14.046875 -24.484375 C 15.015625 -26.003906 15.789062 -27.582031 16.375 -29.21875 L 18.78125 -28.625 C 18.4375 -27.757812 18.050781 -26.882812 17.625 -26 L 30.71875 -26 L 31.140625 -26.09375 L 32.921875 -25.609375 C 32.472656 -24.609375 32 -23.570312 31.5 -22.5 C 31 -21.425781 30.53125 -20.539062 30.09375 -19.84375 L 27.875 -20.296875 C 28.132812 -20.753906 28.410156 -21.28125 28.703125 -21.875 C 28.992188 -22.476562 29.28125 -23.09375 29.5625 -23.71875 Z M 25.953125 -18.75 L 28.0625 -19.734375 C 28.664062 -19.035156 29.253906 -18.269531 29.828125 -17.4375 C 30.398438 -16.613281 30.914062 -15.796875 31.375 -14.984375 C 31.84375 -14.179688 32.207031 -13.46875 32.46875 -12.84375 L 30.21875 -11.65625 C 29.96875 -12.300781 29.613281 -13.035156 29.15625 -13.859375 C 28.707031 -14.691406 28.207031 -15.535156 27.65625 -16.390625 C 27.101562 -17.242188 26.535156 -18.03125 25.953125 -18.75 Z M 21.578125 -4.265625 L 19.421875 -2.96875 C 19.140625 -3.53125 18.726562 -4.171875 18.1875 -4.890625 C 17.65625 -5.617188 17.0625 -6.351562 16.40625 -7.09375 C 15.75 -7.84375 15.109375 -8.519531 14.484375 -9.125 L 16.484375 -10.25 C 17.128906 -9.664062 17.78125 -9.015625 18.4375 -8.296875 C 19.09375 -7.585938 19.695312 -6.882812 20.25 -6.1875 C 20.8125 -5.488281 21.253906 -4.847656 21.578125 -4.265625 Z M 16.34375 -19.65625 L 18.71875 -19 C 18.132812 -17.625 17.414062 -16.28125 16.5625 -14.96875 C 15.707031 -13.664062 14.828125 -12.570312 13.921875 -11.6875 C 13.691406 -11.894531 13.378906 -12.148438 12.984375 -12.453125 C 12.585938 -12.753906 12.25 -12.988281 11.96875 -13.15625 C 12.875 -13.96875 13.710938 -14.953125 14.484375 -16.109375 C 15.253906 -17.265625 15.875 -18.445312 16.34375 -19.65625 Z M 24 -22.421875 L 24 -9.546875 L 21.515625 -9.546875 L 21.515625 -22.421875 Z M 4.234375 1.265625 L 1.78125 0.140625 C 2.25 -0.535156 2.703125 -1.316406 3.140625 -2.203125 C 3.585938 -3.085938 4 -3.984375 4.375 -4.890625 C 4.75 -5.804688 5.0625 -6.648438 5.3125 -7.421875 L 7.65625 -6.4375 C 7.351562 -5.6875 7.019531 -4.84375 6.65625 -3.90625 C 6.300781 -2.976562 5.914062 -2.066406 5.5 -1.171875 C 5.09375 -0.273438 4.671875 0.535156 4.234375 1.265625 Z M 9.6875 -29.359375 L 12 -28.578125 C 11.582031 -27.710938 11.109375 -26.863281 10.578125 -26.03125 C 10.054688 -25.207031 9.503906 -24.390625 8.921875 -23.578125 L 8.921875 -9.40625 L 6.40625 -9.40625 L 6.40625 -20.46875 C 5.863281 -19.863281 5.304688 -19.28125 4.734375 -18.71875 C 4.171875 -18.15625 3.609375 -17.640625 3.046875 -17.171875 C 2.878906 -17.429688 2.613281 -17.773438 2.25 -18.203125 C 1.894531 -18.640625 1.585938 -18.972656 1.328125 -19.203125 C 2.941406 -20.421875 4.488281 -21.929688 5.96875 -23.734375 C 7.445312 -25.546875 8.6875 -27.421875 9.6875 -29.359375 Z M 14.546875 -0.390625 L 22.59375 -0.390625 C 23.25 -0.390625 23.734375 -0.476562 24.046875 -0.65625 C 24.367188 -0.84375 24.597656 -1.226562 24.734375 -1.8125 C 24.867188 -2.394531 24.960938 -3.269531 25.015625 -4.4375 C 25.316406 -4.207031 25.703125 -4.003906 26.171875 -3.828125 C 26.640625 -3.648438 27.054688 -3.53125 27.421875 -3.46875 C 27.304688 -2 27.109375 -0.863281 26.828125 -0.0625 C 26.546875 0.726562 26.09375 1.273438 25.46875 1.578125 C 24.84375 1.878906 23.945312 2.03125 22.78125 2.03125 L 14.453125 2.03125 C 13.078125 2.03125 12.007812 1.929688 11.25 1.734375 C 10.488281 1.535156 9.960938 1.171875 9.671875 0.640625 C 9.378906 0.117188 9.234375 -0.609375 9.234375 -1.546875 L 9.234375 -7.59375 L 11.828125 -7.59375 L 11.828125 -1.578125 C 11.828125 -1.054688 11.992188 -0.726562 12.328125 -0.59375 C 12.671875 -0.457031 13.410156 -0.390625 14.546875 -0.390625 Z M 26.796875 -7.140625 L 29.078125 -8.015625 C 29.628906 -7.191406 30.160156 -6.304688 30.671875 -5.359375 C 31.191406 -4.421875 31.65625 -3.503906 32.0625 -2.609375 C 32.46875 -1.710938 32.765625 -0.898438 32.953125 -0.171875 L 30.46875 0.84375 C 30.300781 0.113281 30.023438 -0.707031 29.640625 -1.625 C 29.265625 -2.550781 28.832031 -3.492188 28.34375 -4.453125 C 27.851562 -5.421875 27.335938 -6.316406 26.796875 -7.140625 Z M 26.796875 -7.140625 "/></g></g></g><g fill="#efebe5" fill-opacity="1"><g transform="translate(686.870585, 182.980018)"><g><path d="M 12.875 -14.03125 L 12.875 -21.34375 L 5.53125 -21.34375 L 5.53125 -14.03125 Z M 5.53125 -3.328125 L 12.875 -3.328125 L 12.875 -11.71875 L 5.53125 -11.71875 Z M 8.46875 -29.359375 L 11.265625 -28.828125 C 10.960938 -27.960938 10.660156 -27.070312 10.359375 -26.15625 C 10.054688 -25.25 9.753906 -24.425781 9.453125 -23.6875 L 15.25 -23.6875 L 15.25 -0.984375 L 5.53125 -0.984375 L 5.53125 1.78125 L 3.15625 1.78125 L 3.15625 -23.6875 L 7.0625 -23.6875 C 7.320312 -24.519531 7.59375 -25.46875 7.875 -26.53125 C 8.15625 -27.59375 8.351562 -28.535156 8.46875 -29.359375 Z M 32.359375 -23.796875 L 32.359375 -22.453125 C 32.222656 -18.472656 32.082031 -15.101562 31.9375 -12.34375 C 31.800781 -9.59375 31.644531 -7.34375 31.46875 -5.59375 C 31.289062 -3.84375 31.078125 -2.476562 30.828125 -1.5 C 30.585938 -0.519531 30.296875 0.175781 29.953125 0.59375 C 29.578125 1.082031 29.171875 1.425781 28.734375 1.625 C 28.304688 1.820312 27.789062 1.945312 27.1875 2 C 26.570312 2.0625 25.796875 2.082031 24.859375 2.0625 C 23.929688 2.039062 22.976562 2.003906 22 1.953125 C 21.976562 1.554688 21.890625 1.125 21.734375 0.65625 C 21.585938 0.195312 21.382812 -0.21875 21.125 -0.59375 C 22.269531 -0.5 23.320312 -0.441406 24.28125 -0.421875 C 25.238281 -0.398438 25.914062 -0.390625 26.3125 -0.390625 C 26.65625 -0.390625 26.9375 -0.414062 27.15625 -0.46875 C 27.382812 -0.53125 27.582031 -0.675781 27.75 -0.90625 C 28.019531 -1.207031 28.265625 -1.796875 28.484375 -2.671875 C 28.710938 -3.546875 28.90625 -4.78125 29.0625 -6.375 C 29.226562 -7.976562 29.375 -10.007812 29.5 -12.46875 C 29.632812 -14.925781 29.757812 -17.894531 29.875 -21.375 L 20.984375 -21.375 C 20.492188 -20.207031 19.972656 -19.097656 19.421875 -18.046875 C 18.878906 -17.003906 18.304688 -16.070312 17.703125 -15.25 C 17.472656 -15.457031 17.128906 -15.710938 16.671875 -16.015625 C 16.210938 -16.328125 15.84375 -16.5625 15.5625 -16.71875 C 16.726562 -18.257812 17.769531 -20.160156 18.6875 -22.421875 C 19.613281 -24.679688 20.359375 -27.015625 20.921875 -29.421875 L 23.40625 -28.828125 C 23.195312 -27.960938 22.96875 -27.109375 22.71875 -26.265625 C 22.476562 -25.429688 22.207031 -24.609375 21.90625 -23.796875 Z M 26.828125 -8.046875 L 24.625 -6.6875 C 24.28125 -7.382812 23.804688 -8.203125 23.203125 -9.140625 C 22.609375 -10.085938 21.972656 -11.050781 21.296875 -12.03125 C 20.628906 -13.007812 19.96875 -13.921875 19.3125 -14.765625 L 21.34375 -15.953125 C 21.988281 -15.140625 22.660156 -14.25 23.359375 -13.28125 C 24.066406 -12.3125 24.726562 -11.367188 25.34375 -10.453125 C 25.957031 -9.546875 26.453125 -8.742188 26.828125 -8.046875 Z M 26.828125 -8.046875 "/></g></g></g><g fill="#efebe5" fill-opacity="1"><g transform="translate(721.84561, 182.980018)"><g><path d="M 10.921875 -24.5625 L 8.609375 -23.71875 C 8.441406 -24.375 8.171875 -25.148438 7.796875 -26.046875 C 7.421875 -26.941406 7.0625 -27.765625 6.71875 -28.515625 L 8.921875 -29.28125 C 9.316406 -28.53125 9.707031 -27.71875 10.09375 -26.84375 C 10.476562 -25.96875 10.753906 -25.207031 10.921875 -24.5625 Z M 8.046875 -16.515625 L 14.40625 -16.515625 C 14.40625 -16.515625 14.40625 -16.363281 14.40625 -16.0625 C 14.40625 -15.757812 14.394531 -15.515625 14.375 -15.328125 C 14.3125 -12.453125 14.238281 -10.035156 14.15625 -8.078125 C 14.070312 -6.117188 13.984375 -4.515625 13.890625 -3.265625 C 13.796875 -2.023438 13.671875 -1.054688 13.515625 -0.359375 C 13.367188 0.328125 13.191406 0.820312 12.984375 1.125 C 12.722656 1.488281 12.425781 1.75 12.09375 1.90625 C 11.769531 2.0625 11.398438 2.160156 10.984375 2.203125 C 10.609375 2.253906 10.128906 2.28125 9.546875 2.28125 C 8.960938 2.28125 8.359375 2.265625 7.734375 2.234375 C 7.710938 1.890625 7.640625 1.492188 7.515625 1.046875 C 7.398438 0.609375 7.25 0.238281 7.0625 -0.0625 C 7.71875 -0.0195312 8.300781 0.0078125 8.8125 0.03125 C 9.320312 0.0507812 9.695312 0.0625 9.9375 0.0625 C 10.164062 0.0625 10.347656 0.0351562 10.484375 -0.015625 C 10.628906 -0.078125 10.773438 -0.210938 10.921875 -0.421875 C 11.097656 -0.671875 11.25 -1.265625 11.375 -2.203125 C 11.507812 -3.140625 11.628906 -4.566406 11.734375 -6.484375 C 11.835938 -8.410156 11.925781 -10.960938 12 -14.140625 L 8.046875 -14.140625 C 7.992188 -12.335938 7.828125 -10.476562 7.546875 -8.5625 C 7.273438 -6.65625 6.796875 -4.753906 6.109375 -2.859375 C 5.421875 -0.972656 4.410156 0.84375 3.078125 2.59375 C 2.890625 2.332031 2.609375 2.0625 2.234375 1.78125 C 1.859375 1.5 1.519531 1.28125 1.21875 1.125 C 2.550781 -0.675781 3.53125 -2.550781 4.15625 -4.5 C 4.789062 -6.445312 5.203125 -8.378906 5.390625 -10.296875 C 5.578125 -12.222656 5.671875 -14.023438 5.671875 -15.703125 L 5.671875 -21.03125 L 1.921875 -21.03125 L 1.921875 -23.46875 L 15.421875 -23.46875 L 15.421875 -21.03125 L 8.046875 -21.03125 Z M 32.984375 -22.25 L 19.875 -22.25 C 19.382812 -21.25 18.847656 -20.3125 18.265625 -19.4375 C 17.679688 -18.5625 17.085938 -17.773438 16.484375 -17.078125 C 16.242188 -17.265625 15.914062 -17.523438 15.5 -17.859375 C 15.082031 -18.191406 14.71875 -18.453125 14.40625 -18.640625 C 15.644531 -19.929688 16.722656 -21.515625 17.640625 -23.390625 C 18.566406 -25.265625 19.285156 -27.226562 19.796875 -29.28125 L 22.3125 -28.828125 C 22.132812 -28.109375 21.921875 -27.394531 21.671875 -26.6875 C 21.429688 -25.988281 21.179688 -25.300781 20.921875 -24.625 L 32.984375 -24.625 Z M 31.140625 -15.1875 L 33.03125 -13.578125 C 32.226562 -12.785156 31.335938 -11.984375 30.359375 -11.171875 C 29.378906 -10.367188 28.445312 -9.664062 27.5625 -9.0625 C 28.238281 -7.082031 29.0625 -5.300781 30.03125 -3.71875 C 31 -2.144531 32.148438 -0.894531 33.484375 0.03125 C 33.179688 0.269531 32.851562 0.59375 32.5 1 C 32.144531 1.40625 31.878906 1.785156 31.703125 2.140625 C 30.160156 0.972656 28.851562 -0.546875 27.78125 -2.421875 C 26.707031 -4.304688 25.828125 -6.453125 25.140625 -8.859375 C 24.453125 -11.273438 23.910156 -13.863281 23.515625 -16.625 C 22.992188 -16.476562 22.460938 -16.335938 21.921875 -16.203125 C 21.390625 -16.078125 20.859375 -15.957031 20.328125 -15.84375 L 20.328125 -1.578125 L 25.578125 -3.890625 C 25.597656 -3.535156 25.640625 -3.128906 25.703125 -2.671875 C 25.773438 -2.222656 25.859375 -1.859375 25.953125 -1.578125 C 24.347656 -0.828125 23.054688 -0.226562 22.078125 0.21875 C 21.097656 0.675781 20.335938 1.046875 19.796875 1.328125 C 19.265625 1.609375 18.863281 1.828125 18.59375 1.984375 C 18.320312 2.148438 18.117188 2.304688 17.984375 2.453125 C 17.867188 2.171875 17.664062 1.820312 17.375 1.40625 C 17.082031 1 16.84375 0.691406 16.65625 0.484375 C 16.90625 0.273438 17.164062 -0.0507812 17.4375 -0.5 C 17.707031 -0.957031 17.84375 -1.582031 17.84375 -2.375 L 17.84375 -17.453125 C 19.332031 -17.785156 20.851562 -18.15625 22.40625 -18.5625 C 23.957031 -18.96875 25.414062 -19.394531 26.78125 -19.84375 C 28.144531 -20.300781 29.289062 -20.765625 30.21875 -21.234375 L 32.328125 -19.421875 C 31.390625 -19.023438 30.351562 -18.632812 29.21875 -18.25 C 28.09375 -17.863281 26.925781 -17.503906 25.71875 -17.171875 C 25.875 -16.171875 26.046875 -15.175781 26.234375 -14.1875 C 26.421875 -13.195312 26.644531 -12.222656 26.90625 -11.265625 C 27.644531 -11.867188 28.398438 -12.519531 29.171875 -13.21875 C 29.941406 -13.925781 30.597656 -14.582031 31.140625 -15.1875 Z M 31.140625 -15.1875 "/></g></g></g><g fill="#efebe5" fill-opacity="1"><g transform="translate(756.820635, 182.980018)"><g><path d="M 28.9375 -18.71875 L 28.9375 -25.265625 L 18.265625 -25.265625 L 18.265625 -18.71875 Z M 31.453125 -27.5 L 31.453125 -16.484375 L 15.8125 -16.484375 L 15.8125 -27.5 Z M 14.796875 -10.109375 L 13.21875 -8.046875 C 12.9375 -8.535156 12.488281 -9.195312 11.875 -10.03125 C 11.257812 -10.875 10.648438 -11.660156 10.046875 -12.390625 L 10.046875 2.59375 L 7.515625 2.59375 L 7.515625 -12.875 C 6.796875 -11.101562 5.992188 -9.398438 5.109375 -7.765625 C 4.222656 -6.128906 3.335938 -4.773438 2.453125 -3.703125 C 2.335938 -4.078125 2.144531 -4.488281 1.875 -4.9375 C 1.601562 -5.394531 1.363281 -5.78125 1.15625 -6.09375 C 1.90625 -6.90625 2.648438 -7.910156 3.390625 -9.109375 C 4.140625 -10.316406 4.835938 -11.609375 5.484375 -12.984375 C 6.140625 -14.359375 6.703125 -15.707031 7.171875 -17.03125 L 1.8125 -17.03125 L 1.8125 -19.484375 L 7.515625 -19.484375 L 7.515625 -24.796875 C 6.660156 -24.640625 5.800781 -24.484375 4.9375 -24.328125 C 4.070312 -24.179688 3.226562 -24.046875 2.40625 -23.921875 C 2.34375 -24.234375 2.234375 -24.570312 2.078125 -24.9375 C 1.929688 -25.3125 1.773438 -25.648438 1.609375 -25.953125 C 2.941406 -26.160156 4.300781 -26.410156 5.6875 -26.703125 C 7.070312 -26.992188 8.390625 -27.316406 9.640625 -27.671875 C 10.890625 -28.023438 11.941406 -28.382812 12.796875 -28.75 L 14.59375 -26.796875 C 13.9375 -26.515625 13.222656 -26.253906 12.453125 -26.015625 C 11.679688 -25.785156 10.878906 -25.566406 10.046875 -25.359375 L 10.046875 -19.484375 L 14.40625 -19.484375 L 14.40625 -17.03125 L 10.046875 -17.03125 L 10.046875 -14.90625 C 10.316406 -14.664062 10.679688 -14.320312 11.140625 -13.875 C 11.597656 -13.4375 12.070312 -12.96875 12.5625 -12.46875 C 13.050781 -11.96875 13.503906 -11.5 13.921875 -11.0625 C 14.335938 -10.632812 14.628906 -10.316406 14.796875 -10.109375 Z M 24.796875 -0.53125 L 33.3125 -0.53125 L 33.3125 1.78125 L 13.5 1.78125 L 13.5 -0.53125 L 22.21875 -0.53125 L 22.21875 -5.21875 L 15.46875 -5.21875 L 15.46875 -7.484375 L 22.21875 -7.484375 L 22.21875 -11.609375 C 21.050781 -11.515625 19.890625 -11.421875 18.734375 -11.328125 C 17.578125 -11.234375 16.453125 -11.164062 15.359375 -11.125 C 15.335938 -11.40625 15.253906 -11.738281 15.109375 -12.125 C 14.972656 -12.507812 14.847656 -12.84375 14.734375 -13.125 C 16.546875 -13.238281 18.425781 -13.390625 20.375 -13.578125 C 22.320312 -13.765625 24.175781 -13.988281 25.9375 -14.25 C 27.695312 -14.519531 29.160156 -14.816406 30.328125 -15.140625 L 32.046875 -13.21875 C 31.046875 -12.9375 29.929688 -12.691406 28.703125 -12.484375 C 27.484375 -12.273438 26.179688 -12.078125 24.796875 -11.890625 L 24.796875 -7.484375 L 31.875 -7.484375 L 31.875 -5.21875 L 24.796875 -5.21875 Z M 24.796875 -0.53125 "/></g></g></g></svg>