<svg xmlns="http://www.w3.org/2000/svg" xmlns:xlink="http://www.w3.org/1999/xlink" width="1366" zoomAndPan="magnify" viewBox="0 0 1024.5 576" height="768" preserveAspectRatio="xMidYMid meet" version="1.0"><metadata><ContainsAiGeneratedContent>Yes</ContainsAiGeneratedContent></metadata><defs><g/><clipPath id="533a765ea8"><path d="M 398.1875 87.027344 L 626 87.027344 L 626 159 L 398.1875 159 Z M 398.1875 87.027344 " clip-rule="nonzero"/></clipPath><clipPath id="aeef4fb345"><path d="M 398.1875 87.027344 L 626 87.027344 L 626 489 L 398.1875 489 Z M 398.1875 87.027344 " clip-rule="nonzero"/></clipPath><clipPath id="349a3520ec"><path d="M 398.1875 87.027344 L 626.078125 87.027344 L 626.078125 489 L 398.1875 489 Z M 398.1875 87.027344 " clip-rule="nonzero"/></clipPath></defs><g clip-path="url(#533a765ea8)"><path fill="#623e2a" d="M 398.1875 87.027344 L 398.1875 158.585938 L 625.8125 158.585938 L 625.8125 87.027344 Z M 398.1875 87.027344 " fill-opacity="1" fill-rule="nonzero"/></g><g fill="#ffffff" fill-opacity="1"><g transform="translate(423.631034, 131.599369)"><g><path d="M 11.84375 -7.09375 L 18.1875 -7.09375 L 18.1875 -12.953125 L 11.84375 -12.953125 Z M 3.828125 -7.09375 L 10.140625 -7.09375 L 10.140625 -12.953125 L 3.828125 -12.953125 Z M 11.84375 -14.5625 L 19.859375 -14.5625 L 19.859375 -4.21875 L 18.1875 -4.21875 L 18.1875 -5.484375 L 11.84375 -5.484375 L 11.84375 1.671875 L 10.140625 1.671875 L 10.140625 -5.484375 L 3.828125 -5.484375 L 3.828125 -4.109375 L 2.203125 -4.109375 L 2.203125 -14.5625 L 10.140625 -14.5625 L 10.140625 -18.5 L 11.84375 -18.5 Z M 11.84375 -14.5625 "/></g></g></g><g fill="#ffffff" fill-opacity="1"><g transform="translate(445.721838, 131.599369)"><g><path d="M 5.90625 -18.40625 L 7.453125 -17.9375 C 6.828125 -16.320312 6.066406 -14.734375 5.171875 -13.171875 L 5.171875 1.65625 L 3.59375 1.65625 L 3.59375 -10.734375 C 2.875 -9.722656 2.140625 -8.816406 1.390625 -8.015625 C 1.304688 -8.222656 1.164062 -8.5 0.96875 -8.84375 C 0.78125 -9.195312 0.613281 -9.460938 0.46875 -9.640625 C 1.1875 -10.335938 1.882812 -11.15625 2.5625 -12.09375 C 3.238281 -13.03125 3.859375 -14.035156 4.421875 -15.109375 C 4.992188 -16.179688 5.488281 -17.28125 5.90625 -18.40625 Z M 10.359375 1.15625 L 10.359375 -0.21875 L 16.234375 -0.21875 L 16.234375 1.15625 Z M 9.890625 -10.046875 L 14.875 -10.046875 C 14.800781 -10.960938 14.726562 -11.914062 14.65625 -12.90625 C 14.59375 -13.894531 14.546875 -14.898438 14.515625 -15.921875 C 13.742188 -15.773438 12.972656 -15.628906 12.203125 -15.484375 C 11.429688 -15.335938 10.660156 -15.207031 9.890625 -15.09375 Z M 20.75 -8.53125 L 16.546875 -8.53125 C 16.722656 -6.925781 16.941406 -5.503906 17.203125 -4.265625 C 17.472656 -3.023438 17.773438 -2.054688 18.109375 -1.359375 C 18.453125 -0.660156 18.820312 -0.300781 19.21875 -0.28125 C 19.425781 -0.28125 19.597656 -0.5625 19.734375 -1.125 C 19.878906 -1.6875 19.988281 -2.484375 20.0625 -3.515625 C 20.207031 -3.367188 20.398438 -3.21875 20.640625 -3.0625 C 20.890625 -2.90625 21.085938 -2.789062 21.234375 -2.71875 C 21.097656 -1.613281 20.921875 -0.75 20.703125 -0.125 C 20.492188 0.488281 20.265625 0.921875 20.015625 1.171875 C 19.765625 1.421875 19.5 1.546875 19.21875 1.546875 C 18.457031 1.515625 17.800781 1.078125 17.25 0.234375 C 16.707031 -0.609375 16.253906 -1.78125 15.890625 -3.28125 C 15.535156 -4.789062 15.25 -6.539062 15.03125 -8.53125 L 9.890625 -8.53125 L 9.890625 -2.3125 L 13.9375 -3.375 C 13.925781 -3.175781 13.925781 -2.9375 13.9375 -2.65625 C 13.957031 -2.382812 13.972656 -2.171875 13.984375 -2.015625 C 12.773438 -1.671875 11.796875 -1.390625 11.046875 -1.171875 C 10.304688 -0.953125 9.734375 -0.78125 9.328125 -0.65625 C 8.929688 -0.53125 8.640625 -0.425781 8.453125 -0.34375 C 8.265625 -0.257812 8.113281 -0.179688 8 -0.109375 C 7.96875 -0.296875 7.882812 -0.523438 7.75 -0.796875 C 7.625 -1.078125 7.5 -1.296875 7.375 -1.453125 C 7.582031 -1.546875 7.796875 -1.695312 8.015625 -1.90625 C 8.234375 -2.125 8.34375 -2.4375 8.34375 -2.84375 L 8.34375 -16.21875 L 8.375 -16.21875 L 8.34375 -16.234375 C 9.582031 -16.429688 10.84375 -16.65625 12.125 -16.90625 C 13.40625 -17.15625 14.613281 -17.421875 15.75 -17.703125 C 16.894531 -17.992188 17.859375 -18.296875 18.640625 -18.609375 L 19.953125 -17.359375 C 19.378906 -17.171875 18.757812 -16.976562 18.09375 -16.78125 C 17.425781 -16.59375 16.726562 -16.410156 16 -16.234375 C 16.03125 -15.160156 16.078125 -14.097656 16.140625 -13.046875 C 16.203125 -12.003906 16.28125 -11.003906 16.375 -10.046875 L 20.75 -10.046875 Z M 20.75 -8.53125 "/></g></g></g><g fill="#ffffff" fill-opacity="1"><g transform="translate(467.812641, 131.599369)"><g><path d="M 7.1875 -5.96875 L 7.1875 -18.140625 L 8.796875 -18.140625 L 8.796875 1.71875 L 7.1875 1.71875 L 7.1875 -4.390625 C 6.175781 -4.023438 5.359375 -3.71875 4.734375 -3.46875 C 4.109375 -3.226562 3.625 -3.035156 3.28125 -2.890625 C 2.9375 -2.742188 2.675781 -2.625 2.5 -2.53125 C 2.332031 -2.4375 2.195312 -2.34375 2.09375 -2.25 C 2.039062 -2.457031 1.945312 -2.710938 1.8125 -3.015625 C 1.675781 -3.328125 1.550781 -3.570312 1.4375 -3.75 C 1.59375 -3.851562 1.753906 -4.019531 1.921875 -4.25 C 2.097656 -4.476562 2.1875 -4.804688 2.1875 -5.234375 L 2.1875 -16.046875 L 3.796875 -16.046875 L 3.796875 -4.84375 Z M 12.96875 -12.65625 L 12.84375 -12.328125 C 13.164062 -11.085938 13.539062 -9.890625 13.96875 -8.734375 C 14.40625 -7.578125 14.921875 -6.492188 15.515625 -5.484375 C 16.046875 -6.484375 16.488281 -7.582031 16.84375 -8.78125 C 17.207031 -9.976562 17.503906 -11.269531 17.734375 -12.65625 Z M 21.03125 -12.65625 L 19.390625 -12.65625 C 19.085938 -10.914062 18.695312 -9.320312 18.21875 -7.875 C 17.75 -6.4375 17.160156 -5.128906 16.453125 -3.953125 C 17.109375 -3.054688 17.832031 -2.242188 18.625 -1.515625 C 19.414062 -0.796875 20.285156 -0.203125 21.234375 0.265625 C 21.035156 0.429688 20.820312 0.640625 20.59375 0.890625 C 20.375 1.148438 20.203125 1.390625 20.078125 1.609375 C 19.179688 1.109375 18.359375 0.503906 17.609375 -0.203125 C 16.859375 -0.910156 16.164062 -1.695312 15.53125 -2.5625 C 14.21875 -0.8125 12.53125 0.613281 10.46875 1.71875 C 10.382812 1.539062 10.226562 1.3125 10 1.03125 C 9.78125 0.757812 9.582031 0.539062 9.40625 0.375 C 10.507812 -0.164062 11.492188 -0.800781 12.359375 -1.53125 C 13.222656 -2.257812 13.972656 -3.082031 14.609375 -4 C 13.515625 -5.851562 12.632812 -7.953125 11.96875 -10.296875 C 11.71875 -9.765625 11.445312 -9.265625 11.15625 -8.796875 C 10.863281 -8.328125 10.554688 -7.882812 10.234375 -7.46875 C 10.109375 -7.625 9.925781 -7.851562 9.6875 -8.15625 C 9.445312 -8.457031 9.238281 -8.6875 9.0625 -8.84375 C 10 -9.957031 10.765625 -11.363281 11.359375 -13.0625 C 11.960938 -14.769531 12.414062 -16.582031 12.71875 -18.5 L 14.40625 -18.203125 C 14.289062 -17.523438 14.148438 -16.847656 13.984375 -16.171875 C 13.828125 -15.503906 13.660156 -14.847656 13.484375 -14.203125 L 21.03125 -14.203125 Z M 21.03125 -12.65625 "/></g></g></g><g fill="#ffffff" fill-opacity="1"><g transform="translate(489.903445, 131.599369)"><g><path d="M 5.078125 -17.140625 L 12.109375 -17.140625 C 12.109375 -16.359375 12.148438 -15.421875 12.234375 -14.328125 C 12.328125 -13.242188 12.53125 -12.070312 12.84375 -10.8125 C 13.164062 -9.550781 13.648438 -8.269531 14.296875 -6.96875 C 14.953125 -5.664062 15.84375 -4.394531 16.96875 -3.15625 C 18.101562 -1.914062 19.539062 -0.78125 21.28125 0.25 C 21.082031 0.375 20.847656 0.578125 20.578125 0.859375 C 20.304688 1.148438 20.097656 1.398438 19.953125 1.609375 C 18.140625 0.503906 16.644531 -0.734375 15.46875 -2.109375 C 14.300781 -3.484375 13.378906 -4.910156 12.703125 -6.390625 C 12.023438 -7.867188 11.515625 -9.300781 11.171875 -10.6875 C 10.367188 -7.832031 9.25 -5.390625 7.8125 -3.359375 C 6.375 -1.328125 4.554688 0.335938 2.359375 1.640625 C 2.210938 1.472656 1.984375 1.25 1.671875 0.96875 C 1.367188 0.6875 1.109375 0.472656 0.890625 0.328125 C 3.328125 -0.929688 5.253906 -2.664062 6.671875 -4.875 C 8.097656 -7.09375 9.148438 -9.75 9.828125 -12.84375 L 10.796875 -12.6875 C 10.722656 -13.195312 10.664062 -13.691406 10.625 -14.171875 C 10.582031 -14.648438 10.546875 -15.097656 10.515625 -15.515625 L 5.078125 -15.515625 Z M 5.078125 -17.140625 "/></g></g></g><g fill="#ffffff" fill-opacity="1"><g transform="translate(511.994249, 131.599369)"><g><path d="M 5.5 -6.84375 L 16.8125 -6.84375 L 16.8125 -11.25 L 5.609375 -11.25 L 5.609375 -9.453125 C 5.609375 -9.046875 5.597656 -8.628906 5.578125 -8.203125 C 5.566406 -7.773438 5.539062 -7.320312 5.5 -6.84375 Z M 5.609375 -12.765625 L 18.453125 -12.765625 L 18.453125 -4.125 L 16.8125 -4.125 L 16.8125 -5.296875 L 5.328125 -5.296875 C 5.128906 -4.046875 4.785156 -2.796875 4.296875 -1.546875 C 3.816406 -0.304688 3.097656 0.789062 2.140625 1.75 C 2.003906 1.582031 1.804688 1.378906 1.546875 1.140625 C 1.296875 0.910156 1.078125 0.742188 0.890625 0.640625 C 1.585938 -0.0664062 2.144531 -0.84375 2.5625 -1.6875 C 2.976562 -2.53125 3.285156 -3.398438 3.484375 -4.296875 C 3.679688 -5.191406 3.8125 -6.078125 3.875 -6.953125 C 3.945312 -7.835938 3.984375 -8.671875 3.984375 -9.453125 L 3.984375 -16.15625 C 5.085938 -16.269531 6.21875 -16.410156 7.375 -16.578125 C 8.539062 -16.742188 9.679688 -16.921875 10.796875 -17.109375 C 11.921875 -17.304688 12.960938 -17.515625 13.921875 -17.734375 C 14.890625 -17.960938 15.726562 -18.191406 16.4375 -18.421875 L 17.78125 -17.1875 C 16.71875 -16.863281 15.515625 -16.566406 14.171875 -16.296875 C 12.828125 -16.023438 11.421875 -15.773438 9.953125 -15.546875 C 8.484375 -15.316406 7.035156 -15.113281 5.609375 -14.9375 Z M 5.609375 -12.765625 "/></g></g></g><g fill="#ffffff" fill-opacity="1"><g transform="translate(534.085052, 131.599369)"><g><path d="M 5.296875 -1.0625 L 17.078125 -1.0625 L 17.078125 -4.328125 L 5.296875 -4.328125 Z M 17.078125 -9.078125 L 5.296875 -9.078125 L 5.296875 -5.875 L 17.078125 -5.875 Z M 17.078125 -13.921875 L 5.296875 -13.921875 L 5.296875 -10.625 L 17.078125 -10.625 Z M 10.84375 -15.484375 L 18.78125 -15.484375 L 18.78125 1.609375 L 17.078125 1.609375 L 17.078125 0.484375 L 5.296875 0.484375 L 5.296875 1.71875 L 3.671875 1.71875 L 3.671875 -15.484375 L 9.21875 -15.484375 C 9.375 -15.972656 9.53125 -16.492188 9.6875 -17.046875 C 9.851562 -17.597656 9.984375 -18.085938 10.078125 -18.515625 L 11.953125 -18.265625 C 11.785156 -17.796875 11.609375 -17.320312 11.421875 -16.84375 C 11.234375 -16.363281 11.039062 -15.910156 10.84375 -15.484375 Z M 10.84375 -15.484375 "/></g></g></g><g fill="#ffffff" fill-opacity="1"><g transform="translate(556.175856, 131.599369)"><g><path d="M 6.546875 -18.34375 L 8.15625 -17.828125 C 7.832031 -17.003906 7.472656 -16.1875 7.078125 -15.375 C 6.691406 -14.5625 6.269531 -13.773438 5.8125 -13.015625 L 5.8125 1.640625 L 4.171875 1.640625 L 4.171875 -10.46875 C 3.816406 -9.96875 3.453125 -9.492188 3.078125 -9.046875 C 2.703125 -8.597656 2.320312 -8.179688 1.9375 -7.796875 C 1.84375 -7.992188 1.691406 -8.265625 1.484375 -8.609375 C 1.273438 -8.953125 1.085938 -9.21875 0.921875 -9.40625 C 1.679688 -10.132812 2.410156 -10.972656 3.109375 -11.921875 C 3.804688 -12.867188 4.445312 -13.890625 5.03125 -14.984375 C 5.625 -16.085938 6.128906 -17.207031 6.546875 -18.34375 Z M 21.015625 -13.59375 L 21.015625 -11.953125 L 18.203125 -11.953125 L 18.203125 -0.546875 C 18.203125 0.0664062 18.109375 0.519531 17.921875 0.8125 C 17.742188 1.113281 17.445312 1.320312 17.03125 1.4375 C 16.601562 1.570312 16.003906 1.648438 15.234375 1.671875 C 14.472656 1.703125 13.5 1.710938 12.3125 1.703125 C 12.257812 1.492188 12.164062 1.226562 12.03125 0.90625 C 11.90625 0.582031 11.785156 0.3125 11.671875 0.09375 C 12.285156 0.101562 12.878906 0.113281 13.453125 0.125 C 14.023438 0.144531 14.523438 0.148438 14.953125 0.140625 C 15.378906 0.128906 15.679688 0.125 15.859375 0.125 C 16.109375 0.101562 16.285156 0.0507812 16.390625 -0.03125 C 16.492188 -0.125 16.546875 -0.296875 16.546875 -0.546875 L 16.546875 -11.953125 L 7.640625 -11.953125 L 7.640625 -13.59375 L 16.546875 -13.59375 L 16.546875 -18.234375 L 18.203125 -18.234375 L 18.203125 -13.59375 Z M 13.765625 -4.28125 L 12.234375 -3.46875 C 12.015625 -3.925781 11.722656 -4.46875 11.359375 -5.09375 C 11.003906 -5.726562 10.625 -6.382812 10.21875 -7.0625 C 9.8125 -7.75 9.414062 -8.382812 9.03125 -8.96875 L 10.453125 -9.640625 C 10.835938 -9.078125 11.238281 -8.460938 11.65625 -7.796875 C 12.070312 -7.140625 12.46875 -6.503906 12.84375 -5.890625 C 13.21875 -5.273438 13.523438 -4.738281 13.765625 -4.28125 Z M 13.765625 -4.28125 "/></g></g></g><g fill="#ffffff" fill-opacity="1"><g transform="translate(578.266659, 131.599369)"><g><path d="M 18.734375 -10.453125 L 18.734375 -12.484375 L 13.5625 -12.484375 L 13.5625 -10.453125 Z M 18.734375 -7.109375 L 18.734375 -9.171875 L 13.5625 -9.171875 L 13.5625 -7.109375 Z M 18.734375 -3.75 L 18.734375 -5.859375 L 13.5625 -5.859375 L 13.5625 -3.75 Z M 12.0625 -13.828125 L 14.953125 -13.828125 C 15.023438 -14.171875 15.097656 -14.53125 15.171875 -14.90625 C 15.242188 -15.289062 15.3125 -15.660156 15.375 -16.015625 L 11.40625 -16.015625 L 11.40625 -17.4375 L 21.015625 -17.4375 L 21.015625 -16.015625 L 16.921875 -16.015625 C 16.816406 -15.648438 16.710938 -15.28125 16.609375 -14.90625 C 16.503906 -14.53125 16.40625 -14.171875 16.3125 -13.828125 L 20.296875 -13.828125 L 20.296875 -2.4375 L 12.0625 -2.4375 Z M 2.71875 -15 L 2.71875 -12.65625 L 1.453125 -12.65625 L 1.453125 -16.375 L 5.453125 -16.375 C 5.347656 -16.65625 5.238281 -16.929688 5.125 -17.203125 C 5.019531 -17.484375 4.910156 -17.75 4.796875 -18 L 6.078125 -18.46875 C 6.234375 -18.144531 6.398438 -17.789062 6.578125 -17.40625 C 6.753906 -17.019531 6.90625 -16.675781 7.03125 -16.375 L 10.6875 -16.375 L 10.6875 -12.65625 L 9.390625 -12.65625 L 9.390625 -15 Z M 3.265625 -5.109375 L 9.59375 -5.109375 C 9.175781 -5.398438 8.679688 -5.738281 8.109375 -6.125 C 7.546875 -6.519531 6.957031 -6.914062 6.34375 -7.3125 C 5.882812 -6.875 5.390625 -6.46875 4.859375 -6.09375 C 4.328125 -5.726562 3.796875 -5.398438 3.265625 -5.109375 Z M 4.203125 -0.421875 L 8.15625 -0.421875 L 8.15625 -3.75 L 4.203125 -3.75 Z M 10.734375 -6.140625 L 9.765625 -4.953125 L 9.609375 -5.0625 L 9.609375 1.5625 L 8.15625 1.5625 L 8.15625 0.921875 L 4.203125 0.921875 L 4.203125 1.609375 L 2.78125 1.609375 L 2.78125 -4.859375 C 2.59375 -4.753906 2.40625 -4.65625 2.21875 -4.5625 C 2.03125 -4.46875 1.835938 -4.382812 1.640625 -4.3125 C 1.566406 -4.519531 1.441406 -4.757812 1.265625 -5.03125 C 1.097656 -5.3125 0.941406 -5.523438 0.796875 -5.671875 C 1.546875 -5.953125 2.285156 -6.296875 3.015625 -6.703125 C 3.742188 -7.109375 4.425781 -7.578125 5.0625 -8.109375 C 4.78125 -8.285156 4.5 -8.460938 4.21875 -8.640625 C 3.9375 -8.816406 3.671875 -8.976562 3.421875 -9.125 L 4.375 -10.09375 C 4.632812 -9.945312 4.910156 -9.789062 5.203125 -9.625 C 5.503906 -9.457031 5.8125 -9.273438 6.125 -9.078125 C 6.457031 -9.453125 6.765625 -9.835938 7.046875 -10.234375 C 7.335938 -10.628906 7.597656 -11.039062 7.828125 -11.46875 L 4.65625 -11.46875 C 4.332031 -10.96875 3.960938 -10.488281 3.546875 -10.03125 C 3.140625 -9.570312 2.679688 -9.144531 2.171875 -8.75 C 2.066406 -8.90625 1.925781 -9.101562 1.75 -9.34375 C 1.582031 -9.582031 1.421875 -9.753906 1.265625 -9.859375 C 2.128906 -10.460938 2.832031 -11.160156 3.375 -11.953125 C 3.925781 -12.742188 4.332031 -13.515625 4.59375 -14.265625 L 5.90625 -14.03125 C 5.75 -13.613281 5.570312 -13.1875 5.375 -12.75 L 8.59375 -12.75 L 8.84375 -12.8125 L 9.671875 -12.21875 C 9.390625 -11.476562 9.046875 -10.785156 8.640625 -10.140625 C 8.242188 -9.503906 7.804688 -8.90625 7.328125 -8.34375 C 7.984375 -7.945312 8.613281 -7.550781 9.21875 -7.15625 C 9.820312 -6.769531 10.328125 -6.429688 10.734375 -6.140625 Z M 14.421875 -2.078125 L 15.546875 -1.0625 C 14.898438 -0.539062 14.15625 -0.0195312 13.3125 0.5 C 12.46875 1.019531 11.691406 1.457031 10.984375 1.8125 C 10.890625 1.632812 10.769531 1.425781 10.625 1.1875 C 10.476562 0.957031 10.335938 0.757812 10.203125 0.59375 C 10.679688 0.375 11.179688 0.113281 11.703125 -0.1875 C 12.222656 -0.488281 12.722656 -0.804688 13.203125 -1.140625 C 13.691406 -1.472656 14.097656 -1.785156 14.421875 -2.078125 Z M 16.640625 -1.109375 L 17.546875 -2.140625 C 17.953125 -1.890625 18.382812 -1.601562 18.84375 -1.28125 C 19.300781 -0.957031 19.734375 -0.632812 20.140625 -0.3125 C 20.554688 0.0078125 20.898438 0.3125 21.171875 0.59375 L 20.234375 1.765625 C 19.984375 1.503906 19.648438 1.195312 19.234375 0.84375 C 18.828125 0.5 18.394531 0.160156 17.9375 -0.171875 C 17.476562 -0.515625 17.046875 -0.828125 16.640625 -1.109375 Z M 16.640625 -1.109375 "/></g></g></g><g fill="#000000" fill-opacity="1"><g transform="translate(434.73499, 201.018234)"><g><path d="M 2.875 -13.828125 L 17.09375 -13.828125 L 17.09375 -12.25 L 2.875 -12.25 Z M 1.203125 -2.078125 L 18.78125 -2.078125 L 18.78125 -0.453125 L 1.203125 -0.453125 Z M 1.203125 -2.078125 "/></g></g></g><g fill="#000000" fill-opacity="1"><g transform="translate(454.682319, 201.018234)"><g><path d="M 6.890625 -6.890625 L 5.984375 -5.828125 C 5.847656 -6.160156 5.640625 -6.582031 5.359375 -7.09375 C 5.085938 -7.613281 4.816406 -8.125 4.546875 -8.625 L 4.546875 1.515625 L 3.1875 1.515625 L 3.1875 -8.1875 C 2.9375 -7.132812 2.648438 -6.109375 2.328125 -5.109375 C 2.015625 -4.109375 1.6875 -3.265625 1.34375 -2.578125 C 1.257812 -2.796875 1.140625 -3.046875 0.984375 -3.328125 C 0.835938 -3.617188 0.707031 -3.851562 0.59375 -4.03125 C 0.914062 -4.601562 1.226562 -5.3125 1.53125 -6.15625 C 1.84375 -7 2.125 -7.890625 2.375 -8.828125 C 2.625 -9.765625 2.820312 -10.644531 2.96875 -11.46875 L 0.875 -11.46875 L 0.875 -12.875 L 3.1875 -12.875 L 3.1875 -16.703125 L 4.546875 -16.703125 L 4.546875 -12.875 L 6.546875 -12.875 L 6.546875 -11.46875 L 4.546875 -11.46875 L 4.546875 -10.4375 C 4.679688 -10.257812 4.859375 -10 5.078125 -9.65625 C 5.296875 -9.320312 5.523438 -8.96875 5.765625 -8.59375 C 6.015625 -8.226562 6.242188 -7.882812 6.453125 -7.5625 C 6.660156 -7.238281 6.804688 -7.015625 6.890625 -6.890625 Z M 15.203125 -3.359375 L 11.21875 -3.359375 C 11.039062 -3.148438 10.875 -2.953125 10.71875 -2.765625 C 10.570312 -2.585938 10.425781 -2.410156 10.28125 -2.234375 C 10.78125 -2.117188 11.300781 -1.988281 11.84375 -1.84375 C 12.382812 -1.707031 12.921875 -1.554688 13.453125 -1.390625 C 13.847656 -1.660156 14.1875 -1.960938 14.46875 -2.296875 C 14.757812 -2.628906 15.003906 -2.984375 15.203125 -3.359375 Z M 9.03125 -8.21875 L 9.03125 -7 L 12.21875 -7 L 12.21875 -8.21875 Z M 16.796875 -8.21875 L 13.609375 -8.21875 L 13.609375 -7 L 16.796875 -7 Z M 9.421875 -11.234375 L 12.21875 -11.234375 L 12.21875 -12.4375 L 9.421875 -12.4375 Z M 12.21875 -14.421875 L 9.421875 -14.421875 L 9.421875 -13.328125 L 12.21875 -13.328125 Z M 16.359375 -14.421875 L 13.609375 -14.421875 L 13.609375 -13.328125 L 16.359375 -13.328125 Z M 13.609375 -11.234375 L 16.359375 -11.234375 L 16.359375 -12.4375 L 13.609375 -12.4375 Z M 19.09375 -3.359375 L 16.625 -3.359375 C 16.21875 -2.421875 15.628906 -1.613281 14.859375 -0.9375 C 15.609375 -0.695312 16.320312 -0.453125 17 -0.203125 C 17.675781 0.046875 18.273438 0.289062 18.796875 0.53125 L 17.703125 1.46875 C 17.203125 1.21875 16.601562 0.953125 15.90625 0.671875 C 15.207031 0.398438 14.445312 0.132812 13.625 -0.125 C 12.894531 0.257812 12.015625 0.59375 10.984375 0.875 C 9.953125 1.15625 8.722656 1.390625 7.296875 1.578125 C 7.242188 1.421875 7.164062 1.226562 7.0625 1 C 6.957031 0.78125 6.851562 0.609375 6.75 0.484375 C 8.988281 0.222656 10.734375 -0.15625 11.984375 -0.65625 C 11.335938 -0.84375 10.6875 -1.023438 10.03125 -1.203125 C 9.382812 -1.378906 8.753906 -1.535156 8.140625 -1.671875 C 8.367188 -1.910156 8.613281 -2.171875 8.875 -2.453125 C 9.132812 -2.742188 9.390625 -3.046875 9.640625 -3.359375 L 6.96875 -3.359375 L 6.96875 -4.53125 L 10.53125 -4.53125 C 10.914062 -5.050781 11.25 -5.539062 11.53125 -6 L 7.703125 -6 L 7.703125 -9.234375 L 12.21875 -9.234375 L 12.21875 -10.234375 L 8.125 -10.234375 L 8.125 -12.296875 L 6.96875 -12.296875 L 6.96875 -13.453125 L 8.125 -13.453125 L 8.125 -15.421875 L 12.21875 -15.421875 L 12.21875 -16.703125 L 13.609375 -16.703125 L 13.609375 -15.421875 L 17.703125 -15.421875 L 17.703125 -13.453125 L 18.9375 -13.453125 L 18.9375 -12.296875 L 17.703125 -12.296875 L 17.703125 -10.234375 L 13.609375 -10.234375 L 13.609375 -9.234375 L 18.203125 -9.234375 L 18.203125 -6 L 13.0625 -6 C 12.9375 -5.757812 12.789062 -5.515625 12.625 -5.265625 C 12.457031 -5.023438 12.28125 -4.78125 12.09375 -4.53125 L 15.65625 -4.53125 C 15.695312 -4.675781 15.738281 -4.820312 15.78125 -4.96875 C 15.820312 -5.113281 15.851562 -5.253906 15.875 -5.390625 L 17.21875 -5.390625 C 17.1875 -5.253906 17.15625 -5.113281 17.125 -4.96875 C 17.09375 -4.820312 17.066406 -4.675781 17.046875 -4.53125 L 19.09375 -4.53125 Z M 19.09375 -3.359375 "/></g></g></g><g fill="#000000" fill-opacity="1"><g transform="translate(542.721814, 201.018234)"><g><path d="M 1.75 0 L 1.75 -1.515625 L 5.015625 -1.515625 L 5.015625 -12.4375 L 2.421875 -12.4375 L 2.421875 -13.59375 C 3.066406 -13.707031 3.628906 -13.847656 4.109375 -14.015625 C 4.597656 -14.191406 5.046875 -14.398438 5.453125 -14.640625 L 6.84375 -14.640625 L 6.84375 -1.515625 L 9.78125 -1.515625 L 9.78125 0 Z M 1.75 0 "/></g></g></g><g fill="#000000" fill-opacity="1"><g transform="translate(553.792586, 201.018234)"><g><path d="M 3.953125 0 C 4.015625 -1.382812 4.128906 -2.65625 4.296875 -3.8125 C 4.460938 -4.976562 4.703125 -6.078125 5.015625 -7.109375 C 5.335938 -8.140625 5.742188 -9.140625 6.234375 -10.109375 C 6.734375 -11.085938 7.34375 -12.070312 8.0625 -13.0625 L 0.984375 -13.0625 L 0.984375 -14.640625 L 10.140625 -14.640625 L 10.140625 -13.53125 C 9.285156 -12.4375 8.585938 -11.378906 8.046875 -10.359375 C 7.515625 -9.347656 7.097656 -8.316406 6.796875 -7.265625 C 6.492188 -6.210938 6.269531 -5.097656 6.125 -3.921875 C 5.988281 -2.742188 5.894531 -1.4375 5.84375 0 Z M 3.953125 0 "/></g></g></g><g fill="#000000" fill-opacity="1"><g transform="translate(564.863358, 201.018234)"><g><path d="M 5.546875 0.265625 C 4.148438 0.265625 3.039062 -0.367188 2.21875 -1.640625 C 1.394531 -2.910156 0.984375 -4.816406 0.984375 -7.359375 C 0.984375 -9.898438 1.394531 -11.789062 2.21875 -13.03125 C 3.039062 -14.28125 4.148438 -14.90625 5.546875 -14.90625 C 6.929688 -14.90625 8.035156 -14.28125 8.859375 -13.03125 C 9.679688 -11.789062 10.09375 -9.898438 10.09375 -7.359375 C 10.09375 -4.816406 9.679688 -2.910156 8.859375 -1.640625 C 8.035156 -0.367188 6.929688 0.265625 5.546875 0.265625 Z M 5.546875 -1.203125 C 6.367188 -1.203125 7.035156 -1.6875 7.546875 -2.65625 C 8.066406 -3.632812 8.328125 -5.203125 8.328125 -7.359375 C 8.328125 -9.503906 8.066406 -11.054688 7.546875 -12.015625 C 7.035156 -12.972656 6.367188 -13.453125 5.546875 -13.453125 C 4.710938 -13.453125 4.035156 -12.972656 3.515625 -12.015625 C 3.003906 -11.054688 2.75 -9.503906 2.75 -7.359375 C 2.75 -5.203125 3.003906 -3.632812 3.515625 -2.65625 C 4.035156 -1.6875 4.710938 -1.203125 5.546875 -1.203125 Z M 5.546875 -1.203125 "/></g></g></g><g fill="#000000" fill-opacity="1"><g transform="translate(575.93413, 201.018234)"><g><path d="M 17.0625 -15.125 L 17.0625 -13.703125 L 3.015625 -13.703125 L 3.015625 -15.125 Z M 14.0625 -0.234375 L 16.640625 -0.234375 C 16.910156 -0.234375 17.109375 -0.320312 17.234375 -0.5 C 17.367188 -0.675781 17.46875 -1.019531 17.53125 -1.53125 C 17.59375 -2.039062 17.632812 -2.800781 17.65625 -3.8125 C 17.832031 -3.675781 18.054688 -3.546875 18.328125 -3.421875 C 18.597656 -3.304688 18.832031 -3.21875 19.03125 -3.15625 C 18.976562 -2.019531 18.878906 -1.140625 18.734375 -0.515625 C 18.597656 0.109375 18.378906 0.546875 18.078125 0.796875 C 17.773438 1.046875 17.328125 1.171875 16.734375 1.171875 L 13.890625 1.171875 C 12.992188 1.171875 12.390625 1.015625 12.078125 0.703125 C 11.773438 0.390625 11.625 -0.1875 11.625 -1.03125 L 11.625 -8.140625 L 7.90625 -8.140625 C 7.8125 -7.078125 7.660156 -6.0625 7.453125 -5.09375 C 7.242188 -4.132812 6.929688 -3.242188 6.515625 -2.421875 C 6.097656 -1.609375 5.519531 -0.867188 4.78125 -0.203125 C 4.050781 0.453125 3.113281 1.007812 1.96875 1.46875 C 1.875 1.289062 1.738281 1.085938 1.5625 0.859375 C 1.382812 0.628906 1.207031 0.445312 1.03125 0.3125 C 2.101562 -0.0820312 2.96875 -0.570312 3.625 -1.15625 C 4.28125 -1.738281 4.789062 -2.390625 5.15625 -3.109375 C 5.519531 -3.835938 5.785156 -4.625 5.953125 -5.46875 C 6.117188 -6.320312 6.242188 -7.210938 6.328125 -8.140625 L 1.28125 -8.140625 L 1.28125 -9.578125 L 18.734375 -9.578125 L 18.734375 -8.140625 L 13.125 -8.140625 L 13.125 -1.0625 C 13.125 -0.726562 13.179688 -0.503906 13.296875 -0.390625 C 13.421875 -0.285156 13.675781 -0.234375 14.0625 -0.234375 Z M 14.0625 -0.234375 "/></g></g></g><g fill="#000000" fill-opacity="1"><g transform="translate(434.73499, 267.094939)"><g><path d="M 2.515625 -14.765625 L 17.484375 -14.765625 L 17.484375 -13.28125 L 2.515625 -13.28125 Z M 3.796875 -8.296875 L 15.921875 -8.296875 L 15.921875 -6.796875 L 3.796875 -6.796875 Z M 1.375 -1.421875 L 18.5625 -1.421875 L 18.5625 0.078125 L 1.375 0.078125 Z M 1.375 -1.421875 "/></g></g></g><g fill="#000000" fill-opacity="1"><g transform="translate(454.682319, 267.094939)"><g><path d="M 6.890625 -6.890625 L 5.984375 -5.828125 C 5.847656 -6.160156 5.640625 -6.582031 5.359375 -7.09375 C 5.085938 -7.613281 4.816406 -8.125 4.546875 -8.625 L 4.546875 1.515625 L 3.1875 1.515625 L 3.1875 -8.1875 C 2.9375 -7.132812 2.648438 -6.109375 2.328125 -5.109375 C 2.015625 -4.109375 1.6875 -3.265625 1.34375 -2.578125 C 1.257812 -2.796875 1.140625 -3.046875 0.984375 -3.328125 C 0.835938 -3.617188 0.707031 -3.851562 0.59375 -4.03125 C 0.914062 -4.601562 1.226562 -5.3125 1.53125 -6.15625 C 1.84375 -7 2.125 -7.890625 2.375 -8.828125 C 2.625 -9.765625 2.820312 -10.644531 2.96875 -11.46875 L 0.875 -11.46875 L 0.875 -12.875 L 3.1875 -12.875 L 3.1875 -16.703125 L 4.546875 -16.703125 L 4.546875 -12.875 L 6.546875 -12.875 L 6.546875 -11.46875 L 4.546875 -11.46875 L 4.546875 -10.4375 C 4.679688 -10.257812 4.859375 -10 5.078125 -9.65625 C 5.296875 -9.320312 5.523438 -8.96875 5.765625 -8.59375 C 6.015625 -8.226562 6.242188 -7.882812 6.453125 -7.5625 C 6.660156 -7.238281 6.804688 -7.015625 6.890625 -6.890625 Z M 15.203125 -3.359375 L 11.21875 -3.359375 C 11.039062 -3.148438 10.875 -2.953125 10.71875 -2.765625 C 10.570312 -2.585938 10.425781 -2.410156 10.28125 -2.234375 C 10.78125 -2.117188 11.300781 -1.988281 11.84375 -1.84375 C 12.382812 -1.707031 12.921875 -1.554688 13.453125 -1.390625 C 13.847656 -1.660156 14.1875 -1.960938 14.46875 -2.296875 C 14.757812 -2.628906 15.003906 -2.984375 15.203125 -3.359375 Z M 9.03125 -8.21875 L 9.03125 -7 L 12.21875 -7 L 12.21875 -8.21875 Z M 16.796875 -8.21875 L 13.609375 -8.21875 L 13.609375 -7 L 16.796875 -7 Z M 9.421875 -11.234375 L 12.21875 -11.234375 L 12.21875 -12.4375 L 9.421875 -12.4375 Z M 12.21875 -14.421875 L 9.421875 -14.421875 L 9.421875 -13.328125 L 12.21875 -13.328125 Z M 16.359375 -14.421875 L 13.609375 -14.421875 L 13.609375 -13.328125 L 16.359375 -13.328125 Z M 13.609375 -11.234375 L 16.359375 -11.234375 L 16.359375 -12.4375 L 13.609375 -12.4375 Z M 19.09375 -3.359375 L 16.625 -3.359375 C 16.21875 -2.421875 15.628906 -1.613281 14.859375 -0.9375 C 15.609375 -0.695312 16.320312 -0.453125 17 -0.203125 C 17.675781 0.046875 18.273438 0.289062 18.796875 0.53125 L 17.703125 1.46875 C 17.203125 1.21875 16.601562 0.953125 15.90625 0.671875 C 15.207031 0.398438 14.445312 0.132812 13.625 -0.125 C 12.894531 0.257812 12.015625 0.59375 10.984375 0.875 C 9.953125 1.15625 8.722656 1.390625 7.296875 1.578125 C 7.242188 1.421875 7.164062 1.226562 7.0625 1 C 6.957031 0.78125 6.851562 0.609375 6.75 0.484375 C 8.988281 0.222656 10.734375 -0.15625 11.984375 -0.65625 C 11.335938 -0.84375 10.6875 -1.023438 10.03125 -1.203125 C 9.382812 -1.378906 8.753906 -1.535156 8.140625 -1.671875 C 8.367188 -1.910156 8.613281 -2.171875 8.875 -2.453125 C 9.132812 -2.742188 9.390625 -3.046875 9.640625 -3.359375 L 6.96875 -3.359375 L 6.96875 -4.53125 L 10.53125 -4.53125 C 10.914062 -5.050781 11.25 -5.539062 11.53125 -6 L 7.703125 -6 L 7.703125 -9.234375 L 12.21875 -9.234375 L 12.21875 -10.234375 L 8.125 -10.234375 L 8.125 -12.296875 L 6.96875 -12.296875 L 6.96875 -13.453125 L 8.125 -13.453125 L 8.125 -15.421875 L 12.21875 -15.421875 L 12.21875 -16.703125 L 13.609375 -16.703125 L 13.609375 -15.421875 L 17.703125 -15.421875 L 17.703125 -13.453125 L 18.9375 -13.453125 L 18.9375 -12.296875 L 17.703125 -12.296875 L 17.703125 -10.234375 L 13.609375 -10.234375 L 13.609375 -9.234375 L 18.203125 -9.234375 L 18.203125 -6 L 13.0625 -6 C 12.9375 -5.757812 12.789062 -5.515625 12.625 -5.265625 C 12.457031 -5.023438 12.28125 -4.78125 12.09375 -4.53125 L 15.65625 -4.53125 C 15.695312 -4.675781 15.738281 -4.820312 15.78125 -4.96875 C 15.820312 -5.113281 15.851562 -5.253906 15.875 -5.390625 L 17.21875 -5.390625 C 17.1875 -5.253906 17.15625 -5.113281 17.125 -4.96875 C 17.09375 -4.820312 17.066406 -4.675781 17.046875 -4.53125 L 19.09375 -4.53125 Z M 19.09375 -3.359375 "/></g></g></g><g fill="#000000" fill-opacity="1"><g transform="translate(542.721814, 267.094939)"><g><path d="M 1.75 0 L 1.75 -1.515625 L 5.015625 -1.515625 L 5.015625 -12.4375 L 2.421875 -12.4375 L 2.421875 -13.59375 C 3.066406 -13.707031 3.628906 -13.847656 4.109375 -14.015625 C 4.597656 -14.191406 5.046875 -14.398438 5.453125 -14.640625 L 6.84375 -14.640625 L 6.84375 -1.515625 L 9.78125 -1.515625 L 9.78125 0 Z M 1.75 0 "/></g></g></g><g fill="#000000" fill-opacity="1"><g transform="translate(553.792586, 267.094939)"><g><path d="M 3.953125 0 C 4.015625 -1.382812 4.128906 -2.65625 4.296875 -3.8125 C 4.460938 -4.976562 4.703125 -6.078125 5.015625 -7.109375 C 5.335938 -8.140625 5.742188 -9.140625 6.234375 -10.109375 C 6.734375 -11.085938 7.34375 -12.070312 8.0625 -13.0625 L 0.984375 -13.0625 L 0.984375 -14.640625 L 10.140625 -14.640625 L 10.140625 -13.53125 C 9.285156 -12.4375 8.585938 -11.378906 8.046875 -10.359375 C 7.515625 -9.347656 7.097656 -8.316406 6.796875 -7.265625 C 6.492188 -6.210938 6.269531 -5.097656 6.125 -3.921875 C 5.988281 -2.742188 5.894531 -1.4375 5.84375 0 Z M 3.953125 0 "/></g></g></g><g fill="#000000" fill-opacity="1"><g transform="translate(564.863358, 267.094939)"><g><path d="M 5.546875 0.265625 C 4.148438 0.265625 3.039062 -0.367188 2.21875 -1.640625 C 1.394531 -2.910156 0.984375 -4.816406 0.984375 -7.359375 C 0.984375 -9.898438 1.394531 -11.789062 2.21875 -13.03125 C 3.039062 -14.28125 4.148438 -14.90625 5.546875 -14.90625 C 6.929688 -14.90625 8.035156 -14.28125 8.859375 -13.03125 C 9.679688 -11.789062 10.09375 -9.898438 10.09375 -7.359375 C 10.09375 -4.816406 9.679688 -2.910156 8.859375 -1.640625 C 8.035156 -0.367188 6.929688 0.265625 5.546875 0.265625 Z M 5.546875 -1.203125 C 6.367188 -1.203125 7.035156 -1.6875 7.546875 -2.65625 C 8.066406 -3.632812 8.328125 -5.203125 8.328125 -7.359375 C 8.328125 -9.503906 8.066406 -11.054688 7.546875 -12.015625 C 7.035156 -12.972656 6.367188 -13.453125 5.546875 -13.453125 C 4.710938 -13.453125 4.035156 -12.972656 3.515625 -12.015625 C 3.003906 -11.054688 2.75 -9.503906 2.75 -7.359375 C 2.75 -5.203125 3.003906 -3.632812 3.515625 -2.65625 C 4.035156 -1.6875 4.710938 -1.203125 5.546875 -1.203125 Z M 5.546875 -1.203125 "/></g></g></g><g fill="#000000" fill-opacity="1"><g transform="translate(575.93413, 267.094939)"><g><path d="M 17.0625 -15.125 L 17.0625 -13.703125 L 3.015625 -13.703125 L 3.015625 -15.125 Z M 14.0625 -0.234375 L 16.640625 -0.234375 C 16.910156 -0.234375 17.109375 -0.320312 17.234375 -0.5 C 17.367188 -0.675781 17.46875 -1.019531 17.53125 -1.53125 C 17.59375 -2.039062 17.632812 -2.800781 17.65625 -3.8125 C 17.832031 -3.675781 18.054688 -3.546875 18.328125 -3.421875 C 18.597656 -3.304688 18.832031 -3.21875 19.03125 -3.15625 C 18.976562 -2.019531 18.878906 -1.140625 18.734375 -0.515625 C 18.597656 0.109375 18.378906 0.546875 18.078125 0.796875 C 17.773438 1.046875 17.328125 1.171875 16.734375 1.171875 L 13.890625 1.171875 C 12.992188 1.171875 12.390625 1.015625 12.078125 0.703125 C 11.773438 0.390625 11.625 -0.1875 11.625 -1.03125 L 11.625 -8.140625 L 7.90625 -8.140625 C 7.8125 -7.078125 7.660156 -6.0625 7.453125 -5.09375 C 7.242188 -4.132812 6.929688 -3.242188 6.515625 -2.421875 C 6.097656 -1.609375 5.519531 -0.867188 4.78125 -0.203125 C 4.050781 0.453125 3.113281 1.007812 1.96875 1.46875 C 1.875 1.289062 1.738281 1.085938 1.5625 0.859375 C 1.382812 0.628906 1.207031 0.445312 1.03125 0.3125 C 2.101562 -0.0820312 2.96875 -0.570312 3.625 -1.15625 C 4.28125 -1.738281 4.789062 -2.390625 5.15625 -3.109375 C 5.519531 -3.835938 5.785156 -4.625 5.953125 -5.46875 C 6.117188 -6.320312 6.242188 -7.210938 6.328125 -8.140625 L 1.28125 -8.140625 L 1.28125 -9.578125 L 18.734375 -9.578125 L 18.734375 -8.140625 L 13.125 -8.140625 L 13.125 -1.0625 C 13.125 -0.726562 13.179688 -0.503906 13.296875 -0.390625 C 13.421875 -0.285156 13.675781 -0.234375 14.0625 -0.234375 Z M 14.0625 -0.234375 "/></g></g></g><g fill="#000000" fill-opacity="1"><g transform="translate(434.73499, 333.171672)"><g><path d="M 3.3125 -2.0625 L 16.546875 -2.0625 L 16.546875 -13.53125 L 12.65625 -13.53125 L 12.65625 -7.28125 C 12.65625 -6.957031 12.679688 -6.726562 12.734375 -6.59375 C 12.796875 -6.46875 12.9375 -6.40625 13.15625 -6.40625 L 15.078125 -6.40625 C 15.253906 -6.40625 15.457031 -6.410156 15.6875 -6.421875 C 15.925781 -6.429688 16.109375 -6.457031 16.234375 -6.5 C 16.253906 -6.289062 16.273438 -6.078125 16.296875 -5.859375 C 16.316406 -5.640625 16.332031 -5.4375 16.34375 -5.25 C 16.21875 -5.195312 16.039062 -5.164062 15.8125 -5.15625 C 15.59375 -5.144531 15.367188 -5.140625 15.140625 -5.140625 L 12.984375 -5.140625 C 12.296875 -5.140625 11.832031 -5.3125 11.59375 -5.65625 C 11.363281 -6 11.25 -6.554688 11.25 -7.328125 L 11.25 -13.53125 L 8.5 -13.53125 C 8.46875 -12.1875 8.394531 -10.988281 8.28125 -9.9375 C 8.175781 -8.882812 7.984375 -7.957031 7.703125 -7.15625 C 7.429688 -6.351562 7.035156 -5.65625 6.515625 -5.0625 C 6.003906 -4.46875 5.316406 -3.960938 4.453125 -3.546875 C 4.367188 -3.734375 4.238281 -3.941406 4.0625 -4.171875 C 3.882812 -4.398438 3.710938 -4.578125 3.546875 -4.703125 C 4.304688 -5.066406 4.910156 -5.5 5.359375 -6 C 5.816406 -6.507812 6.160156 -7.113281 6.390625 -7.8125 C 6.628906 -8.519531 6.789062 -9.347656 6.875 -10.296875 C 6.957031 -11.242188 7.015625 -12.320312 7.046875 -13.53125 L 3.3125 -13.53125 Z M 1.828125 -14.96875 L 18.0625 -14.96875 L 18.0625 0.71875 L 16.546875 0.71875 L 16.546875 -0.625 L 3.3125 -0.625 L 3.3125 0.859375 L 1.828125 0.859375 Z M 1.828125 -14.96875 "/></g></g></g><g fill="#000000" fill-opacity="1"><g transform="translate(454.682319, 333.171672)"><g><path d="M 6.890625 -6.890625 L 5.984375 -5.828125 C 5.847656 -6.160156 5.640625 -6.582031 5.359375 -7.09375 C 5.085938 -7.613281 4.816406 -8.125 4.546875 -8.625 L 4.546875 1.515625 L 3.1875 1.515625 L 3.1875 -8.1875 C 2.9375 -7.132812 2.648438 -6.109375 2.328125 -5.109375 C 2.015625 -4.109375 1.6875 -3.265625 1.34375 -2.578125 C 1.257812 -2.796875 1.140625 -3.046875 0.984375 -3.328125 C 0.835938 -3.617188 0.707031 -3.851562 0.59375 -4.03125 C 0.914062 -4.601562 1.226562 -5.3125 1.53125 -6.15625 C 1.84375 -7 2.125 -7.890625 2.375 -8.828125 C 2.625 -9.765625 2.820312 -10.644531 2.96875 -11.46875 L 0.875 -11.46875 L 0.875 -12.875 L 3.1875 -12.875 L 3.1875 -16.703125 L 4.546875 -16.703125 L 4.546875 -12.875 L 6.546875 -12.875 L 6.546875 -11.46875 L 4.546875 -11.46875 L 4.546875 -10.4375 C 4.679688 -10.257812 4.859375 -10 5.078125 -9.65625 C 5.296875 -9.320312 5.523438 -8.96875 5.765625 -8.59375 C 6.015625 -8.226562 6.242188 -7.882812 6.453125 -7.5625 C 6.660156 -7.238281 6.804688 -7.015625 6.890625 -6.890625 Z M 15.203125 -3.359375 L 11.21875 -3.359375 C 11.039062 -3.148438 10.875 -2.953125 10.71875 -2.765625 C 10.570312 -2.585938 10.425781 -2.410156 10.28125 -2.234375 C 10.78125 -2.117188 11.300781 -1.988281 11.84375 -1.84375 C 12.382812 -1.707031 12.921875 -1.554688 13.453125 -1.390625 C 13.847656 -1.660156 14.1875 -1.960938 14.46875 -2.296875 C 14.757812 -2.628906 15.003906 -2.984375 15.203125 -3.359375 Z M 9.03125 -8.21875 L 9.03125 -7 L 12.21875 -7 L 12.21875 -8.21875 Z M 16.796875 -8.21875 L 13.609375 -8.21875 L 13.609375 -7 L 16.796875 -7 Z M 9.421875 -11.234375 L 12.21875 -11.234375 L 12.21875 -12.4375 L 9.421875 -12.4375 Z M 12.21875 -14.421875 L 9.421875 -14.421875 L 9.421875 -13.328125 L 12.21875 -13.328125 Z M 16.359375 -14.421875 L 13.609375 -14.421875 L 13.609375 -13.328125 L 16.359375 -13.328125 Z M 13.609375 -11.234375 L 16.359375 -11.234375 L 16.359375 -12.4375 L 13.609375 -12.4375 Z M 19.09375 -3.359375 L 16.625 -3.359375 C 16.21875 -2.421875 15.628906 -1.613281 14.859375 -0.9375 C 15.609375 -0.695312 16.320312 -0.453125 17 -0.203125 C 17.675781 0.046875 18.273438 0.289062 18.796875 0.53125 L 17.703125 1.46875 C 17.203125 1.21875 16.601562 0.953125 15.90625 0.671875 C 15.207031 0.398438 14.445312 0.132812 13.625 -0.125 C 12.894531 0.257812 12.015625 0.59375 10.984375 0.875 C 9.953125 1.15625 8.722656 1.390625 7.296875 1.578125 C 7.242188 1.421875 7.164062 1.226562 7.0625 1 C 6.957031 0.78125 6.851562 0.609375 6.75 0.484375 C 8.988281 0.222656 10.734375 -0.15625 11.984375 -0.65625 C 11.335938 -0.84375 10.6875 -1.023438 10.03125 -1.203125 C 9.382812 -1.378906 8.753906 -1.535156 8.140625 -1.671875 C 8.367188 -1.910156 8.613281 -2.171875 8.875 -2.453125 C 9.132812 -2.742188 9.390625 -3.046875 9.640625 -3.359375 L 6.96875 -3.359375 L 6.96875 -4.53125 L 10.53125 -4.53125 C 10.914062 -5.050781 11.25 -5.539062 11.53125 -6 L 7.703125 -6 L 7.703125 -9.234375 L 12.21875 -9.234375 L 12.21875 -10.234375 L 8.125 -10.234375 L 8.125 -12.296875 L 6.96875 -12.296875 L 6.96875 -13.453125 L 8.125 -13.453125 L 8.125 -15.421875 L 12.21875 -15.421875 L 12.21875 -16.703125 L 13.609375 -16.703125 L 13.609375 -15.421875 L 17.703125 -15.421875 L 17.703125 -13.453125 L 18.9375 -13.453125 L 18.9375 -12.296875 L 17.703125 -12.296875 L 17.703125 -10.234375 L 13.609375 -10.234375 L 13.609375 -9.234375 L 18.203125 -9.234375 L 18.203125 -6 L 13.0625 -6 C 12.9375 -5.757812 12.789062 -5.515625 12.625 -5.265625 C 12.457031 -5.023438 12.28125 -4.78125 12.09375 -4.53125 L 15.65625 -4.53125 C 15.695312 -4.675781 15.738281 -4.820312 15.78125 -4.96875 C 15.820312 -5.113281 15.851562 -5.253906 15.875 -5.390625 L 17.21875 -5.390625 C 17.1875 -5.253906 17.15625 -5.113281 17.125 -4.96875 C 17.09375 -4.820312 17.066406 -4.675781 17.046875 -4.53125 L 19.09375 -4.53125 Z M 19.09375 -3.359375 "/></g></g></g><g fill="#000000" fill-opacity="1"><g transform="translate(542.721814, 333.171672)"><g><path d="M 0.875 0 L 0.875 -1.078125 C 3.175781 -3.085938 4.867188 -4.847656 5.953125 -6.359375 C 7.035156 -7.878906 7.578125 -9.265625 7.578125 -10.515625 C 7.578125 -11.347656 7.351562 -12.035156 6.90625 -12.578125 C 6.46875 -13.128906 5.796875 -13.40625 4.890625 -13.40625 C 4.285156 -13.40625 3.726562 -13.242188 3.21875 -12.921875 C 2.707031 -12.597656 2.253906 -12.195312 1.859375 -11.71875 L 0.796875 -12.75 C 1.398438 -13.40625 2.035156 -13.925781 2.703125 -14.3125 C 3.378906 -14.707031 4.179688 -14.90625 5.109375 -14.90625 C 6.410156 -14.90625 7.441406 -14.507812 8.203125 -13.71875 C 8.972656 -12.925781 9.359375 -11.878906 9.359375 -10.578125 C 9.359375 -9.609375 9.117188 -8.625 8.640625 -7.625 C 8.160156 -6.632812 7.488281 -5.628906 6.625 -4.609375 C 5.769531 -3.585938 4.769531 -2.53125 3.625 -1.4375 C 4.007812 -1.457031 4.410156 -1.484375 4.828125 -1.515625 C 5.253906 -1.554688 5.65625 -1.578125 6.03125 -1.578125 L 10.078125 -1.578125 L 10.078125 0 Z M 0.875 0 "/></g></g></g><g fill="#000000" fill-opacity="1"><g transform="translate(553.792586, 333.171672)"><g><path d="M 3.953125 0 C 4.015625 -1.382812 4.128906 -2.65625 4.296875 -3.8125 C 4.460938 -4.976562 4.703125 -6.078125 5.015625 -7.109375 C 5.335938 -8.140625 5.742188 -9.140625 6.234375 -10.109375 C 6.734375 -11.085938 7.34375 -12.070312 8.0625 -13.0625 L 0.984375 -13.0625 L 0.984375 -14.640625 L 10.140625 -14.640625 L 10.140625 -13.53125 C 9.285156 -12.4375 8.585938 -11.378906 8.046875 -10.359375 C 7.515625 -9.347656 7.097656 -8.316406 6.796875 -7.265625 C 6.492188 -6.210938 6.269531 -5.097656 6.125 -3.921875 C 5.988281 -2.742188 5.894531 -1.4375 5.84375 0 Z M 3.953125 0 "/></g></g></g><g fill="#000000" fill-opacity="1"><g transform="translate(564.863358, 333.171672)"><g><path d="M 5.546875 0.265625 C 4.148438 0.265625 3.039062 -0.367188 2.21875 -1.640625 C 1.394531 -2.910156 0.984375 -4.816406 0.984375 -7.359375 C 0.984375 -9.898438 1.394531 -11.789062 2.21875 -13.03125 C 3.039062 -14.28125 4.148438 -14.90625 5.546875 -14.90625 C 6.929688 -14.90625 8.035156 -14.28125 8.859375 -13.03125 C 9.679688 -11.789062 10.09375 -9.898438 10.09375 -7.359375 C 10.09375 -4.816406 9.679688 -2.910156 8.859375 -1.640625 C 8.035156 -0.367188 6.929688 0.265625 5.546875 0.265625 Z M 5.546875 -1.203125 C 6.367188 -1.203125 7.035156 -1.6875 7.546875 -2.65625 C 8.066406 -3.632812 8.328125 -5.203125 8.328125 -7.359375 C 8.328125 -9.503906 8.066406 -11.054688 7.546875 -12.015625 C 7.035156 -12.972656 6.367188 -13.453125 5.546875 -13.453125 C 4.710938 -13.453125 4.035156 -12.972656 3.515625 -12.015625 C 3.003906 -11.054688 2.75 -9.503906 2.75 -7.359375 C 2.75 -5.203125 3.003906 -3.632812 3.515625 -2.65625 C 4.035156 -1.6875 4.710938 -1.203125 5.546875 -1.203125 Z M 5.546875 -1.203125 "/></g></g></g><g fill="#000000" fill-opacity="1"><g transform="translate(575.93413, 333.171672)"><g><path d="M 17.0625 -15.125 L 17.0625 -13.703125 L 3.015625 -13.703125 L 3.015625 -15.125 Z M 14.0625 -0.234375 L 16.640625 -0.234375 C 16.910156 -0.234375 17.109375 -0.320312 17.234375 -0.5 C 17.367188 -0.675781 17.46875 -1.019531 17.53125 -1.53125 C 17.59375 -2.039062 17.632812 -2.800781 17.65625 -3.8125 C 17.832031 -3.675781 18.054688 -3.546875 18.328125 -3.421875 C 18.597656 -3.304688 18.832031 -3.21875 19.03125 -3.15625 C 18.976562 -2.019531 18.878906 -1.140625 18.734375 -0.515625 C 18.597656 0.109375 18.378906 0.546875 18.078125 0.796875 C 17.773438 1.046875 17.328125 1.171875 16.734375 1.171875 L 13.890625 1.171875 C 12.992188 1.171875 12.390625 1.015625 12.078125 0.703125 C 11.773438 0.390625 11.625 -0.1875 11.625 -1.03125 L 11.625 -8.140625 L 7.90625 -8.140625 C 7.8125 -7.078125 7.660156 -6.0625 7.453125 -5.09375 C 7.242188 -4.132812 6.929688 -3.242188 6.515625 -2.421875 C 6.097656 -1.609375 5.519531 -0.867188 4.78125 -0.203125 C 4.050781 0.453125 3.113281 1.007812 1.96875 1.46875 C 1.875 1.289062 1.738281 1.085938 1.5625 0.859375 C 1.382812 0.628906 1.207031 0.445312 1.03125 0.3125 C 2.101562 -0.0820312 2.96875 -0.570312 3.625 -1.15625 C 4.28125 -1.738281 4.789062 -2.390625 5.15625 -3.109375 C 5.519531 -3.835938 5.785156 -4.625 5.953125 -5.46875 C 6.117188 -6.320312 6.242188 -7.210938 6.328125 -8.140625 L 1.28125 -8.140625 L 1.28125 -9.578125 L 18.734375 -9.578125 L 18.734375 -8.140625 L 13.125 -8.140625 L 13.125 -1.0625 C 13.125 -0.726562 13.179688 -0.503906 13.296875 -0.390625 C 13.421875 -0.285156 13.675781 -0.234375 14.0625 -0.234375 Z M 14.0625 -0.234375 "/></g></g></g><g fill="#000000" fill-opacity="1"><g transform="translate(432.4978, 399.248433)"><g/></g></g><g fill="#000000" fill-opacity="1"><g transform="translate(436.972179, 399.248433)"><g><path d="M 13.84375 -7.546875 L 8.84375 -7.546875 C 8.65625 -6.359375 8.457031 -5.195312 8.25 -4.0625 C 8.039062 -2.9375 7.84375 -1.921875 7.65625 -1.015625 L 13.234375 -1.015625 C 13.304688 -1.722656 13.378906 -2.460938 13.453125 -3.234375 C 13.523438 -4.003906 13.59375 -4.757812 13.65625 -5.5 C 13.726562 -6.25 13.789062 -6.929688 13.84375 -7.546875 Z M 14.765625 -1.015625 L 18.8125 -1.015625 L 18.8125 0.4375 L 1.203125 0.4375 L 1.203125 -1.015625 L 6.046875 -1.015625 C 6.242188 -1.921875 6.445312 -2.9375 6.65625 -4.0625 C 6.863281 -5.195312 7.066406 -6.359375 7.265625 -7.546875 L 3.546875 -7.546875 L 3.546875 -9 L 7.5 -9 C 7.738281 -10.488281 7.953125 -11.914062 8.140625 -13.28125 L 2.453125 -13.28125 L 2.453125 -14.75 L 17.375 -14.75 L 17.375 -13.28125 L 9.71875 -13.28125 C 9.625 -12.625 9.519531 -11.925781 9.40625 -11.1875 C 9.289062 -10.457031 9.175781 -9.726562 9.0625 -9 L 14.09375 -9 L 14.34375 -9.078125 L 15.484375 -8.953125 C 15.441406 -8.222656 15.378906 -7.40625 15.296875 -6.5 C 15.222656 -5.59375 15.140625 -4.664062 15.046875 -3.71875 C 14.960938 -2.78125 14.867188 -1.878906 14.765625 -1.015625 Z M 14.765625 -1.015625 "/></g></g></g><g fill="#000000" fill-opacity="1"><g transform="translate(456.919509, 399.248433)"><g><path d="M 6.890625 -6.890625 L 5.984375 -5.828125 C 5.847656 -6.160156 5.640625 -6.582031 5.359375 -7.09375 C 5.085938 -7.613281 4.816406 -8.125 4.546875 -8.625 L 4.546875 1.515625 L 3.1875 1.515625 L 3.1875 -8.1875 C 2.9375 -7.132812 2.648438 -6.109375 2.328125 -5.109375 C 2.015625 -4.109375 1.6875 -3.265625 1.34375 -2.578125 C 1.257812 -2.796875 1.140625 -3.046875 0.984375 -3.328125 C 0.835938 -3.617188 0.707031 -3.851562 0.59375 -4.03125 C 0.914062 -4.601562 1.226562 -5.3125 1.53125 -6.15625 C 1.84375 -7 2.125 -7.890625 2.375 -8.828125 C 2.625 -9.765625 2.820312 -10.644531 2.96875 -11.46875 L 0.875 -11.46875 L 0.875 -12.875 L 3.1875 -12.875 L 3.1875 -16.703125 L 4.546875 -16.703125 L 4.546875 -12.875 L 6.546875 -12.875 L 6.546875 -11.46875 L 4.546875 -11.46875 L 4.546875 -10.4375 C 4.679688 -10.257812 4.859375 -10 5.078125 -9.65625 C 5.296875 -9.320312 5.523438 -8.96875 5.765625 -8.59375 C 6.015625 -8.226562 6.242188 -7.882812 6.453125 -7.5625 C 6.660156 -7.238281 6.804688 -7.015625 6.890625 -6.890625 Z M 15.203125 -3.359375 L 11.21875 -3.359375 C 11.039062 -3.148438 10.875 -2.953125 10.71875 -2.765625 C 10.570312 -2.585938 10.425781 -2.410156 10.28125 -2.234375 C 10.78125 -2.117188 11.300781 -1.988281 11.84375 -1.84375 C 12.382812 -1.707031 12.921875 -1.554688 13.453125 -1.390625 C 13.847656 -1.660156 14.1875 -1.960938 14.46875 -2.296875 C 14.757812 -2.628906 15.003906 -2.984375 15.203125 -3.359375 Z M 9.03125 -8.21875 L 9.03125 -7 L 12.21875 -7 L 12.21875 -8.21875 Z M 16.796875 -8.21875 L 13.609375 -8.21875 L 13.609375 -7 L 16.796875 -7 Z M 9.421875 -11.234375 L 12.21875 -11.234375 L 12.21875 -12.4375 L 9.421875 -12.4375 Z M 12.21875 -14.421875 L 9.421875 -14.421875 L 9.421875 -13.328125 L 12.21875 -13.328125 Z M 16.359375 -14.421875 L 13.609375 -14.421875 L 13.609375 -13.328125 L 16.359375 -13.328125 Z M 13.609375 -11.234375 L 16.359375 -11.234375 L 16.359375 -12.4375 L 13.609375 -12.4375 Z M 19.09375 -3.359375 L 16.625 -3.359375 C 16.21875 -2.421875 15.628906 -1.613281 14.859375 -0.9375 C 15.609375 -0.695312 16.320312 -0.453125 17 -0.203125 C 17.675781 0.046875 18.273438 0.289062 18.796875 0.53125 L 17.703125 1.46875 C 17.203125 1.21875 16.601562 0.953125 15.90625 0.671875 C 15.207031 0.398438 14.445312 0.132812 13.625 -0.125 C 12.894531 0.257812 12.015625 0.59375 10.984375 0.875 C 9.953125 1.15625 8.722656 1.390625 7.296875 1.578125 C 7.242188 1.421875 7.164062 1.226562 7.0625 1 C 6.957031 0.78125 6.851562 0.609375 6.75 0.484375 C 8.988281 0.222656 10.734375 -0.15625 11.984375 -0.65625 C 11.335938 -0.84375 10.6875 -1.023438 10.03125 -1.203125 C 9.382812 -1.378906 8.753906 -1.535156 8.140625 -1.671875 C 8.367188 -1.910156 8.613281 -2.171875 8.875 -2.453125 C 9.132812 -2.742188 9.390625 -3.046875 9.640625 -3.359375 L 6.96875 -3.359375 L 6.96875 -4.53125 L 10.53125 -4.53125 C 10.914062 -5.050781 11.25 -5.539062 11.53125 -6 L 7.703125 -6 L 7.703125 -9.234375 L 12.21875 -9.234375 L 12.21875 -10.234375 L 8.125 -10.234375 L 8.125 -12.296875 L 6.96875 -12.296875 L 6.96875 -13.453125 L 8.125 -13.453125 L 8.125 -15.421875 L 12.21875 -15.421875 L 12.21875 -16.703125 L 13.609375 -16.703125 L 13.609375 -15.421875 L 17.703125 -15.421875 L 17.703125 -13.453125 L 18.9375 -13.453125 L 18.9375 -12.296875 L 17.703125 -12.296875 L 17.703125 -10.234375 L 13.609375 -10.234375 L 13.609375 -9.234375 L 18.203125 -9.234375 L 18.203125 -6 L 13.0625 -6 C 12.9375 -5.757812 12.789062 -5.515625 12.625 -5.265625 C 12.457031 -5.023438 12.28125 -4.78125 12.09375 -4.53125 L 15.65625 -4.53125 C 15.695312 -4.675781 15.738281 -4.820312 15.78125 -4.96875 C 15.820312 -5.113281 15.851562 -5.253906 15.875 -5.390625 L 17.21875 -5.390625 C 17.1875 -5.253906 17.15625 -5.113281 17.125 -4.96875 C 17.09375 -4.820312 17.066406 -4.675781 17.046875 -4.53125 L 19.09375 -4.53125 Z M 19.09375 -3.359375 "/></g></g></g><g fill="#000000" fill-opacity="1"><g transform="translate(542.721814, 399.248433)"><g><path d="M 5.265625 0.265625 C 4.117188 0.265625 3.171875 0.0625 2.421875 -0.34375 C 1.671875 -0.75 1.054688 -1.210938 0.578125 -1.734375 L 1.5 -2.9375 C 1.925781 -2.476562 2.429688 -2.082031 3.015625 -1.75 C 3.597656 -1.414062 4.300781 -1.25 5.125 -1.25 C 5.988281 -1.25 6.695312 -1.492188 7.25 -1.984375 C 7.8125 -2.472656 8.09375 -3.140625 8.09375 -3.984375 C 8.09375 -4.578125 7.945312 -5.085938 7.65625 -5.515625 C 7.363281 -5.953125 6.890625 -6.289062 6.234375 -6.53125 C 5.578125 -6.78125 4.679688 -6.90625 3.546875 -6.90625 L 3.546875 -8.296875 C 4.554688 -8.296875 5.351562 -8.414062 5.9375 -8.65625 C 6.53125 -8.90625 6.957031 -9.242188 7.21875 -9.671875 C 7.476562 -10.097656 7.609375 -10.570312 7.609375 -11.09375 C 7.609375 -11.800781 7.382812 -12.363281 6.9375 -12.78125 C 6.488281 -13.195312 5.882812 -13.40625 5.125 -13.40625 C 4.539062 -13.40625 3.992188 -13.273438 3.484375 -13.015625 C 2.972656 -12.753906 2.507812 -12.410156 2.09375 -11.984375 L 1.125 -13.15625 C 1.664062 -13.65625 2.269531 -14.070312 2.9375 -14.40625 C 3.601562 -14.738281 4.359375 -14.90625 5.203125 -14.90625 C 6.023438 -14.90625 6.753906 -14.757812 7.390625 -14.46875 C 8.035156 -14.175781 8.539062 -13.753906 8.90625 -13.203125 C 9.269531 -12.660156 9.453125 -12.003906 9.453125 -11.234375 C 9.453125 -10.335938 9.210938 -9.597656 8.734375 -9.015625 C 8.253906 -8.429688 7.628906 -7.992188 6.859375 -7.703125 L 6.859375 -7.625 C 7.722656 -7.425781 8.453125 -7.003906 9.046875 -6.359375 C 9.648438 -5.722656 9.953125 -4.90625 9.953125 -3.90625 C 9.953125 -3.039062 9.742188 -2.296875 9.328125 -1.671875 C 8.910156 -1.046875 8.34375 -0.566406 7.625 -0.234375 C 6.914062 0.0976562 6.128906 0.265625 5.265625 0.265625 Z M 5.265625 0.265625 "/></g></g></g><g fill="#000000" fill-opacity="1"><g transform="translate(553.792586, 399.248433)"><g><path d="M 3.953125 0 C 4.015625 -1.382812 4.128906 -2.65625 4.296875 -3.8125 C 4.460938 -4.976562 4.703125 -6.078125 5.015625 -7.109375 C 5.335938 -8.140625 5.742188 -9.140625 6.234375 -10.109375 C 6.734375 -11.085938 7.34375 -12.070312 8.0625 -13.0625 L 0.984375 -13.0625 L 0.984375 -14.640625 L 10.140625 -14.640625 L 10.140625 -13.53125 C 9.285156 -12.4375 8.585938 -11.378906 8.046875 -10.359375 C 7.515625 -9.347656 7.097656 -8.316406 6.796875 -7.265625 C 6.492188 -6.210938 6.269531 -5.097656 6.125 -3.921875 C 5.988281 -2.742188 5.894531 -1.4375 5.84375 0 Z M 3.953125 0 "/></g></g></g><g fill="#000000" fill-opacity="1"><g transform="translate(564.863358, 399.248433)"><g><path d="M 5.546875 0.265625 C 4.148438 0.265625 3.039062 -0.367188 2.21875 -1.640625 C 1.394531 -2.910156 0.984375 -4.816406 0.984375 -7.359375 C 0.984375 -9.898438 1.394531 -11.789062 2.21875 -13.03125 C 3.039062 -14.28125 4.148438 -14.90625 5.546875 -14.90625 C 6.929688 -14.90625 8.035156 -14.28125 8.859375 -13.03125 C 9.679688 -11.789062 10.09375 -9.898438 10.09375 -7.359375 C 10.09375 -4.816406 9.679688 -2.910156 8.859375 -1.640625 C 8.035156 -0.367188 6.929688 0.265625 5.546875 0.265625 Z M 5.546875 -1.203125 C 6.367188 -1.203125 7.035156 -1.6875 7.546875 -2.65625 C 8.066406 -3.632812 8.328125 -5.203125 8.328125 -7.359375 C 8.328125 -9.503906 8.066406 -11.054688 7.546875 -12.015625 C 7.035156 -12.972656 6.367188 -13.453125 5.546875 -13.453125 C 4.710938 -13.453125 4.035156 -12.972656 3.515625 -12.015625 C 3.003906 -11.054688 2.75 -9.503906 2.75 -7.359375 C 2.75 -5.203125 3.003906 -3.632812 3.515625 -2.65625 C 4.035156 -1.6875 4.710938 -1.203125 5.546875 -1.203125 Z M 5.546875 -1.203125 "/></g></g></g><g fill="#000000" fill-opacity="1"><g transform="translate(575.93413, 399.248433)"><g><path d="M 17.0625 -15.125 L 17.0625 -13.703125 L 3.015625 -13.703125 L 3.015625 -15.125 Z M 14.0625 -0.234375 L 16.640625 -0.234375 C 16.910156 -0.234375 17.109375 -0.320312 17.234375 -0.5 C 17.367188 -0.675781 17.46875 -1.019531 17.53125 -1.53125 C 17.59375 -2.039062 17.632812 -2.800781 17.65625 -3.8125 C 17.832031 -3.675781 18.054688 -3.546875 18.328125 -3.421875 C 18.597656 -3.304688 18.832031 -3.21875 19.03125 -3.15625 C 18.976562 -2.019531 18.878906 -1.140625 18.734375 -0.515625 C 18.597656 0.109375 18.378906 0.546875 18.078125 0.796875 C 17.773438 1.046875 17.328125 1.171875 16.734375 1.171875 L 13.890625 1.171875 C 12.992188 1.171875 12.390625 1.015625 12.078125 0.703125 C 11.773438 0.390625 11.625 -0.1875 11.625 -1.03125 L 11.625 -8.140625 L 7.90625 -8.140625 C 7.8125 -7.078125 7.660156 -6.0625 7.453125 -5.09375 C 7.242188 -4.132812 6.929688 -3.242188 6.515625 -2.421875 C 6.097656 -1.609375 5.519531 -0.867188 4.78125 -0.203125 C 4.050781 0.453125 3.113281 1.007812 1.96875 1.46875 C 1.875 1.289062 1.738281 1.085938 1.5625 0.859375 C 1.382812 0.628906 1.207031 0.445312 1.03125 0.3125 C 2.101562 -0.0820312 2.96875 -0.570312 3.625 -1.15625 C 4.28125 -1.738281 4.789062 -2.390625 5.15625 -3.109375 C 5.519531 -3.835938 5.785156 -4.625 5.953125 -5.46875 C 6.117188 -6.320312 6.242188 -7.210938 6.328125 -8.140625 L 1.28125 -8.140625 L 1.28125 -9.578125 L 18.734375 -9.578125 L 18.734375 -8.140625 L 13.125 -8.140625 L 13.125 -1.0625 C 13.125 -0.726562 13.179688 -0.503906 13.296875 -0.390625 C 13.421875 -0.285156 13.675781 -0.234375 14.0625 -0.234375 Z M 14.0625 -0.234375 "/></g></g></g><g fill="#000000" fill-opacity="1"><g transform="translate(434.73499, 465.325178)"><g><path d="M 1.21875 -11.4375 L 18.796875 -11.4375 L 18.796875 -9.921875 L 1.21875 -9.921875 Z M 6.1875 -7.625 L 7.796875 -7.109375 C 7.316406 -6.078125 6.773438 -5.039062 6.171875 -4 C 5.566406 -2.96875 4.941406 -1.988281 4.296875 -1.0625 C 3.648438 -0.144531 3.023438 0.671875 2.421875 1.390625 C 2.242188 1.242188 2.003906 1.066406 1.703125 0.859375 C 1.398438 0.660156 1.144531 0.492188 0.9375 0.359375 C 1.570312 -0.304688 2.207031 -1.070312 2.84375 -1.9375 C 3.488281 -2.8125 4.097656 -3.738281 4.671875 -4.71875 C 5.242188 -5.695312 5.75 -6.664062 6.1875 -7.625 Z M 12.046875 -7.125 L 13.421875 -7.78125 C 13.890625 -7.125 14.378906 -6.429688 14.890625 -5.703125 C 15.398438 -4.972656 15.90625 -4.234375 16.40625 -3.484375 C 16.90625 -2.742188 17.367188 -2.035156 17.796875 -1.359375 C 18.234375 -0.691406 18.597656 -0.0976562 18.890625 0.421875 L 17.40625 1.28125 C 17.125 0.757812 16.773438 0.15625 16.359375 -0.53125 C 15.953125 -1.21875 15.5 -1.941406 15 -2.703125 C 14.507812 -3.460938 14.007812 -4.222656 13.5 -4.984375 C 13 -5.742188 12.515625 -6.457031 12.046875 -7.125 Z M 8.140625 -16.078125 L 9.640625 -16.59375 C 9.878906 -16.15625 10.117188 -15.679688 10.359375 -15.171875 C 10.609375 -14.671875 10.835938 -14.1875 11.046875 -13.71875 C 11.265625 -13.257812 11.441406 -12.859375 11.578125 -12.515625 L 9.96875 -11.890625 C 9.851562 -12.234375 9.691406 -12.648438 9.484375 -13.140625 C 9.273438 -13.628906 9.054688 -14.128906 8.828125 -14.640625 C 8.597656 -15.160156 8.367188 -15.640625 8.140625 -16.078125 Z M 8.140625 -16.078125 "/></g></g></g><g fill="#000000" fill-opacity="1"><g transform="translate(454.682319, 465.325178)"><g><path d="M 6.890625 -6.890625 L 5.984375 -5.828125 C 5.847656 -6.160156 5.640625 -6.582031 5.359375 -7.09375 C 5.085938 -7.613281 4.816406 -8.125 4.546875 -8.625 L 4.546875 1.515625 L 3.1875 1.515625 L 3.1875 -8.1875 C 2.9375 -7.132812 2.648438 -6.109375 2.328125 -5.109375 C 2.015625 -4.109375 1.6875 -3.265625 1.34375 -2.578125 C 1.257812 -2.796875 1.140625 -3.046875 0.984375 -3.328125 C 0.835938 -3.617188 0.707031 -3.851562 0.59375 -4.03125 C 0.914062 -4.601562 1.226562 -5.3125 1.53125 -6.15625 C 1.84375 -7 2.125 -7.890625 2.375 -8.828125 C 2.625 -9.765625 2.820312 -10.644531 2.96875 -11.46875 L 0.875 -11.46875 L 0.875 -12.875 L 3.1875 -12.875 L 3.1875 -16.703125 L 4.546875 -16.703125 L 4.546875 -12.875 L 6.546875 -12.875 L 6.546875 -11.46875 L 4.546875 -11.46875 L 4.546875 -10.4375 C 4.679688 -10.257812 4.859375 -10 5.078125 -9.65625 C 5.296875 -9.320312 5.523438 -8.96875 5.765625 -8.59375 C 6.015625 -8.226562 6.242188 -7.882812 6.453125 -7.5625 C 6.660156 -7.238281 6.804688 -7.015625 6.890625 -6.890625 Z M 15.203125 -3.359375 L 11.21875 -3.359375 C 11.039062 -3.148438 10.875 -2.953125 10.71875 -2.765625 C 10.570312 -2.585938 10.425781 -2.410156 10.28125 -2.234375 C 10.78125 -2.117188 11.300781 -1.988281 11.84375 -1.84375 C 12.382812 -1.707031 12.921875 -1.554688 13.453125 -1.390625 C 13.847656 -1.660156 14.1875 -1.960938 14.46875 -2.296875 C 14.757812 -2.628906 15.003906 -2.984375 15.203125 -3.359375 Z M 9.03125 -8.21875 L 9.03125 -7 L 12.21875 -7 L 12.21875 -8.21875 Z M 16.796875 -8.21875 L 13.609375 -8.21875 L 13.609375 -7 L 16.796875 -7 Z M 9.421875 -11.234375 L 12.21875 -11.234375 L 12.21875 -12.4375 L 9.421875 -12.4375 Z M 12.21875 -14.421875 L 9.421875 -14.421875 L 9.421875 -13.328125 L 12.21875 -13.328125 Z M 16.359375 -14.421875 L 13.609375 -14.421875 L 13.609375 -13.328125 L 16.359375 -13.328125 Z M 13.609375 -11.234375 L 16.359375 -11.234375 L 16.359375 -12.4375 L 13.609375 -12.4375 Z M 19.09375 -3.359375 L 16.625 -3.359375 C 16.21875 -2.421875 15.628906 -1.613281 14.859375 -0.9375 C 15.609375 -0.695312 16.320312 -0.453125 17 -0.203125 C 17.675781 0.046875 18.273438 0.289062 18.796875 0.53125 L 17.703125 1.46875 C 17.203125 1.21875 16.601562 0.953125 15.90625 0.671875 C 15.207031 0.398438 14.445312 0.132812 13.625 -0.125 C 12.894531 0.257812 12.015625 0.59375 10.984375 0.875 C 9.953125 1.15625 8.722656 1.390625 7.296875 1.578125 C 7.242188 1.421875 7.164062 1.226562 7.0625 1 C 6.957031 0.78125 6.851562 0.609375 6.75 0.484375 C 8.988281 0.222656 10.734375 -0.15625 11.984375 -0.65625 C 11.335938 -0.84375 10.6875 -1.023438 10.03125 -1.203125 C 9.382812 -1.378906 8.753906 -1.535156 8.140625 -1.671875 C 8.367188 -1.910156 8.613281 -2.171875 8.875 -2.453125 C 9.132812 -2.742188 9.390625 -3.046875 9.640625 -3.359375 L 6.96875 -3.359375 L 6.96875 -4.53125 L 10.53125 -4.53125 C 10.914062 -5.050781 11.25 -5.539062 11.53125 -6 L 7.703125 -6 L 7.703125 -9.234375 L 12.21875 -9.234375 L 12.21875 -10.234375 L 8.125 -10.234375 L 8.125 -12.296875 L 6.96875 -12.296875 L 6.96875 -13.453125 L 8.125 -13.453125 L 8.125 -15.421875 L 12.21875 -15.421875 L 12.21875 -16.703125 L 13.609375 -16.703125 L 13.609375 -15.421875 L 17.703125 -15.421875 L 17.703125 -13.453125 L 18.9375 -13.453125 L 18.9375 -12.296875 L 17.703125 -12.296875 L 17.703125 -10.234375 L 13.609375 -10.234375 L 13.609375 -9.234375 L 18.203125 -9.234375 L 18.203125 -6 L 13.0625 -6 C 12.9375 -5.757812 12.789062 -5.515625 12.625 -5.265625 C 12.457031 -5.023438 12.28125 -4.78125 12.09375 -4.53125 L 15.65625 -4.53125 C 15.695312 -4.675781 15.738281 -4.820312 15.78125 -4.96875 C 15.820312 -5.113281 15.851562 -5.253906 15.875 -5.390625 L 17.21875 -5.390625 C 17.1875 -5.253906 17.15625 -5.113281 17.125 -4.96875 C 17.09375 -4.820312 17.066406 -4.675781 17.046875 -4.53125 L 19.09375 -4.53125 Z M 19.09375 -3.359375 "/></g></g></g><g fill="#000000" fill-opacity="1"><g transform="translate(542.721814, 465.325178)"><g><path d="M 2.296875 -5.484375 L 6.78125 -5.484375 L 6.78125 -9.96875 C 6.78125 -10.332031 6.789062 -10.773438 6.8125 -11.296875 C 6.84375 -11.816406 6.867188 -12.257812 6.890625 -12.625 L 6.796875 -12.625 C 6.628906 -12.269531 6.445312 -11.910156 6.25 -11.546875 C 6.050781 -11.191406 5.84375 -10.832031 5.625 -10.46875 Z M 6.78125 0 L 6.78125 -4.03125 L 0.40625 -4.03125 L 0.40625 -5.234375 L 6.484375 -14.640625 L 8.5 -14.640625 L 8.5 -5.484375 L 10.4375 -5.484375 L 10.4375 -4.03125 L 8.5 -4.03125 L 8.5 0 Z M 6.78125 0 "/></g></g></g><g fill="#000000" fill-opacity="1"><g transform="translate(553.792586, 465.325178)"><g><path d="M 3.953125 0 C 4.015625 -1.382812 4.128906 -2.65625 4.296875 -3.8125 C 4.460938 -4.976562 4.703125 -6.078125 5.015625 -7.109375 C 5.335938 -8.140625 5.742188 -9.140625 6.234375 -10.109375 C 6.734375 -11.085938 7.34375 -12.070312 8.0625 -13.0625 L 0.984375 -13.0625 L 0.984375 -14.640625 L 10.140625 -14.640625 L 10.140625 -13.53125 C 9.285156 -12.4375 8.585938 -11.378906 8.046875 -10.359375 C 7.515625 -9.347656 7.097656 -8.316406 6.796875 -7.265625 C 6.492188 -6.210938 6.269531 -5.097656 6.125 -3.921875 C 5.988281 -2.742188 5.894531 -1.4375 5.84375 0 Z M 3.953125 0 "/></g></g></g><g fill="#000000" fill-opacity="1"><g transform="translate(564.863358, 465.325178)"><g><path d="M 5.546875 0.265625 C 4.148438 0.265625 3.039062 -0.367188 2.21875 -1.640625 C 1.394531 -2.910156 0.984375 -4.816406 0.984375 -7.359375 C 0.984375 -9.898438 1.394531 -11.789062 2.21875 -13.03125 C 3.039062 -14.28125 4.148438 -14.90625 5.546875 -14.90625 C 6.929688 -14.90625 8.035156 -14.28125 8.859375 -13.03125 C 9.679688 -11.789062 10.09375 -9.898438 10.09375 -7.359375 C 10.09375 -4.816406 9.679688 -2.910156 8.859375 -1.640625 C 8.035156 -0.367188 6.929688 0.265625 5.546875 0.265625 Z M 5.546875 -1.203125 C 6.367188 -1.203125 7.035156 -1.6875 7.546875 -2.65625 C 8.066406 -3.632812 8.328125 -5.203125 8.328125 -7.359375 C 8.328125 -9.503906 8.066406 -11.054688 7.546875 -12.015625 C 7.035156 -12.972656 6.367188 -13.453125 5.546875 -13.453125 C 4.710938 -13.453125 4.035156 -12.972656 3.515625 -12.015625 C 3.003906 -11.054688 2.75 -9.503906 2.75 -7.359375 C 2.75 -5.203125 3.003906 -3.632812 3.515625 -2.65625 C 4.035156 -1.6875 4.710938 -1.203125 5.546875 -1.203125 Z M 5.546875 -1.203125 "/></g></g></g><g fill="#000000" fill-opacity="1"><g transform="translate(575.93413, 465.325178)"><g><path d="M 17.0625 -15.125 L 17.0625 -13.703125 L 3.015625 -13.703125 L 3.015625 -15.125 Z M 14.0625 -0.234375 L 16.640625 -0.234375 C 16.910156 -0.234375 17.109375 -0.320312 17.234375 -0.5 C 17.367188 -0.675781 17.46875 -1.019531 17.53125 -1.53125 C 17.59375 -2.039062 17.632812 -2.800781 17.65625 -3.8125 C 17.832031 -3.675781 18.054688 -3.546875 18.328125 -3.421875 C 18.597656 -3.304688 18.832031 -3.21875 19.03125 -3.15625 C 18.976562 -2.019531 18.878906 -1.140625 18.734375 -0.515625 C 18.597656 0.109375 18.378906 0.546875 18.078125 0.796875 C 17.773438 1.046875 17.328125 1.171875 16.734375 1.171875 L 13.890625 1.171875 C 12.992188 1.171875 12.390625 1.015625 12.078125 0.703125 C 11.773438 0.390625 11.625 -0.1875 11.625 -1.03125 L 11.625 -8.140625 L 7.90625 -8.140625 C 7.8125 -7.078125 7.660156 -6.0625 7.453125 -5.09375 C 7.242188 -4.132812 6.929688 -3.242188 6.515625 -2.421875 C 6.097656 -1.609375 5.519531 -0.867188 4.78125 -0.203125 C 4.050781 0.453125 3.113281 1.007812 1.96875 1.46875 C 1.875 1.289062 1.738281 1.085938 1.5625 0.859375 C 1.382812 0.628906 1.207031 0.445312 1.03125 0.3125 C 2.101562 -0.0820312 2.96875 -0.570312 3.625 -1.15625 C 4.28125 -1.738281 4.789062 -2.390625 5.15625 -3.109375 C 5.519531 -3.835938 5.785156 -4.625 5.953125 -5.46875 C 6.117188 -6.320312 6.242188 -7.210938 6.328125 -8.140625 L 1.28125 -8.140625 L 1.28125 -9.578125 L 18.734375 -9.578125 L 18.734375 -8.140625 L 13.125 -8.140625 L 13.125 -1.0625 C 13.125 -0.726562 13.179688 -0.503906 13.296875 -0.390625 C 13.421875 -0.285156 13.675781 -0.234375 14.0625 -0.234375 Z M 14.0625 -0.234375 "/></g></g></g><g clip-path="url(#aeef4fb345)"><path fill="#000000" d="M 399.109375 88.871094 L 399.109375 156.746094 M 624.890625 88.871094 L 624.890625 156.746094 M 398.1875 87.949219 L 625.8125 87.949219 M 398.1875 157.667969 L 625.8125 157.667969 M 399.109375 162.039062 L 399.109375 222.824219 M 510.273438 162.039062 L 510.273438 222.824219 M 398.1875 161.117188 L 511.195312 161.117188 M 398.1875 223.742188 L 511.195312 223.742188 M 513.726562 162.039062 L 513.726562 222.824219 M 624.890625 162.039062 L 624.890625 222.824219 M 512.804688 161.117188 L 625.8125 161.117188 M 512.804688 223.742188 L 625.8125 223.742188 M 399.109375 228.113281 L 399.109375 288.898438 M 510.273438 228.113281 L 510.273438 288.898438 M 398.1875 227.191406 L 511.195312 227.191406 M 398.1875 289.820312 L 511.195312 289.820312 M 513.726562 228.113281 L 513.726562 288.898438 M 624.890625 228.113281 L 624.890625 288.898438 M 512.804688 227.191406 L 625.8125 227.191406 M 512.804688 289.820312 L 625.8125 289.820312 M 399.109375 294.191406 L 399.109375 354.976562 M 510.273438 294.191406 L 510.273438 354.976562 M 398.1875 293.269531 L 511.195312 293.269531 M 398.1875 355.898438 L 511.195312 355.898438 M 513.726562 294.191406 L 513.726562 354.976562 M 624.890625 294.191406 L 624.890625 354.976562 M 512.804688 293.269531 L 625.8125 293.269531 M 512.804688 355.898438 L 625.8125 355.898438 M 399.109375 360.265625 L 399.109375 421.054688 M 510.273438 360.265625 L 510.273438 421.054688 M 398.1875 359.347656 L 511.195312 359.347656 M 398.1875 421.972656 L 511.195312 421.972656 M 513.726562 360.265625 L 513.726562 421.054688 M 624.890625 360.265625 L 624.890625 421.054688 M 512.804688 359.347656 L 625.8125 359.347656 M 512.804688 421.972656 L 625.8125 421.972656 M 399.109375 426.34375 L 399.109375 487.128906 M 510.273438 426.34375 L 510.273438 487.128906 M 398.1875 425.421875 L 511.195312 425.421875 M 398.1875 488.050781 L 511.195312 488.050781 M 513.726562 426.34375 L 513.726562 487.128906 M 624.890625 426.34375 L 624.890625 487.128906 M 512.804688 425.421875 L 625.8125 425.421875 M 512.804688 488.050781 L 625.8125 488.050781 " fill-opacity="1" fill-rule="nonzero"/></g><g clip-path="url(#349a3520ec)"><path stroke-linecap="butt" transform="matrix(0.749634, 0, 0, 0.749634, 398.187809, 87.028761)" fill="none" stroke-linejoin="miter" d="M 1.229354 2.457643 L 1.229354 93.001815 M 302.417955 2.457643 L 302.417955 93.001815 M -0.000412266 1.227877 L 303.647721 1.227877 M -0.000412266 94.231581 L 303.647721 94.231581 M 1.229354 100.062551 L 1.229354 181.148984 M 149.520448 100.062551 L 149.520448 181.148984 M -0.000412266 98.832784 L 150.750214 98.832784 M -0.000412266 182.37354 L 150.750214 182.37354 M 154.126862 100.062551 L 154.126862 181.148984 M 302.417955 100.062551 L 302.417955 181.148984 M 152.897095 98.832784 L 303.647721 98.832784 M 152.897095 182.37354 L 303.647721 182.37354 M 1.229354 188.204509 L 1.229354 269.290942 M 149.520448 188.204509 L 149.520448 269.290942 M -0.000412266 186.974743 L 150.750214 186.974743 M -0.000412266 270.520708 L 150.750214 270.520708 M 154.126862 188.204509 L 154.126862 269.290942 M 302.417955 188.204509 L 302.417955 269.290942 M 152.897095 186.974743 L 303.647721 186.974743 M 152.897095 270.520708 L 303.647721 270.520708 M 1.229354 276.351678 L 1.229354 357.438111 M 149.520448 276.351678 L 149.520448 357.438111 M -0.000412266 275.121912 L 150.750214 275.121912 M -0.000412266 358.667877 L 150.750214 358.667877 M 154.126862 276.351678 L 154.126862 357.438111 M 302.417955 276.351678 L 302.417955 357.438111 M 152.897095 275.121912 L 303.647721 275.121912 M 152.897095 358.667877 L 303.647721 358.667877 M 1.229354 364.493636 L 1.229354 445.58528 M 149.520448 364.493636 L 149.520448 445.58528 M -0.000412266 363.26908 L 150.750214 363.26908 M -0.000412266 446.809836 L 150.750214 446.809836 M 154.126862 364.493636 L 154.126862 445.58528 M 302.417955 364.493636 L 302.417955 445.58528 M 152.897095 363.26908 L 303.647721 363.26908 M 152.897095 446.809836 L 303.647721 446.809836 M 1.229354 452.640805 L 1.229354 533.727238 M 149.520448 452.640805 L 149.520448 533.727238 M -0.000412266 451.411039 L 150.750214 451.411039 M -0.000412266 534.957004 L 150.750214 534.957004 M 154.126862 452.640805 L 154.126862 533.727238 M 302.417955 452.640805 L 302.417955 533.727238 M 152.897095 451.411039 L 303.647721 451.411039 M 152.897095 534.957004 L 303.647721 534.957004 " stroke="#000000" stroke-width="2.456483" stroke-opacity="1" stroke-miterlimit="4"/></g></svg>