<svg xmlns="http://www.w3.org/2000/svg" xmlns:xlink="http://www.w3.org/1999/xlink" width="1366" zoomAndPan="magnify" viewBox="0 0 1024.5 576" height="768" preserveAspectRatio="xMidYMid meet" version="1.0"><metadata><ContainsAiGeneratedContent>Yes</ContainsAiGeneratedContent></metadata><defs><g/><clipPath id="bad9900fe2"><path d="M 398.1875 87.027344 L 626 87.027344 L 626 159 L 398.1875 159 Z M 398.1875 87.027344 " clip-rule="nonzero"/></clipPath><clipPath id="36937d6b30"><path d="M 398.1875 87.027344 L 626 87.027344 L 626 489 L 398.1875 489 Z M 398.1875 87.027344 " clip-rule="nonzero"/></clipPath><clipPath id="2afb9be2f0"><path d="M 398.1875 87.027344 L 626.078125 87.027344 L 626.078125 489 L 398.1875 489 Z M 398.1875 87.027344 " clip-rule="nonzero"/></clipPath></defs><g clip-path="url(#bad9900fe2)"><path fill="#623e2a" d="M 398.1875 87.027344 L 398.1875 158.585938 L 625.8125 158.585938 L 625.8125 87.027344 Z M 398.1875 87.027344 " fill-opacity="1" fill-rule="nonzero"/></g><g fill="#ffffff" fill-opacity="1"><g transform="translate(456.767205, 131.599393)"><g><path d="M 8.234375 -4.421875 L 9.765625 -3.890625 C 9.203125 -3.097656 8.566406 -2.273438 7.859375 -1.421875 C 7.160156 -0.578125 6.5 0.144531 5.875 0.75 C 5.71875 0.632812 5.5 0.476562 5.21875 0.28125 C 4.9375 0.09375 4.691406 -0.0546875 4.484375 -0.171875 C 5.128906 -0.734375 5.789062 -1.394531 6.46875 -2.15625 C 7.144531 -2.925781 7.734375 -3.679688 8.234375 -4.421875 Z M 8.171875 -8.859375 L 8.171875 -6.8125 L 17.34375 -6.8125 L 17.34375 -8.859375 Z M 8.171875 -12.15625 L 8.171875 -10.09375 L 17.34375 -10.09375 L 17.34375 -12.15625 Z M 19 -5.5 L 13.546875 -5.5 L 13.546875 -0.109375 C 13.546875 0.316406 13.488281 0.644531 13.375 0.875 C 13.269531 1.113281 13.046875 1.289062 12.703125 1.40625 C 12.378906 1.539062 11.9375 1.617188 11.375 1.640625 C 10.8125 1.660156 10.113281 1.671875 9.28125 1.671875 C 9.25 1.453125 9.179688 1.207031 9.078125 0.9375 C 8.972656 0.664062 8.867188 0.425781 8.765625 0.21875 C 9.421875 0.238281 10 0.25 10.5 0.25 C 11.007812 0.25 11.347656 0.25 11.515625 0.25 C 11.691406 0.226562 11.804688 0.191406 11.859375 0.140625 C 11.921875 0.0859375 11.953125 0 11.953125 -0.125 L 11.953125 -5.5 L 6.5625 -5.5 L 6.5625 -13.453125 L 10.875 -13.453125 C 11.03125 -13.796875 11.179688 -14.148438 11.328125 -14.515625 C 11.484375 -14.878906 11.609375 -15.203125 11.703125 -15.484375 L 13.609375 -15.203125 C 13.441406 -14.910156 13.273438 -14.613281 13.109375 -14.3125 C 12.953125 -14.019531 12.796875 -13.734375 12.640625 -13.453125 L 19 -13.453125 Z M 15.40625 -3.6875 L 16.703125 -4.375 C 17.140625 -3.914062 17.601562 -3.414062 18.09375 -2.875 C 18.59375 -2.34375 19.070312 -1.828125 19.53125 -1.328125 C 19.988281 -0.828125 20.363281 -0.382812 20.65625 0 L 19.28125 0.890625 C 19.019531 0.484375 18.664062 0.0195312 18.21875 -0.5 C 17.78125 -1.03125 17.3125 -1.578125 16.8125 -2.140625 C 16.3125 -2.703125 15.84375 -3.21875 15.40625 -3.6875 Z M 20.75 -17.25 L 20.75 -15.75 L 4.578125 -15.75 L 4.578125 -11.03125 C 4.578125 -10.144531 4.550781 -9.175781 4.5 -8.125 C 4.445312 -7.070312 4.335938 -5.988281 4.171875 -4.875 C 4.015625 -3.769531 3.785156 -2.695312 3.484375 -1.65625 C 3.179688 -0.613281 2.769531 0.347656 2.25 1.234375 C 2.101562 1.097656 1.882812 0.945312 1.59375 0.78125 C 1.300781 0.613281 1.050781 0.492188 0.84375 0.421875 C 1.320312 -0.421875 1.703125 -1.332031 1.984375 -2.3125 C 2.265625 -3.289062 2.472656 -4.285156 2.609375 -5.296875 C 2.753906 -6.316406 2.847656 -7.316406 2.890625 -8.296875 C 2.929688 -9.273438 2.953125 -10.1875 2.953125 -11.03125 L 2.953125 -17.25 Z M 20.75 -17.25 "/></g></g></g><g fill="#ffffff" fill-opacity="1"><g transform="translate(478.858008, 131.599393)"><g><path d="M 14.953125 -14.796875 L 14.953125 -16.109375 L 12.53125 -16.109375 L 12.53125 -14.796875 Z M 18.75 -13.71875 L 16.328125 -13.71875 L 16.328125 -11.59375 L 18.75 -11.59375 Z M 12.53125 -13.71875 L 12.53125 -11.59375 L 14.953125 -11.59375 L 14.953125 -13.71875 Z M 8.8125 -13.71875 L 8.8125 -11.59375 L 11.171875 -11.59375 L 11.171875 -13.71875 Z M 11.171875 -14.796875 L 11.171875 -16.109375 L 6.875 -16.109375 L 6.875 -17.359375 L 20.921875 -17.359375 L 20.921875 -16.109375 L 16.328125 -16.109375 L 16.328125 -14.796875 L 20.234375 -14.796875 L 20.234375 -10.53125 L 7.375 -10.53125 L 7.375 -14.796875 Z M 9.375 -3.890625 L 9.375 -2.578125 L 18.40625 -2.578125 L 18.40625 -3.890625 Z M 9.375 -6.171875 L 9.375 -4.90625 L 18.40625 -4.90625 L 18.40625 -6.171875 Z M 9.375 -8.421875 L 9.375 -7.1875 L 18.40625 -7.1875 L 18.40625 -8.421875 Z M 20 -1.546875 L 7.84375 -1.546875 L 7.84375 -9.484375 L 20 -9.484375 Z M 5.1875 -18.359375 L 6.71875 -17.9375 C 6.476562 -17.21875 6.210938 -16.492188 5.921875 -15.765625 C 5.640625 -15.035156 5.332031 -14.320312 5 -13.625 L 5 1.671875 L 3.421875 1.671875 L 3.421875 -10.6875 C 3.097656 -10.144531 2.765625 -9.625 2.421875 -9.125 C 2.078125 -8.625 1.71875 -8.160156 1.34375 -7.734375 C 1.269531 -7.941406 1.140625 -8.222656 0.953125 -8.578125 C 0.773438 -8.929688 0.617188 -9.203125 0.484375 -9.390625 C 1.117188 -10.128906 1.726562 -10.972656 2.3125 -11.921875 C 2.894531 -12.878906 3.429688 -13.90625 3.921875 -15 C 4.410156 -16.101562 4.832031 -17.222656 5.1875 -18.359375 Z M 11.359375 -1.390625 L 12.546875 -0.578125 C 11.867188 -0.109375 11.03125 0.328125 10.03125 0.734375 C 9.039062 1.140625 8.0625 1.460938 7.09375 1.703125 C 6.988281 1.535156 6.847656 1.34375 6.671875 1.125 C 6.492188 0.914062 6.328125 0.738281 6.171875 0.59375 C 6.816406 0.445312 7.460938 0.265625 8.109375 0.046875 C 8.753906 -0.160156 9.359375 -0.390625 9.921875 -0.640625 C 10.492188 -0.898438 10.972656 -1.148438 11.359375 -1.390625 Z M 14.953125 -0.4375 L 16.015625 -1.375 C 16.972656 -1.050781 17.9375 -0.691406 18.90625 -0.296875 C 19.882812 0.0859375 20.691406 0.441406 21.328125 0.765625 L 19.921875 1.75 C 19.367188 1.40625 18.640625 1.035156 17.734375 0.640625 C 16.835938 0.242188 15.910156 -0.113281 14.953125 -0.4375 Z M 14.953125 -0.4375 "/></g></g></g><g fill="#ffffff" fill-opacity="1"><g transform="translate(500.948812, 131.599393)"><g><path d="M 3.90625 -7.296875 L 7.296875 -7.296875 L 7.296875 -11 L 3.953125 -11 L 3.953125 -9.78125 C 3.953125 -9.414062 3.945312 -9.019531 3.9375 -8.59375 C 3.9375 -8.164062 3.925781 -7.734375 3.90625 -7.296875 Z M 7.296875 -16.15625 L 3.953125 -16.15625 L 3.953125 -12.53125 L 7.296875 -12.53125 Z M 8.8125 -17.671875 L 8.8125 -0.265625 C 8.8125 0.171875 8.757812 0.519531 8.65625 0.78125 C 8.550781 1.039062 8.351562 1.242188 8.0625 1.390625 C 7.78125 1.535156 7.40625 1.625 6.9375 1.65625 C 6.476562 1.6875 5.875 1.703125 5.125 1.703125 C 5.113281 1.492188 5.0625 1.226562 4.96875 0.90625 C 4.882812 0.59375 4.78125 0.332031 4.65625 0.125 C 5.175781 0.144531 5.640625 0.15625 6.046875 0.15625 C 6.460938 0.15625 6.738281 0.144531 6.875 0.125 C 7.03125 0.113281 7.140625 0.078125 7.203125 0.015625 C 7.265625 -0.0351562 7.296875 -0.132812 7.296875 -0.28125 L 7.296875 -5.71875 L 3.828125 -5.71875 C 3.722656 -4.425781 3.546875 -3.125 3.296875 -1.8125 C 3.046875 -0.5 2.671875 0.675781 2.171875 1.71875 C 2.015625 1.59375 1.800781 1.445312 1.53125 1.28125 C 1.257812 1.113281 1.019531 0.992188 0.8125 0.921875 C 1.332031 -0.109375 1.707031 -1.25 1.9375 -2.5 C 2.164062 -3.75 2.304688 -5.003906 2.359375 -6.265625 C 2.421875 -7.535156 2.453125 -8.707031 2.453125 -9.78125 L 2.453125 -17.671875 Z M 18.90625 -8.640625 L 14.296875 -8.640625 C 14.585938 -7.742188 14.9375 -6.878906 15.34375 -6.046875 C 15.75 -5.210938 16.203125 -4.425781 16.703125 -3.6875 C 17.171875 -4.394531 17.59375 -5.160156 17.96875 -5.984375 C 18.34375 -6.804688 18.65625 -7.691406 18.90625 -8.640625 Z M 19.75 -10.203125 L 20.703125 -9.875 C 20.421875 -8.375 20.019531 -7.003906 19.5 -5.765625 C 18.976562 -4.523438 18.367188 -3.414062 17.671875 -2.4375 C 18.203125 -1.832031 18.773438 -1.28125 19.390625 -0.78125 C 20.015625 -0.289062 20.671875 0.125 21.359375 0.46875 C 21.171875 0.613281 20.976562 0.804688 20.78125 1.046875 C 20.582031 1.285156 20.421875 1.507812 20.296875 1.71875 C 18.972656 0.96875 17.78125 -0.0234375 16.71875 -1.265625 C 15.738281 -0.0976562 14.628906 0.84375 13.390625 1.5625 C 13.285156 1.375 13.132812 1.160156 12.9375 0.921875 C 12.75 0.691406 12.578125 0.503906 12.421875 0.359375 C 13.648438 -0.316406 14.773438 -1.253906 15.796875 -2.453125 C 15.179688 -3.347656 14.628906 -4.316406 14.140625 -5.359375 C 13.648438 -6.410156 13.222656 -7.503906 12.859375 -8.640625 L 12.3125 -8.640625 L 12.3125 1.703125 L 10.765625 1.703125 L 10.765625 -17.609375 L 20.078125 -17.609375 L 20.078125 -13.359375 C 20.078125 -12.953125 20.019531 -12.628906 19.90625 -12.390625 C 19.789062 -12.160156 19.5625 -11.984375 19.21875 -11.859375 C 18.863281 -11.753906 18.398438 -11.691406 17.828125 -11.671875 C 17.265625 -11.648438 16.570312 -11.640625 15.75 -11.640625 C 15.71875 -11.859375 15.648438 -12.097656 15.546875 -12.359375 C 15.453125 -12.617188 15.34375 -12.84375 15.21875 -13.03125 C 15.894531 -13.019531 16.492188 -13.015625 17.015625 -13.015625 C 17.546875 -13.015625 17.890625 -13.019531 18.046875 -13.03125 C 18.222656 -13.03125 18.34375 -13.054688 18.40625 -13.109375 C 18.46875 -13.160156 18.5 -13.253906 18.5 -13.390625 L 18.5 -16.078125 L 12.3125 -16.078125 L 12.3125 -10.15625 L 19.46875 -10.15625 Z M 19.75 -10.203125 "/></g></g></g><g fill="#ffffff" fill-opacity="1"><g transform="translate(523.039615, 131.599393)"><g><path d="M 17.40625 -14.78125 L 12.765625 -14.78125 C 13.359375 -13.71875 14.191406 -12.769531 15.265625 -11.9375 C 15.722656 -12.332031 16.128906 -12.765625 16.484375 -13.234375 C 16.847656 -13.703125 17.15625 -14.21875 17.40625 -14.78125 Z M 8.578125 -5.1875 L 7.453125 -5.765625 C 7.648438 -6.222656 7.851562 -6.769531 8.0625 -7.40625 C 8.28125 -8.050781 8.472656 -8.691406 8.640625 -9.328125 L 6.515625 -9.328125 L 6.515625 -0.21875 C 6.515625 0.1875 6.460938 0.507812 6.359375 0.75 C 6.253906 1 6.0625 1.195312 5.78125 1.34375 C 5.507812 1.445312 5.144531 1.515625 4.6875 1.546875 C 4.238281 1.578125 3.6875 1.59375 3.03125 1.59375 C 3 1.382812 2.9375 1.128906 2.84375 0.828125 C 2.75 0.535156 2.640625 0.289062 2.515625 0.09375 C 2.984375 0.101562 3.410156 0.109375 3.796875 0.109375 C 4.191406 0.109375 4.46875 0.109375 4.625 0.109375 C 4.851562 0.0976562 4.96875 -0.0078125 4.96875 -0.21875 L 4.96875 -7.3125 C 4.539062 -6.25 4.046875 -5.234375 3.484375 -4.265625 C 2.929688 -3.296875 2.351562 -2.5 1.75 -1.875 C 1.65625 -2.113281 1.523438 -2.375 1.359375 -2.65625 C 1.191406 -2.945312 1.035156 -3.195312 0.890625 -3.40625 C 1.335938 -3.84375 1.78125 -4.378906 2.21875 -5.015625 C 2.664062 -5.648438 3.082031 -6.335938 3.46875 -7.078125 C 3.851562 -7.828125 4.175781 -8.578125 4.4375 -9.328125 L 1.109375 -9.328125 L 1.109375 -10.765625 L 7.03125 -10.765625 C 6.644531 -11.085938 6.175781 -11.425781 5.625 -11.78125 C 5.082031 -12.144531 4.503906 -12.492188 3.890625 -12.828125 C 3.285156 -13.171875 2.695312 -13.46875 2.125 -13.71875 L 3.140625 -14.78125 C 3.472656 -14.632812 3.820312 -14.472656 4.1875 -14.296875 C 4.5625 -14.128906 4.925781 -13.953125 5.28125 -13.765625 C 6.125 -14.398438 6.894531 -15.128906 7.59375 -15.953125 L 1.34375 -15.953125 L 1.34375 -17.390625 L 8.765625 -17.390625 L 9.0625 -17.453125 L 10.125 -16.796875 C 9.695312 -16.128906 9.15625 -15.460938 8.5 -14.796875 C 7.84375 -14.140625 7.179688 -13.550781 6.515625 -13.03125 C 6.878906 -12.8125 7.21875 -12.585938 7.53125 -12.359375 C 7.851562 -12.128906 8.132812 -11.910156 8.375 -11.703125 L 7.53125 -10.765625 L 9.171875 -10.765625 L 9.40625 -10.84375 L 10.40625 -10.5 C 10.34375 -10.300781 10.285156 -10.109375 10.234375 -9.921875 C 10.179688 -9.734375 10.128906 -9.535156 10.078125 -9.328125 C 10.804688 -9.535156 11.503906 -9.773438 12.171875 -10.046875 C 12.847656 -10.328125 13.46875 -10.65625 14.03125 -11.03125 C 13.113281 -11.832031 12.351562 -12.726562 11.75 -13.71875 C 11.488281 -13.4375 11.222656 -13.160156 10.953125 -12.890625 C 10.691406 -12.617188 10.425781 -12.375 10.15625 -12.15625 C 10.007812 -12.28125 9.800781 -12.441406 9.53125 -12.640625 C 9.257812 -12.847656 9.019531 -13.003906 8.8125 -13.109375 C 9.6875 -13.753906 10.492188 -14.550781 11.234375 -15.5 C 11.972656 -16.445312 12.566406 -17.445312 13.015625 -18.5 L 14.578125 -18.078125 C 14.429688 -17.753906 14.273438 -17.429688 14.109375 -17.109375 C 13.941406 -16.796875 13.757812 -16.484375 13.5625 -16.171875 L 20.90625 -16.171875 L 20.90625 -14.78125 L 19.203125 -14.78125 C 18.890625 -14.03125 18.507812 -13.34375 18.0625 -12.71875 C 17.613281 -12.101562 17.109375 -11.539062 16.546875 -11.03125 C 17.972656 -10.125 19.570312 -9.484375 21.34375 -9.109375 C 21.175781 -8.929688 20.988281 -8.703125 20.78125 -8.421875 C 20.582031 -8.148438 20.421875 -7.90625 20.296875 -7.6875 C 18.429688 -8.207031 16.757812 -8.988281 15.28125 -10.03125 C 14.59375 -9.539062 13.84375 -9.113281 13.03125 -8.75 C 12.21875 -8.382812 11.363281 -8.0625 10.46875 -7.78125 C 10.414062 -7.894531 10.332031 -8.03125 10.21875 -8.1875 C 10.101562 -8.34375 9.988281 -8.492188 9.875 -8.640625 C 9.6875 -8.003906 9.484375 -7.382812 9.265625 -6.78125 C 9.054688 -6.175781 8.828125 -5.644531 8.578125 -5.1875 Z M 15.25 -6.171875 L 20.421875 -6.171875 C 20.421875 -6.171875 20.414062 -6.082031 20.40625 -5.90625 C 20.394531 -5.738281 20.382812 -5.585938 20.375 -5.453125 C 20.238281 -4.085938 20.097656 -2.96875 19.953125 -2.09375 C 19.816406 -1.226562 19.664062 -0.550781 19.5 -0.0625 C 19.332031 0.414062 19.132812 0.757812 18.90625 0.96875 C 18.71875 1.164062 18.515625 1.300781 18.296875 1.375 C 18.085938 1.457031 17.835938 1.515625 17.546875 1.546875 C 17.273438 1.554688 16.921875 1.5625 16.484375 1.5625 C 16.054688 1.5625 15.59375 1.550781 15.09375 1.53125 C 15.070312 1.300781 15.019531 1.039062 14.9375 0.75 C 14.863281 0.457031 14.765625 0.207031 14.640625 0 C 15.117188 0.0390625 15.5625 0.0664062 15.96875 0.078125 C 16.375 0.0976562 16.660156 0.109375 16.828125 0.109375 C 17.003906 0.109375 17.148438 0.0976562 17.265625 0.078125 C 17.378906 0.0546875 17.488281 -0.00390625 17.59375 -0.109375 C 17.789062 -0.316406 17.976562 -0.769531 18.15625 -1.46875 C 18.332031 -2.164062 18.503906 -3.273438 18.671875 -4.796875 L 14.953125 -4.796875 C 14.703125 -3.867188 14.34375 -2.992188 13.875 -2.171875 C 13.414062 -1.359375 12.800781 -0.628906 12.03125 0.015625 C 11.257812 0.671875 10.285156 1.222656 9.109375 1.671875 C 9.003906 1.484375 8.851562 1.265625 8.65625 1.015625 C 8.46875 0.765625 8.289062 0.566406 8.125 0.421875 C 9.65625 -0.140625 10.804688 -0.867188 11.578125 -1.765625 C 12.359375 -2.660156 12.914062 -3.671875 13.25 -4.796875 L 9.8125 -4.796875 L 9.8125 -6.171875 L 13.609375 -6.171875 C 13.679688 -6.515625 13.738281 -6.867188 13.78125 -7.234375 C 13.832031 -7.609375 13.867188 -7.976562 13.890625 -8.34375 L 15.546875 -8.34375 C 15.523438 -7.976562 15.488281 -7.609375 15.4375 -7.234375 C 15.382812 -6.867188 15.320312 -6.515625 15.25 -6.171875 Z M 15.25 -6.171875 "/></g></g></g><g fill="#ffffff" fill-opacity="1"><g transform="translate(545.130419, 131.599393)"><g><path d="M 7.78125 -1.546875 L 9.25 -0.890625 C 8.644531 -0.546875 7.953125 -0.210938 7.171875 0.109375 C 6.398438 0.429688 5.601562 0.726562 4.78125 1 C 3.96875 1.269531 3.1875 1.503906 2.4375 1.703125 C 2.3125 1.535156 2.128906 1.320312 1.890625 1.0625 C 1.648438 0.8125 1.441406 0.613281 1.265625 0.46875 C 2.015625 0.320312 2.789062 0.144531 3.59375 -0.0625 C 4.394531 -0.269531 5.160156 -0.503906 5.890625 -0.765625 C 6.628906 -1.023438 7.257812 -1.285156 7.78125 -1.546875 Z M 5.65625 -4.015625 L 5.65625 -2.625 L 16.703125 -2.625 L 16.703125 -4.015625 Z M 12.75 -11.421875 L 8.640625 -11.421875 C 8.472656 -11.140625 8.257812 -10.863281 8 -10.59375 C 7.75 -10.332031 7.4375 -10.085938 7.0625 -9.859375 L 16.921875 -9.859375 C 16.910156 -9.972656 16.878906 -10.09375 16.828125 -10.21875 C 16.773438 -10.34375 16.71875 -10.457031 16.65625 -10.5625 C 17 -10.53125 17.304688 -10.503906 17.578125 -10.484375 C 17.859375 -10.472656 18.0625 -10.46875 18.1875 -10.46875 C 18.4375 -10.46875 18.601562 -10.519531 18.6875 -10.625 C 18.75 -10.6875 18.800781 -10.773438 18.84375 -10.890625 C 18.882812 -11.003906 18.921875 -11.179688 18.953125 -11.421875 L 14.296875 -11.421875 L 14.296875 -9.890625 L 12.75 -9.890625 Z M 7.796875 -13.828125 L 4.75 -13.828125 C 4.6875 -13.367188 4.617188 -12.925781 4.546875 -12.5 L 7.46875 -12.5 C 7.570312 -12.707031 7.648438 -12.921875 7.703125 -13.140625 C 7.753906 -13.367188 7.785156 -13.597656 7.796875 -13.828125 Z M 9.34375 -16.171875 L 9.34375 -14.90625 L 12.75 -14.90625 L 12.75 -16.171875 Z M 17.71875 -16.171875 L 14.296875 -16.171875 L 14.296875 -14.90625 L 17.71875 -14.90625 Z M 12.75 -12.5 L 12.75 -13.828125 L 9.296875 -13.828125 C 9.265625 -13.347656 9.191406 -12.90625 9.078125 -12.5 Z M 16.703125 -7.421875 L 16.703125 -8.796875 L 5.65625 -8.796875 L 5.65625 -7.421875 Z M 16.703125 -5.0625 L 16.703125 -6.40625 L 5.65625 -6.40625 L 5.65625 -5.0625 Z M 18.34375 -1.5625 L 14.5625 -1.5625 C 15.707031 -1.238281 16.835938 -0.878906 17.953125 -0.484375 C 19.078125 -0.0976562 20.015625 0.253906 20.765625 0.578125 L 19.53125 1.59375 C 18.789062 1.25 17.835938 0.859375 16.671875 0.421875 C 15.515625 -0.00390625 14.300781 -0.398438 13.03125 -0.765625 L 13.859375 -1.5625 L 4.0625 -1.5625 L 4.0625 -8.578125 C 3.78125 -8.484375 3.472656 -8.394531 3.140625 -8.3125 C 2.816406 -8.238281 2.46875 -8.164062 2.09375 -8.09375 C 2.019531 -8.28125 1.90625 -8.5 1.75 -8.75 C 1.601562 -9.007812 1.460938 -9.21875 1.328125 -9.375 C 2.722656 -9.625 3.84375 -9.921875 4.6875 -10.265625 C 5.539062 -10.617188 6.195312 -11.003906 6.65625 -11.421875 L 2.890625 -11.421875 C 2.992188 -11.910156 3.097656 -12.46875 3.203125 -13.09375 C 3.304688 -13.726562 3.390625 -14.332031 3.453125 -14.90625 L 7.84375 -14.90625 L 7.84375 -16.171875 L 2.453125 -16.171875 L 2.453125 -17.25 L 7.84375 -17.25 L 7.84375 -18.46875 L 9.34375 -18.46875 L 9.34375 -17.25 L 12.75 -17.25 L 12.75 -18.46875 L 14.296875 -18.46875 L 14.296875 -17.25 L 19.21875 -17.25 L 19.21875 -13.828125 L 14.296875 -13.828125 L 14.296875 -12.5 L 20.59375 -12.5 C 20.59375 -12.5 20.585938 -12.4375 20.578125 -12.3125 C 20.566406 -12.1875 20.554688 -12.070312 20.546875 -11.96875 C 20.484375 -11.382812 20.410156 -10.921875 20.328125 -10.578125 C 20.253906 -10.242188 20.132812 -10.003906 19.96875 -9.859375 C 19.707031 -9.617188 19.351562 -9.484375 18.90625 -9.453125 C 18.832031 -9.453125 18.75 -9.445312 18.65625 -9.4375 C 18.5625 -9.4375 18.457031 -9.4375 18.34375 -9.4375 Z M 18.34375 -1.5625 "/></g></g></g><g fill="#000000" fill-opacity="1"><g transform="translate(434.73499, 201.018321)"><g><path d="M 2.875 -13.828125 L 17.09375 -13.828125 L 17.09375 -12.25 L 2.875 -12.25 Z M 1.203125 -2.078125 L 18.78125 -2.078125 L 18.78125 -0.453125 L 1.203125 -0.453125 Z M 1.203125 -2.078125 "/></g></g></g><g fill="#000000" fill-opacity="1"><g transform="translate(454.682319, 201.018321)"><g><path d="M 6.890625 -6.890625 L 5.984375 -5.828125 C 5.847656 -6.160156 5.640625 -6.582031 5.359375 -7.09375 C 5.085938 -7.613281 4.816406 -8.125 4.546875 -8.625 L 4.546875 1.515625 L 3.1875 1.515625 L 3.1875 -8.1875 C 2.9375 -7.132812 2.648438 -6.109375 2.328125 -5.109375 C 2.015625 -4.109375 1.6875 -3.265625 1.34375 -2.578125 C 1.257812 -2.796875 1.140625 -3.046875 0.984375 -3.328125 C 0.835938 -3.617188 0.707031 -3.851562 0.59375 -4.03125 C 0.914062 -4.601562 1.226562 -5.3125 1.53125 -6.15625 C 1.84375 -7 2.125 -7.890625 2.375 -8.828125 C 2.625 -9.765625 2.820312 -10.644531 2.96875 -11.46875 L 0.875 -11.46875 L 0.875 -12.875 L 3.1875 -12.875 L 3.1875 -16.703125 L 4.546875 -16.703125 L 4.546875 -12.875 L 6.546875 -12.875 L 6.546875 -11.46875 L 4.546875 -11.46875 L 4.546875 -10.4375 C 4.679688 -10.257812 4.859375 -10 5.078125 -9.65625 C 5.296875 -9.320312 5.523438 -8.96875 5.765625 -8.59375 C 6.015625 -8.226562 6.242188 -7.882812 6.453125 -7.5625 C 6.660156 -7.238281 6.804688 -7.015625 6.890625 -6.890625 Z M 15.203125 -3.359375 L 11.21875 -3.359375 C 11.039062 -3.148438 10.875 -2.953125 10.71875 -2.765625 C 10.570312 -2.585938 10.425781 -2.410156 10.28125 -2.234375 C 10.78125 -2.117188 11.300781 -1.988281 11.84375 -1.84375 C 12.382812 -1.707031 12.921875 -1.554688 13.453125 -1.390625 C 13.847656 -1.660156 14.1875 -1.960938 14.46875 -2.296875 C 14.757812 -2.628906 15.003906 -2.984375 15.203125 -3.359375 Z M 9.03125 -8.21875 L 9.03125 -7 L 12.21875 -7 L 12.21875 -8.21875 Z M 16.796875 -8.21875 L 13.609375 -8.21875 L 13.609375 -7 L 16.796875 -7 Z M 9.421875 -11.234375 L 12.21875 -11.234375 L 12.21875 -12.4375 L 9.421875 -12.4375 Z M 12.21875 -14.421875 L 9.421875 -14.421875 L 9.421875 -13.328125 L 12.21875 -13.328125 Z M 16.359375 -14.421875 L 13.609375 -14.421875 L 13.609375 -13.328125 L 16.359375 -13.328125 Z M 13.609375 -11.234375 L 16.359375 -11.234375 L 16.359375 -12.4375 L 13.609375 -12.4375 Z M 19.09375 -3.359375 L 16.625 -3.359375 C 16.21875 -2.421875 15.628906 -1.613281 14.859375 -0.9375 C 15.609375 -0.695312 16.320312 -0.453125 17 -0.203125 C 17.675781 0.046875 18.273438 0.289062 18.796875 0.53125 L 17.703125 1.46875 C 17.203125 1.21875 16.601562 0.953125 15.90625 0.671875 C 15.207031 0.398438 14.445312 0.132812 13.625 -0.125 C 12.894531 0.257812 12.015625 0.59375 10.984375 0.875 C 9.953125 1.15625 8.722656 1.390625 7.296875 1.578125 C 7.242188 1.421875 7.164062 1.226562 7.0625 1 C 6.957031 0.78125 6.851562 0.609375 6.75 0.484375 C 8.988281 0.222656 10.734375 -0.15625 11.984375 -0.65625 C 11.335938 -0.84375 10.6875 -1.023438 10.03125 -1.203125 C 9.382812 -1.378906 8.753906 -1.535156 8.140625 -1.671875 C 8.367188 -1.910156 8.613281 -2.171875 8.875 -2.453125 C 9.132812 -2.742188 9.390625 -3.046875 9.640625 -3.359375 L 6.96875 -3.359375 L 6.96875 -4.53125 L 10.53125 -4.53125 C 10.914062 -5.050781 11.25 -5.539062 11.53125 -6 L 7.703125 -6 L 7.703125 -9.234375 L 12.21875 -9.234375 L 12.21875 -10.234375 L 8.125 -10.234375 L 8.125 -12.296875 L 6.96875 -12.296875 L 6.96875 -13.453125 L 8.125 -13.453125 L 8.125 -15.421875 L 12.21875 -15.421875 L 12.21875 -16.703125 L 13.609375 -16.703125 L 13.609375 -15.421875 L 17.703125 -15.421875 L 17.703125 -13.453125 L 18.9375 -13.453125 L 18.9375 -12.296875 L 17.703125 -12.296875 L 17.703125 -10.234375 L 13.609375 -10.234375 L 13.609375 -9.234375 L 18.203125 -9.234375 L 18.203125 -6 L 13.0625 -6 C 12.9375 -5.757812 12.789062 -5.515625 12.625 -5.265625 C 12.457031 -5.023438 12.28125 -4.78125 12.09375 -4.53125 L 15.65625 -4.53125 C 15.695312 -4.675781 15.738281 -4.820312 15.78125 -4.96875 C 15.820312 -5.113281 15.851562 -5.253906 15.875 -5.390625 L 17.21875 -5.390625 C 17.1875 -5.253906 17.15625 -5.113281 17.125 -4.96875 C 17.09375 -4.820312 17.066406 -4.675781 17.046875 -4.53125 L 19.09375 -4.53125 Z M 19.09375 -3.359375 "/></g></g></g><g fill="#000000" fill-opacity="1"><g transform="translate(542.721814, 201.018321)"><g><path d="M 5.5625 0.265625 C 4.675781 0.265625 3.878906 0.0976562 3.171875 -0.234375 C 2.460938 -0.566406 1.90625 -1.03125 1.5 -1.625 C 1.09375 -2.21875 0.890625 -2.882812 0.890625 -3.625 C 0.890625 -4.28125 1.023438 -4.867188 1.296875 -5.390625 C 1.566406 -5.910156 1.90625 -6.359375 2.3125 -6.734375 C 2.726562 -7.109375 3.15625 -7.414062 3.59375 -7.65625 L 3.59375 -7.765625 C 3.0625 -8.140625 2.597656 -8.597656 2.203125 -9.140625 C 1.804688 -9.691406 1.609375 -10.359375 1.609375 -11.140625 C 1.609375 -11.878906 1.785156 -12.523438 2.140625 -13.078125 C 2.492188 -13.640625 2.972656 -14.070312 3.578125 -14.375 C 4.179688 -14.6875 4.863281 -14.84375 5.625 -14.84375 C 6.46875 -14.84375 7.1875 -14.679688 7.78125 -14.359375 C 8.375 -14.035156 8.832031 -13.582031 9.15625 -13 C 9.476562 -12.414062 9.640625 -11.75 9.640625 -11 C 9.640625 -10.488281 9.535156 -10.003906 9.328125 -9.546875 C 9.117188 -9.097656 8.863281 -8.691406 8.5625 -8.328125 C 8.269531 -7.972656 7.976562 -7.6875 7.6875 -7.46875 L 7.6875 -7.359375 C 8.113281 -7.117188 8.515625 -6.828125 8.890625 -6.484375 C 9.265625 -6.140625 9.566406 -5.726562 9.796875 -5.25 C 10.035156 -4.769531 10.15625 -4.195312 10.15625 -3.53125 C 10.15625 -2.820312 9.960938 -2.175781 9.578125 -1.59375 C 9.191406 -1.019531 8.65625 -0.566406 7.96875 -0.234375 C 7.28125 0.0976562 6.476562 0.265625 5.5625 0.265625 Z M 6.5625 -7.9375 C 7.570312 -8.832031 8.078125 -9.816406 8.078125 -10.890625 C 8.078125 -11.609375 7.859375 -12.222656 7.421875 -12.734375 C 6.992188 -13.253906 6.390625 -13.515625 5.609375 -13.515625 C 4.929688 -13.515625 4.367188 -13.289062 3.921875 -12.84375 C 3.484375 -12.40625 3.265625 -11.835938 3.265625 -11.140625 C 3.265625 -10.546875 3.421875 -10.050781 3.734375 -9.65625 C 4.046875 -9.269531 4.453125 -8.941406 4.953125 -8.671875 C 5.453125 -8.410156 5.988281 -8.164062 6.5625 -7.9375 Z M 5.609375 -1.09375 C 6.441406 -1.09375 7.117188 -1.320312 7.640625 -1.78125 C 8.160156 -2.238281 8.421875 -2.835938 8.421875 -3.578125 C 8.421875 -4.222656 8.238281 -4.753906 7.875 -5.171875 C 7.519531 -5.597656 7.050781 -5.957031 6.46875 -6.25 C 5.882812 -6.539062 5.242188 -6.828125 4.546875 -7.109375 C 3.960938 -6.734375 3.484375 -6.257812 3.109375 -5.6875 C 2.734375 -5.125 2.546875 -4.492188 2.546875 -3.796875 C 2.546875 -3.273438 2.679688 -2.8125 2.953125 -2.40625 C 3.222656 -2 3.585938 -1.675781 4.046875 -1.4375 C 4.503906 -1.207031 5.023438 -1.09375 5.609375 -1.09375 Z M 5.609375 -1.09375 "/></g></g></g><g fill="#000000" fill-opacity="1"><g transform="translate(553.792586, 201.018321)"><g><path d="M 5.546875 0.265625 C 4.148438 0.265625 3.039062 -0.367188 2.21875 -1.640625 C 1.394531 -2.910156 0.984375 -4.816406 0.984375 -7.359375 C 0.984375 -9.898438 1.394531 -11.789062 2.21875 -13.03125 C 3.039062 -14.28125 4.148438 -14.90625 5.546875 -14.90625 C 6.929688 -14.90625 8.035156 -14.28125 8.859375 -13.03125 C 9.679688 -11.789062 10.09375 -9.898438 10.09375 -7.359375 C 10.09375 -4.816406 9.679688 -2.910156 8.859375 -1.640625 C 8.035156 -0.367188 6.929688 0.265625 5.546875 0.265625 Z M 5.546875 -1.203125 C 6.367188 -1.203125 7.035156 -1.6875 7.546875 -2.65625 C 8.066406 -3.632812 8.328125 -5.203125 8.328125 -7.359375 C 8.328125 -9.503906 8.066406 -11.054688 7.546875 -12.015625 C 7.035156 -12.972656 6.367188 -13.453125 5.546875 -13.453125 C 4.710938 -13.453125 4.035156 -12.972656 3.515625 -12.015625 C 3.003906 -11.054688 2.75 -9.503906 2.75 -7.359375 C 2.75 -5.203125 3.003906 -3.632812 3.515625 -2.65625 C 4.035156 -1.6875 4.710938 -1.203125 5.546875 -1.203125 Z M 5.546875 -1.203125 "/></g></g></g><g fill="#000000" fill-opacity="1"><g transform="translate(564.863358, 201.018321)"><g><path d="M 5.546875 0.265625 C 4.148438 0.265625 3.039062 -0.367188 2.21875 -1.640625 C 1.394531 -2.910156 0.984375 -4.816406 0.984375 -7.359375 C 0.984375 -9.898438 1.394531 -11.789062 2.21875 -13.03125 C 3.039062 -14.28125 4.148438 -14.90625 5.546875 -14.90625 C 6.929688 -14.90625 8.035156 -14.28125 8.859375 -13.03125 C 9.679688 -11.789062 10.09375 -9.898438 10.09375 -7.359375 C 10.09375 -4.816406 9.679688 -2.910156 8.859375 -1.640625 C 8.035156 -0.367188 6.929688 0.265625 5.546875 0.265625 Z M 5.546875 -1.203125 C 6.367188 -1.203125 7.035156 -1.6875 7.546875 -2.65625 C 8.066406 -3.632812 8.328125 -5.203125 8.328125 -7.359375 C 8.328125 -9.503906 8.066406 -11.054688 7.546875 -12.015625 C 7.035156 -12.972656 6.367188 -13.453125 5.546875 -13.453125 C 4.710938 -13.453125 4.035156 -12.972656 3.515625 -12.015625 C 3.003906 -11.054688 2.75 -9.503906 2.75 -7.359375 C 2.75 -5.203125 3.003906 -3.632812 3.515625 -2.65625 C 4.035156 -1.6875 4.710938 -1.203125 5.546875 -1.203125 Z M 5.546875 -1.203125 "/></g></g></g><g fill="#000000" fill-opacity="1"><g transform="translate(575.93413, 201.018321)"><g><path d="M 17.0625 -15.125 L 17.0625 -13.703125 L 3.015625 -13.703125 L 3.015625 -15.125 Z M 14.0625 -0.234375 L 16.640625 -0.234375 C 16.910156 -0.234375 17.109375 -0.320312 17.234375 -0.5 C 17.367188 -0.675781 17.46875 -1.019531 17.53125 -1.53125 C 17.59375 -2.039062 17.632812 -2.800781 17.65625 -3.8125 C 17.832031 -3.675781 18.054688 -3.546875 18.328125 -3.421875 C 18.597656 -3.304688 18.832031 -3.21875 19.03125 -3.15625 C 18.976562 -2.019531 18.878906 -1.140625 18.734375 -0.515625 C 18.597656 0.109375 18.378906 0.546875 18.078125 0.796875 C 17.773438 1.046875 17.328125 1.171875 16.734375 1.171875 L 13.890625 1.171875 C 12.992188 1.171875 12.390625 1.015625 12.078125 0.703125 C 11.773438 0.390625 11.625 -0.1875 11.625 -1.03125 L 11.625 -8.140625 L 7.90625 -8.140625 C 7.8125 -7.078125 7.660156 -6.0625 7.453125 -5.09375 C 7.242188 -4.132812 6.929688 -3.242188 6.515625 -2.421875 C 6.097656 -1.609375 5.519531 -0.867188 4.78125 -0.203125 C 4.050781 0.453125 3.113281 1.007812 1.96875 1.46875 C 1.875 1.289062 1.738281 1.085938 1.5625 0.859375 C 1.382812 0.628906 1.207031 0.445312 1.03125 0.3125 C 2.101562 -0.0820312 2.96875 -0.570312 3.625 -1.15625 C 4.28125 -1.738281 4.789062 -2.390625 5.15625 -3.109375 C 5.519531 -3.835938 5.785156 -4.625 5.953125 -5.46875 C 6.117188 -6.320312 6.242188 -7.210938 6.328125 -8.140625 L 1.28125 -8.140625 L 1.28125 -9.578125 L 18.734375 -9.578125 L 18.734375 -8.140625 L 13.125 -8.140625 L 13.125 -1.0625 C 13.125 -0.726562 13.179688 -0.503906 13.296875 -0.390625 C 13.421875 -0.285156 13.675781 -0.234375 14.0625 -0.234375 Z M 14.0625 -0.234375 "/></g></g></g><g fill="#000000" fill-opacity="1"><g transform="translate(434.73499, 267.095056)"><g><path d="M 2.515625 -14.765625 L 17.484375 -14.765625 L 17.484375 -13.28125 L 2.515625 -13.28125 Z M 3.796875 -8.296875 L 15.921875 -8.296875 L 15.921875 -6.796875 L 3.796875 -6.796875 Z M 1.375 -1.421875 L 18.5625 -1.421875 L 18.5625 0.078125 L 1.375 0.078125 Z M 1.375 -1.421875 "/></g></g></g><g fill="#000000" fill-opacity="1"><g transform="translate(454.682319, 267.095056)"><g><path d="M 6.890625 -6.890625 L 5.984375 -5.828125 C 5.847656 -6.160156 5.640625 -6.582031 5.359375 -7.09375 C 5.085938 -7.613281 4.816406 -8.125 4.546875 -8.625 L 4.546875 1.515625 L 3.1875 1.515625 L 3.1875 -8.1875 C 2.9375 -7.132812 2.648438 -6.109375 2.328125 -5.109375 C 2.015625 -4.109375 1.6875 -3.265625 1.34375 -2.578125 C 1.257812 -2.796875 1.140625 -3.046875 0.984375 -3.328125 C 0.835938 -3.617188 0.707031 -3.851562 0.59375 -4.03125 C 0.914062 -4.601562 1.226562 -5.3125 1.53125 -6.15625 C 1.84375 -7 2.125 -7.890625 2.375 -8.828125 C 2.625 -9.765625 2.820312 -10.644531 2.96875 -11.46875 L 0.875 -11.46875 L 0.875 -12.875 L 3.1875 -12.875 L 3.1875 -16.703125 L 4.546875 -16.703125 L 4.546875 -12.875 L 6.546875 -12.875 L 6.546875 -11.46875 L 4.546875 -11.46875 L 4.546875 -10.4375 C 4.679688 -10.257812 4.859375 -10 5.078125 -9.65625 C 5.296875 -9.320312 5.523438 -8.96875 5.765625 -8.59375 C 6.015625 -8.226562 6.242188 -7.882812 6.453125 -7.5625 C 6.660156 -7.238281 6.804688 -7.015625 6.890625 -6.890625 Z M 15.203125 -3.359375 L 11.21875 -3.359375 C 11.039062 -3.148438 10.875 -2.953125 10.71875 -2.765625 C 10.570312 -2.585938 10.425781 -2.410156 10.28125 -2.234375 C 10.78125 -2.117188 11.300781 -1.988281 11.84375 -1.84375 C 12.382812 -1.707031 12.921875 -1.554688 13.453125 -1.390625 C 13.847656 -1.660156 14.1875 -1.960938 14.46875 -2.296875 C 14.757812 -2.628906 15.003906 -2.984375 15.203125 -3.359375 Z M 9.03125 -8.21875 L 9.03125 -7 L 12.21875 -7 L 12.21875 -8.21875 Z M 16.796875 -8.21875 L 13.609375 -8.21875 L 13.609375 -7 L 16.796875 -7 Z M 9.421875 -11.234375 L 12.21875 -11.234375 L 12.21875 -12.4375 L 9.421875 -12.4375 Z M 12.21875 -14.421875 L 9.421875 -14.421875 L 9.421875 -13.328125 L 12.21875 -13.328125 Z M 16.359375 -14.421875 L 13.609375 -14.421875 L 13.609375 -13.328125 L 16.359375 -13.328125 Z M 13.609375 -11.234375 L 16.359375 -11.234375 L 16.359375 -12.4375 L 13.609375 -12.4375 Z M 19.09375 -3.359375 L 16.625 -3.359375 C 16.21875 -2.421875 15.628906 -1.613281 14.859375 -0.9375 C 15.609375 -0.695312 16.320312 -0.453125 17 -0.203125 C 17.675781 0.046875 18.273438 0.289062 18.796875 0.53125 L 17.703125 1.46875 C 17.203125 1.21875 16.601562 0.953125 15.90625 0.671875 C 15.207031 0.398438 14.445312 0.132812 13.625 -0.125 C 12.894531 0.257812 12.015625 0.59375 10.984375 0.875 C 9.953125 1.15625 8.722656 1.390625 7.296875 1.578125 C 7.242188 1.421875 7.164062 1.226562 7.0625 1 C 6.957031 0.78125 6.851562 0.609375 6.75 0.484375 C 8.988281 0.222656 10.734375 -0.15625 11.984375 -0.65625 C 11.335938 -0.84375 10.6875 -1.023438 10.03125 -1.203125 C 9.382812 -1.378906 8.753906 -1.535156 8.140625 -1.671875 C 8.367188 -1.910156 8.613281 -2.171875 8.875 -2.453125 C 9.132812 -2.742188 9.390625 -3.046875 9.640625 -3.359375 L 6.96875 -3.359375 L 6.96875 -4.53125 L 10.53125 -4.53125 C 10.914062 -5.050781 11.25 -5.539062 11.53125 -6 L 7.703125 -6 L 7.703125 -9.234375 L 12.21875 -9.234375 L 12.21875 -10.234375 L 8.125 -10.234375 L 8.125 -12.296875 L 6.96875 -12.296875 L 6.96875 -13.453125 L 8.125 -13.453125 L 8.125 -15.421875 L 12.21875 -15.421875 L 12.21875 -16.703125 L 13.609375 -16.703125 L 13.609375 -15.421875 L 17.703125 -15.421875 L 17.703125 -13.453125 L 18.9375 -13.453125 L 18.9375 -12.296875 L 17.703125 -12.296875 L 17.703125 -10.234375 L 13.609375 -10.234375 L 13.609375 -9.234375 L 18.203125 -9.234375 L 18.203125 -6 L 13.0625 -6 C 12.9375 -5.757812 12.789062 -5.515625 12.625 -5.265625 C 12.457031 -5.023438 12.28125 -4.78125 12.09375 -4.53125 L 15.65625 -4.53125 C 15.695312 -4.675781 15.738281 -4.820312 15.78125 -4.96875 C 15.820312 -5.113281 15.851562 -5.253906 15.875 -5.390625 L 17.21875 -5.390625 C 17.1875 -5.253906 17.15625 -5.113281 17.125 -4.96875 C 17.09375 -4.820312 17.066406 -4.675781 17.046875 -4.53125 L 19.09375 -4.53125 Z M 19.09375 -3.359375 "/></g></g></g><g fill="#000000" fill-opacity="1"><g transform="translate(542.721814, 267.095056)"><g><path d="M 5.5625 0.265625 C 4.675781 0.265625 3.878906 0.0976562 3.171875 -0.234375 C 2.460938 -0.566406 1.90625 -1.03125 1.5 -1.625 C 1.09375 -2.21875 0.890625 -2.882812 0.890625 -3.625 C 0.890625 -4.28125 1.023438 -4.867188 1.296875 -5.390625 C 1.566406 -5.910156 1.90625 -6.359375 2.3125 -6.734375 C 2.726562 -7.109375 3.15625 -7.414062 3.59375 -7.65625 L 3.59375 -7.765625 C 3.0625 -8.140625 2.597656 -8.597656 2.203125 -9.140625 C 1.804688 -9.691406 1.609375 -10.359375 1.609375 -11.140625 C 1.609375 -11.878906 1.785156 -12.523438 2.140625 -13.078125 C 2.492188 -13.640625 2.972656 -14.070312 3.578125 -14.375 C 4.179688 -14.6875 4.863281 -14.84375 5.625 -14.84375 C 6.46875 -14.84375 7.1875 -14.679688 7.78125 -14.359375 C 8.375 -14.035156 8.832031 -13.582031 9.15625 -13 C 9.476562 -12.414062 9.640625 -11.75 9.640625 -11 C 9.640625 -10.488281 9.535156 -10.003906 9.328125 -9.546875 C 9.117188 -9.097656 8.863281 -8.691406 8.5625 -8.328125 C 8.269531 -7.972656 7.976562 -7.6875 7.6875 -7.46875 L 7.6875 -7.359375 C 8.113281 -7.117188 8.515625 -6.828125 8.890625 -6.484375 C 9.265625 -6.140625 9.566406 -5.726562 9.796875 -5.25 C 10.035156 -4.769531 10.15625 -4.195312 10.15625 -3.53125 C 10.15625 -2.820312 9.960938 -2.175781 9.578125 -1.59375 C 9.191406 -1.019531 8.65625 -0.566406 7.96875 -0.234375 C 7.28125 0.0976562 6.476562 0.265625 5.5625 0.265625 Z M 6.5625 -7.9375 C 7.570312 -8.832031 8.078125 -9.816406 8.078125 -10.890625 C 8.078125 -11.609375 7.859375 -12.222656 7.421875 -12.734375 C 6.992188 -13.253906 6.390625 -13.515625 5.609375 -13.515625 C 4.929688 -13.515625 4.367188 -13.289062 3.921875 -12.84375 C 3.484375 -12.40625 3.265625 -11.835938 3.265625 -11.140625 C 3.265625 -10.546875 3.421875 -10.050781 3.734375 -9.65625 C 4.046875 -9.269531 4.453125 -8.941406 4.953125 -8.671875 C 5.453125 -8.410156 5.988281 -8.164062 6.5625 -7.9375 Z M 5.609375 -1.09375 C 6.441406 -1.09375 7.117188 -1.320312 7.640625 -1.78125 C 8.160156 -2.238281 8.421875 -2.835938 8.421875 -3.578125 C 8.421875 -4.222656 8.238281 -4.753906 7.875 -5.171875 C 7.519531 -5.597656 7.050781 -5.957031 6.46875 -6.25 C 5.882812 -6.539062 5.242188 -6.828125 4.546875 -7.109375 C 3.960938 -6.734375 3.484375 -6.257812 3.109375 -5.6875 C 2.734375 -5.125 2.546875 -4.492188 2.546875 -3.796875 C 2.546875 -3.273438 2.679688 -2.8125 2.953125 -2.40625 C 3.222656 -2 3.585938 -1.675781 4.046875 -1.4375 C 4.503906 -1.207031 5.023438 -1.09375 5.609375 -1.09375 Z M 5.609375 -1.09375 "/></g></g></g><g fill="#000000" fill-opacity="1"><g transform="translate(553.792586, 267.095056)"><g><path d="M 5.546875 0.265625 C 4.148438 0.265625 3.039062 -0.367188 2.21875 -1.640625 C 1.394531 -2.910156 0.984375 -4.816406 0.984375 -7.359375 C 0.984375 -9.898438 1.394531 -11.789062 2.21875 -13.03125 C 3.039062 -14.28125 4.148438 -14.90625 5.546875 -14.90625 C 6.929688 -14.90625 8.035156 -14.28125 8.859375 -13.03125 C 9.679688 -11.789062 10.09375 -9.898438 10.09375 -7.359375 C 10.09375 -4.816406 9.679688 -2.910156 8.859375 -1.640625 C 8.035156 -0.367188 6.929688 0.265625 5.546875 0.265625 Z M 5.546875 -1.203125 C 6.367188 -1.203125 7.035156 -1.6875 7.546875 -2.65625 C 8.066406 -3.632812 8.328125 -5.203125 8.328125 -7.359375 C 8.328125 -9.503906 8.066406 -11.054688 7.546875 -12.015625 C 7.035156 -12.972656 6.367188 -13.453125 5.546875 -13.453125 C 4.710938 -13.453125 4.035156 -12.972656 3.515625 -12.015625 C 3.003906 -11.054688 2.75 -9.503906 2.75 -7.359375 C 2.75 -5.203125 3.003906 -3.632812 3.515625 -2.65625 C 4.035156 -1.6875 4.710938 -1.203125 5.546875 -1.203125 Z M 5.546875 -1.203125 "/></g></g></g><g fill="#000000" fill-opacity="1"><g transform="translate(564.863358, 267.095056)"><g><path d="M 5.546875 0.265625 C 4.148438 0.265625 3.039062 -0.367188 2.21875 -1.640625 C 1.394531 -2.910156 0.984375 -4.816406 0.984375 -7.359375 C 0.984375 -9.898438 1.394531 -11.789062 2.21875 -13.03125 C 3.039062 -14.28125 4.148438 -14.90625 5.546875 -14.90625 C 6.929688 -14.90625 8.035156 -14.28125 8.859375 -13.03125 C 9.679688 -11.789062 10.09375 -9.898438 10.09375 -7.359375 C 10.09375 -4.816406 9.679688 -2.910156 8.859375 -1.640625 C 8.035156 -0.367188 6.929688 0.265625 5.546875 0.265625 Z M 5.546875 -1.203125 C 6.367188 -1.203125 7.035156 -1.6875 7.546875 -2.65625 C 8.066406 -3.632812 8.328125 -5.203125 8.328125 -7.359375 C 8.328125 -9.503906 8.066406 -11.054688 7.546875 -12.015625 C 7.035156 -12.972656 6.367188 -13.453125 5.546875 -13.453125 C 4.710938 -13.453125 4.035156 -12.972656 3.515625 -12.015625 C 3.003906 -11.054688 2.75 -9.503906 2.75 -7.359375 C 2.75 -5.203125 3.003906 -3.632812 3.515625 -2.65625 C 4.035156 -1.6875 4.710938 -1.203125 5.546875 -1.203125 Z M 5.546875 -1.203125 "/></g></g></g><g fill="#000000" fill-opacity="1"><g transform="translate(575.93413, 267.095056)"><g><path d="M 17.0625 -15.125 L 17.0625 -13.703125 L 3.015625 -13.703125 L 3.015625 -15.125 Z M 14.0625 -0.234375 L 16.640625 -0.234375 C 16.910156 -0.234375 17.109375 -0.320312 17.234375 -0.5 C 17.367188 -0.675781 17.46875 -1.019531 17.53125 -1.53125 C 17.59375 -2.039062 17.632812 -2.800781 17.65625 -3.8125 C 17.832031 -3.675781 18.054688 -3.546875 18.328125 -3.421875 C 18.597656 -3.304688 18.832031 -3.21875 19.03125 -3.15625 C 18.976562 -2.019531 18.878906 -1.140625 18.734375 -0.515625 C 18.597656 0.109375 18.378906 0.546875 18.078125 0.796875 C 17.773438 1.046875 17.328125 1.171875 16.734375 1.171875 L 13.890625 1.171875 C 12.992188 1.171875 12.390625 1.015625 12.078125 0.703125 C 11.773438 0.390625 11.625 -0.1875 11.625 -1.03125 L 11.625 -8.140625 L 7.90625 -8.140625 C 7.8125 -7.078125 7.660156 -6.0625 7.453125 -5.09375 C 7.242188 -4.132812 6.929688 -3.242188 6.515625 -2.421875 C 6.097656 -1.609375 5.519531 -0.867188 4.78125 -0.203125 C 4.050781 0.453125 3.113281 1.007812 1.96875 1.46875 C 1.875 1.289062 1.738281 1.085938 1.5625 0.859375 C 1.382812 0.628906 1.207031 0.445312 1.03125 0.3125 C 2.101562 -0.0820312 2.96875 -0.570312 3.625 -1.15625 C 4.28125 -1.738281 4.789062 -2.390625 5.15625 -3.109375 C 5.519531 -3.835938 5.785156 -4.625 5.953125 -5.46875 C 6.117188 -6.320312 6.242188 -7.210938 6.328125 -8.140625 L 1.28125 -8.140625 L 1.28125 -9.578125 L 18.734375 -9.578125 L 18.734375 -8.140625 L 13.125 -8.140625 L 13.125 -1.0625 C 13.125 -0.726562 13.179688 -0.503906 13.296875 -0.390625 C 13.421875 -0.285156 13.675781 -0.234375 14.0625 -0.234375 Z M 14.0625 -0.234375 "/></g></g></g><g fill="#000000" fill-opacity="1"><g transform="translate(434.73499, 333.171789)"><g><path d="M 3.3125 -2.0625 L 16.546875 -2.0625 L 16.546875 -13.53125 L 12.65625 -13.53125 L 12.65625 -7.28125 C 12.65625 -6.957031 12.679688 -6.726562 12.734375 -6.59375 C 12.796875 -6.46875 12.9375 -6.40625 13.15625 -6.40625 L 15.078125 -6.40625 C 15.253906 -6.40625 15.457031 -6.410156 15.6875 -6.421875 C 15.925781 -6.429688 16.109375 -6.457031 16.234375 -6.5 C 16.253906 -6.289062 16.273438 -6.078125 16.296875 -5.859375 C 16.316406 -5.640625 16.332031 -5.4375 16.34375 -5.25 C 16.21875 -5.195312 16.039062 -5.164062 15.8125 -5.15625 C 15.59375 -5.144531 15.367188 -5.140625 15.140625 -5.140625 L 12.984375 -5.140625 C 12.296875 -5.140625 11.832031 -5.3125 11.59375 -5.65625 C 11.363281 -6 11.25 -6.554688 11.25 -7.328125 L 11.25 -13.53125 L 8.5 -13.53125 C 8.46875 -12.1875 8.394531 -10.988281 8.28125 -9.9375 C 8.175781 -8.882812 7.984375 -7.957031 7.703125 -7.15625 C 7.429688 -6.351562 7.035156 -5.65625 6.515625 -5.0625 C 6.003906 -4.46875 5.316406 -3.960938 4.453125 -3.546875 C 4.367188 -3.734375 4.238281 -3.941406 4.0625 -4.171875 C 3.882812 -4.398438 3.710938 -4.578125 3.546875 -4.703125 C 4.304688 -5.066406 4.910156 -5.5 5.359375 -6 C 5.816406 -6.507812 6.160156 -7.113281 6.390625 -7.8125 C 6.628906 -8.519531 6.789062 -9.347656 6.875 -10.296875 C 6.957031 -11.242188 7.015625 -12.320312 7.046875 -13.53125 L 3.3125 -13.53125 Z M 1.828125 -14.96875 L 18.0625 -14.96875 L 18.0625 0.71875 L 16.546875 0.71875 L 16.546875 -0.625 L 3.3125 -0.625 L 3.3125 0.859375 L 1.828125 0.859375 Z M 1.828125 -14.96875 "/></g></g></g><g fill="#000000" fill-opacity="1"><g transform="translate(454.682319, 333.171789)"><g><path d="M 6.890625 -6.890625 L 5.984375 -5.828125 C 5.847656 -6.160156 5.640625 -6.582031 5.359375 -7.09375 C 5.085938 -7.613281 4.816406 -8.125 4.546875 -8.625 L 4.546875 1.515625 L 3.1875 1.515625 L 3.1875 -8.1875 C 2.9375 -7.132812 2.648438 -6.109375 2.328125 -5.109375 C 2.015625 -4.109375 1.6875 -3.265625 1.34375 -2.578125 C 1.257812 -2.796875 1.140625 -3.046875 0.984375 -3.328125 C 0.835938 -3.617188 0.707031 -3.851562 0.59375 -4.03125 C 0.914062 -4.601562 1.226562 -5.3125 1.53125 -6.15625 C 1.84375 -7 2.125 -7.890625 2.375 -8.828125 C 2.625 -9.765625 2.820312 -10.644531 2.96875 -11.46875 L 0.875 -11.46875 L 0.875 -12.875 L 3.1875 -12.875 L 3.1875 -16.703125 L 4.546875 -16.703125 L 4.546875 -12.875 L 6.546875 -12.875 L 6.546875 -11.46875 L 4.546875 -11.46875 L 4.546875 -10.4375 C 4.679688 -10.257812 4.859375 -10 5.078125 -9.65625 C 5.296875 -9.320312 5.523438 -8.96875 5.765625 -8.59375 C 6.015625 -8.226562 6.242188 -7.882812 6.453125 -7.5625 C 6.660156 -7.238281 6.804688 -7.015625 6.890625 -6.890625 Z M 15.203125 -3.359375 L 11.21875 -3.359375 C 11.039062 -3.148438 10.875 -2.953125 10.71875 -2.765625 C 10.570312 -2.585938 10.425781 -2.410156 10.28125 -2.234375 C 10.78125 -2.117188 11.300781 -1.988281 11.84375 -1.84375 C 12.382812 -1.707031 12.921875 -1.554688 13.453125 -1.390625 C 13.847656 -1.660156 14.1875 -1.960938 14.46875 -2.296875 C 14.757812 -2.628906 15.003906 -2.984375 15.203125 -3.359375 Z M 9.03125 -8.21875 L 9.03125 -7 L 12.21875 -7 L 12.21875 -8.21875 Z M 16.796875 -8.21875 L 13.609375 -8.21875 L 13.609375 -7 L 16.796875 -7 Z M 9.421875 -11.234375 L 12.21875 -11.234375 L 12.21875 -12.4375 L 9.421875 -12.4375 Z M 12.21875 -14.421875 L 9.421875 -14.421875 L 9.421875 -13.328125 L 12.21875 -13.328125 Z M 16.359375 -14.421875 L 13.609375 -14.421875 L 13.609375 -13.328125 L 16.359375 -13.328125 Z M 13.609375 -11.234375 L 16.359375 -11.234375 L 16.359375 -12.4375 L 13.609375 -12.4375 Z M 19.09375 -3.359375 L 16.625 -3.359375 C 16.21875 -2.421875 15.628906 -1.613281 14.859375 -0.9375 C 15.609375 -0.695312 16.320312 -0.453125 17 -0.203125 C 17.675781 0.046875 18.273438 0.289062 18.796875 0.53125 L 17.703125 1.46875 C 17.203125 1.21875 16.601562 0.953125 15.90625 0.671875 C 15.207031 0.398438 14.445312 0.132812 13.625 -0.125 C 12.894531 0.257812 12.015625 0.59375 10.984375 0.875 C 9.953125 1.15625 8.722656 1.390625 7.296875 1.578125 C 7.242188 1.421875 7.164062 1.226562 7.0625 1 C 6.957031 0.78125 6.851562 0.609375 6.75 0.484375 C 8.988281 0.222656 10.734375 -0.15625 11.984375 -0.65625 C 11.335938 -0.84375 10.6875 -1.023438 10.03125 -1.203125 C 9.382812 -1.378906 8.753906 -1.535156 8.140625 -1.671875 C 8.367188 -1.910156 8.613281 -2.171875 8.875 -2.453125 C 9.132812 -2.742188 9.390625 -3.046875 9.640625 -3.359375 L 6.96875 -3.359375 L 6.96875 -4.53125 L 10.53125 -4.53125 C 10.914062 -5.050781 11.25 -5.539062 11.53125 -6 L 7.703125 -6 L 7.703125 -9.234375 L 12.21875 -9.234375 L 12.21875 -10.234375 L 8.125 -10.234375 L 8.125 -12.296875 L 6.96875 -12.296875 L 6.96875 -13.453125 L 8.125 -13.453125 L 8.125 -15.421875 L 12.21875 -15.421875 L 12.21875 -16.703125 L 13.609375 -16.703125 L 13.609375 -15.421875 L 17.703125 -15.421875 L 17.703125 -13.453125 L 18.9375 -13.453125 L 18.9375 -12.296875 L 17.703125 -12.296875 L 17.703125 -10.234375 L 13.609375 -10.234375 L 13.609375 -9.234375 L 18.203125 -9.234375 L 18.203125 -6 L 13.0625 -6 C 12.9375 -5.757812 12.789062 -5.515625 12.625 -5.265625 C 12.457031 -5.023438 12.28125 -4.78125 12.09375 -4.53125 L 15.65625 -4.53125 C 15.695312 -4.675781 15.738281 -4.820312 15.78125 -4.96875 C 15.820312 -5.113281 15.851562 -5.253906 15.875 -5.390625 L 17.21875 -5.390625 C 17.1875 -5.253906 17.15625 -5.113281 17.125 -4.96875 C 17.09375 -4.820312 17.066406 -4.675781 17.046875 -4.53125 L 19.09375 -4.53125 Z M 19.09375 -3.359375 "/></g></g></g><g fill="#000000" fill-opacity="1"><g transform="translate(542.721814, 333.171789)"><g><path d="M 2.59375 -10.15625 C 2.59375 -9.164062 2.8125 -8.375 3.25 -7.78125 C 3.6875 -7.195312 4.335938 -6.90625 5.203125 -6.90625 C 5.710938 -6.90625 6.234375 -7.054688 6.765625 -7.359375 C 7.296875 -7.671875 7.796875 -8.171875 8.265625 -8.859375 C 8.171875 -10.359375 7.847656 -11.5 7.296875 -12.28125 C 6.753906 -13.070312 6.007812 -13.46875 5.0625 -13.46875 C 4.375 -13.46875 3.789062 -13.164062 3.3125 -12.5625 C 2.832031 -11.957031 2.59375 -11.15625 2.59375 -10.15625 Z M 4.671875 0.265625 C 3.878906 0.265625 3.195312 0.125 2.625 -0.15625 C 2.0625 -0.445312 1.570312 -0.804688 1.15625 -1.234375 L 2.171875 -2.375 C 2.484375 -2.03125 2.847656 -1.753906 3.265625 -1.546875 C 3.691406 -1.347656 4.140625 -1.25 4.609375 -1.25 C 5.242188 -1.25 5.832031 -1.441406 6.375 -1.828125 C 6.914062 -2.222656 7.359375 -2.859375 7.703125 -3.734375 C 8.046875 -4.617188 8.238281 -5.820312 8.28125 -7.34375 C 7.832031 -6.800781 7.3125 -6.363281 6.71875 -6.03125 C 6.125 -5.707031 5.519531 -5.546875 4.90625 -5.546875 C 3.695312 -5.546875 2.722656 -5.929688 1.984375 -6.703125 C 1.242188 -7.484375 0.875 -8.632812 0.875 -10.15625 C 0.875 -11.101562 1.066406 -11.929688 1.453125 -12.640625 C 1.835938 -13.347656 2.347656 -13.898438 2.984375 -14.296875 C 3.617188 -14.703125 4.3125 -14.90625 5.0625 -14.90625 C 6.007812 -14.90625 6.851562 -14.648438 7.59375 -14.140625 C 8.332031 -13.628906 8.910156 -12.859375 9.328125 -11.828125 C 9.753906 -10.796875 9.96875 -9.5 9.96875 -7.9375 C 9.96875 -6.457031 9.820312 -5.195312 9.53125 -4.15625 C 9.238281 -3.113281 8.84375 -2.265625 8.34375 -1.609375 C 7.851562 -0.960938 7.289062 -0.488281 6.65625 -0.1875 C 6.019531 0.113281 5.359375 0.265625 4.671875 0.265625 Z M 4.671875 0.265625 "/></g></g></g><g fill="#000000" fill-opacity="1"><g transform="translate(553.792586, 333.171789)"><g><path d="M 5.546875 0.265625 C 4.148438 0.265625 3.039062 -0.367188 2.21875 -1.640625 C 1.394531 -2.910156 0.984375 -4.816406 0.984375 -7.359375 C 0.984375 -9.898438 1.394531 -11.789062 2.21875 -13.03125 C 3.039062 -14.28125 4.148438 -14.90625 5.546875 -14.90625 C 6.929688 -14.90625 8.035156 -14.28125 8.859375 -13.03125 C 9.679688 -11.789062 10.09375 -9.898438 10.09375 -7.359375 C 10.09375 -4.816406 9.679688 -2.910156 8.859375 -1.640625 C 8.035156 -0.367188 6.929688 0.265625 5.546875 0.265625 Z M 5.546875 -1.203125 C 6.367188 -1.203125 7.035156 -1.6875 7.546875 -2.65625 C 8.066406 -3.632812 8.328125 -5.203125 8.328125 -7.359375 C 8.328125 -9.503906 8.066406 -11.054688 7.546875 -12.015625 C 7.035156 -12.972656 6.367188 -13.453125 5.546875 -13.453125 C 4.710938 -13.453125 4.035156 -12.972656 3.515625 -12.015625 C 3.003906 -11.054688 2.75 -9.503906 2.75 -7.359375 C 2.75 -5.203125 3.003906 -3.632812 3.515625 -2.65625 C 4.035156 -1.6875 4.710938 -1.203125 5.546875 -1.203125 Z M 5.546875 -1.203125 "/></g></g></g><g fill="#000000" fill-opacity="1"><g transform="translate(564.863358, 333.171789)"><g><path d="M 5.546875 0.265625 C 4.148438 0.265625 3.039062 -0.367188 2.21875 -1.640625 C 1.394531 -2.910156 0.984375 -4.816406 0.984375 -7.359375 C 0.984375 -9.898438 1.394531 -11.789062 2.21875 -13.03125 C 3.039062 -14.28125 4.148438 -14.90625 5.546875 -14.90625 C 6.929688 -14.90625 8.035156 -14.28125 8.859375 -13.03125 C 9.679688 -11.789062 10.09375 -9.898438 10.09375 -7.359375 C 10.09375 -4.816406 9.679688 -2.910156 8.859375 -1.640625 C 8.035156 -0.367188 6.929688 0.265625 5.546875 0.265625 Z M 5.546875 -1.203125 C 6.367188 -1.203125 7.035156 -1.6875 7.546875 -2.65625 C 8.066406 -3.632812 8.328125 -5.203125 8.328125 -7.359375 C 8.328125 -9.503906 8.066406 -11.054688 7.546875 -12.015625 C 7.035156 -12.972656 6.367188 -13.453125 5.546875 -13.453125 C 4.710938 -13.453125 4.035156 -12.972656 3.515625 -12.015625 C 3.003906 -11.054688 2.75 -9.503906 2.75 -7.359375 C 2.75 -5.203125 3.003906 -3.632812 3.515625 -2.65625 C 4.035156 -1.6875 4.710938 -1.203125 5.546875 -1.203125 Z M 5.546875 -1.203125 "/></g></g></g><g fill="#000000" fill-opacity="1"><g transform="translate(575.93413, 333.171789)"><g><path d="M 17.0625 -15.125 L 17.0625 -13.703125 L 3.015625 -13.703125 L 3.015625 -15.125 Z M 14.0625 -0.234375 L 16.640625 -0.234375 C 16.910156 -0.234375 17.109375 -0.320312 17.234375 -0.5 C 17.367188 -0.675781 17.46875 -1.019531 17.53125 -1.53125 C 17.59375 -2.039062 17.632812 -2.800781 17.65625 -3.8125 C 17.832031 -3.675781 18.054688 -3.546875 18.328125 -3.421875 C 18.597656 -3.304688 18.832031 -3.21875 19.03125 -3.15625 C 18.976562 -2.019531 18.878906 -1.140625 18.734375 -0.515625 C 18.597656 0.109375 18.378906 0.546875 18.078125 0.796875 C 17.773438 1.046875 17.328125 1.171875 16.734375 1.171875 L 13.890625 1.171875 C 12.992188 1.171875 12.390625 1.015625 12.078125 0.703125 C 11.773438 0.390625 11.625 -0.1875 11.625 -1.03125 L 11.625 -8.140625 L 7.90625 -8.140625 C 7.8125 -7.078125 7.660156 -6.0625 7.453125 -5.09375 C 7.242188 -4.132812 6.929688 -3.242188 6.515625 -2.421875 C 6.097656 -1.609375 5.519531 -0.867188 4.78125 -0.203125 C 4.050781 0.453125 3.113281 1.007812 1.96875 1.46875 C 1.875 1.289062 1.738281 1.085938 1.5625 0.859375 C 1.382812 0.628906 1.207031 0.445312 1.03125 0.3125 C 2.101562 -0.0820312 2.96875 -0.570312 3.625 -1.15625 C 4.28125 -1.738281 4.789062 -2.390625 5.15625 -3.109375 C 5.519531 -3.835938 5.785156 -4.625 5.953125 -5.46875 C 6.117188 -6.320312 6.242188 -7.210938 6.328125 -8.140625 L 1.28125 -8.140625 L 1.28125 -9.578125 L 18.734375 -9.578125 L 18.734375 -8.140625 L 13.125 -8.140625 L 13.125 -1.0625 C 13.125 -0.726562 13.179688 -0.503906 13.296875 -0.390625 C 13.421875 -0.285156 13.675781 -0.234375 14.0625 -0.234375 Z M 14.0625 -0.234375 "/></g></g></g><g fill="#000000" fill-opacity="1"><g transform="translate(432.4978, 399.248287)"><g/></g></g><g fill="#000000" fill-opacity="1"><g transform="translate(436.972179, 399.248287)"><g><path d="M 13.84375 -7.546875 L 8.84375 -7.546875 C 8.65625 -6.359375 8.457031 -5.195312 8.25 -4.0625 C 8.039062 -2.9375 7.84375 -1.921875 7.65625 -1.015625 L 13.234375 -1.015625 C 13.304688 -1.722656 13.378906 -2.460938 13.453125 -3.234375 C 13.523438 -4.003906 13.59375 -4.757812 13.65625 -5.5 C 13.726562 -6.25 13.789062 -6.929688 13.84375 -7.546875 Z M 14.765625 -1.015625 L 18.8125 -1.015625 L 18.8125 0.4375 L 1.203125 0.4375 L 1.203125 -1.015625 L 6.046875 -1.015625 C 6.242188 -1.921875 6.445312 -2.9375 6.65625 -4.0625 C 6.863281 -5.195312 7.066406 -6.359375 7.265625 -7.546875 L 3.546875 -7.546875 L 3.546875 -9 L 7.5 -9 C 7.738281 -10.488281 7.953125 -11.914062 8.140625 -13.28125 L 2.453125 -13.28125 L 2.453125 -14.75 L 17.375 -14.75 L 17.375 -13.28125 L 9.71875 -13.28125 C 9.625 -12.625 9.519531 -11.925781 9.40625 -11.1875 C 9.289062 -10.457031 9.175781 -9.726562 9.0625 -9 L 14.09375 -9 L 14.34375 -9.078125 L 15.484375 -8.953125 C 15.441406 -8.222656 15.378906 -7.40625 15.296875 -6.5 C 15.222656 -5.59375 15.140625 -4.664062 15.046875 -3.71875 C 14.960938 -2.78125 14.867188 -1.878906 14.765625 -1.015625 Z M 14.765625 -1.015625 "/></g></g></g><g fill="#000000" fill-opacity="1"><g transform="translate(456.919509, 399.248287)"><g><path d="M 6.890625 -6.890625 L 5.984375 -5.828125 C 5.847656 -6.160156 5.640625 -6.582031 5.359375 -7.09375 C 5.085938 -7.613281 4.816406 -8.125 4.546875 -8.625 L 4.546875 1.515625 L 3.1875 1.515625 L 3.1875 -8.1875 C 2.9375 -7.132812 2.648438 -6.109375 2.328125 -5.109375 C 2.015625 -4.109375 1.6875 -3.265625 1.34375 -2.578125 C 1.257812 -2.796875 1.140625 -3.046875 0.984375 -3.328125 C 0.835938 -3.617188 0.707031 -3.851562 0.59375 -4.03125 C 0.914062 -4.601562 1.226562 -5.3125 1.53125 -6.15625 C 1.84375 -7 2.125 -7.890625 2.375 -8.828125 C 2.625 -9.765625 2.820312 -10.644531 2.96875 -11.46875 L 0.875 -11.46875 L 0.875 -12.875 L 3.1875 -12.875 L 3.1875 -16.703125 L 4.546875 -16.703125 L 4.546875 -12.875 L 6.546875 -12.875 L 6.546875 -11.46875 L 4.546875 -11.46875 L 4.546875 -10.4375 C 4.679688 -10.257812 4.859375 -10 5.078125 -9.65625 C 5.296875 -9.320312 5.523438 -8.96875 5.765625 -8.59375 C 6.015625 -8.226562 6.242188 -7.882812 6.453125 -7.5625 C 6.660156 -7.238281 6.804688 -7.015625 6.890625 -6.890625 Z M 15.203125 -3.359375 L 11.21875 -3.359375 C 11.039062 -3.148438 10.875 -2.953125 10.71875 -2.765625 C 10.570312 -2.585938 10.425781 -2.410156 10.28125 -2.234375 C 10.78125 -2.117188 11.300781 -1.988281 11.84375 -1.84375 C 12.382812 -1.707031 12.921875 -1.554688 13.453125 -1.390625 C 13.847656 -1.660156 14.1875 -1.960938 14.46875 -2.296875 C 14.757812 -2.628906 15.003906 -2.984375 15.203125 -3.359375 Z M 9.03125 -8.21875 L 9.03125 -7 L 12.21875 -7 L 12.21875 -8.21875 Z M 16.796875 -8.21875 L 13.609375 -8.21875 L 13.609375 -7 L 16.796875 -7 Z M 9.421875 -11.234375 L 12.21875 -11.234375 L 12.21875 -12.4375 L 9.421875 -12.4375 Z M 12.21875 -14.421875 L 9.421875 -14.421875 L 9.421875 -13.328125 L 12.21875 -13.328125 Z M 16.359375 -14.421875 L 13.609375 -14.421875 L 13.609375 -13.328125 L 16.359375 -13.328125 Z M 13.609375 -11.234375 L 16.359375 -11.234375 L 16.359375 -12.4375 L 13.609375 -12.4375 Z M 19.09375 -3.359375 L 16.625 -3.359375 C 16.21875 -2.421875 15.628906 -1.613281 14.859375 -0.9375 C 15.609375 -0.695312 16.320312 -0.453125 17 -0.203125 C 17.675781 0.046875 18.273438 0.289062 18.796875 0.53125 L 17.703125 1.46875 C 17.203125 1.21875 16.601562 0.953125 15.90625 0.671875 C 15.207031 0.398438 14.445312 0.132812 13.625 -0.125 C 12.894531 0.257812 12.015625 0.59375 10.984375 0.875 C 9.953125 1.15625 8.722656 1.390625 7.296875 1.578125 C 7.242188 1.421875 7.164062 1.226562 7.0625 1 C 6.957031 0.78125 6.851562 0.609375 6.75 0.484375 C 8.988281 0.222656 10.734375 -0.15625 11.984375 -0.65625 C 11.335938 -0.84375 10.6875 -1.023438 10.03125 -1.203125 C 9.382812 -1.378906 8.753906 -1.535156 8.140625 -1.671875 C 8.367188 -1.910156 8.613281 -2.171875 8.875 -2.453125 C 9.132812 -2.742188 9.390625 -3.046875 9.640625 -3.359375 L 6.96875 -3.359375 L 6.96875 -4.53125 L 10.53125 -4.53125 C 10.914062 -5.050781 11.25 -5.539062 11.53125 -6 L 7.703125 -6 L 7.703125 -9.234375 L 12.21875 -9.234375 L 12.21875 -10.234375 L 8.125 -10.234375 L 8.125 -12.296875 L 6.96875 -12.296875 L 6.96875 -13.453125 L 8.125 -13.453125 L 8.125 -15.421875 L 12.21875 -15.421875 L 12.21875 -16.703125 L 13.609375 -16.703125 L 13.609375 -15.421875 L 17.703125 -15.421875 L 17.703125 -13.453125 L 18.9375 -13.453125 L 18.9375 -12.296875 L 17.703125 -12.296875 L 17.703125 -10.234375 L 13.609375 -10.234375 L 13.609375 -9.234375 L 18.203125 -9.234375 L 18.203125 -6 L 13.0625 -6 C 12.9375 -5.757812 12.789062 -5.515625 12.625 -5.265625 C 12.457031 -5.023438 12.28125 -4.78125 12.09375 -4.53125 L 15.65625 -4.53125 C 15.695312 -4.675781 15.738281 -4.820312 15.78125 -4.96875 C 15.820312 -5.113281 15.851562 -5.253906 15.875 -5.390625 L 17.21875 -5.390625 C 17.1875 -5.253906 17.15625 -5.113281 17.125 -4.96875 C 17.09375 -4.820312 17.066406 -4.675781 17.046875 -4.53125 L 19.09375 -4.53125 Z M 19.09375 -3.359375 "/></g></g></g><g fill="#000000" fill-opacity="1"><g transform="translate(537.181549, 399.248287)"><g><path d="M 1.75 0 L 1.75 -1.515625 L 5.015625 -1.515625 L 5.015625 -12.4375 L 2.421875 -12.4375 L 2.421875 -13.59375 C 3.066406 -13.707031 3.628906 -13.847656 4.109375 -14.015625 C 4.597656 -14.191406 5.046875 -14.398438 5.453125 -14.640625 L 6.84375 -14.640625 L 6.84375 -1.515625 L 9.78125 -1.515625 L 9.78125 0 Z M 1.75 0 "/></g></g></g><g fill="#000000" fill-opacity="1"><g transform="translate(548.252321, 399.248287)"><g><path d="M 5.546875 0.265625 C 4.148438 0.265625 3.039062 -0.367188 2.21875 -1.640625 C 1.394531 -2.910156 0.984375 -4.816406 0.984375 -7.359375 C 0.984375 -9.898438 1.394531 -11.789062 2.21875 -13.03125 C 3.039062 -14.28125 4.148438 -14.90625 5.546875 -14.90625 C 6.929688 -14.90625 8.035156 -14.28125 8.859375 -13.03125 C 9.679688 -11.789062 10.09375 -9.898438 10.09375 -7.359375 C 10.09375 -4.816406 9.679688 -2.910156 8.859375 -1.640625 C 8.035156 -0.367188 6.929688 0.265625 5.546875 0.265625 Z M 5.546875 -1.203125 C 6.367188 -1.203125 7.035156 -1.6875 7.546875 -2.65625 C 8.066406 -3.632812 8.328125 -5.203125 8.328125 -7.359375 C 8.328125 -9.503906 8.066406 -11.054688 7.546875 -12.015625 C 7.035156 -12.972656 6.367188 -13.453125 5.546875 -13.453125 C 4.710938 -13.453125 4.035156 -12.972656 3.515625 -12.015625 C 3.003906 -11.054688 2.75 -9.503906 2.75 -7.359375 C 2.75 -5.203125 3.003906 -3.632812 3.515625 -2.65625 C 4.035156 -1.6875 4.710938 -1.203125 5.546875 -1.203125 Z M 5.546875 -1.203125 "/></g></g></g><g fill="#000000" fill-opacity="1"><g transform="translate(559.323093, 399.248287)"><g><path d="M 5.546875 0.265625 C 4.148438 0.265625 3.039062 -0.367188 2.21875 -1.640625 C 1.394531 -2.910156 0.984375 -4.816406 0.984375 -7.359375 C 0.984375 -9.898438 1.394531 -11.789062 2.21875 -13.03125 C 3.039062 -14.28125 4.148438 -14.90625 5.546875 -14.90625 C 6.929688 -14.90625 8.035156 -14.28125 8.859375 -13.03125 C 9.679688 -11.789062 10.09375 -9.898438 10.09375 -7.359375 C 10.09375 -4.816406 9.679688 -2.910156 8.859375 -1.640625 C 8.035156 -0.367188 6.929688 0.265625 5.546875 0.265625 Z M 5.546875 -1.203125 C 6.367188 -1.203125 7.035156 -1.6875 7.546875 -2.65625 C 8.066406 -3.632812 8.328125 -5.203125 8.328125 -7.359375 C 8.328125 -9.503906 8.066406 -11.054688 7.546875 -12.015625 C 7.035156 -12.972656 6.367188 -13.453125 5.546875 -13.453125 C 4.710938 -13.453125 4.035156 -12.972656 3.515625 -12.015625 C 3.003906 -11.054688 2.75 -9.503906 2.75 -7.359375 C 2.75 -5.203125 3.003906 -3.632812 3.515625 -2.65625 C 4.035156 -1.6875 4.710938 -1.203125 5.546875 -1.203125 Z M 5.546875 -1.203125 "/></g></g></g><g fill="#000000" fill-opacity="1"><g transform="translate(570.393866, 399.248287)"><g><path d="M 5.546875 0.265625 C 4.148438 0.265625 3.039062 -0.367188 2.21875 -1.640625 C 1.394531 -2.910156 0.984375 -4.816406 0.984375 -7.359375 C 0.984375 -9.898438 1.394531 -11.789062 2.21875 -13.03125 C 3.039062 -14.28125 4.148438 -14.90625 5.546875 -14.90625 C 6.929688 -14.90625 8.035156 -14.28125 8.859375 -13.03125 C 9.679688 -11.789062 10.09375 -9.898438 10.09375 -7.359375 C 10.09375 -4.816406 9.679688 -2.910156 8.859375 -1.640625 C 8.035156 -0.367188 6.929688 0.265625 5.546875 0.265625 Z M 5.546875 -1.203125 C 6.367188 -1.203125 7.035156 -1.6875 7.546875 -2.65625 C 8.066406 -3.632812 8.328125 -5.203125 8.328125 -7.359375 C 8.328125 -9.503906 8.066406 -11.054688 7.546875 -12.015625 C 7.035156 -12.972656 6.367188 -13.453125 5.546875 -13.453125 C 4.710938 -13.453125 4.035156 -12.972656 3.515625 -12.015625 C 3.003906 -11.054688 2.75 -9.503906 2.75 -7.359375 C 2.75 -5.203125 3.003906 -3.632812 3.515625 -2.65625 C 4.035156 -1.6875 4.710938 -1.203125 5.546875 -1.203125 Z M 5.546875 -1.203125 "/></g></g></g><g fill="#000000" fill-opacity="1"><g transform="translate(581.464638, 399.248287)"><g><path d="M 17.0625 -15.125 L 17.0625 -13.703125 L 3.015625 -13.703125 L 3.015625 -15.125 Z M 14.0625 -0.234375 L 16.640625 -0.234375 C 16.910156 -0.234375 17.109375 -0.320312 17.234375 -0.5 C 17.367188 -0.675781 17.46875 -1.019531 17.53125 -1.53125 C 17.59375 -2.039062 17.632812 -2.800781 17.65625 -3.8125 C 17.832031 -3.675781 18.054688 -3.546875 18.328125 -3.421875 C 18.597656 -3.304688 18.832031 -3.21875 19.03125 -3.15625 C 18.976562 -2.019531 18.878906 -1.140625 18.734375 -0.515625 C 18.597656 0.109375 18.378906 0.546875 18.078125 0.796875 C 17.773438 1.046875 17.328125 1.171875 16.734375 1.171875 L 13.890625 1.171875 C 12.992188 1.171875 12.390625 1.015625 12.078125 0.703125 C 11.773438 0.390625 11.625 -0.1875 11.625 -1.03125 L 11.625 -8.140625 L 7.90625 -8.140625 C 7.8125 -7.078125 7.660156 -6.0625 7.453125 -5.09375 C 7.242188 -4.132812 6.929688 -3.242188 6.515625 -2.421875 C 6.097656 -1.609375 5.519531 -0.867188 4.78125 -0.203125 C 4.050781 0.453125 3.113281 1.007812 1.96875 1.46875 C 1.875 1.289062 1.738281 1.085938 1.5625 0.859375 C 1.382812 0.628906 1.207031 0.445312 1.03125 0.3125 C 2.101562 -0.0820312 2.96875 -0.570312 3.625 -1.15625 C 4.28125 -1.738281 4.789062 -2.390625 5.15625 -3.109375 C 5.519531 -3.835938 5.785156 -4.625 5.953125 -5.46875 C 6.117188 -6.320312 6.242188 -7.210938 6.328125 -8.140625 L 1.28125 -8.140625 L 1.28125 -9.578125 L 18.734375 -9.578125 L 18.734375 -8.140625 L 13.125 -8.140625 L 13.125 -1.0625 C 13.125 -0.726562 13.179688 -0.503906 13.296875 -0.390625 C 13.421875 -0.285156 13.675781 -0.234375 14.0625 -0.234375 Z M 14.0625 -0.234375 "/></g></g></g><g fill="#000000" fill-opacity="1"><g transform="translate(434.73499, 465.32501)"><g><path d="M 1.21875 -11.4375 L 18.796875 -11.4375 L 18.796875 -9.921875 L 1.21875 -9.921875 Z M 6.1875 -7.625 L 7.796875 -7.109375 C 7.316406 -6.078125 6.773438 -5.039062 6.171875 -4 C 5.566406 -2.96875 4.941406 -1.988281 4.296875 -1.0625 C 3.648438 -0.144531 3.023438 0.671875 2.421875 1.390625 C 2.242188 1.242188 2.003906 1.066406 1.703125 0.859375 C 1.398438 0.660156 1.144531 0.492188 0.9375 0.359375 C 1.570312 -0.304688 2.207031 -1.070312 2.84375 -1.9375 C 3.488281 -2.8125 4.097656 -3.738281 4.671875 -4.71875 C 5.242188 -5.695312 5.75 -6.664062 6.1875 -7.625 Z M 12.046875 -7.125 L 13.421875 -7.78125 C 13.890625 -7.125 14.378906 -6.429688 14.890625 -5.703125 C 15.398438 -4.972656 15.90625 -4.234375 16.40625 -3.484375 C 16.90625 -2.742188 17.367188 -2.035156 17.796875 -1.359375 C 18.234375 -0.691406 18.597656 -0.0976562 18.890625 0.421875 L 17.40625 1.28125 C 17.125 0.757812 16.773438 0.15625 16.359375 -0.53125 C 15.953125 -1.21875 15.5 -1.941406 15 -2.703125 C 14.507812 -3.460938 14.007812 -4.222656 13.5 -4.984375 C 13 -5.742188 12.515625 -6.457031 12.046875 -7.125 Z M 8.140625 -16.078125 L 9.640625 -16.59375 C 9.878906 -16.15625 10.117188 -15.679688 10.359375 -15.171875 C 10.609375 -14.671875 10.835938 -14.1875 11.046875 -13.71875 C 11.265625 -13.257812 11.441406 -12.859375 11.578125 -12.515625 L 9.96875 -11.890625 C 9.851562 -12.234375 9.691406 -12.648438 9.484375 -13.140625 C 9.273438 -13.628906 9.054688 -14.128906 8.828125 -14.640625 C 8.597656 -15.160156 8.367188 -15.640625 8.140625 -16.078125 Z M 8.140625 -16.078125 "/></g></g></g><g fill="#000000" fill-opacity="1"><g transform="translate(454.682319, 465.32501)"><g><path d="M 6.890625 -6.890625 L 5.984375 -5.828125 C 5.847656 -6.160156 5.640625 -6.582031 5.359375 -7.09375 C 5.085938 -7.613281 4.816406 -8.125 4.546875 -8.625 L 4.546875 1.515625 L 3.1875 1.515625 L 3.1875 -8.1875 C 2.9375 -7.132812 2.648438 -6.109375 2.328125 -5.109375 C 2.015625 -4.109375 1.6875 -3.265625 1.34375 -2.578125 C 1.257812 -2.796875 1.140625 -3.046875 0.984375 -3.328125 C 0.835938 -3.617188 0.707031 -3.851562 0.59375 -4.03125 C 0.914062 -4.601562 1.226562 -5.3125 1.53125 -6.15625 C 1.84375 -7 2.125 -7.890625 2.375 -8.828125 C 2.625 -9.765625 2.820312 -10.644531 2.96875 -11.46875 L 0.875 -11.46875 L 0.875 -12.875 L 3.1875 -12.875 L 3.1875 -16.703125 L 4.546875 -16.703125 L 4.546875 -12.875 L 6.546875 -12.875 L 6.546875 -11.46875 L 4.546875 -11.46875 L 4.546875 -10.4375 C 4.679688 -10.257812 4.859375 -10 5.078125 -9.65625 C 5.296875 -9.320312 5.523438 -8.96875 5.765625 -8.59375 C 6.015625 -8.226562 6.242188 -7.882812 6.453125 -7.5625 C 6.660156 -7.238281 6.804688 -7.015625 6.890625 -6.890625 Z M 15.203125 -3.359375 L 11.21875 -3.359375 C 11.039062 -3.148438 10.875 -2.953125 10.71875 -2.765625 C 10.570312 -2.585938 10.425781 -2.410156 10.28125 -2.234375 C 10.78125 -2.117188 11.300781 -1.988281 11.84375 -1.84375 C 12.382812 -1.707031 12.921875 -1.554688 13.453125 -1.390625 C 13.847656 -1.660156 14.1875 -1.960938 14.46875 -2.296875 C 14.757812 -2.628906 15.003906 -2.984375 15.203125 -3.359375 Z M 9.03125 -8.21875 L 9.03125 -7 L 12.21875 -7 L 12.21875 -8.21875 Z M 16.796875 -8.21875 L 13.609375 -8.21875 L 13.609375 -7 L 16.796875 -7 Z M 9.421875 -11.234375 L 12.21875 -11.234375 L 12.21875 -12.4375 L 9.421875 -12.4375 Z M 12.21875 -14.421875 L 9.421875 -14.421875 L 9.421875 -13.328125 L 12.21875 -13.328125 Z M 16.359375 -14.421875 L 13.609375 -14.421875 L 13.609375 -13.328125 L 16.359375 -13.328125 Z M 13.609375 -11.234375 L 16.359375 -11.234375 L 16.359375 -12.4375 L 13.609375 -12.4375 Z M 19.09375 -3.359375 L 16.625 -3.359375 C 16.21875 -2.421875 15.628906 -1.613281 14.859375 -0.9375 C 15.609375 -0.695312 16.320312 -0.453125 17 -0.203125 C 17.675781 0.046875 18.273438 0.289062 18.796875 0.53125 L 17.703125 1.46875 C 17.203125 1.21875 16.601562 0.953125 15.90625 0.671875 C 15.207031 0.398438 14.445312 0.132812 13.625 -0.125 C 12.894531 0.257812 12.015625 0.59375 10.984375 0.875 C 9.953125 1.15625 8.722656 1.390625 7.296875 1.578125 C 7.242188 1.421875 7.164062 1.226562 7.0625 1 C 6.957031 0.78125 6.851562 0.609375 6.75 0.484375 C 8.988281 0.222656 10.734375 -0.15625 11.984375 -0.65625 C 11.335938 -0.84375 10.6875 -1.023438 10.03125 -1.203125 C 9.382812 -1.378906 8.753906 -1.535156 8.140625 -1.671875 C 8.367188 -1.910156 8.613281 -2.171875 8.875 -2.453125 C 9.132812 -2.742188 9.390625 -3.046875 9.640625 -3.359375 L 6.96875 -3.359375 L 6.96875 -4.53125 L 10.53125 -4.53125 C 10.914062 -5.050781 11.25 -5.539062 11.53125 -6 L 7.703125 -6 L 7.703125 -9.234375 L 12.21875 -9.234375 L 12.21875 -10.234375 L 8.125 -10.234375 L 8.125 -12.296875 L 6.96875 -12.296875 L 6.96875 -13.453125 L 8.125 -13.453125 L 8.125 -15.421875 L 12.21875 -15.421875 L 12.21875 -16.703125 L 13.609375 -16.703125 L 13.609375 -15.421875 L 17.703125 -15.421875 L 17.703125 -13.453125 L 18.9375 -13.453125 L 18.9375 -12.296875 L 17.703125 -12.296875 L 17.703125 -10.234375 L 13.609375 -10.234375 L 13.609375 -9.234375 L 18.203125 -9.234375 L 18.203125 -6 L 13.0625 -6 C 12.9375 -5.757812 12.789062 -5.515625 12.625 -5.265625 C 12.457031 -5.023438 12.28125 -4.78125 12.09375 -4.53125 L 15.65625 -4.53125 C 15.695312 -4.675781 15.738281 -4.820312 15.78125 -4.96875 C 15.820312 -5.113281 15.851562 -5.253906 15.875 -5.390625 L 17.21875 -5.390625 C 17.1875 -5.253906 17.15625 -5.113281 17.125 -4.96875 C 17.09375 -4.820312 17.066406 -4.675781 17.046875 -4.53125 L 19.09375 -4.53125 Z M 19.09375 -3.359375 "/></g></g></g><g fill="#000000" fill-opacity="1"><g transform="translate(537.181549, 465.32501)"><g><path d="M 1.75 0 L 1.75 -1.515625 L 5.015625 -1.515625 L 5.015625 -12.4375 L 2.421875 -12.4375 L 2.421875 -13.59375 C 3.066406 -13.707031 3.628906 -13.847656 4.109375 -14.015625 C 4.597656 -14.191406 5.046875 -14.398438 5.453125 -14.640625 L 6.84375 -14.640625 L 6.84375 -1.515625 L 9.78125 -1.515625 L 9.78125 0 Z M 1.75 0 "/></g></g></g><g fill="#000000" fill-opacity="1"><g transform="translate(548.252321, 465.32501)"><g><path d="M 1.75 0 L 1.75 -1.515625 L 5.015625 -1.515625 L 5.015625 -12.4375 L 2.421875 -12.4375 L 2.421875 -13.59375 C 3.066406 -13.707031 3.628906 -13.847656 4.109375 -14.015625 C 4.597656 -14.191406 5.046875 -14.398438 5.453125 -14.640625 L 6.84375 -14.640625 L 6.84375 -1.515625 L 9.78125 -1.515625 L 9.78125 0 Z M 1.75 0 "/></g></g></g><g fill="#000000" fill-opacity="1"><g transform="translate(559.323093, 465.32501)"><g><path d="M 5.546875 0.265625 C 4.148438 0.265625 3.039062 -0.367188 2.21875 -1.640625 C 1.394531 -2.910156 0.984375 -4.816406 0.984375 -7.359375 C 0.984375 -9.898438 1.394531 -11.789062 2.21875 -13.03125 C 3.039062 -14.28125 4.148438 -14.90625 5.546875 -14.90625 C 6.929688 -14.90625 8.035156 -14.28125 8.859375 -13.03125 C 9.679688 -11.789062 10.09375 -9.898438 10.09375 -7.359375 C 10.09375 -4.816406 9.679688 -2.910156 8.859375 -1.640625 C 8.035156 -0.367188 6.929688 0.265625 5.546875 0.265625 Z M 5.546875 -1.203125 C 6.367188 -1.203125 7.035156 -1.6875 7.546875 -2.65625 C 8.066406 -3.632812 8.328125 -5.203125 8.328125 -7.359375 C 8.328125 -9.503906 8.066406 -11.054688 7.546875 -12.015625 C 7.035156 -12.972656 6.367188 -13.453125 5.546875 -13.453125 C 4.710938 -13.453125 4.035156 -12.972656 3.515625 -12.015625 C 3.003906 -11.054688 2.75 -9.503906 2.75 -7.359375 C 2.75 -5.203125 3.003906 -3.632812 3.515625 -2.65625 C 4.035156 -1.6875 4.710938 -1.203125 5.546875 -1.203125 Z M 5.546875 -1.203125 "/></g></g></g><g fill="#000000" fill-opacity="1"><g transform="translate(570.393866, 465.32501)"><g><path d="M 5.546875 0.265625 C 4.148438 0.265625 3.039062 -0.367188 2.21875 -1.640625 C 1.394531 -2.910156 0.984375 -4.816406 0.984375 -7.359375 C 0.984375 -9.898438 1.394531 -11.789062 2.21875 -13.03125 C 3.039062 -14.28125 4.148438 -14.90625 5.546875 -14.90625 C 6.929688 -14.90625 8.035156 -14.28125 8.859375 -13.03125 C 9.679688 -11.789062 10.09375 -9.898438 10.09375 -7.359375 C 10.09375 -4.816406 9.679688 -2.910156 8.859375 -1.640625 C 8.035156 -0.367188 6.929688 0.265625 5.546875 0.265625 Z M 5.546875 -1.203125 C 6.367188 -1.203125 7.035156 -1.6875 7.546875 -2.65625 C 8.066406 -3.632812 8.328125 -5.203125 8.328125 -7.359375 C 8.328125 -9.503906 8.066406 -11.054688 7.546875 -12.015625 C 7.035156 -12.972656 6.367188 -13.453125 5.546875 -13.453125 C 4.710938 -13.453125 4.035156 -12.972656 3.515625 -12.015625 C 3.003906 -11.054688 2.75 -9.503906 2.75 -7.359375 C 2.75 -5.203125 3.003906 -3.632812 3.515625 -2.65625 C 4.035156 -1.6875 4.710938 -1.203125 5.546875 -1.203125 Z M 5.546875 -1.203125 "/></g></g></g><g fill="#000000" fill-opacity="1"><g transform="translate(581.464638, 465.32501)"><g><path d="M 17.0625 -15.125 L 17.0625 -13.703125 L 3.015625 -13.703125 L 3.015625 -15.125 Z M 14.0625 -0.234375 L 16.640625 -0.234375 C 16.910156 -0.234375 17.109375 -0.320312 17.234375 -0.5 C 17.367188 -0.675781 17.46875 -1.019531 17.53125 -1.53125 C 17.59375 -2.039062 17.632812 -2.800781 17.65625 -3.8125 C 17.832031 -3.675781 18.054688 -3.546875 18.328125 -3.421875 C 18.597656 -3.304688 18.832031 -3.21875 19.03125 -3.15625 C 18.976562 -2.019531 18.878906 -1.140625 18.734375 -0.515625 C 18.597656 0.109375 18.378906 0.546875 18.078125 0.796875 C 17.773438 1.046875 17.328125 1.171875 16.734375 1.171875 L 13.890625 1.171875 C 12.992188 1.171875 12.390625 1.015625 12.078125 0.703125 C 11.773438 0.390625 11.625 -0.1875 11.625 -1.03125 L 11.625 -8.140625 L 7.90625 -8.140625 C 7.8125 -7.078125 7.660156 -6.0625 7.453125 -5.09375 C 7.242188 -4.132812 6.929688 -3.242188 6.515625 -2.421875 C 6.097656 -1.609375 5.519531 -0.867188 4.78125 -0.203125 C 4.050781 0.453125 3.113281 1.007812 1.96875 1.46875 C 1.875 1.289062 1.738281 1.085938 1.5625 0.859375 C 1.382812 0.628906 1.207031 0.445312 1.03125 0.3125 C 2.101562 -0.0820312 2.96875 -0.570312 3.625 -1.15625 C 4.28125 -1.738281 4.789062 -2.390625 5.15625 -3.109375 C 5.519531 -3.835938 5.785156 -4.625 5.953125 -5.46875 C 6.117188 -6.320312 6.242188 -7.210938 6.328125 -8.140625 L 1.28125 -8.140625 L 1.28125 -9.578125 L 18.734375 -9.578125 L 18.734375 -8.140625 L 13.125 -8.140625 L 13.125 -1.0625 C 13.125 -0.726562 13.179688 -0.503906 13.296875 -0.390625 C 13.421875 -0.285156 13.675781 -0.234375 14.0625 -0.234375 Z M 14.0625 -0.234375 "/></g></g></g><g clip-path="url(#36937d6b30)"><path fill="#000000" d="M 399.109375 88.871094 L 399.109375 156.746094 M 624.890625 88.871094 L 624.890625 156.746094 M 398.1875 87.949219 L 625.8125 87.949219 M 398.1875 157.667969 L 625.8125 157.667969 M 399.109375 162.039062 L 399.109375 222.824219 M 510.273438 162.039062 L 510.273438 222.824219 M 398.1875 161.117188 L 511.195312 161.117188 M 398.1875 223.742188 L 511.195312 223.742188 M 513.726562 162.039062 L 513.726562 222.824219 M 624.890625 162.039062 L 624.890625 222.824219 M 512.804688 161.117188 L 625.8125 161.117188 M 512.804688 223.742188 L 625.8125 223.742188 M 399.109375 228.113281 L 399.109375 288.898438 M 510.273438 228.113281 L 510.273438 288.898438 M 398.1875 227.191406 L 511.195312 227.191406 M 398.1875 289.820312 L 511.195312 289.820312 M 513.726562 228.113281 L 513.726562 288.898438 M 624.890625 228.113281 L 624.890625 288.898438 M 512.804688 227.191406 L 625.8125 227.191406 M 512.804688 289.820312 L 625.8125 289.820312 M 399.109375 294.191406 L 399.109375 354.976562 M 510.273438 294.191406 L 510.273438 354.976562 M 398.1875 293.269531 L 511.195312 293.269531 M 398.1875 355.898438 L 511.195312 355.898438 M 513.726562 294.191406 L 513.726562 354.976562 M 624.890625 294.191406 L 624.890625 354.976562 M 512.804688 293.269531 L 625.8125 293.269531 M 512.804688 355.898438 L 625.8125 355.898438 M 399.109375 360.265625 L 399.109375 421.054688 M 510.273438 360.265625 L 510.273438 421.054688 M 398.1875 359.347656 L 511.195312 359.347656 M 398.1875 421.972656 L 511.195312 421.972656 M 513.726562 360.265625 L 513.726562 421.054688 M 624.890625 360.265625 L 624.890625 421.054688 M 512.804688 359.347656 L 625.8125 359.347656 M 512.804688 421.972656 L 625.8125 421.972656 M 399.109375 426.34375 L 399.109375 487.128906 M 510.273438 426.34375 L 510.273438 487.128906 M 398.1875 425.421875 L 511.195312 425.421875 M 398.1875 488.050781 L 511.195312 488.050781 M 513.726562 426.34375 L 513.726562 487.128906 M 624.890625 426.34375 L 624.890625 487.128906 M 512.804688 425.421875 L 625.8125 425.421875 M 512.804688 488.050781 L 625.8125 488.050781 " fill-opacity="1" fill-rule="nonzero"/></g><g clip-path="url(#2afb9be2f0)"><path stroke-linecap="butt" transform="matrix(0.749634, 0, 0, 0.749634, 398.187809, 87.028725)" fill="none" stroke-linejoin="miter" d="M 1.229354 2.457691 L 1.229354 93.001863 M 302.417955 2.457691 L 302.417955 93.001863 M -0.000412266 1.227925 L 303.647721 1.227925 M -0.000412266 94.231629 L 303.647721 94.231629 M 1.229354 100.062599 L 1.229354 181.149032 M 149.520448 100.062599 L 149.520448 181.149032 M -0.000412266 98.832832 L 150.750214 98.832832 M -0.000412266 182.373588 L 150.750214 182.373588 M 154.126862 100.062599 L 154.126862 181.149032 M 302.417955 100.062599 L 302.417955 181.149032 M 152.897095 98.832832 L 303.647721 98.832832 M 152.897095 182.373588 L 303.647721 182.373588 M 1.229354 188.204557 L 1.229354 269.29099 M 149.520448 188.204557 L 149.520448 269.29099 M -0.000412266 186.974791 L 150.750214 186.974791 M -0.000412266 270.520756 L 150.750214 270.520756 M 154.126862 188.204557 L 154.126862 269.29099 M 302.417955 188.204557 L 302.417955 269.29099 M 152.897095 186.974791 L 303.647721 186.974791 M 152.897095 270.520756 L 303.647721 270.520756 M 1.229354 276.351726 L 1.229354 357.438159 M 149.520448 276.351726 L 149.520448 357.438159 M -0.000412266 275.12196 L 150.750214 275.12196 M -0.000412266 358.667925 L 150.750214 358.667925 M 154.126862 276.351726 L 154.126862 357.438159 M 302.417955 276.351726 L 302.417955 357.438159 M 152.897095 275.12196 L 303.647721 275.12196 M 152.897095 358.667925 L 303.647721 358.667925 M 1.229354 364.493684 L 1.229354 445.585328 M 149.520448 364.493684 L 149.520448 445.585328 M -0.000412266 363.269128 L 150.750214 363.269128 M -0.000412266 446.809884 L 150.750214 446.809884 M 154.126862 364.493684 L 154.126862 445.585328 M 302.417955 364.493684 L 302.417955 445.585328 M 152.897095 363.269128 L 303.647721 363.269128 M 152.897095 446.809884 L 303.647721 446.809884 M 1.229354 452.640853 L 1.229354 533.727286 M 149.520448 452.640853 L 149.520448 533.727286 M -0.000412266 451.411087 L 150.750214 451.411087 M -0.000412266 534.957052 L 150.750214 534.957052 M 154.126862 452.640853 L 154.126862 533.727286 M 302.417955 452.640853 L 302.417955 533.727286 M 152.897095 451.411087 L 303.647721 451.411087 M 152.897095 534.957052 L 303.647721 534.957052 " stroke="#000000" stroke-width="2.456483" stroke-opacity="1" stroke-miterlimit="4"/></g></svg>