<svg xmlns="http://www.w3.org/2000/svg" xmlns:xlink="http://www.w3.org/1999/xlink" width="1366" zoomAndPan="magnify" viewBox="0 0 1024.5 576" height="768" preserveAspectRatio="xMidYMid meet" version="1.0"><metadata><ContainsAiGeneratedContent>Yes</ContainsAiGeneratedContent></metadata><defs><g/><clipPath id="7ac6e34515"><path d="M 398.1875 87.027344 L 626 87.027344 L 626 159 L 398.1875 159 Z M 398.1875 87.027344 " clip-rule="nonzero"/></clipPath><clipPath id="5b2eef683b"><path d="M 398.1875 87.027344 L 626 87.027344 L 626 489 L 398.1875 489 Z M 398.1875 87.027344 " clip-rule="nonzero"/></clipPath><clipPath id="5436853d9d"><path d="M 398.1875 87.027344 L 626.078125 87.027344 L 626.078125 489 L 398.1875 489 Z M 398.1875 87.027344 " clip-rule="nonzero"/></clipPath></defs><g clip-path="url(#7ac6e34515)"><path fill="#623e2a" d="M 398.1875 87.027344 L 398.1875 158.585938 L 625.8125 158.585938 L 625.8125 87.027344 Z M 398.1875 87.027344 " fill-opacity="1" fill-rule="nonzero"/></g><g fill="#ffffff" fill-opacity="1"><g transform="translate(423.631034, 131.599393)"><g><path d="M 18.53125 -6.25 L 19.90625 -5.34375 C 19.21875 -4.84375 18.445312 -4.332031 17.59375 -3.8125 C 16.75 -3.300781 15.929688 -2.847656 15.140625 -2.453125 C 16.816406 -1.242188 18.898438 -0.40625 21.390625 0.0625 C 21.222656 0.257812 21.039062 0.492188 20.84375 0.765625 C 20.644531 1.046875 20.488281 1.300781 20.375 1.53125 C 17.851562 0.96875 15.726562 0.0195312 14 -1.3125 C 12.28125 -2.644531 10.941406 -4.347656 9.984375 -6.421875 L 6.453125 -6.421875 L 6.453125 -0.515625 L 12.421875 -1.9375 C 12.398438 -1.738281 12.378906 -1.492188 12.359375 -1.203125 C 12.347656 -0.910156 12.351562 -0.679688 12.375 -0.515625 C 10.820312 -0.109375 9.5625 0.21875 8.59375 0.46875 C 7.632812 0.71875 6.882812 0.914062 6.34375 1.0625 C 5.8125 1.207031 5.421875 1.320312 5.171875 1.40625 C 4.921875 1.488281 4.726562 1.566406 4.59375 1.640625 L 4.5 1.703125 C 4.445312 1.492188 4.347656 1.222656 4.203125 0.890625 C 4.054688 0.554688 3.90625 0.289062 3.75 0.09375 C 3.976562 -0.03125 4.21875 -0.210938 4.46875 -0.453125 C 4.71875 -0.691406 4.84375 -1.035156 4.84375 -1.484375 L 4.84375 -6.421875 L 1.265625 -6.421875 L 1.265625 -7.90625 L 5.125 -7.90625 L 5.125 -17.609375 L 18.71875 -17.609375 L 18.71875 -16.21875 L 6.78125 -16.21875 L 6.78125 -14.3125 L 18.046875 -14.3125 L 18.046875 -12.96875 L 6.78125 -12.96875 L 6.78125 -11.140625 L 18.046875 -11.140625 L 18.046875 -9.8125 L 6.78125 -9.8125 L 6.78125 -7.90625 L 20.859375 -7.90625 L 20.859375 -6.421875 L 11.640625 -6.421875 C 11.953125 -5.835938 12.300781 -5.285156 12.6875 -4.765625 C 13.082031 -4.253906 13.519531 -3.78125 14 -3.34375 C 14.78125 -3.769531 15.59375 -4.242188 16.4375 -4.765625 C 17.28125 -5.296875 17.976562 -5.789062 18.53125 -6.25 Z M 18.53125 -6.25 "/></g></g></g><g fill="#ffffff" fill-opacity="1"><g transform="translate(445.721838, 131.599393)"><g><path d="M 6.984375 -16.0625 L 3.671875 -16.0625 L 3.671875 -12.21875 L 6.984375 -12.21875 Z M 3.671875 -6.453125 L 6.984375 -6.453125 L 6.984375 -10.765625 L 3.671875 -10.765625 Z M 3.671875 -4.96875 L 3.671875 -3.84375 L 2.125 -3.84375 L 2.125 -17.546875 L 8.5 -17.546875 L 8.5 -4.96875 Z M 2.578125 1.8125 L 1.015625 1.109375 C 1.515625 0.546875 2.03125 -0.144531 2.5625 -0.96875 C 3.09375 -1.789062 3.539062 -2.609375 3.90625 -3.421875 L 5.453125 -2.984375 C 5.085938 -2.171875 4.644531 -1.328125 4.125 -0.453125 C 3.613281 0.421875 3.097656 1.175781 2.578125 1.8125 Z M 7.53125 -2.78125 L 9.0625 -2.953125 C 9.207031 -2.253906 9.332031 -1.492188 9.4375 -0.671875 C 9.539062 0.140625 9.597656 0.820312 9.609375 1.375 L 8 1.609375 C 8 1.046875 7.957031 0.351562 7.875 -0.46875 C 7.789062 -1.289062 7.675781 -2.0625 7.53125 -2.78125 Z M 18.6875 -16.109375 L 14.765625 -16.109375 C 14.597656 -15.222656 14.328125 -14.429688 13.953125 -13.734375 C 13.585938 -13.035156 13.066406 -12.429688 12.390625 -11.921875 C 11.710938 -11.410156 10.804688 -10.988281 9.671875 -10.65625 C 9.597656 -10.832031 9.472656 -11.046875 9.296875 -11.296875 C 9.117188 -11.546875 8.953125 -11.742188 8.796875 -11.890625 C 9.753906 -12.148438 10.519531 -12.472656 11.09375 -12.859375 C 11.675781 -13.253906 12.125 -13.722656 12.4375 -14.265625 C 12.757812 -14.816406 12.992188 -15.429688 13.140625 -16.109375 L 9.484375 -16.109375 L 9.484375 -17.5625 L 20.328125 -17.5625 C 20.328125 -17.5625 20.320312 -17.484375 20.3125 -17.328125 C 20.300781 -17.171875 20.289062 -17.035156 20.28125 -16.921875 C 20.175781 -15.328125 20.066406 -14.160156 19.953125 -13.421875 C 19.835938 -12.679688 19.648438 -12.1875 19.390625 -11.9375 C 19.097656 -11.601562 18.671875 -11.429688 18.109375 -11.421875 C 17.859375 -11.410156 17.507812 -11.40625 17.0625 -11.40625 C 16.613281 -11.40625 16.140625 -11.414062 15.640625 -11.4375 C 15.628906 -11.644531 15.582031 -11.875 15.5 -12.125 C 15.414062 -12.375 15.316406 -12.597656 15.203125 -12.796875 C 15.679688 -12.742188 16.128906 -12.710938 16.546875 -12.703125 C 16.960938 -12.691406 17.25 -12.6875 17.40625 -12.6875 C 17.75 -12.6875 17.976562 -12.75 18.09375 -12.875 C 18.226562 -13.03125 18.34375 -13.347656 18.4375 -13.828125 C 18.53125 -14.316406 18.613281 -15.078125 18.6875 -16.109375 Z M 18.09375 -5.640625 L 18.09375 -8.984375 L 11.671875 -8.984375 L 11.671875 -5.640625 Z M 19.703125 -10.34375 L 19.703125 -4.265625 L 10.125 -4.265625 L 10.125 -10.34375 Z M 12.234375 -2.84375 L 13.765625 -3.15625 C 14.054688 -2.46875 14.34375 -1.710938 14.625 -0.890625 C 14.90625 -0.078125 15.097656 0.613281 15.203125 1.1875 L 13.59375 1.5625 C 13.519531 1.1875 13.410156 0.742188 13.265625 0.234375 C 13.128906 -0.273438 12.972656 -0.800781 12.796875 -1.34375 C 12.617188 -1.894531 12.429688 -2.394531 12.234375 -2.84375 Z M 16.71875 -2.984375 L 18.1875 -3.59375 C 18.539062 -3.125 18.898438 -2.609375 19.265625 -2.046875 C 19.628906 -1.492188 19.96875 -0.945312 20.28125 -0.40625 C 20.601562 0.125 20.863281 0.597656 21.0625 1.015625 L 19.484375 1.71875 C 19.328125 1.3125 19.097656 0.832031 18.796875 0.28125 C 18.492188 -0.257812 18.160156 -0.816406 17.796875 -1.390625 C 17.429688 -1.960938 17.070312 -2.492188 16.71875 -2.984375 Z M 16.71875 -2.984375 "/></g></g></g><g fill="#ffffff" fill-opacity="1"><g transform="translate(467.812641, 131.599393)"><g><path d="M 1.0625 -9.5 L 21.125 -9.5 L 21.125 -7.703125 L 1.0625 -7.703125 Z M 1.0625 -9.5 "/></g></g></g><g fill="#ffffff" fill-opacity="1"><g transform="translate(489.903445, 131.599393)"><g><path d="M 13.71875 -16.109375 L 13.71875 -14.875 C 13.71875 -14.34375 13.664062 -13.785156 13.5625 -13.203125 C 13.457031 -12.617188 13.265625 -12.046875 12.984375 -11.484375 C 12.710938 -10.929688 12.300781 -10.429688 11.75 -9.984375 C 11.644531 -10.128906 11.460938 -10.3125 11.203125 -10.53125 C 10.953125 -10.757812 10.742188 -10.925781 10.578125 -11.03125 C 11.285156 -11.613281 11.734375 -12.25 11.921875 -12.9375 C 12.109375 -13.625 12.203125 -14.28125 12.203125 -14.90625 L 12.203125 -17.546875 L 18.671875 -17.546875 L 18.671875 -12.84375 C 18.671875 -12.5625 18.6875 -12.363281 18.71875 -12.25 C 18.757812 -12.132812 18.851562 -12.078125 19 -12.078125 L 20.1875 -12.078125 C 20.3125 -12.078125 20.46875 -12.085938 20.65625 -12.109375 C 20.84375 -12.140625 21 -12.171875 21.125 -12.203125 C 21.132812 -12.003906 21.148438 -11.773438 21.171875 -11.515625 C 21.191406 -11.265625 21.21875 -11.050781 21.25 -10.875 C 21.125 -10.8125 20.960938 -10.773438 20.765625 -10.765625 C 20.578125 -10.765625 20.394531 -10.765625 20.21875 -10.765625 L 18.84375 -10.765625 C 18.132812 -10.765625 17.671875 -10.925781 17.453125 -11.25 C 17.242188 -11.570312 17.140625 -12.109375 17.140625 -12.859375 L 17.140625 -16.109375 Z M 4.90625 -13.140625 L 5.9375 -13.625 C 6.25 -13.1875 6.554688 -12.695312 6.859375 -12.15625 C 7.160156 -11.625 7.382812 -11.164062 7.53125 -10.78125 L 6.40625 -10.203125 C 6.269531 -10.597656 6.054688 -11.070312 5.765625 -11.625 C 5.472656 -12.175781 5.1875 -12.679688 4.90625 -13.140625 Z M 4.171875 -9.75 L 4.171875 -8.875 C 4.816406 -8.9375 5.5 -8.992188 6.21875 -9.046875 C 6.9375 -9.109375 7.660156 -9.171875 8.390625 -9.234375 L 8.390625 -14.984375 L 4.171875 -14.984375 Z M 9.890625 -16.328125 L 9.890625 -9.390625 L 10.453125 -9.4375 L 10.453125 -8.09375 L 9.890625 -8.015625 L 9.890625 -0.390625 C 9.890625 0.0546875 9.832031 0.398438 9.71875 0.640625 C 9.613281 0.890625 9.414062 1.082031 9.125 1.21875 C 8.832031 1.34375 8.429688 1.421875 7.921875 1.453125 C 7.410156 1.484375 6.800781 1.5 6.09375 1.5 C 6.0625 1.289062 6 1.039062 5.90625 0.75 C 5.8125 0.457031 5.707031 0.207031 5.59375 0 C 6.125 0.0078125 6.617188 0.015625 7.078125 0.015625 C 7.546875 0.015625 7.851562 0.015625 8 0.015625 C 8.15625 0.00390625 8.257812 -0.0234375 8.3125 -0.078125 C 8.363281 -0.140625 8.390625 -0.242188 8.390625 -0.390625 L 8.390625 -7.859375 L 4.125 -7.421875 C 4.082031 -6.421875 4 -5.375 3.875 -4.28125 C 3.75 -3.195312 3.554688 -2.132812 3.296875 -1.09375 C 3.046875 -0.0507812 2.695312 0.898438 2.25 1.765625 C 2.132812 1.617188 1.941406 1.453125 1.671875 1.265625 C 1.398438 1.085938 1.179688 0.96875 1.015625 0.90625 C 1.609375 -0.269531 2.015625 -1.582031 2.234375 -3.03125 C 2.460938 -4.488281 2.609375 -5.898438 2.671875 -7.265625 L 1.1875 -7.109375 L 1.03125 -8.640625 L 2.71875 -8.75 L 2.71875 -16.328125 L 5 -16.328125 C 5.144531 -16.660156 5.28125 -17.035156 5.40625 -17.453125 C 5.53125 -17.867188 5.628906 -18.226562 5.703125 -18.53125 L 7.3125 -18.296875 C 7.175781 -17.953125 7.035156 -17.609375 6.890625 -17.265625 C 6.753906 -16.929688 6.625 -16.617188 6.5 -16.328125 Z M 7.625 -3.375 L 6.5 -2.8125 C 6.351562 -3.238281 6.128906 -3.753906 5.828125 -4.359375 C 5.535156 -4.972656 5.242188 -5.53125 4.953125 -6.03125 L 6.046875 -6.515625 C 6.359375 -6.015625 6.660156 -5.472656 6.953125 -4.890625 C 7.253906 -4.304688 7.476562 -3.800781 7.625 -3.375 Z M 18.5 -7.640625 L 13.109375 -7.640625 C 13.691406 -5.859375 14.617188 -4.304688 15.890625 -2.984375 C 16.460938 -3.597656 16.96875 -4.289062 17.40625 -5.0625 C 17.851562 -5.84375 18.21875 -6.703125 18.5 -7.640625 Z M 19.390625 -9.171875 L 20.34375 -8.765625 C 20.019531 -7.328125 19.570312 -6.046875 19 -4.921875 C 18.4375 -3.804688 17.773438 -2.828125 17.015625 -1.984375 C 18.171875 -1.078125 19.546875 -0.382812 21.140625 0.09375 C 20.953125 0.238281 20.753906 0.445312 20.546875 0.71875 C 20.335938 0.988281 20.175781 1.234375 20.0625 1.453125 C 18.4375 0.898438 17.03125 0.128906 15.84375 -0.859375 C 15.195312 -0.316406 14.503906 0.144531 13.765625 0.53125 C 13.023438 0.925781 12.242188 1.269531 11.421875 1.5625 C 11.316406 1.375 11.171875 1.144531 10.984375 0.875 C 10.804688 0.613281 10.632812 0.414062 10.46875 0.28125 C 11.269531 0.0195312 12.023438 -0.285156 12.734375 -0.640625 C 13.453125 -1.003906 14.117188 -1.429688 14.734375 -1.921875 C 14.046875 -2.671875 13.4375 -3.515625 12.90625 -4.453125 C 12.375 -5.390625 11.925781 -6.394531 11.5625 -7.46875 L 12.15625 -7.640625 L 11.203125 -7.640625 L 11.203125 -9.125 L 19.109375 -9.125 Z M 19.390625 -9.171875 "/></g></g></g><g fill="#ffffff" fill-opacity="1"><g transform="translate(511.994249, 131.599393)"><g><path d="M 5.5 -6.84375 L 16.8125 -6.84375 L 16.8125 -11.25 L 5.609375 -11.25 L 5.609375 -9.453125 C 5.609375 -9.046875 5.597656 -8.628906 5.578125 -8.203125 C 5.566406 -7.773438 5.539062 -7.320312 5.5 -6.84375 Z M 5.609375 -12.765625 L 18.453125 -12.765625 L 18.453125 -4.125 L 16.8125 -4.125 L 16.8125 -5.296875 L 5.328125 -5.296875 C 5.128906 -4.046875 4.785156 -2.796875 4.296875 -1.546875 C 3.816406 -0.304688 3.097656 0.789062 2.140625 1.75 C 2.003906 1.582031 1.804688 1.378906 1.546875 1.140625 C 1.296875 0.910156 1.078125 0.742188 0.890625 0.640625 C 1.585938 -0.0664062 2.144531 -0.84375 2.5625 -1.6875 C 2.976562 -2.53125 3.285156 -3.398438 3.484375 -4.296875 C 3.679688 -5.191406 3.8125 -6.078125 3.875 -6.953125 C 3.945312 -7.835938 3.984375 -8.671875 3.984375 -9.453125 L 3.984375 -16.15625 C 5.085938 -16.269531 6.21875 -16.410156 7.375 -16.578125 C 8.539062 -16.742188 9.679688 -16.921875 10.796875 -17.109375 C 11.921875 -17.304688 12.960938 -17.515625 13.921875 -17.734375 C 14.890625 -17.960938 15.726562 -18.191406 16.4375 -18.421875 L 17.78125 -17.1875 C 16.71875 -16.863281 15.515625 -16.566406 14.171875 -16.296875 C 12.828125 -16.023438 11.421875 -15.773438 9.953125 -15.546875 C 8.484375 -15.316406 7.035156 -15.113281 5.609375 -14.9375 Z M 5.609375 -12.765625 "/></g></g></g><g fill="#ffffff" fill-opacity="1"><g transform="translate(534.085052, 131.599393)"><g><path d="M 5.296875 -1.0625 L 17.078125 -1.0625 L 17.078125 -4.328125 L 5.296875 -4.328125 Z M 17.078125 -9.078125 L 5.296875 -9.078125 L 5.296875 -5.875 L 17.078125 -5.875 Z M 17.078125 -13.921875 L 5.296875 -13.921875 L 5.296875 -10.625 L 17.078125 -10.625 Z M 10.84375 -15.484375 L 18.78125 -15.484375 L 18.78125 1.609375 L 17.078125 1.609375 L 17.078125 0.484375 L 5.296875 0.484375 L 5.296875 1.71875 L 3.671875 1.71875 L 3.671875 -15.484375 L 9.21875 -15.484375 C 9.375 -15.972656 9.53125 -16.492188 9.6875 -17.046875 C 9.851562 -17.597656 9.984375 -18.085938 10.078125 -18.515625 L 11.953125 -18.265625 C 11.785156 -17.796875 11.609375 -17.320312 11.421875 -16.84375 C 11.234375 -16.363281 11.039062 -15.910156 10.84375 -15.484375 Z M 10.84375 -15.484375 "/></g></g></g><g fill="#ffffff" fill-opacity="1"><g transform="translate(556.175856, 131.599393)"><g><path d="M 6.546875 -18.34375 L 8.15625 -17.828125 C 7.832031 -17.003906 7.472656 -16.1875 7.078125 -15.375 C 6.691406 -14.5625 6.269531 -13.773438 5.8125 -13.015625 L 5.8125 1.640625 L 4.171875 1.640625 L 4.171875 -10.46875 C 3.816406 -9.96875 3.453125 -9.492188 3.078125 -9.046875 C 2.703125 -8.597656 2.320312 -8.179688 1.9375 -7.796875 C 1.84375 -7.992188 1.691406 -8.265625 1.484375 -8.609375 C 1.273438 -8.953125 1.085938 -9.21875 0.921875 -9.40625 C 1.679688 -10.132812 2.410156 -10.972656 3.109375 -11.921875 C 3.804688 -12.867188 4.445312 -13.890625 5.03125 -14.984375 C 5.625 -16.085938 6.128906 -17.207031 6.546875 -18.34375 Z M 21.015625 -13.59375 L 21.015625 -11.953125 L 18.203125 -11.953125 L 18.203125 -0.546875 C 18.203125 0.0664062 18.109375 0.519531 17.921875 0.8125 C 17.742188 1.113281 17.445312 1.320312 17.03125 1.4375 C 16.601562 1.570312 16.003906 1.648438 15.234375 1.671875 C 14.472656 1.703125 13.5 1.710938 12.3125 1.703125 C 12.257812 1.492188 12.164062 1.226562 12.03125 0.90625 C 11.90625 0.582031 11.785156 0.3125 11.671875 0.09375 C 12.285156 0.101562 12.878906 0.113281 13.453125 0.125 C 14.023438 0.144531 14.523438 0.148438 14.953125 0.140625 C 15.378906 0.128906 15.679688 0.125 15.859375 0.125 C 16.109375 0.101562 16.285156 0.0507812 16.390625 -0.03125 C 16.492188 -0.125 16.546875 -0.296875 16.546875 -0.546875 L 16.546875 -11.953125 L 7.640625 -11.953125 L 7.640625 -13.59375 L 16.546875 -13.59375 L 16.546875 -18.234375 L 18.203125 -18.234375 L 18.203125 -13.59375 Z M 13.765625 -4.28125 L 12.234375 -3.46875 C 12.015625 -3.925781 11.722656 -4.46875 11.359375 -5.09375 C 11.003906 -5.726562 10.625 -6.382812 10.21875 -7.0625 C 9.8125 -7.75 9.414062 -8.382812 9.03125 -8.96875 L 10.453125 -9.640625 C 10.835938 -9.078125 11.238281 -8.460938 11.65625 -7.796875 C 12.070312 -7.140625 12.46875 -6.503906 12.84375 -5.890625 C 13.21875 -5.273438 13.523438 -4.738281 13.765625 -4.28125 Z M 13.765625 -4.28125 "/></g></g></g><g fill="#ffffff" fill-opacity="1"><g transform="translate(578.266659, 131.599393)"><g><path d="M 18.734375 -10.453125 L 18.734375 -12.484375 L 13.5625 -12.484375 L 13.5625 -10.453125 Z M 18.734375 -7.109375 L 18.734375 -9.171875 L 13.5625 -9.171875 L 13.5625 -7.109375 Z M 18.734375 -3.75 L 18.734375 -5.859375 L 13.5625 -5.859375 L 13.5625 -3.75 Z M 12.0625 -13.828125 L 14.953125 -13.828125 C 15.023438 -14.171875 15.097656 -14.53125 15.171875 -14.90625 C 15.242188 -15.289062 15.3125 -15.660156 15.375 -16.015625 L 11.40625 -16.015625 L 11.40625 -17.4375 L 21.015625 -17.4375 L 21.015625 -16.015625 L 16.921875 -16.015625 C 16.816406 -15.648438 16.710938 -15.28125 16.609375 -14.90625 C 16.503906 -14.53125 16.40625 -14.171875 16.3125 -13.828125 L 20.296875 -13.828125 L 20.296875 -2.4375 L 12.0625 -2.4375 Z M 2.71875 -15 L 2.71875 -12.65625 L 1.453125 -12.65625 L 1.453125 -16.375 L 5.453125 -16.375 C 5.347656 -16.65625 5.238281 -16.929688 5.125 -17.203125 C 5.019531 -17.484375 4.910156 -17.75 4.796875 -18 L 6.078125 -18.46875 C 6.234375 -18.144531 6.398438 -17.789062 6.578125 -17.40625 C 6.753906 -17.019531 6.90625 -16.675781 7.03125 -16.375 L 10.6875 -16.375 L 10.6875 -12.65625 L 9.390625 -12.65625 L 9.390625 -15 Z M 3.265625 -5.109375 L 9.59375 -5.109375 C 9.175781 -5.398438 8.679688 -5.738281 8.109375 -6.125 C 7.546875 -6.519531 6.957031 -6.914062 6.34375 -7.3125 C 5.882812 -6.875 5.390625 -6.46875 4.859375 -6.09375 C 4.328125 -5.726562 3.796875 -5.398438 3.265625 -5.109375 Z M 4.203125 -0.421875 L 8.15625 -0.421875 L 8.15625 -3.75 L 4.203125 -3.75 Z M 10.734375 -6.140625 L 9.765625 -4.953125 L 9.609375 -5.0625 L 9.609375 1.5625 L 8.15625 1.5625 L 8.15625 0.921875 L 4.203125 0.921875 L 4.203125 1.609375 L 2.78125 1.609375 L 2.78125 -4.859375 C 2.59375 -4.753906 2.40625 -4.65625 2.21875 -4.5625 C 2.03125 -4.46875 1.835938 -4.382812 1.640625 -4.3125 C 1.566406 -4.519531 1.441406 -4.757812 1.265625 -5.03125 C 1.097656 -5.3125 0.941406 -5.523438 0.796875 -5.671875 C 1.546875 -5.953125 2.285156 -6.296875 3.015625 -6.703125 C 3.742188 -7.109375 4.425781 -7.578125 5.0625 -8.109375 C 4.78125 -8.285156 4.5 -8.460938 4.21875 -8.640625 C 3.9375 -8.816406 3.671875 -8.976562 3.421875 -9.125 L 4.375 -10.09375 C 4.632812 -9.945312 4.910156 -9.789062 5.203125 -9.625 C 5.503906 -9.457031 5.8125 -9.273438 6.125 -9.078125 C 6.457031 -9.453125 6.765625 -9.835938 7.046875 -10.234375 C 7.335938 -10.628906 7.597656 -11.039062 7.828125 -11.46875 L 4.65625 -11.46875 C 4.332031 -10.96875 3.960938 -10.488281 3.546875 -10.03125 C 3.140625 -9.570312 2.679688 -9.144531 2.171875 -8.75 C 2.066406 -8.90625 1.925781 -9.101562 1.75 -9.34375 C 1.582031 -9.582031 1.421875 -9.753906 1.265625 -9.859375 C 2.128906 -10.460938 2.832031 -11.160156 3.375 -11.953125 C 3.925781 -12.742188 4.332031 -13.515625 4.59375 -14.265625 L 5.90625 -14.03125 C 5.75 -13.613281 5.570312 -13.1875 5.375 -12.75 L 8.59375 -12.75 L 8.84375 -12.8125 L 9.671875 -12.21875 C 9.390625 -11.476562 9.046875 -10.785156 8.640625 -10.140625 C 8.242188 -9.503906 7.804688 -8.90625 7.328125 -8.34375 C 7.984375 -7.945312 8.613281 -7.550781 9.21875 -7.15625 C 9.820312 -6.769531 10.328125 -6.429688 10.734375 -6.140625 Z M 14.421875 -2.078125 L 15.546875 -1.0625 C 14.898438 -0.539062 14.15625 -0.0195312 13.3125 0.5 C 12.46875 1.019531 11.691406 1.457031 10.984375 1.8125 C 10.890625 1.632812 10.769531 1.425781 10.625 1.1875 C 10.476562 0.957031 10.335938 0.757812 10.203125 0.59375 C 10.679688 0.375 11.179688 0.113281 11.703125 -0.1875 C 12.222656 -0.488281 12.722656 -0.804688 13.203125 -1.140625 C 13.691406 -1.472656 14.097656 -1.785156 14.421875 -2.078125 Z M 16.640625 -1.109375 L 17.546875 -2.140625 C 17.953125 -1.890625 18.382812 -1.601562 18.84375 -1.28125 C 19.300781 -0.957031 19.734375 -0.632812 20.140625 -0.3125 C 20.554688 0.0078125 20.898438 0.3125 21.171875 0.59375 L 20.234375 1.765625 C 19.984375 1.503906 19.648438 1.195312 19.234375 0.84375 C 18.828125 0.5 18.394531 0.160156 17.9375 -0.171875 C 17.476562 -0.515625 17.046875 -0.828125 16.640625 -1.109375 Z M 16.640625 -1.109375 "/></g></g></g><g fill="#000000" fill-opacity="1"><g transform="translate(434.73499, 201.018321)"><g><path d="M 2.875 -13.828125 L 17.09375 -13.828125 L 17.09375 -12.25 L 2.875 -12.25 Z M 1.203125 -2.078125 L 18.78125 -2.078125 L 18.78125 -0.453125 L 1.203125 -0.453125 Z M 1.203125 -2.078125 "/></g></g></g><g fill="#000000" fill-opacity="1"><g transform="translate(454.682319, 201.018321)"><g><path d="M 6.890625 -6.890625 L 5.984375 -5.828125 C 5.847656 -6.160156 5.640625 -6.582031 5.359375 -7.09375 C 5.085938 -7.613281 4.816406 -8.125 4.546875 -8.625 L 4.546875 1.515625 L 3.1875 1.515625 L 3.1875 -8.1875 C 2.9375 -7.132812 2.648438 -6.109375 2.328125 -5.109375 C 2.015625 -4.109375 1.6875 -3.265625 1.34375 -2.578125 C 1.257812 -2.796875 1.140625 -3.046875 0.984375 -3.328125 C 0.835938 -3.617188 0.707031 -3.851562 0.59375 -4.03125 C 0.914062 -4.601562 1.226562 -5.3125 1.53125 -6.15625 C 1.84375 -7 2.125 -7.890625 2.375 -8.828125 C 2.625 -9.765625 2.820312 -10.644531 2.96875 -11.46875 L 0.875 -11.46875 L 0.875 -12.875 L 3.1875 -12.875 L 3.1875 -16.703125 L 4.546875 -16.703125 L 4.546875 -12.875 L 6.546875 -12.875 L 6.546875 -11.46875 L 4.546875 -11.46875 L 4.546875 -10.4375 C 4.679688 -10.257812 4.859375 -10 5.078125 -9.65625 C 5.296875 -9.320312 5.523438 -8.96875 5.765625 -8.59375 C 6.015625 -8.226562 6.242188 -7.882812 6.453125 -7.5625 C 6.660156 -7.238281 6.804688 -7.015625 6.890625 -6.890625 Z M 15.203125 -3.359375 L 11.21875 -3.359375 C 11.039062 -3.148438 10.875 -2.953125 10.71875 -2.765625 C 10.570312 -2.585938 10.425781 -2.410156 10.28125 -2.234375 C 10.78125 -2.117188 11.300781 -1.988281 11.84375 -1.84375 C 12.382812 -1.707031 12.921875 -1.554688 13.453125 -1.390625 C 13.847656 -1.660156 14.1875 -1.960938 14.46875 -2.296875 C 14.757812 -2.628906 15.003906 -2.984375 15.203125 -3.359375 Z M 9.03125 -8.21875 L 9.03125 -7 L 12.21875 -7 L 12.21875 -8.21875 Z M 16.796875 -8.21875 L 13.609375 -8.21875 L 13.609375 -7 L 16.796875 -7 Z M 9.421875 -11.234375 L 12.21875 -11.234375 L 12.21875 -12.4375 L 9.421875 -12.4375 Z M 12.21875 -14.421875 L 9.421875 -14.421875 L 9.421875 -13.328125 L 12.21875 -13.328125 Z M 16.359375 -14.421875 L 13.609375 -14.421875 L 13.609375 -13.328125 L 16.359375 -13.328125 Z M 13.609375 -11.234375 L 16.359375 -11.234375 L 16.359375 -12.4375 L 13.609375 -12.4375 Z M 19.09375 -3.359375 L 16.625 -3.359375 C 16.21875 -2.421875 15.628906 -1.613281 14.859375 -0.9375 C 15.609375 -0.695312 16.320312 -0.453125 17 -0.203125 C 17.675781 0.046875 18.273438 0.289062 18.796875 0.53125 L 17.703125 1.46875 C 17.203125 1.21875 16.601562 0.953125 15.90625 0.671875 C 15.207031 0.398438 14.445312 0.132812 13.625 -0.125 C 12.894531 0.257812 12.015625 0.59375 10.984375 0.875 C 9.953125 1.15625 8.722656 1.390625 7.296875 1.578125 C 7.242188 1.421875 7.164062 1.226562 7.0625 1 C 6.957031 0.78125 6.851562 0.609375 6.75 0.484375 C 8.988281 0.222656 10.734375 -0.15625 11.984375 -0.65625 C 11.335938 -0.84375 10.6875 -1.023438 10.03125 -1.203125 C 9.382812 -1.378906 8.753906 -1.535156 8.140625 -1.671875 C 8.367188 -1.910156 8.613281 -2.171875 8.875 -2.453125 C 9.132812 -2.742188 9.390625 -3.046875 9.640625 -3.359375 L 6.96875 -3.359375 L 6.96875 -4.53125 L 10.53125 -4.53125 C 10.914062 -5.050781 11.25 -5.539062 11.53125 -6 L 7.703125 -6 L 7.703125 -9.234375 L 12.21875 -9.234375 L 12.21875 -10.234375 L 8.125 -10.234375 L 8.125 -12.296875 L 6.96875 -12.296875 L 6.96875 -13.453125 L 8.125 -13.453125 L 8.125 -15.421875 L 12.21875 -15.421875 L 12.21875 -16.703125 L 13.609375 -16.703125 L 13.609375 -15.421875 L 17.703125 -15.421875 L 17.703125 -13.453125 L 18.9375 -13.453125 L 18.9375 -12.296875 L 17.703125 -12.296875 L 17.703125 -10.234375 L 13.609375 -10.234375 L 13.609375 -9.234375 L 18.203125 -9.234375 L 18.203125 -6 L 13.0625 -6 C 12.9375 -5.757812 12.789062 -5.515625 12.625 -5.265625 C 12.457031 -5.023438 12.28125 -4.78125 12.09375 -4.53125 L 15.65625 -4.53125 C 15.695312 -4.675781 15.738281 -4.820312 15.78125 -4.96875 C 15.820312 -5.113281 15.851562 -5.253906 15.875 -5.390625 L 17.21875 -5.390625 C 17.1875 -5.253906 17.15625 -5.113281 17.125 -4.96875 C 17.09375 -4.820312 17.066406 -4.675781 17.046875 -4.53125 L 19.09375 -4.53125 Z M 19.09375 -3.359375 "/></g></g></g><g fill="#000000" fill-opacity="1"><g transform="translate(542.721814, 201.018321)"><g><path d="M 5.265625 0.265625 C 4.117188 0.265625 3.171875 0.0625 2.421875 -0.34375 C 1.671875 -0.75 1.054688 -1.210938 0.578125 -1.734375 L 1.5 -2.9375 C 1.925781 -2.476562 2.429688 -2.082031 3.015625 -1.75 C 3.597656 -1.414062 4.300781 -1.25 5.125 -1.25 C 5.988281 -1.25 6.695312 -1.492188 7.25 -1.984375 C 7.8125 -2.472656 8.09375 -3.140625 8.09375 -3.984375 C 8.09375 -4.578125 7.945312 -5.085938 7.65625 -5.515625 C 7.363281 -5.953125 6.890625 -6.289062 6.234375 -6.53125 C 5.578125 -6.78125 4.679688 -6.90625 3.546875 -6.90625 L 3.546875 -8.296875 C 4.554688 -8.296875 5.351562 -8.414062 5.9375 -8.65625 C 6.53125 -8.90625 6.957031 -9.242188 7.21875 -9.671875 C 7.476562 -10.097656 7.609375 -10.570312 7.609375 -11.09375 C 7.609375 -11.800781 7.382812 -12.363281 6.9375 -12.78125 C 6.488281 -13.195312 5.882812 -13.40625 5.125 -13.40625 C 4.539062 -13.40625 3.992188 -13.273438 3.484375 -13.015625 C 2.972656 -12.753906 2.507812 -12.410156 2.09375 -11.984375 L 1.125 -13.15625 C 1.664062 -13.65625 2.269531 -14.070312 2.9375 -14.40625 C 3.601562 -14.738281 4.359375 -14.90625 5.203125 -14.90625 C 6.023438 -14.90625 6.753906 -14.757812 7.390625 -14.46875 C 8.035156 -14.175781 8.539062 -13.753906 8.90625 -13.203125 C 9.269531 -12.660156 9.453125 -12.003906 9.453125 -11.234375 C 9.453125 -10.335938 9.210938 -9.597656 8.734375 -9.015625 C 8.253906 -8.429688 7.628906 -7.992188 6.859375 -7.703125 L 6.859375 -7.625 C 7.722656 -7.425781 8.453125 -7.003906 9.046875 -6.359375 C 9.648438 -5.722656 9.953125 -4.90625 9.953125 -3.90625 C 9.953125 -3.039062 9.742188 -2.296875 9.328125 -1.671875 C 8.910156 -1.046875 8.34375 -0.566406 7.625 -0.234375 C 6.914062 0.0976562 6.128906 0.265625 5.265625 0.265625 Z M 5.265625 0.265625 "/></g></g></g><g fill="#000000" fill-opacity="1"><g transform="translate(553.792586, 201.018321)"><g><path d="M 1.75 0 L 1.75 -1.515625 L 5.015625 -1.515625 L 5.015625 -12.4375 L 2.421875 -12.4375 L 2.421875 -13.59375 C 3.066406 -13.707031 3.628906 -13.847656 4.109375 -14.015625 C 4.597656 -14.191406 5.046875 -14.398438 5.453125 -14.640625 L 6.84375 -14.640625 L 6.84375 -1.515625 L 9.78125 -1.515625 L 9.78125 0 Z M 1.75 0 "/></g></g></g><g fill="#000000" fill-opacity="1"><g transform="translate(564.863358, 201.018321)"><g><path d="M 5.546875 0.265625 C 4.148438 0.265625 3.039062 -0.367188 2.21875 -1.640625 C 1.394531 -2.910156 0.984375 -4.816406 0.984375 -7.359375 C 0.984375 -9.898438 1.394531 -11.789062 2.21875 -13.03125 C 3.039062 -14.28125 4.148438 -14.90625 5.546875 -14.90625 C 6.929688 -14.90625 8.035156 -14.28125 8.859375 -13.03125 C 9.679688 -11.789062 10.09375 -9.898438 10.09375 -7.359375 C 10.09375 -4.816406 9.679688 -2.910156 8.859375 -1.640625 C 8.035156 -0.367188 6.929688 0.265625 5.546875 0.265625 Z M 5.546875 -1.203125 C 6.367188 -1.203125 7.035156 -1.6875 7.546875 -2.65625 C 8.066406 -3.632812 8.328125 -5.203125 8.328125 -7.359375 C 8.328125 -9.503906 8.066406 -11.054688 7.546875 -12.015625 C 7.035156 -12.972656 6.367188 -13.453125 5.546875 -13.453125 C 4.710938 -13.453125 4.035156 -12.972656 3.515625 -12.015625 C 3.003906 -11.054688 2.75 -9.503906 2.75 -7.359375 C 2.75 -5.203125 3.003906 -3.632812 3.515625 -2.65625 C 4.035156 -1.6875 4.710938 -1.203125 5.546875 -1.203125 Z M 5.546875 -1.203125 "/></g></g></g><g fill="#000000" fill-opacity="1"><g transform="translate(575.93413, 201.018321)"><g><path d="M 17.0625 -15.125 L 17.0625 -13.703125 L 3.015625 -13.703125 L 3.015625 -15.125 Z M 14.0625 -0.234375 L 16.640625 -0.234375 C 16.910156 -0.234375 17.109375 -0.320312 17.234375 -0.5 C 17.367188 -0.675781 17.46875 -1.019531 17.53125 -1.53125 C 17.59375 -2.039062 17.632812 -2.800781 17.65625 -3.8125 C 17.832031 -3.675781 18.054688 -3.546875 18.328125 -3.421875 C 18.597656 -3.304688 18.832031 -3.21875 19.03125 -3.15625 C 18.976562 -2.019531 18.878906 -1.140625 18.734375 -0.515625 C 18.597656 0.109375 18.378906 0.546875 18.078125 0.796875 C 17.773438 1.046875 17.328125 1.171875 16.734375 1.171875 L 13.890625 1.171875 C 12.992188 1.171875 12.390625 1.015625 12.078125 0.703125 C 11.773438 0.390625 11.625 -0.1875 11.625 -1.03125 L 11.625 -8.140625 L 7.90625 -8.140625 C 7.8125 -7.078125 7.660156 -6.0625 7.453125 -5.09375 C 7.242188 -4.132812 6.929688 -3.242188 6.515625 -2.421875 C 6.097656 -1.609375 5.519531 -0.867188 4.78125 -0.203125 C 4.050781 0.453125 3.113281 1.007812 1.96875 1.46875 C 1.875 1.289062 1.738281 1.085938 1.5625 0.859375 C 1.382812 0.628906 1.207031 0.445312 1.03125 0.3125 C 2.101562 -0.0820312 2.96875 -0.570312 3.625 -1.15625 C 4.28125 -1.738281 4.789062 -2.390625 5.15625 -3.109375 C 5.519531 -3.835938 5.785156 -4.625 5.953125 -5.46875 C 6.117188 -6.320312 6.242188 -7.210938 6.328125 -8.140625 L 1.28125 -8.140625 L 1.28125 -9.578125 L 18.734375 -9.578125 L 18.734375 -8.140625 L 13.125 -8.140625 L 13.125 -1.0625 C 13.125 -0.726562 13.179688 -0.503906 13.296875 -0.390625 C 13.421875 -0.285156 13.675781 -0.234375 14.0625 -0.234375 Z M 14.0625 -0.234375 "/></g></g></g><g fill="#000000" fill-opacity="1"><g transform="translate(434.73499, 267.095056)"><g><path d="M 2.515625 -14.765625 L 17.484375 -14.765625 L 17.484375 -13.28125 L 2.515625 -13.28125 Z M 3.796875 -8.296875 L 15.921875 -8.296875 L 15.921875 -6.796875 L 3.796875 -6.796875 Z M 1.375 -1.421875 L 18.5625 -1.421875 L 18.5625 0.078125 L 1.375 0.078125 Z M 1.375 -1.421875 "/></g></g></g><g fill="#000000" fill-opacity="1"><g transform="translate(454.682319, 267.095056)"><g><path d="M 6.890625 -6.890625 L 5.984375 -5.828125 C 5.847656 -6.160156 5.640625 -6.582031 5.359375 -7.09375 C 5.085938 -7.613281 4.816406 -8.125 4.546875 -8.625 L 4.546875 1.515625 L 3.1875 1.515625 L 3.1875 -8.1875 C 2.9375 -7.132812 2.648438 -6.109375 2.328125 -5.109375 C 2.015625 -4.109375 1.6875 -3.265625 1.34375 -2.578125 C 1.257812 -2.796875 1.140625 -3.046875 0.984375 -3.328125 C 0.835938 -3.617188 0.707031 -3.851562 0.59375 -4.03125 C 0.914062 -4.601562 1.226562 -5.3125 1.53125 -6.15625 C 1.84375 -7 2.125 -7.890625 2.375 -8.828125 C 2.625 -9.765625 2.820312 -10.644531 2.96875 -11.46875 L 0.875 -11.46875 L 0.875 -12.875 L 3.1875 -12.875 L 3.1875 -16.703125 L 4.546875 -16.703125 L 4.546875 -12.875 L 6.546875 -12.875 L 6.546875 -11.46875 L 4.546875 -11.46875 L 4.546875 -10.4375 C 4.679688 -10.257812 4.859375 -10 5.078125 -9.65625 C 5.296875 -9.320312 5.523438 -8.96875 5.765625 -8.59375 C 6.015625 -8.226562 6.242188 -7.882812 6.453125 -7.5625 C 6.660156 -7.238281 6.804688 -7.015625 6.890625 -6.890625 Z M 15.203125 -3.359375 L 11.21875 -3.359375 C 11.039062 -3.148438 10.875 -2.953125 10.71875 -2.765625 C 10.570312 -2.585938 10.425781 -2.410156 10.28125 -2.234375 C 10.78125 -2.117188 11.300781 -1.988281 11.84375 -1.84375 C 12.382812 -1.707031 12.921875 -1.554688 13.453125 -1.390625 C 13.847656 -1.660156 14.1875 -1.960938 14.46875 -2.296875 C 14.757812 -2.628906 15.003906 -2.984375 15.203125 -3.359375 Z M 9.03125 -8.21875 L 9.03125 -7 L 12.21875 -7 L 12.21875 -8.21875 Z M 16.796875 -8.21875 L 13.609375 -8.21875 L 13.609375 -7 L 16.796875 -7 Z M 9.421875 -11.234375 L 12.21875 -11.234375 L 12.21875 -12.4375 L 9.421875 -12.4375 Z M 12.21875 -14.421875 L 9.421875 -14.421875 L 9.421875 -13.328125 L 12.21875 -13.328125 Z M 16.359375 -14.421875 L 13.609375 -14.421875 L 13.609375 -13.328125 L 16.359375 -13.328125 Z M 13.609375 -11.234375 L 16.359375 -11.234375 L 16.359375 -12.4375 L 13.609375 -12.4375 Z M 19.09375 -3.359375 L 16.625 -3.359375 C 16.21875 -2.421875 15.628906 -1.613281 14.859375 -0.9375 C 15.609375 -0.695312 16.320312 -0.453125 17 -0.203125 C 17.675781 0.046875 18.273438 0.289062 18.796875 0.53125 L 17.703125 1.46875 C 17.203125 1.21875 16.601562 0.953125 15.90625 0.671875 C 15.207031 0.398438 14.445312 0.132812 13.625 -0.125 C 12.894531 0.257812 12.015625 0.59375 10.984375 0.875 C 9.953125 1.15625 8.722656 1.390625 7.296875 1.578125 C 7.242188 1.421875 7.164062 1.226562 7.0625 1 C 6.957031 0.78125 6.851562 0.609375 6.75 0.484375 C 8.988281 0.222656 10.734375 -0.15625 11.984375 -0.65625 C 11.335938 -0.84375 10.6875 -1.023438 10.03125 -1.203125 C 9.382812 -1.378906 8.753906 -1.535156 8.140625 -1.671875 C 8.367188 -1.910156 8.613281 -2.171875 8.875 -2.453125 C 9.132812 -2.742188 9.390625 -3.046875 9.640625 -3.359375 L 6.96875 -3.359375 L 6.96875 -4.53125 L 10.53125 -4.53125 C 10.914062 -5.050781 11.25 -5.539062 11.53125 -6 L 7.703125 -6 L 7.703125 -9.234375 L 12.21875 -9.234375 L 12.21875 -10.234375 L 8.125 -10.234375 L 8.125 -12.296875 L 6.96875 -12.296875 L 6.96875 -13.453125 L 8.125 -13.453125 L 8.125 -15.421875 L 12.21875 -15.421875 L 12.21875 -16.703125 L 13.609375 -16.703125 L 13.609375 -15.421875 L 17.703125 -15.421875 L 17.703125 -13.453125 L 18.9375 -13.453125 L 18.9375 -12.296875 L 17.703125 -12.296875 L 17.703125 -10.234375 L 13.609375 -10.234375 L 13.609375 -9.234375 L 18.203125 -9.234375 L 18.203125 -6 L 13.0625 -6 C 12.9375 -5.757812 12.789062 -5.515625 12.625 -5.265625 C 12.457031 -5.023438 12.28125 -4.78125 12.09375 -4.53125 L 15.65625 -4.53125 C 15.695312 -4.675781 15.738281 -4.820312 15.78125 -4.96875 C 15.820312 -5.113281 15.851562 -5.253906 15.875 -5.390625 L 17.21875 -5.390625 C 17.1875 -5.253906 17.15625 -5.113281 17.125 -4.96875 C 17.09375 -4.820312 17.066406 -4.675781 17.046875 -4.53125 L 19.09375 -4.53125 Z M 19.09375 -3.359375 "/></g></g></g><g fill="#000000" fill-opacity="1"><g transform="translate(542.721814, 267.095056)"><g><path d="M 5.265625 0.265625 C 4.117188 0.265625 3.171875 0.0625 2.421875 -0.34375 C 1.671875 -0.75 1.054688 -1.210938 0.578125 -1.734375 L 1.5 -2.9375 C 1.925781 -2.476562 2.429688 -2.082031 3.015625 -1.75 C 3.597656 -1.414062 4.300781 -1.25 5.125 -1.25 C 5.988281 -1.25 6.695312 -1.492188 7.25 -1.984375 C 7.8125 -2.472656 8.09375 -3.140625 8.09375 -3.984375 C 8.09375 -4.578125 7.945312 -5.085938 7.65625 -5.515625 C 7.363281 -5.953125 6.890625 -6.289062 6.234375 -6.53125 C 5.578125 -6.78125 4.679688 -6.90625 3.546875 -6.90625 L 3.546875 -8.296875 C 4.554688 -8.296875 5.351562 -8.414062 5.9375 -8.65625 C 6.53125 -8.90625 6.957031 -9.242188 7.21875 -9.671875 C 7.476562 -10.097656 7.609375 -10.570312 7.609375 -11.09375 C 7.609375 -11.800781 7.382812 -12.363281 6.9375 -12.78125 C 6.488281 -13.195312 5.882812 -13.40625 5.125 -13.40625 C 4.539062 -13.40625 3.992188 -13.273438 3.484375 -13.015625 C 2.972656 -12.753906 2.507812 -12.410156 2.09375 -11.984375 L 1.125 -13.15625 C 1.664062 -13.65625 2.269531 -14.070312 2.9375 -14.40625 C 3.601562 -14.738281 4.359375 -14.90625 5.203125 -14.90625 C 6.023438 -14.90625 6.753906 -14.757812 7.390625 -14.46875 C 8.035156 -14.175781 8.539062 -13.753906 8.90625 -13.203125 C 9.269531 -12.660156 9.453125 -12.003906 9.453125 -11.234375 C 9.453125 -10.335938 9.210938 -9.597656 8.734375 -9.015625 C 8.253906 -8.429688 7.628906 -7.992188 6.859375 -7.703125 L 6.859375 -7.625 C 7.722656 -7.425781 8.453125 -7.003906 9.046875 -6.359375 C 9.648438 -5.722656 9.953125 -4.90625 9.953125 -3.90625 C 9.953125 -3.039062 9.742188 -2.296875 9.328125 -1.671875 C 8.910156 -1.046875 8.34375 -0.566406 7.625 -0.234375 C 6.914062 0.0976562 6.128906 0.265625 5.265625 0.265625 Z M 5.265625 0.265625 "/></g></g></g><g fill="#000000" fill-opacity="1"><g transform="translate(553.792586, 267.095056)"><g><path d="M 1.75 0 L 1.75 -1.515625 L 5.015625 -1.515625 L 5.015625 -12.4375 L 2.421875 -12.4375 L 2.421875 -13.59375 C 3.066406 -13.707031 3.628906 -13.847656 4.109375 -14.015625 C 4.597656 -14.191406 5.046875 -14.398438 5.453125 -14.640625 L 6.84375 -14.640625 L 6.84375 -1.515625 L 9.78125 -1.515625 L 9.78125 0 Z M 1.75 0 "/></g></g></g><g fill="#000000" fill-opacity="1"><g transform="translate(564.863358, 267.095056)"><g><path d="M 5.546875 0.265625 C 4.148438 0.265625 3.039062 -0.367188 2.21875 -1.640625 C 1.394531 -2.910156 0.984375 -4.816406 0.984375 -7.359375 C 0.984375 -9.898438 1.394531 -11.789062 2.21875 -13.03125 C 3.039062 -14.28125 4.148438 -14.90625 5.546875 -14.90625 C 6.929688 -14.90625 8.035156 -14.28125 8.859375 -13.03125 C 9.679688 -11.789062 10.09375 -9.898438 10.09375 -7.359375 C 10.09375 -4.816406 9.679688 -2.910156 8.859375 -1.640625 C 8.035156 -0.367188 6.929688 0.265625 5.546875 0.265625 Z M 5.546875 -1.203125 C 6.367188 -1.203125 7.035156 -1.6875 7.546875 -2.65625 C 8.066406 -3.632812 8.328125 -5.203125 8.328125 -7.359375 C 8.328125 -9.503906 8.066406 -11.054688 7.546875 -12.015625 C 7.035156 -12.972656 6.367188 -13.453125 5.546875 -13.453125 C 4.710938 -13.453125 4.035156 -12.972656 3.515625 -12.015625 C 3.003906 -11.054688 2.75 -9.503906 2.75 -7.359375 C 2.75 -5.203125 3.003906 -3.632812 3.515625 -2.65625 C 4.035156 -1.6875 4.710938 -1.203125 5.546875 -1.203125 Z M 5.546875 -1.203125 "/></g></g></g><g fill="#000000" fill-opacity="1"><g transform="translate(575.93413, 267.095056)"><g><path d="M 17.0625 -15.125 L 17.0625 -13.703125 L 3.015625 -13.703125 L 3.015625 -15.125 Z M 14.0625 -0.234375 L 16.640625 -0.234375 C 16.910156 -0.234375 17.109375 -0.320312 17.234375 -0.5 C 17.367188 -0.675781 17.46875 -1.019531 17.53125 -1.53125 C 17.59375 -2.039062 17.632812 -2.800781 17.65625 -3.8125 C 17.832031 -3.675781 18.054688 -3.546875 18.328125 -3.421875 C 18.597656 -3.304688 18.832031 -3.21875 19.03125 -3.15625 C 18.976562 -2.019531 18.878906 -1.140625 18.734375 -0.515625 C 18.597656 0.109375 18.378906 0.546875 18.078125 0.796875 C 17.773438 1.046875 17.328125 1.171875 16.734375 1.171875 L 13.890625 1.171875 C 12.992188 1.171875 12.390625 1.015625 12.078125 0.703125 C 11.773438 0.390625 11.625 -0.1875 11.625 -1.03125 L 11.625 -8.140625 L 7.90625 -8.140625 C 7.8125 -7.078125 7.660156 -6.0625 7.453125 -5.09375 C 7.242188 -4.132812 6.929688 -3.242188 6.515625 -2.421875 C 6.097656 -1.609375 5.519531 -0.867188 4.78125 -0.203125 C 4.050781 0.453125 3.113281 1.007812 1.96875 1.46875 C 1.875 1.289062 1.738281 1.085938 1.5625 0.859375 C 1.382812 0.628906 1.207031 0.445312 1.03125 0.3125 C 2.101562 -0.0820312 2.96875 -0.570312 3.625 -1.15625 C 4.28125 -1.738281 4.789062 -2.390625 5.15625 -3.109375 C 5.519531 -3.835938 5.785156 -4.625 5.953125 -5.46875 C 6.117188 -6.320312 6.242188 -7.210938 6.328125 -8.140625 L 1.28125 -8.140625 L 1.28125 -9.578125 L 18.734375 -9.578125 L 18.734375 -8.140625 L 13.125 -8.140625 L 13.125 -1.0625 C 13.125 -0.726562 13.179688 -0.503906 13.296875 -0.390625 C 13.421875 -0.285156 13.675781 -0.234375 14.0625 -0.234375 Z M 14.0625 -0.234375 "/></g></g></g><g fill="#000000" fill-opacity="1"><g transform="translate(434.73499, 333.171789)"><g><path d="M 3.3125 -2.0625 L 16.546875 -2.0625 L 16.546875 -13.53125 L 12.65625 -13.53125 L 12.65625 -7.28125 C 12.65625 -6.957031 12.679688 -6.726562 12.734375 -6.59375 C 12.796875 -6.46875 12.9375 -6.40625 13.15625 -6.40625 L 15.078125 -6.40625 C 15.253906 -6.40625 15.457031 -6.410156 15.6875 -6.421875 C 15.925781 -6.429688 16.109375 -6.457031 16.234375 -6.5 C 16.253906 -6.289062 16.273438 -6.078125 16.296875 -5.859375 C 16.316406 -5.640625 16.332031 -5.4375 16.34375 -5.25 C 16.21875 -5.195312 16.039062 -5.164062 15.8125 -5.15625 C 15.59375 -5.144531 15.367188 -5.140625 15.140625 -5.140625 L 12.984375 -5.140625 C 12.296875 -5.140625 11.832031 -5.3125 11.59375 -5.65625 C 11.363281 -6 11.25 -6.554688 11.25 -7.328125 L 11.25 -13.53125 L 8.5 -13.53125 C 8.46875 -12.1875 8.394531 -10.988281 8.28125 -9.9375 C 8.175781 -8.882812 7.984375 -7.957031 7.703125 -7.15625 C 7.429688 -6.351562 7.035156 -5.65625 6.515625 -5.0625 C 6.003906 -4.46875 5.316406 -3.960938 4.453125 -3.546875 C 4.367188 -3.734375 4.238281 -3.941406 4.0625 -4.171875 C 3.882812 -4.398438 3.710938 -4.578125 3.546875 -4.703125 C 4.304688 -5.066406 4.910156 -5.5 5.359375 -6 C 5.816406 -6.507812 6.160156 -7.113281 6.390625 -7.8125 C 6.628906 -8.519531 6.789062 -9.347656 6.875 -10.296875 C 6.957031 -11.242188 7.015625 -12.320312 7.046875 -13.53125 L 3.3125 -13.53125 Z M 1.828125 -14.96875 L 18.0625 -14.96875 L 18.0625 0.71875 L 16.546875 0.71875 L 16.546875 -0.625 L 3.3125 -0.625 L 3.3125 0.859375 L 1.828125 0.859375 Z M 1.828125 -14.96875 "/></g></g></g><g fill="#000000" fill-opacity="1"><g transform="translate(454.682319, 333.171789)"><g><path d="M 6.890625 -6.890625 L 5.984375 -5.828125 C 5.847656 -6.160156 5.640625 -6.582031 5.359375 -7.09375 C 5.085938 -7.613281 4.816406 -8.125 4.546875 -8.625 L 4.546875 1.515625 L 3.1875 1.515625 L 3.1875 -8.1875 C 2.9375 -7.132812 2.648438 -6.109375 2.328125 -5.109375 C 2.015625 -4.109375 1.6875 -3.265625 1.34375 -2.578125 C 1.257812 -2.796875 1.140625 -3.046875 0.984375 -3.328125 C 0.835938 -3.617188 0.707031 -3.851562 0.59375 -4.03125 C 0.914062 -4.601562 1.226562 -5.3125 1.53125 -6.15625 C 1.84375 -7 2.125 -7.890625 2.375 -8.828125 C 2.625 -9.765625 2.820312 -10.644531 2.96875 -11.46875 L 0.875 -11.46875 L 0.875 -12.875 L 3.1875 -12.875 L 3.1875 -16.703125 L 4.546875 -16.703125 L 4.546875 -12.875 L 6.546875 -12.875 L 6.546875 -11.46875 L 4.546875 -11.46875 L 4.546875 -10.4375 C 4.679688 -10.257812 4.859375 -10 5.078125 -9.65625 C 5.296875 -9.320312 5.523438 -8.96875 5.765625 -8.59375 C 6.015625 -8.226562 6.242188 -7.882812 6.453125 -7.5625 C 6.660156 -7.238281 6.804688 -7.015625 6.890625 -6.890625 Z M 15.203125 -3.359375 L 11.21875 -3.359375 C 11.039062 -3.148438 10.875 -2.953125 10.71875 -2.765625 C 10.570312 -2.585938 10.425781 -2.410156 10.28125 -2.234375 C 10.78125 -2.117188 11.300781 -1.988281 11.84375 -1.84375 C 12.382812 -1.707031 12.921875 -1.554688 13.453125 -1.390625 C 13.847656 -1.660156 14.1875 -1.960938 14.46875 -2.296875 C 14.757812 -2.628906 15.003906 -2.984375 15.203125 -3.359375 Z M 9.03125 -8.21875 L 9.03125 -7 L 12.21875 -7 L 12.21875 -8.21875 Z M 16.796875 -8.21875 L 13.609375 -8.21875 L 13.609375 -7 L 16.796875 -7 Z M 9.421875 -11.234375 L 12.21875 -11.234375 L 12.21875 -12.4375 L 9.421875 -12.4375 Z M 12.21875 -14.421875 L 9.421875 -14.421875 L 9.421875 -13.328125 L 12.21875 -13.328125 Z M 16.359375 -14.421875 L 13.609375 -14.421875 L 13.609375 -13.328125 L 16.359375 -13.328125 Z M 13.609375 -11.234375 L 16.359375 -11.234375 L 16.359375 -12.4375 L 13.609375 -12.4375 Z M 19.09375 -3.359375 L 16.625 -3.359375 C 16.21875 -2.421875 15.628906 -1.613281 14.859375 -0.9375 C 15.609375 -0.695312 16.320312 -0.453125 17 -0.203125 C 17.675781 0.046875 18.273438 0.289062 18.796875 0.53125 L 17.703125 1.46875 C 17.203125 1.21875 16.601562 0.953125 15.90625 0.671875 C 15.207031 0.398438 14.445312 0.132812 13.625 -0.125 C 12.894531 0.257812 12.015625 0.59375 10.984375 0.875 C 9.953125 1.15625 8.722656 1.390625 7.296875 1.578125 C 7.242188 1.421875 7.164062 1.226562 7.0625 1 C 6.957031 0.78125 6.851562 0.609375 6.75 0.484375 C 8.988281 0.222656 10.734375 -0.15625 11.984375 -0.65625 C 11.335938 -0.84375 10.6875 -1.023438 10.03125 -1.203125 C 9.382812 -1.378906 8.753906 -1.535156 8.140625 -1.671875 C 8.367188 -1.910156 8.613281 -2.171875 8.875 -2.453125 C 9.132812 -2.742188 9.390625 -3.046875 9.640625 -3.359375 L 6.96875 -3.359375 L 6.96875 -4.53125 L 10.53125 -4.53125 C 10.914062 -5.050781 11.25 -5.539062 11.53125 -6 L 7.703125 -6 L 7.703125 -9.234375 L 12.21875 -9.234375 L 12.21875 -10.234375 L 8.125 -10.234375 L 8.125 -12.296875 L 6.96875 -12.296875 L 6.96875 -13.453125 L 8.125 -13.453125 L 8.125 -15.421875 L 12.21875 -15.421875 L 12.21875 -16.703125 L 13.609375 -16.703125 L 13.609375 -15.421875 L 17.703125 -15.421875 L 17.703125 -13.453125 L 18.9375 -13.453125 L 18.9375 -12.296875 L 17.703125 -12.296875 L 17.703125 -10.234375 L 13.609375 -10.234375 L 13.609375 -9.234375 L 18.203125 -9.234375 L 18.203125 -6 L 13.0625 -6 C 12.9375 -5.757812 12.789062 -5.515625 12.625 -5.265625 C 12.457031 -5.023438 12.28125 -4.78125 12.09375 -4.53125 L 15.65625 -4.53125 C 15.695312 -4.675781 15.738281 -4.820312 15.78125 -4.96875 C 15.820312 -5.113281 15.851562 -5.253906 15.875 -5.390625 L 17.21875 -5.390625 C 17.1875 -5.253906 17.15625 -5.113281 17.125 -4.96875 C 17.09375 -4.820312 17.066406 -4.675781 17.046875 -4.53125 L 19.09375 -4.53125 Z M 19.09375 -3.359375 "/></g></g></g><g fill="#000000" fill-opacity="1"><g transform="translate(542.721814, 333.171789)"><g><path d="M 2.296875 -5.484375 L 6.78125 -5.484375 L 6.78125 -9.96875 C 6.78125 -10.332031 6.789062 -10.773438 6.8125 -11.296875 C 6.84375 -11.816406 6.867188 -12.257812 6.890625 -12.625 L 6.796875 -12.625 C 6.628906 -12.269531 6.445312 -11.910156 6.25 -11.546875 C 6.050781 -11.191406 5.84375 -10.832031 5.625 -10.46875 Z M 6.78125 0 L 6.78125 -4.03125 L 0.40625 -4.03125 L 0.40625 -5.234375 L 6.484375 -14.640625 L 8.5 -14.640625 L 8.5 -5.484375 L 10.4375 -5.484375 L 10.4375 -4.03125 L 8.5 -4.03125 L 8.5 0 Z M 6.78125 0 "/></g></g></g><g fill="#000000" fill-opacity="1"><g transform="translate(553.792586, 333.171789)"><g><path d="M 1.75 0 L 1.75 -1.515625 L 5.015625 -1.515625 L 5.015625 -12.4375 L 2.421875 -12.4375 L 2.421875 -13.59375 C 3.066406 -13.707031 3.628906 -13.847656 4.109375 -14.015625 C 4.597656 -14.191406 5.046875 -14.398438 5.453125 -14.640625 L 6.84375 -14.640625 L 6.84375 -1.515625 L 9.78125 -1.515625 L 9.78125 0 Z M 1.75 0 "/></g></g></g><g fill="#000000" fill-opacity="1"><g transform="translate(564.863358, 333.171789)"><g><path d="M 5.546875 0.265625 C 4.148438 0.265625 3.039062 -0.367188 2.21875 -1.640625 C 1.394531 -2.910156 0.984375 -4.816406 0.984375 -7.359375 C 0.984375 -9.898438 1.394531 -11.789062 2.21875 -13.03125 C 3.039062 -14.28125 4.148438 -14.90625 5.546875 -14.90625 C 6.929688 -14.90625 8.035156 -14.28125 8.859375 -13.03125 C 9.679688 -11.789062 10.09375 -9.898438 10.09375 -7.359375 C 10.09375 -4.816406 9.679688 -2.910156 8.859375 -1.640625 C 8.035156 -0.367188 6.929688 0.265625 5.546875 0.265625 Z M 5.546875 -1.203125 C 6.367188 -1.203125 7.035156 -1.6875 7.546875 -2.65625 C 8.066406 -3.632812 8.328125 -5.203125 8.328125 -7.359375 C 8.328125 -9.503906 8.066406 -11.054688 7.546875 -12.015625 C 7.035156 -12.972656 6.367188 -13.453125 5.546875 -13.453125 C 4.710938 -13.453125 4.035156 -12.972656 3.515625 -12.015625 C 3.003906 -11.054688 2.75 -9.503906 2.75 -7.359375 C 2.75 -5.203125 3.003906 -3.632812 3.515625 -2.65625 C 4.035156 -1.6875 4.710938 -1.203125 5.546875 -1.203125 Z M 5.546875 -1.203125 "/></g></g></g><g fill="#000000" fill-opacity="1"><g transform="translate(575.93413, 333.171789)"><g><path d="M 17.0625 -15.125 L 17.0625 -13.703125 L 3.015625 -13.703125 L 3.015625 -15.125 Z M 14.0625 -0.234375 L 16.640625 -0.234375 C 16.910156 -0.234375 17.109375 -0.320312 17.234375 -0.5 C 17.367188 -0.675781 17.46875 -1.019531 17.53125 -1.53125 C 17.59375 -2.039062 17.632812 -2.800781 17.65625 -3.8125 C 17.832031 -3.675781 18.054688 -3.546875 18.328125 -3.421875 C 18.597656 -3.304688 18.832031 -3.21875 19.03125 -3.15625 C 18.976562 -2.019531 18.878906 -1.140625 18.734375 -0.515625 C 18.597656 0.109375 18.378906 0.546875 18.078125 0.796875 C 17.773438 1.046875 17.328125 1.171875 16.734375 1.171875 L 13.890625 1.171875 C 12.992188 1.171875 12.390625 1.015625 12.078125 0.703125 C 11.773438 0.390625 11.625 -0.1875 11.625 -1.03125 L 11.625 -8.140625 L 7.90625 -8.140625 C 7.8125 -7.078125 7.660156 -6.0625 7.453125 -5.09375 C 7.242188 -4.132812 6.929688 -3.242188 6.515625 -2.421875 C 6.097656 -1.609375 5.519531 -0.867188 4.78125 -0.203125 C 4.050781 0.453125 3.113281 1.007812 1.96875 1.46875 C 1.875 1.289062 1.738281 1.085938 1.5625 0.859375 C 1.382812 0.628906 1.207031 0.445312 1.03125 0.3125 C 2.101562 -0.0820312 2.96875 -0.570312 3.625 -1.15625 C 4.28125 -1.738281 4.789062 -2.390625 5.15625 -3.109375 C 5.519531 -3.835938 5.785156 -4.625 5.953125 -5.46875 C 6.117188 -6.320312 6.242188 -7.210938 6.328125 -8.140625 L 1.28125 -8.140625 L 1.28125 -9.578125 L 18.734375 -9.578125 L 18.734375 -8.140625 L 13.125 -8.140625 L 13.125 -1.0625 C 13.125 -0.726562 13.179688 -0.503906 13.296875 -0.390625 C 13.421875 -0.285156 13.675781 -0.234375 14.0625 -0.234375 Z M 14.0625 -0.234375 "/></g></g></g><g fill="#000000" fill-opacity="1"><g transform="translate(432.4978, 399.248287)"><g/></g></g><g fill="#000000" fill-opacity="1"><g transform="translate(436.972179, 399.248287)"><g><path d="M 13.84375 -7.546875 L 8.84375 -7.546875 C 8.65625 -6.359375 8.457031 -5.195312 8.25 -4.0625 C 8.039062 -2.9375 7.84375 -1.921875 7.65625 -1.015625 L 13.234375 -1.015625 C 13.304688 -1.722656 13.378906 -2.460938 13.453125 -3.234375 C 13.523438 -4.003906 13.59375 -4.757812 13.65625 -5.5 C 13.726562 -6.25 13.789062 -6.929688 13.84375 -7.546875 Z M 14.765625 -1.015625 L 18.8125 -1.015625 L 18.8125 0.4375 L 1.203125 0.4375 L 1.203125 -1.015625 L 6.046875 -1.015625 C 6.242188 -1.921875 6.445312 -2.9375 6.65625 -4.0625 C 6.863281 -5.195312 7.066406 -6.359375 7.265625 -7.546875 L 3.546875 -7.546875 L 3.546875 -9 L 7.5 -9 C 7.738281 -10.488281 7.953125 -11.914062 8.140625 -13.28125 L 2.453125 -13.28125 L 2.453125 -14.75 L 17.375 -14.75 L 17.375 -13.28125 L 9.71875 -13.28125 C 9.625 -12.625 9.519531 -11.925781 9.40625 -11.1875 C 9.289062 -10.457031 9.175781 -9.726562 9.0625 -9 L 14.09375 -9 L 14.34375 -9.078125 L 15.484375 -8.953125 C 15.441406 -8.222656 15.378906 -7.40625 15.296875 -6.5 C 15.222656 -5.59375 15.140625 -4.664062 15.046875 -3.71875 C 14.960938 -2.78125 14.867188 -1.878906 14.765625 -1.015625 Z M 14.765625 -1.015625 "/></g></g></g><g fill="#000000" fill-opacity="1"><g transform="translate(456.919509, 399.248287)"><g><path d="M 6.890625 -6.890625 L 5.984375 -5.828125 C 5.847656 -6.160156 5.640625 -6.582031 5.359375 -7.09375 C 5.085938 -7.613281 4.816406 -8.125 4.546875 -8.625 L 4.546875 1.515625 L 3.1875 1.515625 L 3.1875 -8.1875 C 2.9375 -7.132812 2.648438 -6.109375 2.328125 -5.109375 C 2.015625 -4.109375 1.6875 -3.265625 1.34375 -2.578125 C 1.257812 -2.796875 1.140625 -3.046875 0.984375 -3.328125 C 0.835938 -3.617188 0.707031 -3.851562 0.59375 -4.03125 C 0.914062 -4.601562 1.226562 -5.3125 1.53125 -6.15625 C 1.84375 -7 2.125 -7.890625 2.375 -8.828125 C 2.625 -9.765625 2.820312 -10.644531 2.96875 -11.46875 L 0.875 -11.46875 L 0.875 -12.875 L 3.1875 -12.875 L 3.1875 -16.703125 L 4.546875 -16.703125 L 4.546875 -12.875 L 6.546875 -12.875 L 6.546875 -11.46875 L 4.546875 -11.46875 L 4.546875 -10.4375 C 4.679688 -10.257812 4.859375 -10 5.078125 -9.65625 C 5.296875 -9.320312 5.523438 -8.96875 5.765625 -8.59375 C 6.015625 -8.226562 6.242188 -7.882812 6.453125 -7.5625 C 6.660156 -7.238281 6.804688 -7.015625 6.890625 -6.890625 Z M 15.203125 -3.359375 L 11.21875 -3.359375 C 11.039062 -3.148438 10.875 -2.953125 10.71875 -2.765625 C 10.570312 -2.585938 10.425781 -2.410156 10.28125 -2.234375 C 10.78125 -2.117188 11.300781 -1.988281 11.84375 -1.84375 C 12.382812 -1.707031 12.921875 -1.554688 13.453125 -1.390625 C 13.847656 -1.660156 14.1875 -1.960938 14.46875 -2.296875 C 14.757812 -2.628906 15.003906 -2.984375 15.203125 -3.359375 Z M 9.03125 -8.21875 L 9.03125 -7 L 12.21875 -7 L 12.21875 -8.21875 Z M 16.796875 -8.21875 L 13.609375 -8.21875 L 13.609375 -7 L 16.796875 -7 Z M 9.421875 -11.234375 L 12.21875 -11.234375 L 12.21875 -12.4375 L 9.421875 -12.4375 Z M 12.21875 -14.421875 L 9.421875 -14.421875 L 9.421875 -13.328125 L 12.21875 -13.328125 Z M 16.359375 -14.421875 L 13.609375 -14.421875 L 13.609375 -13.328125 L 16.359375 -13.328125 Z M 13.609375 -11.234375 L 16.359375 -11.234375 L 16.359375 -12.4375 L 13.609375 -12.4375 Z M 19.09375 -3.359375 L 16.625 -3.359375 C 16.21875 -2.421875 15.628906 -1.613281 14.859375 -0.9375 C 15.609375 -0.695312 16.320312 -0.453125 17 -0.203125 C 17.675781 0.046875 18.273438 0.289062 18.796875 0.53125 L 17.703125 1.46875 C 17.203125 1.21875 16.601562 0.953125 15.90625 0.671875 C 15.207031 0.398438 14.445312 0.132812 13.625 -0.125 C 12.894531 0.257812 12.015625 0.59375 10.984375 0.875 C 9.953125 1.15625 8.722656 1.390625 7.296875 1.578125 C 7.242188 1.421875 7.164062 1.226562 7.0625 1 C 6.957031 0.78125 6.851562 0.609375 6.75 0.484375 C 8.988281 0.222656 10.734375 -0.15625 11.984375 -0.65625 C 11.335938 -0.84375 10.6875 -1.023438 10.03125 -1.203125 C 9.382812 -1.378906 8.753906 -1.535156 8.140625 -1.671875 C 8.367188 -1.910156 8.613281 -2.171875 8.875 -2.453125 C 9.132812 -2.742188 9.390625 -3.046875 9.640625 -3.359375 L 6.96875 -3.359375 L 6.96875 -4.53125 L 10.53125 -4.53125 C 10.914062 -5.050781 11.25 -5.539062 11.53125 -6 L 7.703125 -6 L 7.703125 -9.234375 L 12.21875 -9.234375 L 12.21875 -10.234375 L 8.125 -10.234375 L 8.125 -12.296875 L 6.96875 -12.296875 L 6.96875 -13.453125 L 8.125 -13.453125 L 8.125 -15.421875 L 12.21875 -15.421875 L 12.21875 -16.703125 L 13.609375 -16.703125 L 13.609375 -15.421875 L 17.703125 -15.421875 L 17.703125 -13.453125 L 18.9375 -13.453125 L 18.9375 -12.296875 L 17.703125 -12.296875 L 17.703125 -10.234375 L 13.609375 -10.234375 L 13.609375 -9.234375 L 18.203125 -9.234375 L 18.203125 -6 L 13.0625 -6 C 12.9375 -5.757812 12.789062 -5.515625 12.625 -5.265625 C 12.457031 -5.023438 12.28125 -4.78125 12.09375 -4.53125 L 15.65625 -4.53125 C 15.695312 -4.675781 15.738281 -4.820312 15.78125 -4.96875 C 15.820312 -5.113281 15.851562 -5.253906 15.875 -5.390625 L 17.21875 -5.390625 C 17.1875 -5.253906 17.15625 -5.113281 17.125 -4.96875 C 17.09375 -4.820312 17.066406 -4.675781 17.046875 -4.53125 L 19.09375 -4.53125 Z M 19.09375 -3.359375 "/></g></g></g><g fill="#000000" fill-opacity="1"><g transform="translate(542.721814, 399.248287)"><g><path d="M 5.203125 0.265625 C 4.078125 0.265625 3.144531 0.0664062 2.40625 -0.328125 C 1.664062 -0.734375 1.050781 -1.179688 0.5625 -1.671875 L 1.453125 -2.875 C 1.878906 -2.457031 2.367188 -2.082031 2.921875 -1.75 C 3.484375 -1.414062 4.191406 -1.25 5.046875 -1.25 C 5.617188 -1.25 6.140625 -1.390625 6.609375 -1.671875 C 7.085938 -1.953125 7.460938 -2.351562 7.734375 -2.875 C 8.015625 -3.394531 8.15625 -4.003906 8.15625 -4.703125 C 8.15625 -5.753906 7.878906 -6.570312 7.328125 -7.15625 C 6.773438 -7.75 6.039062 -8.046875 5.125 -8.046875 C 4.632812 -8.046875 4.210938 -7.972656 3.859375 -7.828125 C 3.503906 -7.679688 3.113281 -7.46875 2.6875 -7.1875 L 1.71875 -7.78125 L 2.171875 -14.640625 L 9.296875 -14.640625 L 9.296875 -13.0625 L 3.765625 -13.0625 L 3.40625 -8.84375 C 3.738281 -9.03125 4.070312 -9.171875 4.40625 -9.265625 C 4.75 -9.367188 5.144531 -9.421875 5.59375 -9.421875 C 6.394531 -9.421875 7.128906 -9.253906 7.796875 -8.921875 C 8.460938 -8.597656 8.992188 -8.09375 9.390625 -7.40625 C 9.796875 -6.726562 10 -5.847656 10 -4.765625 C 10 -3.703125 9.769531 -2.796875 9.3125 -2.046875 C 8.863281 -1.296875 8.269531 -0.722656 7.53125 -0.328125 C 6.800781 0.0664062 6.023438 0.265625 5.203125 0.265625 Z M 5.203125 0.265625 "/></g></g></g><g fill="#000000" fill-opacity="1"><g transform="translate(553.792586, 399.248287)"><g><path d="M 1.75 0 L 1.75 -1.515625 L 5.015625 -1.515625 L 5.015625 -12.4375 L 2.421875 -12.4375 L 2.421875 -13.59375 C 3.066406 -13.707031 3.628906 -13.847656 4.109375 -14.015625 C 4.597656 -14.191406 5.046875 -14.398438 5.453125 -14.640625 L 6.84375 -14.640625 L 6.84375 -1.515625 L 9.78125 -1.515625 L 9.78125 0 Z M 1.75 0 "/></g></g></g><g fill="#000000" fill-opacity="1"><g transform="translate(564.863358, 399.248287)"><g><path d="M 5.546875 0.265625 C 4.148438 0.265625 3.039062 -0.367188 2.21875 -1.640625 C 1.394531 -2.910156 0.984375 -4.816406 0.984375 -7.359375 C 0.984375 -9.898438 1.394531 -11.789062 2.21875 -13.03125 C 3.039062 -14.28125 4.148438 -14.90625 5.546875 -14.90625 C 6.929688 -14.90625 8.035156 -14.28125 8.859375 -13.03125 C 9.679688 -11.789062 10.09375 -9.898438 10.09375 -7.359375 C 10.09375 -4.816406 9.679688 -2.910156 8.859375 -1.640625 C 8.035156 -0.367188 6.929688 0.265625 5.546875 0.265625 Z M 5.546875 -1.203125 C 6.367188 -1.203125 7.035156 -1.6875 7.546875 -2.65625 C 8.066406 -3.632812 8.328125 -5.203125 8.328125 -7.359375 C 8.328125 -9.503906 8.066406 -11.054688 7.546875 -12.015625 C 7.035156 -12.972656 6.367188 -13.453125 5.546875 -13.453125 C 4.710938 -13.453125 4.035156 -12.972656 3.515625 -12.015625 C 3.003906 -11.054688 2.75 -9.503906 2.75 -7.359375 C 2.75 -5.203125 3.003906 -3.632812 3.515625 -2.65625 C 4.035156 -1.6875 4.710938 -1.203125 5.546875 -1.203125 Z M 5.546875 -1.203125 "/></g></g></g><g fill="#000000" fill-opacity="1"><g transform="translate(575.93413, 399.248287)"><g><path d="M 17.0625 -15.125 L 17.0625 -13.703125 L 3.015625 -13.703125 L 3.015625 -15.125 Z M 14.0625 -0.234375 L 16.640625 -0.234375 C 16.910156 -0.234375 17.109375 -0.320312 17.234375 -0.5 C 17.367188 -0.675781 17.46875 -1.019531 17.53125 -1.53125 C 17.59375 -2.039062 17.632812 -2.800781 17.65625 -3.8125 C 17.832031 -3.675781 18.054688 -3.546875 18.328125 -3.421875 C 18.597656 -3.304688 18.832031 -3.21875 19.03125 -3.15625 C 18.976562 -2.019531 18.878906 -1.140625 18.734375 -0.515625 C 18.597656 0.109375 18.378906 0.546875 18.078125 0.796875 C 17.773438 1.046875 17.328125 1.171875 16.734375 1.171875 L 13.890625 1.171875 C 12.992188 1.171875 12.390625 1.015625 12.078125 0.703125 C 11.773438 0.390625 11.625 -0.1875 11.625 -1.03125 L 11.625 -8.140625 L 7.90625 -8.140625 C 7.8125 -7.078125 7.660156 -6.0625 7.453125 -5.09375 C 7.242188 -4.132812 6.929688 -3.242188 6.515625 -2.421875 C 6.097656 -1.609375 5.519531 -0.867188 4.78125 -0.203125 C 4.050781 0.453125 3.113281 1.007812 1.96875 1.46875 C 1.875 1.289062 1.738281 1.085938 1.5625 0.859375 C 1.382812 0.628906 1.207031 0.445312 1.03125 0.3125 C 2.101562 -0.0820312 2.96875 -0.570312 3.625 -1.15625 C 4.28125 -1.738281 4.789062 -2.390625 5.15625 -3.109375 C 5.519531 -3.835938 5.785156 -4.625 5.953125 -5.46875 C 6.117188 -6.320312 6.242188 -7.210938 6.328125 -8.140625 L 1.28125 -8.140625 L 1.28125 -9.578125 L 18.734375 -9.578125 L 18.734375 -8.140625 L 13.125 -8.140625 L 13.125 -1.0625 C 13.125 -0.726562 13.179688 -0.503906 13.296875 -0.390625 C 13.421875 -0.285156 13.675781 -0.234375 14.0625 -0.234375 Z M 14.0625 -0.234375 "/></g></g></g><g fill="#000000" fill-opacity="1"><g transform="translate(434.73499, 465.32501)"><g><path d="M 1.21875 -11.4375 L 18.796875 -11.4375 L 18.796875 -9.921875 L 1.21875 -9.921875 Z M 6.1875 -7.625 L 7.796875 -7.109375 C 7.316406 -6.078125 6.773438 -5.039062 6.171875 -4 C 5.566406 -2.96875 4.941406 -1.988281 4.296875 -1.0625 C 3.648438 -0.144531 3.023438 0.671875 2.421875 1.390625 C 2.242188 1.242188 2.003906 1.066406 1.703125 0.859375 C 1.398438 0.660156 1.144531 0.492188 0.9375 0.359375 C 1.570312 -0.304688 2.207031 -1.070312 2.84375 -1.9375 C 3.488281 -2.8125 4.097656 -3.738281 4.671875 -4.71875 C 5.242188 -5.695312 5.75 -6.664062 6.1875 -7.625 Z M 12.046875 -7.125 L 13.421875 -7.78125 C 13.890625 -7.125 14.378906 -6.429688 14.890625 -5.703125 C 15.398438 -4.972656 15.90625 -4.234375 16.40625 -3.484375 C 16.90625 -2.742188 17.367188 -2.035156 17.796875 -1.359375 C 18.234375 -0.691406 18.597656 -0.0976562 18.890625 0.421875 L 17.40625 1.28125 C 17.125 0.757812 16.773438 0.15625 16.359375 -0.53125 C 15.953125 -1.21875 15.5 -1.941406 15 -2.703125 C 14.507812 -3.460938 14.007812 -4.222656 13.5 -4.984375 C 13 -5.742188 12.515625 -6.457031 12.046875 -7.125 Z M 8.140625 -16.078125 L 9.640625 -16.59375 C 9.878906 -16.15625 10.117188 -15.679688 10.359375 -15.171875 C 10.609375 -14.671875 10.835938 -14.1875 11.046875 -13.71875 C 11.265625 -13.257812 11.441406 -12.859375 11.578125 -12.515625 L 9.96875 -11.890625 C 9.851562 -12.234375 9.691406 -12.648438 9.484375 -13.140625 C 9.273438 -13.628906 9.054688 -14.128906 8.828125 -14.640625 C 8.597656 -15.160156 8.367188 -15.640625 8.140625 -16.078125 Z M 8.140625 -16.078125 "/></g></g></g><g fill="#000000" fill-opacity="1"><g transform="translate(454.682319, 465.32501)"><g><path d="M 6.890625 -6.890625 L 5.984375 -5.828125 C 5.847656 -6.160156 5.640625 -6.582031 5.359375 -7.09375 C 5.085938 -7.613281 4.816406 -8.125 4.546875 -8.625 L 4.546875 1.515625 L 3.1875 1.515625 L 3.1875 -8.1875 C 2.9375 -7.132812 2.648438 -6.109375 2.328125 -5.109375 C 2.015625 -4.109375 1.6875 -3.265625 1.34375 -2.578125 C 1.257812 -2.796875 1.140625 -3.046875 0.984375 -3.328125 C 0.835938 -3.617188 0.707031 -3.851562 0.59375 -4.03125 C 0.914062 -4.601562 1.226562 -5.3125 1.53125 -6.15625 C 1.84375 -7 2.125 -7.890625 2.375 -8.828125 C 2.625 -9.765625 2.820312 -10.644531 2.96875 -11.46875 L 0.875 -11.46875 L 0.875 -12.875 L 3.1875 -12.875 L 3.1875 -16.703125 L 4.546875 -16.703125 L 4.546875 -12.875 L 6.546875 -12.875 L 6.546875 -11.46875 L 4.546875 -11.46875 L 4.546875 -10.4375 C 4.679688 -10.257812 4.859375 -10 5.078125 -9.65625 C 5.296875 -9.320312 5.523438 -8.96875 5.765625 -8.59375 C 6.015625 -8.226562 6.242188 -7.882812 6.453125 -7.5625 C 6.660156 -7.238281 6.804688 -7.015625 6.890625 -6.890625 Z M 15.203125 -3.359375 L 11.21875 -3.359375 C 11.039062 -3.148438 10.875 -2.953125 10.71875 -2.765625 C 10.570312 -2.585938 10.425781 -2.410156 10.28125 -2.234375 C 10.78125 -2.117188 11.300781 -1.988281 11.84375 -1.84375 C 12.382812 -1.707031 12.921875 -1.554688 13.453125 -1.390625 C 13.847656 -1.660156 14.1875 -1.960938 14.46875 -2.296875 C 14.757812 -2.628906 15.003906 -2.984375 15.203125 -3.359375 Z M 9.03125 -8.21875 L 9.03125 -7 L 12.21875 -7 L 12.21875 -8.21875 Z M 16.796875 -8.21875 L 13.609375 -8.21875 L 13.609375 -7 L 16.796875 -7 Z M 9.421875 -11.234375 L 12.21875 -11.234375 L 12.21875 -12.4375 L 9.421875 -12.4375 Z M 12.21875 -14.421875 L 9.421875 -14.421875 L 9.421875 -13.328125 L 12.21875 -13.328125 Z M 16.359375 -14.421875 L 13.609375 -14.421875 L 13.609375 -13.328125 L 16.359375 -13.328125 Z M 13.609375 -11.234375 L 16.359375 -11.234375 L 16.359375 -12.4375 L 13.609375 -12.4375 Z M 19.09375 -3.359375 L 16.625 -3.359375 C 16.21875 -2.421875 15.628906 -1.613281 14.859375 -0.9375 C 15.609375 -0.695312 16.320312 -0.453125 17 -0.203125 C 17.675781 0.046875 18.273438 0.289062 18.796875 0.53125 L 17.703125 1.46875 C 17.203125 1.21875 16.601562 0.953125 15.90625 0.671875 C 15.207031 0.398438 14.445312 0.132812 13.625 -0.125 C 12.894531 0.257812 12.015625 0.59375 10.984375 0.875 C 9.953125 1.15625 8.722656 1.390625 7.296875 1.578125 C 7.242188 1.421875 7.164062 1.226562 7.0625 1 C 6.957031 0.78125 6.851562 0.609375 6.75 0.484375 C 8.988281 0.222656 10.734375 -0.15625 11.984375 -0.65625 C 11.335938 -0.84375 10.6875 -1.023438 10.03125 -1.203125 C 9.382812 -1.378906 8.753906 -1.535156 8.140625 -1.671875 C 8.367188 -1.910156 8.613281 -2.171875 8.875 -2.453125 C 9.132812 -2.742188 9.390625 -3.046875 9.640625 -3.359375 L 6.96875 -3.359375 L 6.96875 -4.53125 L 10.53125 -4.53125 C 10.914062 -5.050781 11.25 -5.539062 11.53125 -6 L 7.703125 -6 L 7.703125 -9.234375 L 12.21875 -9.234375 L 12.21875 -10.234375 L 8.125 -10.234375 L 8.125 -12.296875 L 6.96875 -12.296875 L 6.96875 -13.453125 L 8.125 -13.453125 L 8.125 -15.421875 L 12.21875 -15.421875 L 12.21875 -16.703125 L 13.609375 -16.703125 L 13.609375 -15.421875 L 17.703125 -15.421875 L 17.703125 -13.453125 L 18.9375 -13.453125 L 18.9375 -12.296875 L 17.703125 -12.296875 L 17.703125 -10.234375 L 13.609375 -10.234375 L 13.609375 -9.234375 L 18.203125 -9.234375 L 18.203125 -6 L 13.0625 -6 C 12.9375 -5.757812 12.789062 -5.515625 12.625 -5.265625 C 12.457031 -5.023438 12.28125 -4.78125 12.09375 -4.53125 L 15.65625 -4.53125 C 15.695312 -4.675781 15.738281 -4.820312 15.78125 -4.96875 C 15.820312 -5.113281 15.851562 -5.253906 15.875 -5.390625 L 17.21875 -5.390625 C 17.1875 -5.253906 17.15625 -5.113281 17.125 -4.96875 C 17.09375 -4.820312 17.066406 -4.675781 17.046875 -4.53125 L 19.09375 -4.53125 Z M 19.09375 -3.359375 "/></g></g></g><g fill="#000000" fill-opacity="1"><g transform="translate(542.721814, 465.32501)"><g><path d="M 5.84375 -7.71875 C 5.394531 -7.71875 4.894531 -7.570312 4.34375 -7.28125 C 3.800781 -6.988281 3.304688 -6.507812 2.859375 -5.84375 C 2.960938 -4.332031 3.28125 -3.171875 3.8125 -2.359375 C 4.351562 -1.554688 5.082031 -1.15625 6 -1.15625 C 6.707031 -1.15625 7.300781 -1.460938 7.78125 -2.078125 C 8.257812 -2.691406 8.5 -3.492188 8.5 -4.484375 C 8.5 -5.472656 8.28125 -6.257812 7.84375 -6.84375 C 7.40625 -7.425781 6.738281 -7.71875 5.84375 -7.71875 Z M 6 0.265625 C 5.070312 0.265625 4.238281 -0.00390625 3.5 -0.546875 C 2.757812 -1.085938 2.175781 -1.890625 1.75 -2.953125 C 1.332031 -4.023438 1.125 -5.367188 1.125 -6.984375 C 1.125 -8.421875 1.269531 -9.640625 1.5625 -10.640625 C 1.851562 -11.648438 2.25 -12.46875 2.75 -13.09375 C 3.257812 -13.71875 3.835938 -14.175781 4.484375 -14.46875 C 5.140625 -14.757812 5.820312 -14.90625 6.53125 -14.90625 C 7.28125 -14.90625 7.9375 -14.757812 8.5 -14.46875 C 9.0625 -14.1875 9.539062 -13.832031 9.9375 -13.40625 L 8.9375 -12.265625 C 8.644531 -12.617188 8.289062 -12.894531 7.875 -13.09375 C 7.46875 -13.289062 7.035156 -13.390625 6.578125 -13.390625 C 5.921875 -13.390625 5.3125 -13.195312 4.75 -12.8125 C 4.1875 -12.4375 3.726562 -11.800781 3.375 -10.90625 C 3.03125 -10.019531 2.84375 -8.816406 2.8125 -7.296875 C 3.257812 -7.847656 3.78125 -8.28125 4.375 -8.59375 C 4.976562 -8.914062 5.566406 -9.078125 6.140625 -9.078125 C 7.378906 -9.078125 8.363281 -8.691406 9.09375 -7.921875 C 9.832031 -7.160156 10.203125 -6.015625 10.203125 -4.484375 C 10.203125 -3.546875 10.003906 -2.71875 9.609375 -2 C 9.222656 -1.289062 8.710938 -0.734375 8.078125 -0.328125 C 7.453125 0.0664062 6.757812 0.265625 6 0.265625 Z M 6 0.265625 "/></g></g></g><g fill="#000000" fill-opacity="1"><g transform="translate(553.792586, 465.32501)"><g><path d="M 1.75 0 L 1.75 -1.515625 L 5.015625 -1.515625 L 5.015625 -12.4375 L 2.421875 -12.4375 L 2.421875 -13.59375 C 3.066406 -13.707031 3.628906 -13.847656 4.109375 -14.015625 C 4.597656 -14.191406 5.046875 -14.398438 5.453125 -14.640625 L 6.84375 -14.640625 L 6.84375 -1.515625 L 9.78125 -1.515625 L 9.78125 0 Z M 1.75 0 "/></g></g></g><g fill="#000000" fill-opacity="1"><g transform="translate(564.863358, 465.32501)"><g><path d="M 5.546875 0.265625 C 4.148438 0.265625 3.039062 -0.367188 2.21875 -1.640625 C 1.394531 -2.910156 0.984375 -4.816406 0.984375 -7.359375 C 0.984375 -9.898438 1.394531 -11.789062 2.21875 -13.03125 C 3.039062 -14.28125 4.148438 -14.90625 5.546875 -14.90625 C 6.929688 -14.90625 8.035156 -14.28125 8.859375 -13.03125 C 9.679688 -11.789062 10.09375 -9.898438 10.09375 -7.359375 C 10.09375 -4.816406 9.679688 -2.910156 8.859375 -1.640625 C 8.035156 -0.367188 6.929688 0.265625 5.546875 0.265625 Z M 5.546875 -1.203125 C 6.367188 -1.203125 7.035156 -1.6875 7.546875 -2.65625 C 8.066406 -3.632812 8.328125 -5.203125 8.328125 -7.359375 C 8.328125 -9.503906 8.066406 -11.054688 7.546875 -12.015625 C 7.035156 -12.972656 6.367188 -13.453125 5.546875 -13.453125 C 4.710938 -13.453125 4.035156 -12.972656 3.515625 -12.015625 C 3.003906 -11.054688 2.75 -9.503906 2.75 -7.359375 C 2.75 -5.203125 3.003906 -3.632812 3.515625 -2.65625 C 4.035156 -1.6875 4.710938 -1.203125 5.546875 -1.203125 Z M 5.546875 -1.203125 "/></g></g></g><g fill="#000000" fill-opacity="1"><g transform="translate(575.93413, 465.32501)"><g><path d="M 17.0625 -15.125 L 17.0625 -13.703125 L 3.015625 -13.703125 L 3.015625 -15.125 Z M 14.0625 -0.234375 L 16.640625 -0.234375 C 16.910156 -0.234375 17.109375 -0.320312 17.234375 -0.5 C 17.367188 -0.675781 17.46875 -1.019531 17.53125 -1.53125 C 17.59375 -2.039062 17.632812 -2.800781 17.65625 -3.8125 C 17.832031 -3.675781 18.054688 -3.546875 18.328125 -3.421875 C 18.597656 -3.304688 18.832031 -3.21875 19.03125 -3.15625 C 18.976562 -2.019531 18.878906 -1.140625 18.734375 -0.515625 C 18.597656 0.109375 18.378906 0.546875 18.078125 0.796875 C 17.773438 1.046875 17.328125 1.171875 16.734375 1.171875 L 13.890625 1.171875 C 12.992188 1.171875 12.390625 1.015625 12.078125 0.703125 C 11.773438 0.390625 11.625 -0.1875 11.625 -1.03125 L 11.625 -8.140625 L 7.90625 -8.140625 C 7.8125 -7.078125 7.660156 -6.0625 7.453125 -5.09375 C 7.242188 -4.132812 6.929688 -3.242188 6.515625 -2.421875 C 6.097656 -1.609375 5.519531 -0.867188 4.78125 -0.203125 C 4.050781 0.453125 3.113281 1.007812 1.96875 1.46875 C 1.875 1.289062 1.738281 1.085938 1.5625 0.859375 C 1.382812 0.628906 1.207031 0.445312 1.03125 0.3125 C 2.101562 -0.0820312 2.96875 -0.570312 3.625 -1.15625 C 4.28125 -1.738281 4.789062 -2.390625 5.15625 -3.109375 C 5.519531 -3.835938 5.785156 -4.625 5.953125 -5.46875 C 6.117188 -6.320312 6.242188 -7.210938 6.328125 -8.140625 L 1.28125 -8.140625 L 1.28125 -9.578125 L 18.734375 -9.578125 L 18.734375 -8.140625 L 13.125 -8.140625 L 13.125 -1.0625 C 13.125 -0.726562 13.179688 -0.503906 13.296875 -0.390625 C 13.421875 -0.285156 13.675781 -0.234375 14.0625 -0.234375 Z M 14.0625 -0.234375 "/></g></g></g><g clip-path="url(#5b2eef683b)"><path fill="#000000" d="M 399.109375 88.871094 L 399.109375 156.746094 M 624.890625 88.871094 L 624.890625 156.746094 M 398.1875 87.949219 L 625.8125 87.949219 M 398.1875 157.667969 L 625.8125 157.667969 M 399.109375 162.039062 L 399.109375 222.824219 M 510.273438 162.039062 L 510.273438 222.824219 M 398.1875 161.117188 L 511.195312 161.117188 M 398.1875 223.742188 L 511.195312 223.742188 M 513.726562 162.039062 L 513.726562 222.824219 M 624.890625 162.039062 L 624.890625 222.824219 M 512.804688 161.117188 L 625.8125 161.117188 M 512.804688 223.742188 L 625.8125 223.742188 M 399.109375 228.113281 L 399.109375 288.898438 M 510.273438 228.113281 L 510.273438 288.898438 M 398.1875 227.191406 L 511.195312 227.191406 M 398.1875 289.820312 L 511.195312 289.820312 M 513.726562 228.113281 L 513.726562 288.898438 M 624.890625 228.113281 L 624.890625 288.898438 M 512.804688 227.191406 L 625.8125 227.191406 M 512.804688 289.820312 L 625.8125 289.820312 M 399.109375 294.191406 L 399.109375 354.976562 M 510.273438 294.191406 L 510.273438 354.976562 M 398.1875 293.269531 L 511.195312 293.269531 M 398.1875 355.898438 L 511.195312 355.898438 M 513.726562 294.191406 L 513.726562 354.976562 M 624.890625 294.191406 L 624.890625 354.976562 M 512.804688 293.269531 L 625.8125 293.269531 M 512.804688 355.898438 L 625.8125 355.898438 M 399.109375 360.265625 L 399.109375 421.054688 M 510.273438 360.265625 L 510.273438 421.054688 M 398.1875 359.347656 L 511.195312 359.347656 M 398.1875 421.972656 L 511.195312 421.972656 M 513.726562 360.265625 L 513.726562 421.054688 M 624.890625 360.265625 L 624.890625 421.054688 M 512.804688 359.347656 L 625.8125 359.347656 M 512.804688 421.972656 L 625.8125 421.972656 M 399.109375 426.34375 L 399.109375 487.128906 M 510.273438 426.34375 L 510.273438 487.128906 M 398.1875 425.421875 L 511.195312 425.421875 M 398.1875 488.050781 L 511.195312 488.050781 M 513.726562 426.34375 L 513.726562 487.128906 M 624.890625 426.34375 L 624.890625 487.128906 M 512.804688 425.421875 L 625.8125 425.421875 M 512.804688 488.050781 L 625.8125 488.050781 " fill-opacity="1" fill-rule="nonzero"/></g><g clip-path="url(#5436853d9d)"><path stroke-linecap="butt" transform="matrix(0.749634, 0, 0, 0.749634, 398.187809, 87.028725)" fill="none" stroke-linejoin="miter" d="M 1.229354 2.457691 L 1.229354 93.001863 M 302.417955 2.457691 L 302.417955 93.001863 M -0.000412266 1.227925 L 303.647721 1.227925 M -0.000412266 94.231629 L 303.647721 94.231629 M 1.229354 100.062599 L 1.229354 181.149032 M 149.520448 100.062599 L 149.520448 181.149032 M -0.000412266 98.832832 L 150.750214 98.832832 M -0.000412266 182.373588 L 150.750214 182.373588 M 154.126862 100.062599 L 154.126862 181.149032 M 302.417955 100.062599 L 302.417955 181.149032 M 152.897095 98.832832 L 303.647721 98.832832 M 152.897095 182.373588 L 303.647721 182.373588 M 1.229354 188.204557 L 1.229354 269.29099 M 149.520448 188.204557 L 149.520448 269.29099 M -0.000412266 186.974791 L 150.750214 186.974791 M -0.000412266 270.520756 L 150.750214 270.520756 M 154.126862 188.204557 L 154.126862 269.29099 M 302.417955 188.204557 L 302.417955 269.29099 M 152.897095 186.974791 L 303.647721 186.974791 M 152.897095 270.520756 L 303.647721 270.520756 M 1.229354 276.351726 L 1.229354 357.438159 M 149.520448 276.351726 L 149.520448 357.438159 M -0.000412266 275.12196 L 150.750214 275.12196 M -0.000412266 358.667925 L 150.750214 358.667925 M 154.126862 276.351726 L 154.126862 357.438159 M 302.417955 276.351726 L 302.417955 357.438159 M 152.897095 275.12196 L 303.647721 275.12196 M 152.897095 358.667925 L 303.647721 358.667925 M 1.229354 364.493684 L 1.229354 445.585328 M 149.520448 364.493684 L 149.520448 445.585328 M -0.000412266 363.269128 L 150.750214 363.269128 M -0.000412266 446.809884 L 150.750214 446.809884 M 154.126862 364.493684 L 154.126862 445.585328 M 302.417955 364.493684 L 302.417955 445.585328 M 152.897095 363.269128 L 303.647721 363.269128 M 152.897095 446.809884 L 303.647721 446.809884 M 1.229354 452.640853 L 1.229354 533.727286 M 149.520448 452.640853 L 149.520448 533.727286 M -0.000412266 451.411087 L 150.750214 451.411087 M -0.000412266 534.957052 L 150.750214 534.957052 M 154.126862 452.640853 L 154.126862 533.727286 M 302.417955 452.640853 L 302.417955 533.727286 M 152.897095 451.411087 L 303.647721 451.411087 M 152.897095 534.957052 L 303.647721 534.957052 " stroke="#000000" stroke-width="2.456483" stroke-opacity="1" stroke-miterlimit="4"/></g></svg>